<svg width="720" height="175" viewBox="0 0 720 175" fill="none" xmlns="http://www.w3.org/2000/svg">
<path d="M477.198 174.04C436.245 173.827 403.022 135.212 403.022 87.5019C403.022 39.7919 436.245 1.17714 477.198 0.963379V1.06683V2.38385V7.44516V26.063V87.5019V148.941V167.559V172.62V173.937V174.04Z" stroke="black"/>
<path d="M328.846 0.963379C369.799 1.17714 403.022 39.7919 403.022 87.5019C403.022 135.212 369.799 173.827 328.846 174.04V173.937V172.62V167.559V148.941V87.5019V26.0699V7.45202V2.39075V1.07369V0.963379Z" stroke="black"/>
<path d="M43.4512 87.0564C67.1756 87.0564 86.408 67.824 86.408 44.0996C86.408 20.3752 67.1756 1.14282 43.4512 1.14282C19.7268 1.14282 0.494385 20.3752 0.494385 44.0996C0.494385 67.824 19.7268 87.0564 43.4512 87.0564Z" stroke="black"/>
<path d="M43.4512 173.667C67.1756 173.667 86.408 154.435 86.408 130.71C86.408 106.986 67.1756 87.7537 43.4512 87.7537C19.7268 87.7537 0.494385 106.986 0.494385 130.71C0.494385 154.435 19.7268 173.667 43.4512 173.667Z" stroke="black"/>
<path d="M86.7669 1.14282V174.378M0.494385 174.378V1.14282" stroke="black"/>
<path d="M86.2905 174.378L207.893 1.39819L329.496 174.378" stroke="black"/>
<path d="M478.112 88.4572L598.694 1.61182L719.275 88.4572H478.112Z" stroke="black"/>
<path d="M478.187 174.04L598.348 87.9963L718.516 174.04" stroke="black"/>
<path d="M207.363 1.75V174.012" stroke="black"/>
<path d="M0.494385 174.04V0.963379H719.506V174.04" stroke="black"/>
<path d="M720 174.04H-6.10352e-05" stroke="black"/>
</svg>
