<svg width="107" height="277" viewBox="0 0 107 277" fill="none" xmlns="http://www.w3.org/2000/svg">
<path d="M1.33643 277C1.41763 266.376 7.25538 256.748 16.6887 249.751C26.1897 242.704 39.3224 238.342 53.8401 238.342C68.3578 238.342 81.4905 242.709 90.9915 249.751C100.425 256.748 106.263 266.376 106.344 277L106.299 277L105.5 277L102.428 277L91.1268 277L53.8401 277L16.5534 277L5.25232 277L2.18006 277L1.38154 277L1.33643 277Z" stroke="black" stroke-width="2"/>
<path d="M106.339 200.094C106.258 210.718 100.42 220.345 90.9866 227.343C81.4856 234.389 68.3529 238.752 53.8352 238.752C39.3175 238.752 26.1848 234.385 16.6838 227.343C7.2505 220.345 1.41275 210.714 1.33154 200.094L1.37666 200.094L2.17517 200.094L5.24744 200.094L16.5485 200.094L53.8352 200.094L91.1219 200.094L102.423 200.094L105.495 200.094L106.294 200.094L106.339 200.094Z" stroke="black" stroke-width="2"/>
<path d="M106.339 26.3285C106.339 11.8923 94.6363 0.189432 80.2001 0.189433C65.7639 0.189434 54.061 11.8923 54.061 26.3285C54.061 40.7647 65.7639 52.4675 80.2001 52.4675C94.6363 52.4675 106.339 40.7646 106.339 26.3285Z" stroke="black" stroke-width="2"/>
<path d="M53.6096 26.3285C53.6096 11.8923 41.9068 0.189432 27.4706 0.189433C13.0344 0.189434 1.33154 11.8923 1.33154 26.3285C1.33154 40.7647 13.0344 52.4675 27.4706 52.4675C41.9068 52.4675 53.6096 40.7646 53.6096 26.3285Z" stroke="black" stroke-width="2"/>
<path d="M1.33154 52.8875L106.172 126.59L1.33154 200.302" stroke="black" stroke-width="2"/>
<path d="M106.172 126.594L1.29541 126.594" stroke="black" stroke-width="2"/>
<path d="M1.22363 277L1.22362 6.65784e-05L106.339 6.19836e-05L106.339 277" stroke="black" stroke-width="2"/>
<path d="M1.33154 52.7112L106.339 52.7112" stroke="black" stroke-width="2"/>
</svg>
