<svg width="424" height="24" viewBox="0 0 424 24" fill="none" xmlns="http://www.w3.org/2000/svg">
<path d="M-2.88477e-07 4.576L-2.61918e-07 0.287998L64 0.288003L64 4.576L-2.88477e-07 4.576ZM81.1875 4.57601L81.1875 0.288004L145.187 0.288009L145.187 4.57601L81.1875 4.57601ZM162.375 23.968L162.375 20L194.375 20L194.375 23.968L162.375 23.968ZM228.75 4.57602L228.75 0.288015L292.75 0.288019L292.75 4.57602L228.75 4.57602ZM309.937 4.57602L309.937 0.288021L373.937 0.288025L373.937 4.57603L309.937 4.57602ZM391.125 23.968L391.125 20L423.125 20L423.125 23.968L391.125 23.968Z" fill="black"/>
</svg>
