<svg width="324" height="281" viewBox="0 0 324 281" fill="none" xmlns="http://www.w3.org/2000/svg">
<rect x="0.84375" y="0.5" width="322" height="280" fill="white"/>
<path d="M145.014 35.668C145.782 35.356 146.298 34.72 146.298 33.76C146.298 32.392 145.218 31.6 143.346 31.6H139.722V40H143.586C145.686 40 146.742 39.184 146.742 37.756C146.742 36.616 146.094 35.908 145.014 35.668ZM143.286 32.332C144.63 32.332 145.41 32.848 145.41 33.856C145.41 34.864 144.63 35.38 143.286 35.38H140.61V32.332H143.286ZM143.574 39.268H140.61V36.112H143.574C145.05 36.112 145.854 36.592 145.854 37.684C145.854 38.788 145.05 39.268 143.574 39.268ZM150.796 33.64C149.8 33.64 148.864 33.952 148.228 34.492L148.612 35.128C149.128 34.672 149.896 34.384 150.712 34.384C151.888 34.384 152.5 34.972 152.5 36.052V36.436H150.496C148.684 36.436 148.06 37.252 148.06 38.224C148.06 39.316 148.936 40.06 150.364 40.06C151.408 40.06 152.152 39.664 152.536 39.016V40H153.352V36.088C153.352 34.456 152.428 33.64 150.796 33.64ZM150.496 39.388C149.488 39.388 148.9 38.932 148.9 38.2C148.9 37.552 149.296 37.072 150.52 37.072H152.5V38.104C152.164 38.932 151.456 39.388 150.496 39.388ZM157.359 40.06C159.003 40.06 159.963 39.352 159.963 38.26C159.963 35.836 155.871 37.12 155.871 35.416C155.871 34.816 156.375 34.372 157.515 34.372C158.163 34.372 158.823 34.528 159.375 34.912L159.747 34.228C159.219 33.868 158.331 33.64 157.515 33.64C155.907 33.64 155.019 34.408 155.019 35.44C155.019 37.936 159.111 36.64 159.111 38.284C159.111 38.908 158.619 39.316 157.419 39.316C156.531 39.316 155.679 39.004 155.175 38.608L154.791 39.28C155.307 39.724 156.315 40.06 157.359 40.06ZM161.97 32.308C162.33 32.308 162.594 32.032 162.594 31.684C162.594 31.36 162.318 31.096 161.97 31.096C161.622 31.096 161.346 31.372 161.346 31.696C161.346 32.032 161.622 32.308 161.97 32.308ZM161.538 40H162.39V33.688H161.538V40ZM167.376 40.06C168.444 40.06 169.344 39.628 169.848 38.812L169.212 38.38C168.78 39.016 168.108 39.304 167.376 39.304C165.996 39.304 164.988 38.332 164.988 36.844C164.988 35.368 165.996 34.384 167.376 34.384C168.108 34.384 168.78 34.684 169.212 35.32L169.848 34.888C169.344 34.06 168.444 33.64 167.376 33.64C165.492 33.64 164.124 34.96 164.124 36.844C164.124 38.728 165.492 40.06 167.376 40.06Z" fill="black"/>
<path d="M245.365 40H246.301L242.461 31.6H241.585L237.745 40H238.669L239.677 37.756H244.357L245.365 40ZM240.001 37.036L242.017 32.524L244.033 37.036H240.001ZM252.36 31.096V34.888C251.832 34.072 250.968 33.64 249.96 33.64C248.16 33.64 246.816 34.936 246.816 36.844C246.816 38.752 248.16 40.06 249.96 40.06C251.004 40.06 251.88 39.604 252.396 38.752V40H253.212V31.096H252.36ZM250.032 39.304C248.688 39.304 247.68 38.32 247.68 36.844C247.68 35.368 248.688 34.384 250.032 34.384C251.364 34.384 252.372 35.368 252.372 36.844C252.372 38.32 251.364 39.304 250.032 39.304ZM260.048 33.688L257.66 39.064L255.296 33.688H254.408L257.204 40H258.08L260.888 33.688H260.048ZM264.109 33.64C263.113 33.64 262.177 33.952 261.541 34.492L261.925 35.128C262.441 34.672 263.209 34.384 264.025 34.384C265.201 34.384 265.813 34.972 265.813 36.052V36.436H263.809C261.997 36.436 261.373 37.252 261.373 38.224C261.373 39.316 262.249 40.06 263.677 40.06C264.721 40.06 265.465 39.664 265.849 39.016V40H266.665V36.088C266.665 34.456 265.741 33.64 264.109 33.64ZM263.809 39.388C262.801 39.388 262.213 38.932 262.213 38.2C262.213 37.552 262.609 37.072 263.833 37.072H265.813V38.104C265.477 38.932 264.769 39.388 263.809 39.388ZM272.195 33.64C271.103 33.64 270.251 34.084 269.795 34.852V33.688H268.979V40H269.831V36.688C269.831 35.248 270.683 34.408 272.039 34.408C273.239 34.408 273.935 35.092 273.935 36.424V40H274.787V36.34C274.787 34.528 273.731 33.64 272.195 33.64ZM279.74 40.06C280.808 40.06 281.708 39.628 282.212 38.812L281.576 38.38C281.144 39.016 280.472 39.304 279.74 39.304C278.36 39.304 277.352 38.332 277.352 36.844C277.352 35.368 278.36 34.384 279.74 34.384C280.472 34.384 281.144 34.684 281.576 35.32L282.212 34.888C281.708 34.06 280.808 33.64 279.74 33.64C277.856 33.64 276.488 34.96 276.488 36.844C276.488 38.728 277.856 40.06 279.74 40.06ZM289.288 36.844C289.288 34.948 288.004 33.64 286.228 33.64C284.452 33.64 283.144 34.972 283.144 36.844C283.144 38.716 284.488 40.06 286.456 40.06C287.452 40.06 288.328 39.7 288.892 39.028L288.412 38.476C287.932 39.028 287.248 39.304 286.48 39.304C285.1 39.304 284.092 38.428 283.996 37.108H289.276C289.276 37.012 289.288 36.916 289.288 36.844ZM286.228 34.372C287.464 34.372 288.364 35.236 288.472 36.472H283.996C284.104 35.236 285.004 34.372 286.228 34.372ZM295.93 31.096V34.888C295.402 34.072 294.538 33.64 293.53 33.64C291.73 33.64 290.386 34.936 290.386 36.844C290.386 38.752 291.73 40.06 293.53 40.06C294.574 40.06 295.45 39.604 295.966 38.752V40H296.782V31.096H295.93ZM293.602 39.304C292.258 39.304 291.25 38.32 291.25 36.844C291.25 35.368 292.258 34.384 293.602 34.384C294.934 34.384 295.942 35.368 295.942 36.844C295.942 38.32 294.934 39.304 293.602 39.304Z" fill="black"/>
<path d="M10.5838 98.06C11.6138 98.06 12.5338 97.71 13.1538 97.03L12.6838 96.56C12.1138 97.15 11.4138 97.4 10.6138 97.4C8.92375 97.4 7.65375 96.16 7.65375 94.5C7.65375 92.84 8.92375 91.6 10.6138 91.6C11.4138 91.6 12.1138 91.85 12.6838 92.43L13.1538 91.96C12.5338 91.28 11.6138 90.94 10.5938 90.94C8.48375 90.94 6.92375 92.45 6.92375 94.5C6.92375 96.55 8.48375 98.06 10.5838 98.06ZM18.0655 92.74H13.3755V93.37H15.3655V98H16.0755V93.37H18.0655V92.74ZM21.0179 98.05C22.5579 98.05 23.6879 96.93 23.6879 95.37C23.6879 93.81 22.5579 92.7 21.0179 92.7C19.4779 92.7 18.3379 93.81 18.3379 95.37C18.3379 96.93 19.4779 98.05 21.0179 98.05ZM21.0179 97.42C19.8979 97.42 19.0579 96.6 19.0579 95.37C19.0579 94.14 19.8979 93.32 21.0179 93.32C22.1379 93.32 22.9679 94.14 22.9679 95.37C22.9679 96.6 22.1379 97.42 21.0179 97.42ZM25.2053 98H25.8453L29.3453 93.82V98H30.0553V92.74H29.4253L25.9153 96.92V92.74H25.2053V98ZM37.3101 92.74L35.0401 96.53L32.8101 92.74H32.0901V98H32.7401V93.83L34.8701 97.36H35.1901L37.3201 93.84V98H37.9701V92.74H37.3101ZM42.1605 98.05C43.7005 98.05 44.8305 96.93 44.8305 95.37C44.8305 93.81 43.7005 92.7 42.1605 92.7C40.6205 92.7 39.4805 93.81 39.4805 95.37C39.4805 96.93 40.6205 98.05 42.1605 98.05ZM42.1605 97.42C41.0405 97.42 40.2005 96.6 40.2005 95.37C40.2005 94.14 41.0405 93.32 42.1605 93.32C43.2805 93.32 44.1105 94.14 44.1105 95.37C44.1105 96.6 43.2805 97.42 42.1605 97.42ZM48.5479 98.05C49.4379 98.05 50.1879 97.69 50.6079 97.01L50.0779 96.65C49.7179 97.18 49.1579 97.42 48.5479 97.42C47.3979 97.42 46.5579 96.61 46.5579 95.37C46.5579 94.14 47.3979 93.32 48.5479 93.32C49.1579 93.32 49.7179 93.57 50.0779 94.1L50.6079 93.74C50.1879 93.05 49.4379 92.7 48.5479 92.7C46.9779 92.7 45.8379 93.8 45.8379 95.37C45.8379 96.94 46.9779 98.05 48.5479 98.05ZM55.585 92.74H50.895V93.37H52.885V98H53.595V93.37H55.585V92.74ZM58.8716 94.6L57.3216 94.58V92.74H56.6116V98L58.7316 98.01C60.1316 98.03 60.8916 97.4 60.8916 96.28C60.8916 95.2 60.1916 94.61 58.8716 94.6ZM58.6916 97.47L57.3216 97.45V95.11L58.6916 95.13C59.6716 95.14 60.1716 95.5 60.1716 96.28C60.1716 97.07 59.6616 97.48 58.6916 97.47ZM67.6535 91H65.0335V98H65.7735V95.79H67.6535C69.4335 95.79 70.5135 94.89 70.5135 93.4C70.5135 91.9 69.4335 91 67.6535 91ZM67.6335 95.14H65.7735V91.64H67.6335C69.0335 91.64 69.7735 92.28 69.7735 93.4C69.7735 94.5 69.0335 95.14 67.6335 95.14ZM76.6392 91L74.1392 95.74L71.6992 91H70.9092L73.7492 96.39L73.5492 96.73C73.2292 97.27 72.8392 97.48 72.4192 97.48C72.2092 97.48 71.9892 97.43 71.7592 97.34L71.5492 97.94C71.8392 98.06 72.1292 98.13 72.4092 98.13C73.0992 98.13 73.7392 97.75 74.1992 96.89L77.3792 91H76.6392ZM78.5296 98H81.3896C83.1196 98 84.0796 97.26 84.0796 95.91C84.0796 94.61 83.1996 93.92 81.5496 93.92H79.2596V91.63H83.6496V91H78.5296V98ZM79.2596 97.41V94.51H81.3796C82.6896 94.51 83.3396 94.97 83.3396 95.94C83.3396 96.91 82.6696 97.41 81.3796 97.41H79.2596ZM85.6852 96.96C85.3852 96.96 85.1552 97.19 85.1552 97.5C85.1552 97.76 85.3052 97.95 85.5152 98.01L85.1752 99.46H85.6552L86.0752 98.08C86.1752 97.8 86.2152 97.67 86.2152 97.5C86.2152 97.2 85.9952 96.96 85.6852 96.96ZM12.6438 103V106.12H8.26375V103H7.52375V110H8.26375V106.77H12.6438V110H13.3738V103H12.6438ZM21.0092 109.36V103H16.2892L16.2092 105.27C16.1392 107.5 15.9192 109.3 14.9192 109.36H14.5692L14.5592 111.57H15.2492L15.2592 110H21.3692V111.57H22.0592V109.36H21.0092ZM16.8692 105.34L16.9292 103.64H20.2792V109.36H15.9692C16.6392 108.85 16.8092 107.16 16.8692 105.34ZM26.6287 110.06C27.6587 110.06 28.5787 109.71 29.1987 109.03L28.7287 108.56C28.1587 109.15 27.4587 109.4 26.6587 109.4C24.9687 109.4 23.6987 108.16 23.6987 106.5C23.6987 104.84 24.9687 103.6 26.6587 103.6C27.4587 103.6 28.1587 103.85 28.7287 104.43L29.1987 103.96C28.5787 103.28 27.6587 102.94 26.6387 102.94C24.5287 102.94 22.9687 104.45 22.9687 106.5C22.9687 108.55 24.5287 110.06 26.6287 110.06ZM33.1741 110H33.8841V107.68H37.1941V110H37.9041V104.74H37.1941V107.07H33.8841V104.74H33.1741V110ZM44.5321 107.37C44.5321 105.79 43.4621 104.7 41.9821 104.7C40.5021 104.7 39.4121 105.81 39.4121 107.37C39.4121 108.93 40.5321 110.05 42.1721 110.05C43.0021 110.05 43.7321 109.75 44.2021 109.19L43.8021 108.73C43.4021 109.19 42.8321 109.42 42.1921 109.42C41.0421 109.42 40.2021 108.69 40.1221 107.59H44.5221C44.5221 107.51 44.5321 107.43 44.5321 107.37ZM41.9821 105.31C43.0121 105.31 43.7621 106.03 43.8521 107.06H40.1221C40.2121 106.03 40.9621 105.31 41.9821 105.31ZM52.0709 107.28C52.6209 107.08 52.9609 106.68 52.9609 106.09C52.9609 105.22 52.2309 104.74 51.0409 104.74H48.7209V110H51.1109C52.4809 110 53.1409 109.48 53.1409 108.57C53.1409 107.88 52.8009 107.45 52.0709 107.28ZM49.4109 105.3H50.9909C51.8009 105.3 52.2509 105.59 52.2509 106.18C52.2509 106.77 51.8009 107.08 50.9909 107.08H49.4109V105.3ZM51.0809 109.44H49.4109V107.61H51.1509C52.0409 107.61 52.4409 107.9 52.4409 108.53C52.4409 109.16 51.9709 109.44 51.0809 109.44ZM58.6549 110H59.4949L57.2749 107.29L59.3449 104.74H58.5749L56.7249 107.05H55.5149V104.74H54.8049V110H55.5149V107.66H56.7149L58.6549 110ZM61.0655 104.74L60.9755 106.62C60.9055 108.01 60.8255 109.42 59.9555 109.42C59.8855 109.42 59.7955 109.4 59.7055 109.38L59.6555 109.99C59.8455 110.04 60.0055 110.07 60.1655 110.07C61.2955 110.07 61.5255 108.51 61.6155 106.67L61.6855 105.37H64.2055V110H64.9155V104.74H61.0655ZM71.4538 104.7C70.0638 104.7 69.0138 105.63 68.8538 107.01H67.6438V104.74H66.9338V110H67.6438V107.66H68.8438C68.9738 109.07 70.0438 110.05 71.4538 110.05C72.9538 110.05 74.0638 108.93 74.0638 107.37C74.0638 105.8 72.9538 104.7 71.4538 104.7ZM71.4538 109.43C70.3638 109.43 69.5438 108.6 69.5438 107.37C69.5438 106.14 70.3638 105.32 71.4538 105.32C72.5338 105.32 73.3638 106.14 73.3638 107.37C73.3638 108.6 72.5338 109.43 71.4538 109.43ZM78.8462 104.74V107.24C78.2562 107.49 77.6962 107.63 77.1862 107.63C76.3062 107.63 75.7562 107.23 75.7562 106.43V104.74H75.0462V106.47C75.0462 107.66 75.8262 108.21 77.0562 108.21C77.6462 108.21 78.2562 108.07 78.8462 107.81V110H79.5562V104.74H78.8462ZM86.1825 107.37C86.1825 105.79 85.1125 104.7 83.6325 104.7C82.1525 104.7 81.0625 105.81 81.0625 107.37C81.0625 108.93 82.1825 110.05 83.8225 110.05C84.6525 110.05 85.3825 109.75 85.8525 109.19L85.4525 108.73C85.0525 109.19 84.4825 109.42 83.8425 109.42C82.6925 109.42 81.8525 108.69 81.7725 107.59H86.1725C86.1725 107.51 86.1825 107.43 86.1825 107.37ZM83.6325 105.31C84.6625 105.31 85.4125 106.03 85.5025 107.06H81.7725C81.8625 106.03 82.6125 105.31 83.6325 105.31ZM87.7541 110H88.4641V107.68H91.7741V110H92.4841V104.74H91.7741V107.07H88.4641V104.74H87.7541V110Z" fill="black"/>
<path d="M118.497 104.24L121.489 101.392C123.041 99.936 123.345 98.944 123.345 97.856C123.345 95.872 121.777 94.64 119.345 94.64C117.505 94.64 115.953 95.328 115.089 96.496L116.545 97.616C117.169 96.816 118.081 96.448 119.169 96.448C120.545 96.448 121.249 97.04 121.249 98.064C121.249 98.688 121.057 99.344 119.969 100.384L115.521 104.608V106H123.777V104.24H118.497ZM124.401 94.8V96.544H126.769V106H128.849V94.8H124.401ZM134.847 94.64C132.559 94.64 130.751 96.048 130.751 98.272C130.751 100.368 132.399 101.712 134.607 101.712C135.855 101.712 136.927 101.328 137.599 100.544V100.56C137.599 103.104 136.271 104.416 134.159 104.416C133.375 104.416 132.639 104.272 132.031 103.872L131.263 105.44C132.015 105.92 133.087 106.16 134.207 106.16C137.455 106.16 139.695 104.048 139.695 100.208C139.695 96.608 137.903 94.64 134.847 94.64ZM135.007 100.08C133.647 100.08 132.767 99.344 132.767 98.176C132.767 97.008 133.663 96.272 134.959 96.272C136.447 96.272 137.279 97.104 137.279 98.16C137.279 99.264 136.351 100.08 135.007 100.08ZM150.196 106.16C152.868 106.16 154.884 104.08 154.884 100.4C154.884 96.72 152.868 94.64 150.196 94.64C147.54 94.64 145.524 96.72 145.524 100.4C145.524 104.08 147.54 106.16 150.196 106.16ZM150.196 104.352C148.676 104.352 147.62 103.104 147.62 100.4C147.62 97.696 148.676 96.448 150.196 96.448C151.732 96.448 152.788 97.696 152.788 100.4C152.788 103.104 151.732 104.352 150.196 104.352ZM160.962 106.16C163.634 106.16 165.65 104.08 165.65 100.4C165.65 96.72 163.634 94.64 160.962 94.64C158.306 94.64 156.29 96.72 156.29 100.4C156.29 104.08 158.306 106.16 160.962 106.16ZM160.962 104.352C159.442 104.352 158.386 103.104 158.386 100.4C158.386 97.696 159.442 96.448 160.962 96.448C162.498 96.448 163.554 97.696 163.554 100.4C163.554 103.104 162.498 104.352 160.962 104.352ZM171.728 106.16C174.4 106.16 176.416 104.08 176.416 100.4C176.416 96.72 174.4 94.64 171.728 94.64C169.072 94.64 167.056 96.72 167.056 100.4C167.056 104.08 169.072 106.16 171.728 106.16ZM171.728 104.352C170.208 104.352 169.152 103.104 169.152 100.4C169.152 97.696 170.208 96.448 171.728 96.448C173.264 96.448 174.32 97.696 174.32 100.4C174.32 103.104 173.264 104.352 171.728 104.352ZM188.227 102.304C191.171 102.304 192.979 101.024 192.979 98.56C192.979 96.08 191.171 94.8 188.227 94.8H183.619V103.216H182.019V104.336H183.619V106H185.699V104.336H189.219V103.216H185.699V102.304H188.227ZM190.883 98.576C190.883 99.872 189.923 100.624 188.211 100.624H185.699V96.56H188.211C189.923 96.56 190.883 97.264 190.883 98.576Z" fill="black"/>
<path d="M231.589 99.424L234.309 96.192V94.8H226.677V96.544H231.765L229.221 99.568V100.992H230.245C231.941 100.992 232.677 101.648 232.677 102.656C232.677 103.696 231.797 104.352 230.309 104.352C229.045 104.352 227.829 103.92 227.029 103.248L226.133 104.864C227.173 105.68 228.757 106.16 230.341 106.16C233.349 106.16 234.773 104.528 234.773 102.64C234.773 100.96 233.701 99.696 231.589 99.424ZM246.118 101.696H244.134V99.44H242.182V101.696H238.518L243.718 94.8H241.494L235.974 102.016V103.456H242.118V106H244.134V103.456H246.118V101.696ZM250.691 94.64C248.403 94.64 246.595 96.048 246.595 98.272C246.595 100.368 248.243 101.712 250.451 101.712C251.699 101.712 252.771 101.328 253.443 100.544V100.56C253.443 103.104 252.115 104.416 250.003 104.416C249.219 104.416 248.483 104.272 247.875 103.872L247.107 105.44C247.859 105.92 248.931 106.16 250.051 106.16C253.299 106.16 255.539 104.048 255.539 100.208C255.539 96.608 253.747 94.64 250.691 94.64ZM250.851 100.08C249.491 100.08 248.611 99.344 248.611 98.176C248.611 97.008 249.507 96.272 250.803 96.272C252.291 96.272 253.123 97.104 253.123 98.16C253.123 99.264 252.195 100.08 250.851 100.08ZM266.04 106.16C268.712 106.16 270.728 104.08 270.728 100.4C270.728 96.72 268.712 94.64 266.04 94.64C263.384 94.64 261.368 96.72 261.368 100.4C261.368 104.08 263.384 106.16 266.04 106.16ZM266.04 104.352C264.52 104.352 263.464 103.104 263.464 100.4C263.464 97.696 264.52 96.448 266.04 96.448C267.576 96.448 268.632 97.696 268.632 100.4C268.632 103.104 267.576 104.352 266.04 104.352ZM276.806 106.16C279.478 106.16 281.494 104.08 281.494 100.4C281.494 96.72 279.478 94.64 276.806 94.64C274.15 94.64 272.134 96.72 272.134 100.4C272.134 104.08 274.15 106.16 276.806 106.16ZM276.806 104.352C275.286 104.352 274.23 103.104 274.23 100.4C274.23 97.696 275.286 96.448 276.806 96.448C278.342 96.448 279.398 97.696 279.398 100.4C279.398 103.104 278.342 104.352 276.806 104.352ZM287.571 106.16C290.243 106.16 292.259 104.08 292.259 100.4C292.259 96.72 290.243 94.64 287.571 94.64C284.915 94.64 282.899 96.72 282.899 100.4C282.899 104.08 284.915 106.16 287.571 106.16ZM287.571 104.352C286.051 104.352 284.995 103.104 284.995 100.4C284.995 97.696 286.051 96.448 287.571 96.448C289.107 96.448 290.163 97.696 290.163 100.4C290.163 103.104 289.107 104.352 287.571 104.352ZM304.071 102.304C307.015 102.304 308.823 101.024 308.823 98.56C308.823 96.08 307.015 94.8 304.071 94.8H299.463V103.216H297.863V104.336H299.463V106H301.543V104.336H305.063V103.216H301.543V102.304H304.071ZM306.727 98.576C306.727 99.872 305.767 100.624 304.055 100.624H301.543V96.56H304.055C305.767 96.56 306.727 97.264 306.727 98.576Z" fill="black"/>
<path d="M1.34375 71H322.344V69H1.34375V71Z" fill="#A8A8A8" mask="url(#path-4-inside-1_320_1496)"/>
<path d="M12.3138 152H13.1638L10.4138 148.4L13.0138 145H12.2138L9.84375 148.14H8.24375V145H7.52375V152H8.24375V148.79H9.84375L12.3138 152ZM16.2425 152.05C17.7825 152.05 18.9125 150.93 18.9125 149.37C18.9125 147.81 17.7825 146.7 16.2425 146.7C14.7025 146.7 13.5625 147.81 13.5625 149.37C13.5625 150.93 14.7025 152.05 16.2425 152.05ZM16.2425 151.42C15.1225 151.42 14.2825 150.6 14.2825 149.37C14.2825 148.14 15.1225 147.32 16.2425 147.32C17.3625 147.32 18.1925 148.14 18.1925 149.37C18.1925 150.6 17.3625 151.42 16.2425 151.42ZM20.8506 146.74L20.7606 148.62C20.6906 150.01 20.6106 151.42 19.7406 151.42C19.6706 151.42 19.5806 151.4 19.4906 151.38L19.4406 151.99C19.6306 152.04 19.7906 152.07 19.9506 152.07C21.0806 152.07 21.3106 150.51 21.4006 148.67L21.4706 147.37H23.9906V152H24.7006V146.74H20.8506ZM26.719 152H27.359L30.859 147.82V152H31.569V146.74H30.939L27.429 150.92V146.74H26.719V152ZM36.8638 146.74V149.24C36.2738 149.49 35.7138 149.63 35.2038 149.63C34.3238 149.63 33.7738 149.23 33.7738 148.43V146.74H33.0638V148.47C33.0638 149.66 33.8438 150.21 35.0738 150.21C35.6638 150.21 36.2738 150.07 36.8638 149.81V152H37.5738V146.74H36.8638ZM44.2001 149.37C44.2001 147.79 43.1301 146.7 41.6501 146.7C40.1701 146.7 39.0801 147.81 39.0801 149.37C39.0801 150.93 40.2001 152.05 41.8401 152.05C42.6701 152.05 43.4001 151.75 43.8701 151.19L43.4701 150.73C43.0701 151.19 42.5001 151.42 41.8601 151.42C40.7101 151.42 39.8701 150.69 39.7901 149.59H44.1901C44.1901 149.51 44.2001 149.43 44.2001 149.37ZM41.6501 147.31C42.6801 147.31 43.4301 148.03 43.5201 149.06H39.7901C39.8801 148.03 40.6301 147.31 41.6501 147.31ZM47.9717 152.05C48.8617 152.05 49.6117 151.69 50.0317 151.01L49.5017 150.65C49.1417 151.18 48.5817 151.42 47.9717 151.42C46.8217 151.42 45.9817 150.61 45.9817 149.37C45.9817 148.14 46.8217 147.32 47.9717 147.32C48.5817 147.32 49.1417 147.57 49.5017 148.1L50.0317 147.74C49.6117 147.05 48.8617 146.7 47.9717 146.7C46.4017 146.7 45.2617 147.8 45.2617 149.37C45.2617 150.94 46.4017 152.05 47.9717 152.05ZM55.0088 146.74H50.3188V147.37H52.3088V152H53.0188V147.37H55.0088V146.74ZM59.3854 149.28C59.9354 149.08 60.2754 148.68 60.2754 148.09C60.2754 147.22 59.5454 146.74 58.3554 146.74H56.0354V152H58.4254C59.7954 152 60.4554 151.48 60.4554 150.57C60.4554 149.88 60.1154 149.45 59.3854 149.28ZM56.7254 147.3H58.3054C59.1154 147.3 59.5654 147.59 59.5654 148.18C59.5654 148.77 59.1154 149.08 58.3054 149.08H56.7254V147.3ZM58.3954 151.44H56.7254V149.61H58.4654C59.3554 149.61 59.7554 149.9 59.7554 150.53C59.7554 151.16 59.2854 151.44 58.3954 151.44ZM64.2894 152.05C65.8294 152.05 66.9594 150.93 66.9594 149.37C66.9594 147.81 65.8294 146.7 64.2894 146.7C62.7494 146.7 61.6094 147.81 61.6094 149.37C61.6094 150.93 62.7494 152.05 64.2894 152.05ZM64.2894 151.42C63.1694 151.42 62.3294 150.6 62.3294 149.37C62.3294 148.14 63.1694 147.32 64.2894 147.32C65.4094 147.32 66.2394 148.14 66.2394 149.37C66.2394 150.6 65.4094 151.42 64.2894 151.42ZM8.74375 164.05C10.1138 164.05 10.9138 163.46 10.9138 162.55C10.9138 160.53 7.50375 161.6 7.50375 160.18C7.50375 159.68 7.92375 159.31 8.87375 159.31C9.41375 159.31 9.96375 159.44 10.4238 159.76L10.7338 159.19C10.2938 158.89 9.55375 158.7 8.87375 158.7C7.53375 158.7 6.79375 159.34 6.79375 160.2C6.79375 162.28 10.2038 161.2 10.2038 162.57C10.2038 163.09 9.79375 163.43 8.79375 163.43C8.05375 163.43 7.34375 163.17 6.92375 162.84L6.60375 163.4C7.03375 163.77 7.87375 164.05 8.74375 164.05ZM18.7863 158.7C17.8363 158.7 17.0863 159.13 16.7063 159.81C16.3863 159.07 15.7063 158.7 14.8363 158.7C13.9563 158.7 13.2763 159.07 12.9063 159.7V158.74H12.2263V164H12.9363V161.24C12.9363 160.04 13.6263 159.34 14.6963 159.34C15.6563 159.34 16.2163 159.91 16.2163 161.02V164H16.9263V161.24C16.9263 160.04 17.6063 159.34 18.6863 159.34C19.6363 159.34 20.1963 159.91 20.1963 161.02V164H20.9063V160.95C20.9063 159.44 20.0663 158.7 18.7863 158.7ZM24.6718 158.7C23.8418 158.7 23.0618 158.96 22.5318 159.41L22.8518 159.94C23.2818 159.56 23.9218 159.32 24.6018 159.32C25.5818 159.32 26.0918 159.81 26.0918 160.71V161.03H24.4218C22.9118 161.03 22.3918 161.71 22.3918 162.52C22.3918 163.43 23.1218 164.05 24.3118 164.05C25.1818 164.05 25.8018 163.72 26.1218 163.18V164H26.8018V160.74C26.8018 159.38 26.0318 158.7 24.6718 158.7ZM24.4218 163.49C23.5818 163.49 23.0918 163.11 23.0918 162.5C23.0918 161.96 23.4218 161.56 24.4418 161.56H26.0918V162.42C25.8118 163.11 25.2218 163.49 24.4218 163.49ZM29.4102 159.77V158.74H28.7302V164H29.4402V161.32C29.4402 160.08 30.1102 159.38 31.2102 159.38C31.2602 159.38 31.3202 159.39 31.3802 159.39V158.7C30.4102 158.7 29.7402 159.07 29.4102 159.77ZM35.4104 163.17C35.2104 163.35 34.9204 163.44 34.6304 163.44C34.0404 163.44 33.7204 163.1 33.7204 162.48V159.34H35.3204V158.74H33.7204V157.59H33.0104V158.74H32.0704V159.34H33.0104V162.52C33.0104 163.49 33.5604 164.05 34.5504 164.05C34.9604 164.05 35.3804 163.93 35.6604 163.68L35.4104 163.17ZM44.1601 161.37C44.1601 159.79 43.0901 158.7 41.6101 158.7C40.1301 158.7 39.0401 159.81 39.0401 161.37C39.0401 162.93 40.1601 164.05 41.8001 164.05C42.6301 164.05 43.3601 163.75 43.8301 163.19L43.4301 162.73C43.0301 163.19 42.4601 163.42 41.8201 163.42C40.6701 163.42 39.8301 162.69 39.7501 161.59H44.1501C44.1501 161.51 44.1601 161.43 44.1601 161.37ZM41.6101 159.31C42.6401 159.31 43.3901 160.03 43.4801 161.06H39.7501C39.8401 160.03 40.5901 159.31 41.6101 159.31ZM49.2276 158.74L47.2376 163.22L45.2676 158.74H44.5276L46.8576 164H47.5876L49.9276 158.74H49.2276ZM55.371 161.37C55.371 159.79 54.301 158.7 52.821 158.7C51.341 158.7 50.251 159.81 50.251 161.37C50.251 162.93 51.371 164.05 53.011 164.05C53.841 164.05 54.571 163.75 55.041 163.19L54.641 162.73C54.241 163.19 53.671 163.42 53.031 163.42C51.881 163.42 51.041 162.69 50.961 161.59H55.361C55.361 161.51 55.371 161.43 55.371 161.37ZM52.821 159.31C53.851 159.31 54.601 160.03 54.691 161.06H50.961C51.051 160.03 51.801 159.31 52.821 159.31ZM59.4962 158.7C58.5862 158.7 57.8762 159.07 57.4962 159.71V158.74H56.8162V164H57.5262V161.24C57.5262 160.04 58.2362 159.34 59.3662 159.34C60.3662 159.34 60.9462 159.91 60.9462 161.02V164H61.6562V160.95C61.6562 159.44 60.7762 158.7 59.4962 158.7ZM66.1038 163.17C65.9038 163.35 65.6138 163.44 65.3238 163.44C64.7338 163.44 64.4138 163.1 64.4138 162.48V159.34H66.0138V158.74H64.4138V157.59H63.7038V158.74H62.7638V159.34H63.7038V162.52C63.7038 163.49 64.2538 164.05 65.2438 164.05C65.6538 164.05 66.0738 163.93 66.3538 163.68L66.1038 163.17ZM69.0563 164.05C70.4263 164.05 71.2263 163.46 71.2263 162.55C71.2263 160.53 67.8163 161.6 67.8163 160.18C67.8163 159.68 68.2363 159.31 69.1863 159.31C69.7263 159.31 70.2763 159.44 70.7363 159.76L71.0463 159.19C70.6063 158.89 69.8663 158.7 69.1863 158.7C67.8463 158.7 67.1063 159.34 67.1063 160.2C67.1063 162.28 70.5163 161.2 70.5163 162.57C70.5163 163.09 70.1063 163.43 69.1063 163.43C68.3663 163.43 67.6563 163.17 67.2363 162.84L66.9163 163.4C67.3463 163.77 68.1863 164.05 69.0563 164.05ZM10.7038 173.28C11.2538 173.08 11.5938 172.68 11.5938 172.09C11.5938 171.22 10.8638 170.74 9.67375 170.74H7.35375V176H9.74375C11.1138 176 11.7738 175.48 11.7738 174.57C11.7738 173.88 11.4338 173.45 10.7038 173.28ZM8.04375 171.3H9.62375C10.4338 171.3 10.8838 171.59 10.8838 172.18C10.8838 172.77 10.4338 173.08 9.62375 173.08H8.04375V171.3ZM9.71375 175.44H8.04375V173.61H9.78375C10.6738 173.61 11.0738 173.9 11.0738 174.53C11.0738 175.16 10.6038 175.44 9.71375 175.44ZM16.0549 170.74V176H16.7649V171.37H20.0649V176H20.7749V170.74H16.0549ZM24.6032 170.7C23.7732 170.7 22.9932 170.96 22.4632 171.41L22.7832 171.94C23.2132 171.56 23.8532 171.32 24.5332 171.32C25.5132 171.32 26.0232 171.81 26.0232 172.71V173.03H24.3532C22.8432 173.03 22.3232 173.71 22.3232 174.52C22.3232 175.43 23.0532 176.05 24.2432 176.05C25.1132 176.05 25.7332 175.72 26.0532 175.18V176H26.7332V172.74C26.7332 171.38 25.9632 170.7 24.6032 170.7ZM24.3532 175.49C23.5132 175.49 23.0232 175.11 23.0232 174.5C23.0232 173.96 23.3532 173.56 24.3732 173.56H26.0232V174.42C25.7432 175.11 25.1532 175.49 24.3532 175.49ZM32.4733 176H33.3133L31.0933 173.29L33.1633 170.74H32.3933L30.5433 173.05H29.3333V170.74H28.6233V176H29.3333V173.66H30.5333L32.4733 176ZM38.8583 173.37C38.8583 171.79 37.7883 170.7 36.3083 170.7C34.8283 170.7 33.7383 171.81 33.7383 173.37C33.7383 174.93 34.8583 176.05 36.4983 176.05C37.3283 176.05 38.0583 175.75 38.5283 175.19L38.1283 174.73C37.7283 175.19 37.1583 175.42 36.5183 175.42C35.3683 175.42 34.5283 174.69 34.4483 173.59H38.8483C38.8483 173.51 38.8583 173.43 38.8583 173.37ZM36.3083 171.31C37.3383 171.31 38.0883 172.03 38.1783 173.06H34.4483C34.5383 172.03 35.2883 171.31 36.3083 171.31ZM43.8955 170.74H39.2055V171.37H41.1955V176H41.9055V171.37H43.8955V170.74ZM49.288 173.37C49.288 171.79 48.218 170.7 46.738 170.7C45.258 170.7 44.168 171.81 44.168 173.37C44.168 174.93 45.288 176.05 46.928 176.05C47.758 176.05 48.488 175.75 48.958 175.19L48.558 174.73C48.158 175.19 47.588 175.42 46.948 175.42C45.798 175.42 44.958 174.69 44.878 173.59H49.278C49.278 173.51 49.288 173.43 49.288 173.37ZM46.738 171.31C47.768 171.31 48.518 172.03 48.608 173.06H44.878C44.968 172.03 45.718 171.31 46.738 171.31Z" fill="black"/>
<path d="M151.425 154.8V156.544H153.793V166H155.873V154.8H151.425Z" fill="black"/>
<path d="M264.925 154.8V156.544H267.293V166H269.373V154.8H264.925Z" fill="black"/>
<path d="M12.3138 218H13.1638L10.4138 214.4L13.0138 211H12.2138L9.84375 214.14H8.24375V211H7.52375V218H8.24375V214.79H9.84375L12.3138 218ZM16.2425 218.05C17.7825 218.05 18.9125 216.93 18.9125 215.37C18.9125 213.81 17.7825 212.7 16.2425 212.7C14.7025 212.7 13.5625 213.81 13.5625 215.37C13.5625 216.93 14.7025 218.05 16.2425 218.05ZM16.2425 217.42C15.1225 217.42 14.2825 216.6 14.2825 215.37C14.2825 214.14 15.1225 213.32 16.2425 213.32C17.3625 213.32 18.1925 214.14 18.1925 215.37C18.1925 216.6 17.3625 217.42 16.2425 217.42ZM20.8506 212.74L20.7606 214.62C20.6906 216.01 20.6106 217.42 19.7406 217.42C19.6706 217.42 19.5806 217.4 19.4906 217.38L19.4406 217.99C19.6306 218.04 19.7906 218.07 19.9506 218.07C21.0806 218.07 21.3106 216.51 21.4006 214.67L21.4706 213.37H23.9906V218H24.7006V212.74H20.8506ZM26.719 218H27.359L30.859 213.82V218H31.569V212.74H30.939L27.429 216.92V212.74H26.719V218ZM36.8638 212.74V215.24C36.2738 215.49 35.7138 215.63 35.2038 215.63C34.3238 215.63 33.7738 215.23 33.7738 214.43V212.74H33.0638V214.47C33.0638 215.66 33.8438 216.21 35.0738 216.21C35.6638 216.21 36.2738 216.07 36.8638 215.81V218H37.5738V212.74H36.8638ZM44.2001 215.37C44.2001 213.79 43.1301 212.7 41.6501 212.7C40.1701 212.7 39.0801 213.81 39.0801 215.37C39.0801 216.93 40.2001 218.05 41.8401 218.05C42.6701 218.05 43.4001 217.75 43.8701 217.19L43.4701 216.73C43.0701 217.19 42.5001 217.42 41.8601 217.42C40.7101 217.42 39.8701 216.69 39.7901 215.59H44.1901C44.1901 215.51 44.2001 215.43 44.2001 215.37ZM41.6501 213.31C42.6801 213.31 43.4301 214.03 43.5201 215.06H39.7901C39.8801 214.03 40.6301 213.31 41.6501 213.31ZM47.9717 218.05C48.8617 218.05 49.6117 217.69 50.0317 217.01L49.5017 216.65C49.1417 217.18 48.5817 217.42 47.9717 217.42C46.8217 217.42 45.9817 216.61 45.9817 215.37C45.9817 214.14 46.8217 213.32 47.9717 213.32C48.5817 213.32 49.1417 213.57 49.5017 214.1L50.0317 213.74C49.6117 213.05 48.8617 212.7 47.9717 212.7C46.4017 212.7 45.2617 213.8 45.2617 215.37C45.2617 216.94 46.4017 218.05 47.9717 218.05ZM55.0088 212.74H50.3188V213.37H52.3088V218H53.0188V213.37H55.0088V212.74ZM59.3854 215.28C59.9354 215.08 60.2754 214.68 60.2754 214.09C60.2754 213.22 59.5454 212.74 58.3554 212.74H56.0354V218H58.4254C59.7954 218 60.4554 217.48 60.4554 216.57C60.4554 215.88 60.1154 215.45 59.3854 215.28ZM56.7254 213.3H58.3054C59.1154 213.3 59.5654 213.59 59.5654 214.18C59.5654 214.77 59.1154 215.08 58.3054 215.08H56.7254V213.3ZM58.3954 217.44H56.7254V215.61H58.4654C59.3554 215.61 59.7554 215.9 59.7554 216.53C59.7554 217.16 59.2854 217.44 58.3954 217.44ZM64.2894 218.05C65.8294 218.05 66.9594 216.93 66.9594 215.37C66.9594 213.81 65.8294 212.7 64.2894 212.7C62.7494 212.7 61.6094 213.81 61.6094 215.37C61.6094 216.93 62.7494 218.05 64.2894 218.05ZM64.2894 217.42C63.1694 217.42 62.3294 216.6 62.3294 215.37C62.3294 214.14 63.1694 213.32 64.2894 213.32C65.4094 213.32 66.2394 214.14 66.2394 215.37C66.2394 216.6 65.4094 217.42 64.2894 217.42ZM7.35375 224.74V230H8.06375V225.37H11.3638V230H12.0738V224.74H7.35375ZM16.802 224.7C15.932 224.7 15.202 225.08 14.772 225.78V224.74H14.092V231.94H14.802V229.01C15.242 229.69 15.962 230.05 16.802 230.05C18.302 230.05 19.422 228.97 19.422 227.37C19.422 225.78 18.302 224.7 16.802 224.7ZM16.752 229.42C15.632 229.42 14.792 228.6 14.792 227.37C14.792 226.15 15.632 225.32 16.752 225.32C17.862 225.32 18.712 226.15 18.712 227.37C18.712 228.6 17.862 229.42 16.752 229.42ZM20.9475 230H21.5875L25.0875 225.82V230H25.7975V224.74H25.1675L21.6575 228.92V224.74H20.9475V230ZM28.2823 224.74L28.1923 226.62C28.1223 228.01 28.0423 229.42 27.1723 229.42C27.1023 229.42 27.0123 229.4 26.9223 229.38L26.8723 229.99C27.0623 230.04 27.2223 230.07 27.3823 230.07C28.5123 230.07 28.7423 228.51 28.8323 226.67L28.9023 225.37H31.4223V230H32.1323V224.74H28.2823ZM36.3206 230.05C37.8606 230.05 38.9906 228.93 38.9906 227.37C38.9906 225.81 37.8606 224.7 36.3206 224.7C34.7806 224.7 33.6406 225.81 33.6406 227.37C33.6406 228.93 34.7806 230.05 36.3206 230.05ZM36.3206 229.42C35.2006 229.42 34.3606 228.6 34.3606 227.37C34.3606 226.14 35.2006 225.32 36.3206 225.32C37.4406 225.32 38.2706 226.14 38.2706 227.37C38.2706 228.6 37.4406 229.42 36.3206 229.42ZM46.5525 230H47.4025L45.5125 227.3L47.2525 224.74H46.4825L44.9325 227.05H43.7925V224.74H43.0825V227.05H41.9425L40.4025 224.74H39.6325L41.3725 227.29L39.4825 230H40.3325L41.9425 227.66H43.0825V230H43.7925V227.66H44.9325L46.5525 230ZM53.0087 227.37C53.0087 225.79 51.9387 224.7 50.4587 224.7C48.9787 224.7 47.8887 225.81 47.8887 227.37C47.8887 228.93 49.0087 230.05 50.6487 230.05C51.4787 230.05 52.2087 229.75 52.6787 229.19L52.2787 228.73C51.8787 229.19 51.3087 229.42 50.6687 229.42C49.5187 229.42 48.6787 228.69 48.5987 227.59H52.9987C52.9987 227.51 53.0087 227.43 53.0087 227.37ZM50.4587 225.31C51.4887 225.31 52.2387 226.03 52.3287 227.06H48.5987C48.6887 226.03 49.4387 225.31 50.4587 225.31ZM54.5803 230H55.2903V227.68H58.6003V230H59.3103V224.74H58.6003V227.07H55.2903V224.74H54.5803V230ZM61.3284 230H61.9684L65.4684 225.82V230H66.1784V224.74H65.5484L62.0384 228.92V224.74H61.3284V230ZM70.6031 223.99C71.4931 223.99 72.0831 223.53 72.1031 222.69H71.5931C71.5731 223.22 71.1731 223.55 70.6031 223.55C70.0331 223.55 69.6331 223.22 69.6231 222.69H69.1131C69.1331 223.53 69.7131 223.99 70.6031 223.99ZM68.2131 230H68.8531L72.3531 225.82V230H73.0631V224.74H72.4331L68.9231 228.92V224.74H68.2131V230Z" fill="black"/>
<path d="M151.425 214.8V216.544H153.793V226H155.873V214.8H151.425Z" fill="black"/>
<path d="M266.724 224.24L269.716 221.392C271.267 219.936 271.572 218.944 271.572 217.856C271.572 215.872 270.004 214.64 267.572 214.64C265.732 214.64 264.18 215.328 263.316 216.496L264.772 217.616C265.396 216.816 266.308 216.448 267.396 216.448C268.772 216.448 269.476 217.04 269.476 218.064C269.476 218.688 269.284 219.344 268.196 220.384L263.748 224.608V226H272.003V224.24H266.724Z" fill="black"/>
<rect x="0.84375" y="0.5" width="322" height="280" stroke="black"/>
</svg>
