<svg width="480" height="186" viewBox="0 0 480 186" fill="none" xmlns="http://www.w3.org/2000/svg">
<rect x="0.5" y="0.5" width="479" height="185" fill="white"/>
<path d="M53.1551 58.0107C53.1551 58.0107 46.9091 58.9091 40.492 61.7754C35.9572 64.4705 36 71.9999 36 71.9999H84.8983C84.8983 71.9999 85.155 65.155 80.2352 61.7754C74.2459 59.123 66.631 57.8823 66.631 57.8823" stroke="black" stroke-miterlimit="10"/>
<path d="M53.8395 54.9304V50.6951" stroke="black" stroke-miterlimit="10"/>
<path d="M66.032 50.738V54.845" stroke="black" stroke-miterlimit="10"/>
<path d="M71.8073 37.3476C71.1228 35.7647 69.7966 36.5348 69.7966 36.5348C70.5667 29.3049 66.8875 24.5134 59.9999 24.5134C53.1122 24.5134 49.433 29.3049 50.2031 36.5348C50.2031 36.5348 48.8341 35.7647 48.1924 37.3476C47.5079 38.9305 48.7485 42.6524 49.4758 43.8503C50.2459 45.0481 51.5721 45.9465 51.5721 45.9465C51.5721 45.9465 51.6576 47.2727 51.9999 48.2139C52.3421 49.1551 56.2779 52.9626 57.433 53.6043C58.9303 54.5027 61.1977 54.5027 62.5667 53.6043C63.7218 52.9626 67.6576 49.1123 67.9998 48.2139C68.3421 47.2727 68.4277 45.9465 68.4277 45.9465C68.4277 45.9465 69.7539 45.0481 70.5239 43.8503C71.2512 42.6952 72.449 38.9305 71.8073 37.3476Z" stroke="black" stroke-miterlimit="10"/>
<path d="M59.9999 24C52.8555 24 49.048 28.9626 49.8609 36.4492C50.802 37.0481 51.0159 38.7165 50.8876 40.385C50.8876 40.385 50.5881 45.647 51.6149 48.1283C52.6416 50.6096 54.4384 54.5026 60.0427 54.4598C65.6041 54.5026 67.4009 50.6096 68.4704 48.1283C69.4972 45.647 69.1977 40.385 69.1977 40.385C69.0694 38.8021 69.0266 37.0481 70.2244 36.4492C70.9945 28.9626 67.1442 24 59.9999 24ZM67.8287 35.508C67.8287 35.508 67.7004 42.3957 66.6309 43.893C65.5614 45.3903 65.9036 42.0534 59.9999 42.0107C54.0961 41.9679 54.4384 45.3903 53.3689 43.893C52.2994 42.3957 52.171 35.5508 52.171 35.508C52.2566 33.9679 52.3849 32.5561 53.0266 31.8716C53.8822 31.016 55.1229 31.1872 56.1496 31.4438C57.3903 31.7433 58.6737 32.1711 59.9571 32.2139C61.3261 32.2567 62.6523 31.7433 63.9785 31.4438C65.0052 31.1872 66.1175 31.1016 66.9303 31.9144C67.6148 32.5561 67.7859 34.0107 67.8287 35.508Z" fill="black"/>
<path d="M53.1551 54.46C53.1551 54.46 55.3369 56.214 59.7861 56.214C64.2352 56.214 66.631 54.46 66.631 54.46V57.8824C66.631 57.8824 64.4064 61.091 59.6577 60.9626C54.9091 60.8343 53.1551 58.0108 53.1551 58.0108V54.46Z" stroke="black" stroke-miterlimit="10"/>
<path d="M53.155 54.4598C53.155 54.4598 52.8555 53.5614 53.9251 53.262" stroke="black" stroke-miterlimit="10"/>
<path d="M66.631 54.4598C66.631 54.4598 66.9304 53.5614 65.8609 53.262" stroke="black" stroke-miterlimit="10"/>
<path d="M105.087 28.116C106.001 28.116 106.827 28.3307 107.565 28.76C108.311 29.1893 108.895 29.7867 109.315 30.552C109.744 31.308 109.959 32.1573 109.959 33.1C109.959 34.0427 109.744 34.8967 109.315 35.662C108.895 36.418 108.311 37.0107 107.565 37.44C106.827 37.8693 106.001 38.084 105.087 38.084C104.321 38.084 103.621 37.9627 102.987 37.72C102.352 37.4773 101.82 37.118 101.391 36.642L102.035 35.984C102.809 36.768 103.813 37.16 105.045 37.16C105.735 37.16 106.365 37.0013 106.935 36.684C107.504 36.3573 107.961 35.914 108.307 35.354C108.661 34.7847 108.862 34.1453 108.909 33.436H103.855V32.582H108.895C108.82 31.9007 108.605 31.294 108.251 30.762C107.905 30.2207 107.453 29.8007 106.893 29.502C106.333 29.194 105.717 29.04 105.045 29.04C103.813 29.04 102.809 29.432 102.035 30.216L101.391 29.558C101.82 29.082 102.352 28.7227 102.987 28.48C103.621 28.2373 104.321 28.116 105.087 28.116ZM117.174 31.518H114.388V38H113.394V31.518H110.608V30.636H117.174V31.518ZM121.308 38.07C120.598 38.07 119.959 37.9113 119.39 37.594C118.82 37.2673 118.372 36.8193 118.046 36.25C117.719 35.6807 117.556 35.0367 117.556 34.318C117.556 33.5993 117.719 32.9553 118.046 32.386C118.372 31.8167 118.82 31.3733 119.39 31.056C119.959 30.7387 120.598 30.58 121.308 30.58C122.017 30.58 122.656 30.7387 123.226 31.056C123.795 31.3733 124.238 31.8167 124.556 32.386C124.882 32.9553 125.046 33.5993 125.046 34.318C125.046 35.0367 124.882 35.6807 124.556 36.25C124.238 36.8193 123.795 37.2673 123.226 37.594C122.656 37.9113 122.017 38.07 121.308 38.07ZM121.308 37.188C121.83 37.188 122.297 37.0713 122.708 36.838C123.128 36.5953 123.454 36.2547 123.688 35.816C123.921 35.3773 124.038 34.878 124.038 34.318C124.038 33.758 123.921 33.2587 123.688 32.82C123.454 32.3813 123.128 32.0453 122.708 31.812C122.297 31.5693 121.83 31.448 121.308 31.448C120.785 31.448 120.314 31.5693 119.894 31.812C119.483 32.0453 119.156 32.3813 118.914 32.82C118.68 33.2587 118.564 33.758 118.564 34.318C118.564 34.878 118.68 35.3773 118.914 35.816C119.156 36.2547 119.483 36.5953 119.894 36.838C120.314 37.0713 120.785 37.188 121.308 37.188ZM141.25 28.2V38H140.256V30.16L136.406 36.754H135.916L132.066 30.202V38H131.072V28.2H131.926L136.182 35.466L140.396 28.2H141.25ZM144.315 30.636H145.309V36.488L150.223 30.636H151.105V38H150.111V32.148L145.211 38H144.315V30.636ZM164.117 30.636V38H153.953V30.636H154.947V37.132H158.559V30.636H159.553V37.132H163.123V30.636H164.117ZM169.489 30.58C170.451 30.58 171.188 30.8227 171.701 31.308C172.215 31.784 172.471 32.4933 172.471 33.436V38H171.519V36.852C171.295 37.2347 170.964 37.5333 170.525 37.748C170.096 37.9627 169.583 38.07 168.985 38.07C168.164 38.07 167.511 37.874 167.025 37.482C166.54 37.09 166.297 36.572 166.297 35.928C166.297 35.3027 166.521 34.7987 166.969 34.416C167.427 34.0333 168.15 33.842 169.139 33.842H171.477V33.394C171.477 32.7593 171.3 32.2787 170.945 31.952C170.591 31.616 170.073 31.448 169.391 31.448C168.925 31.448 168.477 31.5273 168.047 31.686C167.618 31.8353 167.249 32.0453 166.941 32.316L166.493 31.574C166.867 31.2567 167.315 31.014 167.837 30.846C168.36 30.6687 168.911 30.58 169.489 30.58ZM169.139 37.286C169.699 37.286 170.18 37.16 170.581 36.908C170.983 36.6467 171.281 36.2733 171.477 35.788V34.584H169.167C167.907 34.584 167.277 35.0227 167.277 35.9C167.277 36.3293 167.441 36.67 167.767 36.922C168.094 37.1647 168.551 37.286 169.139 37.286Z" fill="black"/>
<path d="M107.791 49.74V55H107.141V50.84L105.011 54.36H104.691L102.561 50.83V55H101.911V49.74H102.631L104.861 53.53L107.131 49.74H107.791ZM112.021 51.6C112.681 51.6067 113.184 51.7533 113.531 52.04C113.878 52.3267 114.051 52.74 114.051 53.28C114.051 53.84 113.864 54.27 113.491 54.57C113.118 54.87 112.584 55.0167 111.891 55.01L109.811 55V49.74H110.521V51.58L112.021 51.6ZM114.931 49.74H115.641V55H114.931V49.74ZM111.851 54.47C112.338 54.4767 112.704 54.38 112.951 54.18C113.204 53.9733 113.331 53.6733 113.331 53.28C113.331 52.8933 113.208 52.6067 112.961 52.42C112.714 52.2333 112.344 52.1367 111.851 52.13L110.521 52.11V54.45L111.851 54.47ZM122.84 52.26C123.213 52.3467 123.5 52.4967 123.7 52.71C123.906 52.9233 124.01 53.1833 124.01 53.49C124.01 53.7967 123.903 54.07 123.69 54.31C123.483 54.55 123.2 54.7367 122.84 54.87C122.48 54.9967 122.083 55.06 121.65 55.06C121.27 55.06 120.896 55.0067 120.53 54.9C120.163 54.7867 119.843 54.6233 119.57 54.41L119.81 53.88C120.05 54.06 120.33 54.2 120.65 54.3C120.97 54.4 121.293 54.45 121.62 54.45C122.106 54.45 122.503 54.36 122.81 54.18C123.123 53.9933 123.28 53.7433 123.28 53.43C123.28 53.15 123.153 52.9333 122.9 52.78C122.646 52.62 122.3 52.54 121.86 52.54H120.96V52.02H121.82C122.213 52.02 122.53 51.9467 122.77 51.8C123.01 51.6467 123.13 51.4433 123.13 51.19C123.13 50.91 122.993 50.69 122.72 50.53C122.453 50.37 122.103 50.29 121.67 50.29C121.103 50.29 120.543 50.4333 119.99 50.72L119.79 50.17C120.416 49.8433 121.066 49.68 121.74 49.68C122.14 49.68 122.5 49.74 122.82 49.86C123.146 49.9733 123.4 50.1367 123.58 50.35C123.766 50.5633 123.86 50.81 123.86 51.09C123.86 51.3567 123.766 51.5933 123.58 51.8C123.4 52.0067 123.153 52.16 122.84 52.26ZM127.432 49.7C128.118 49.7 128.645 49.8733 129.012 50.22C129.378 50.56 129.562 51.0667 129.562 51.74V55H128.882V54.18C128.722 54.4533 128.485 54.6667 128.172 54.82C127.865 54.9733 127.498 55.05 127.072 55.05C126.485 55.05 126.018 54.91 125.672 54.63C125.325 54.35 125.152 53.98 125.152 53.52C125.152 53.0733 125.312 52.7133 125.632 52.44C125.958 52.1667 126.475 52.03 127.182 52.03H128.852V51.71C128.852 51.2567 128.725 50.9133 128.472 50.68C128.218 50.44 127.848 50.32 127.362 50.32C127.028 50.32 126.708 50.3767 126.402 50.49C126.095 50.5967 125.832 50.7467 125.612 50.94L125.292 50.41C125.558 50.1833 125.878 50.01 126.252 49.89C126.625 49.7633 127.018 49.7 127.432 49.7ZM127.182 54.49C127.582 54.49 127.925 54.4 128.212 54.22C128.498 54.0333 128.712 53.7667 128.852 53.42V52.56H127.202C126.302 52.56 125.852 52.8733 125.852 53.5C125.852 53.8067 125.968 54.05 126.202 54.23C126.435 54.4033 126.762 54.49 127.182 54.49ZM136.172 49.74V55H135.462V50.37H132.162V55H131.452V49.74H136.172ZM142.49 49.74V55H141.78V50.37H139.26L139.19 51.67C139.137 52.7633 139.01 53.6033 138.81 54.19C138.61 54.7767 138.253 55.07 137.74 55.07C137.6 55.07 137.43 55.0433 137.23 54.99L137.28 54.38C137.4 54.4067 137.483 54.42 137.53 54.42C137.803 54.42 138.01 54.2933 138.15 54.04C138.29 53.7867 138.383 53.4733 138.43 53.1C138.477 52.7267 138.517 52.2333 138.55 51.62L138.64 49.74H142.49ZM146.318 49.7C147.005 49.7 147.532 49.8733 147.898 50.22C148.265 50.56 148.448 51.0667 148.448 51.74V55H147.768V54.18C147.608 54.4533 147.372 54.6667 147.058 54.82C146.752 54.9733 146.385 55.05 145.958 55.05C145.372 55.05 144.905 54.91 144.558 54.63C144.212 54.35 144.038 53.98 144.038 53.52C144.038 53.0733 144.198 52.7133 144.518 52.44C144.845 52.1667 145.362 52.03 146.068 52.03H147.738V51.71C147.738 51.2567 147.612 50.9133 147.358 50.68C147.105 50.44 146.735 50.32 146.248 50.32C145.915 50.32 145.595 50.3767 145.288 50.49C144.982 50.5967 144.718 50.7467 144.498 50.94L144.178 50.41C144.445 50.1833 144.765 50.01 145.138 49.89C145.512 49.7633 145.905 49.7 146.318 49.7ZM146.068 54.49C146.468 54.49 146.812 54.4 147.098 54.22C147.385 54.0333 147.598 53.7667 147.738 53.42V52.56H146.088C145.188 52.56 144.738 52.8733 144.738 53.5C144.738 53.8067 144.855 54.05 145.088 54.23C145.322 54.4033 145.648 54.49 146.068 54.49ZM154.038 50.37H152.048V55H151.338V50.37H149.348V49.74H154.038V50.37ZM155.065 49.74H155.775V53.92L159.285 49.74H159.915V55H159.205V50.82L155.705 55H155.065V49.74ZM166.25 49.74V55H165.54V50.37H163.02L162.95 51.67C162.896 52.7633 162.77 53.6033 162.57 54.19C162.37 54.7767 162.013 55.07 161.5 55.07C161.36 55.07 161.19 55.0433 160.99 54.99L161.04 54.38C161.16 54.4067 161.243 54.42 161.29 54.42C161.563 54.42 161.77 54.2933 161.91 54.04C162.05 53.7867 162.143 53.4733 162.19 53.1C162.236 52.7267 162.276 52.2333 162.31 51.62L162.4 49.74H166.25ZM168.268 49.74H168.978V53.92L172.488 49.74H173.118V55H172.408V50.82L168.908 55H168.268V49.74ZM180.94 55.06C180.247 55.06 179.62 54.9067 179.06 54.6C178.507 54.2933 178.07 53.87 177.75 53.33C177.437 52.7833 177.28 52.1733 177.28 51.5C177.28 50.8267 177.437 50.22 177.75 49.68C178.07 49.1333 178.51 48.7067 179.07 48.4C179.63 48.0933 180.257 47.94 180.95 47.94C181.47 47.94 181.95 48.0267 182.39 48.2C182.83 48.3733 183.203 48.6267 183.51 48.96L183.04 49.43C182.493 48.8767 181.803 48.6 180.97 48.6C180.417 48.6 179.913 48.7267 179.46 48.98C179.007 49.2333 178.65 49.58 178.39 50.02C178.137 50.46 178.01 50.9533 178.01 51.5C178.01 52.0467 178.137 52.54 178.39 52.98C178.65 53.42 179.007 53.7667 179.46 54.02C179.913 54.2733 180.417 54.4 180.97 54.4C181.81 54.4 182.5 54.12 183.04 53.56L183.51 54.03C183.203 54.3633 182.827 54.62 182.38 54.8C181.94 54.9733 181.46 55.06 180.94 55.06ZM187.707 48C188.601 48 189.301 48.2133 189.807 48.64C190.314 49.0667 190.567 49.6533 190.567 50.4C190.567 51.1467 190.314 51.7333 189.807 52.16C189.301 52.58 188.601 52.79 187.707 52.79H185.827V55H185.087V48H187.707ZM187.687 52.14C188.381 52.14 188.911 51.99 189.277 51.69C189.644 51.3833 189.827 50.9533 189.827 50.4C189.827 49.8333 189.644 49.4 189.277 49.1C188.911 48.7933 188.381 48.64 187.687 48.64H185.827V52.14H187.687ZM192.168 48H192.908V55H192.168V48ZM199.022 50.87C200.036 50.87 200.772 51.0533 201.232 51.42C201.699 51.78 201.932 52.2867 201.932 52.94C201.932 53.3467 201.836 53.71 201.642 54.03C201.456 54.35 201.172 54.6033 200.792 54.79C200.412 54.97 199.946 55.06 199.392 55.06C198.892 55.06 198.416 54.98 197.962 54.82C197.516 54.6533 197.156 54.4333 196.882 54.16L197.232 53.59C197.466 53.83 197.772 54.0267 198.152 54.18C198.532 54.3267 198.942 54.4 199.382 54.4C199.962 54.4 200.409 54.27 200.722 54.01C201.042 53.75 201.202 53.4033 201.202 52.97C201.202 52.49 201.022 52.1267 200.662 51.88C200.309 51.6333 199.709 51.51 198.862 51.51H197.372L197.732 48H201.562V48.64H198.362L198.122 50.87H199.022ZM205.636 55.06C205.096 55.06 204.613 54.9167 204.186 54.63C203.766 54.3433 203.436 53.9333 203.196 53.4C202.963 52.86 202.846 52.2267 202.846 51.5C202.846 50.7733 202.963 50.1433 203.196 49.61C203.436 49.07 203.766 48.6567 204.186 48.37C204.613 48.0833 205.096 47.94 205.636 47.94C206.176 47.94 206.656 48.0833 207.076 48.37C207.503 48.6567 207.836 49.07 208.076 49.61C208.316 50.1433 208.436 50.7733 208.436 51.5C208.436 52.2267 208.316 52.86 208.076 53.4C207.836 53.9333 207.503 54.3433 207.076 54.63C206.656 54.9167 206.176 55.06 205.636 55.06ZM205.636 54.4C206.043 54.4 206.4 54.2867 206.706 54.06C207.02 53.8333 207.263 53.5033 207.436 53.07C207.61 52.6367 207.696 52.1133 207.696 51.5C207.696 50.8867 207.61 50.3633 207.436 49.93C207.263 49.4967 207.02 49.1667 206.706 48.94C206.4 48.7133 206.043 48.6 205.636 48.6C205.23 48.6 204.87 48.7133 204.556 48.94C204.25 49.1667 204.01 49.4967 203.836 49.93C203.663 50.3633 203.576 50.8867 203.576 51.5C203.576 52.1133 203.663 52.6367 203.836 53.07C204.01 53.5033 204.25 53.8333 204.556 54.06C204.87 54.2867 205.23 54.4 205.636 54.4ZM213.655 52.65V53.26H215.905V53.7H213.655V55H212.915V53.7H211.865V53.26H212.915V48H215.535C216.435 48 217.135 48.2033 217.635 48.61C218.141 49.01 218.395 49.58 218.395 50.32C218.395 51.0667 218.141 51.6433 217.635 52.05C217.135 52.45 216.435 52.65 215.535 52.65H213.655ZM213.655 48.64V52.02H215.545C216.225 52.02 216.745 51.8733 217.105 51.58C217.471 51.2867 217.655 50.87 217.655 50.33C217.655 49.79 217.471 49.3733 217.105 49.08C216.745 48.7867 216.225 48.64 215.545 48.64H213.655ZM219.734 53.96C219.888 53.96 220.014 54.0133 220.114 54.12C220.214 54.22 220.264 54.3467 220.264 54.5C220.264 54.58 220.251 54.6667 220.224 54.76C220.204 54.8533 220.171 54.96 220.124 55.08L219.704 56.46H219.224L219.564 55.01C219.458 54.9767 219.371 54.9167 219.304 54.83C219.238 54.7367 219.204 54.6267 219.204 54.5C219.204 54.3467 219.254 54.22 219.354 54.12C219.454 54.0133 219.581 53.96 219.734 53.96ZM105.881 61.74V67H105.171V64.81C104.564 65.0767 103.967 65.21 103.381 65.21C102.747 65.21 102.254 65.0667 101.901 64.78C101.547 64.4867 101.371 64.05 101.371 63.47V61.74H102.081V63.43C102.081 63.8233 102.207 64.1233 102.461 64.33C102.714 64.53 103.064 64.63 103.511 64.63C104.004 64.63 104.557 64.5 105.171 64.24V61.74H105.881ZM111.597 62.37H109.607V67H108.897V62.37H106.907V61.74H111.597V62.37ZM114.549 67.05C114.043 67.05 113.586 66.9367 113.179 66.71C112.773 66.4767 112.453 66.1567 112.219 65.75C111.986 65.3433 111.869 64.8833 111.869 64.37C111.869 63.8567 111.986 63.3967 112.219 62.99C112.453 62.5833 112.773 62.2667 113.179 62.04C113.586 61.8133 114.043 61.7 114.549 61.7C115.056 61.7 115.513 61.8133 115.919 62.04C116.326 62.2667 116.643 62.5833 116.869 62.99C117.103 63.3967 117.219 63.8567 117.219 64.37C117.219 64.8833 117.103 65.3433 116.869 65.75C116.643 66.1567 116.326 66.4767 115.919 66.71C115.513 66.9367 115.056 67.05 114.549 67.05ZM114.549 66.42C114.923 66.42 115.256 66.3367 115.549 66.17C115.849 65.9967 116.083 65.7533 116.249 65.44C116.416 65.1267 116.499 64.77 116.499 64.37C116.499 63.97 116.416 63.6133 116.249 63.3C116.083 62.9867 115.849 62.7467 115.549 62.58C115.256 62.4067 114.923 62.32 114.549 62.32C114.176 62.32 113.839 62.4067 113.539 62.58C113.246 62.7467 113.013 62.9867 112.839 63.3C112.673 63.6133 112.589 63.97 112.589 64.37C112.589 64.77 112.673 65.1267 112.839 65.44C113.013 65.7533 113.246 65.9967 113.539 66.17C113.839 66.3367 114.176 66.42 114.549 66.42ZM121.287 61.87C121.773 61.87 122.207 61.98 122.587 62.2C122.973 62.4133 123.273 62.7167 123.487 63.11C123.7 63.4967 123.807 63.94 123.807 64.44C123.807 64.9533 123.693 65.41 123.467 65.81C123.247 66.2033 122.937 66.51 122.537 66.73C122.137 66.95 121.677 67.06 121.157 67.06C120.283 67.06 119.607 66.7533 119.127 66.14C118.647 65.5267 118.407 64.68 118.407 63.6C118.407 62.4733 118.62 61.61 119.047 61.01C119.48 60.41 120.153 60.0033 121.067 59.79L123.427 59.25L123.547 59.9L121.327 60.41C120.573 60.5767 120.02 60.8733 119.667 61.3C119.313 61.72 119.12 62.3433 119.087 63.17C119.3 62.7633 119.597 62.4467 119.977 62.22C120.357 61.9867 120.793 61.87 121.287 61.87ZM121.177 66.47C121.543 66.47 121.87 66.3867 122.157 66.22C122.45 66.0467 122.677 65.8067 122.837 65.5C123.003 65.1933 123.087 64.8467 123.087 64.46C123.087 64.0733 123.007 63.7333 122.847 63.44C122.687 63.1467 122.46 62.92 122.167 62.76C121.88 62.5933 121.55 62.51 121.177 62.51C120.803 62.51 120.47 62.5933 120.177 62.76C119.89 62.92 119.663 63.1467 119.497 63.44C119.337 63.7333 119.257 64.0733 119.257 64.46C119.257 64.8467 119.337 65.1933 119.497 65.5C119.663 65.8067 119.893 66.0467 120.187 66.22C120.48 66.3867 120.81 66.47 121.177 66.47ZM127.539 63.6C128.199 63.6067 128.702 63.7533 129.049 64.04C129.395 64.3267 129.569 64.74 129.569 65.28C129.569 65.84 129.382 66.27 129.009 66.57C128.635 66.87 128.102 67.0167 127.409 67.01L125.329 67V61.74H126.039V63.58L127.539 63.6ZM130.449 61.74H131.159V67H130.449V61.74ZM127.369 66.47C127.855 66.4767 128.222 66.38 128.469 66.18C128.722 65.9733 128.849 65.6733 128.849 65.28C128.849 64.8933 128.725 64.6067 128.479 64.42C128.232 64.2333 127.862 64.1367 127.369 64.13L126.039 64.11V66.45L127.369 66.47ZM140.517 61.74V67H139.807V62.37H136.507V67H135.797V61.74H140.517ZM145.246 61.7C145.739 61.7 146.186 61.8133 146.586 62.04C146.986 62.26 147.299 62.5733 147.526 62.98C147.752 63.3867 147.866 63.85 147.866 64.37C147.866 64.8967 147.752 65.3633 147.526 65.77C147.299 66.1767 146.986 66.4933 146.586 66.72C146.192 66.94 145.746 67.05 145.246 67.05C144.819 67.05 144.432 66.9633 144.086 66.79C143.746 66.61 143.466 66.35 143.246 66.01V68.94H142.536V61.74H143.216V62.78C143.429 62.4333 143.709 62.1667 144.056 61.98C144.409 61.7933 144.806 61.7 145.246 61.7ZM145.196 66.42C145.562 66.42 145.896 66.3367 146.196 66.17C146.496 65.9967 146.729 65.7533 146.896 65.44C147.069 65.1267 147.156 64.77 147.156 64.37C147.156 63.97 147.069 63.6167 146.896 63.31C146.729 62.9967 146.496 62.7533 146.196 62.58C145.896 62.4067 145.562 62.32 145.196 62.32C144.822 62.32 144.486 62.4067 144.186 62.58C143.892 62.7533 143.659 62.9967 143.486 63.31C143.319 63.6167 143.236 63.97 143.236 64.37C143.236 64.77 143.319 65.1267 143.486 65.44C143.659 65.7533 143.892 65.9967 144.186 66.17C144.486 66.3367 144.822 66.42 145.196 66.42ZM149.391 61.74H150.101V65.92L153.611 61.74H154.241V67H153.531V62.82L150.031 67H149.391V61.74ZM159.626 64.28C160.339 64.4467 160.696 64.8767 160.696 65.57C160.696 66.03 160.526 66.3833 160.186 66.63C159.846 66.8767 159.339 67 158.666 67H156.276V61.74H158.596C159.196 61.74 159.666 61.8567 160.006 62.09C160.346 62.3233 160.516 62.6567 160.516 63.09C160.516 63.3767 160.436 63.6233 160.276 63.83C160.123 64.03 159.906 64.18 159.626 64.28ZM156.966 64.08H158.546C158.953 64.08 159.263 64.0033 159.476 63.85C159.696 63.6967 159.806 63.4733 159.806 63.18C159.806 62.8867 159.696 62.6667 159.476 62.52C159.263 62.3733 158.953 62.3 158.546 62.3H156.966V64.08ZM158.636 66.44C159.089 66.44 159.429 66.3667 159.656 66.22C159.883 66.0733 159.996 65.8433 159.996 65.53C159.996 65.2167 159.893 64.9867 159.686 64.84C159.479 64.6867 159.153 64.61 158.706 64.61H156.966V66.44H158.636ZM166.66 61.74V67H165.95V62.37H163.43L163.36 63.67C163.306 64.7633 163.18 65.6033 162.98 66.19C162.78 66.7767 162.423 67.07 161.91 67.07C161.77 67.07 161.6 67.0433 161.4 66.99L161.45 66.38C161.57 66.4067 161.653 66.42 161.7 66.42C161.973 66.42 162.18 66.2933 162.32 66.04C162.46 65.7867 162.553 65.4733 162.6 65.1C162.646 64.7267 162.686 64.2333 162.72 63.62L162.81 61.74H166.66ZM173.278 64.59H168.878C168.918 65.1367 169.128 65.58 169.508 65.92C169.888 66.2533 170.368 66.42 170.948 66.42C171.275 66.42 171.575 66.3633 171.848 66.25C172.122 66.13 172.358 65.9567 172.558 65.73L172.958 66.19C172.725 66.47 172.432 66.6833 172.078 66.83C171.732 66.9767 171.348 67.05 170.928 67.05C170.388 67.05 169.908 66.9367 169.488 66.71C169.075 66.4767 168.752 66.1567 168.518 65.75C168.285 65.3433 168.168 64.8833 168.168 64.37C168.168 63.8567 168.278 63.3967 168.498 62.99C168.725 62.5833 169.032 62.2667 169.418 62.04C169.812 61.8133 170.252 61.7 170.738 61.7C171.225 61.7 171.662 61.8133 172.048 62.04C172.435 62.2667 172.738 62.5833 172.958 62.99C173.178 63.39 173.288 63.85 173.288 64.37L173.278 64.59ZM170.738 62.31C170.232 62.31 169.805 62.4733 169.458 62.8C169.118 63.12 168.925 63.54 168.878 64.06H172.608C172.562 63.54 172.365 63.12 172.018 62.8C171.678 62.4733 171.252 62.31 170.738 62.31ZM178.83 61.74V67H178.12V64.81C177.513 65.0767 176.916 65.21 176.33 65.21C175.696 65.21 175.203 65.0667 174.85 64.78C174.496 64.4867 174.32 64.05 174.32 63.47V61.74H175.03V63.43C175.03 63.8233 175.156 64.1233 175.41 64.33C175.663 64.53 176.013 64.63 176.46 64.63C176.953 64.63 177.506 64.5 178.12 64.24V61.74H178.83ZM183.106 63.6C183.766 63.6067 184.266 63.7533 184.606 64.04C184.953 64.3267 185.126 64.74 185.126 65.28C185.126 65.84 184.939 66.27 184.566 66.57C184.199 66.87 183.666 67.0167 182.966 67.01L180.846 67V61.74H181.556V63.58L183.106 63.6ZM182.926 66.47C183.413 66.4767 183.779 66.38 184.026 66.18C184.279 65.9733 184.406 65.6733 184.406 65.28C184.406 64.8933 184.283 64.6067 184.036 64.42C183.789 64.2333 183.419 64.1367 182.926 64.13L181.556 64.11V66.45L182.926 66.47ZM193.698 64.59H189.298C189.338 65.1367 189.548 65.58 189.928 65.92C190.308 66.2533 190.788 66.42 191.368 66.42C191.695 66.42 191.995 66.3633 192.268 66.25C192.541 66.13 192.778 65.9567 192.978 65.73L193.378 66.19C193.145 66.47 192.851 66.6833 192.498 66.83C192.151 66.9767 191.768 67.05 191.348 67.05C190.808 67.05 190.328 66.9367 189.908 66.71C189.495 66.4767 189.171 66.1567 188.938 65.75C188.705 65.3433 188.588 64.8833 188.588 64.37C188.588 63.8567 188.698 63.3967 188.918 62.99C189.145 62.5833 189.451 62.2667 189.838 62.04C190.231 61.8133 190.671 61.7 191.158 61.7C191.645 61.7 192.081 61.8133 192.468 62.04C192.855 62.2667 193.158 62.5833 193.378 62.99C193.598 63.39 193.708 63.85 193.708 64.37L193.698 64.59ZM191.158 62.31C190.651 62.31 190.225 62.4733 189.878 62.8C189.538 63.12 189.345 63.54 189.298 64.06H193.028C192.981 63.54 192.785 63.12 192.438 62.8C192.098 62.4733 191.671 62.31 191.158 62.31ZM199 62.37H195.99V67H195.28V61.74H199V62.37ZM201.952 67.05C201.445 67.05 200.988 66.9367 200.582 66.71C200.175 66.4767 199.855 66.1567 199.622 65.75C199.388 65.3433 199.272 64.8833 199.272 64.37C199.272 63.8567 199.388 63.3967 199.622 62.99C199.855 62.5833 200.175 62.2667 200.582 62.04C200.988 61.8133 201.445 61.7 201.952 61.7C202.458 61.7 202.915 61.8133 203.322 62.04C203.728 62.2667 204.045 62.5833 204.272 62.99C204.505 63.3967 204.622 63.8567 204.622 64.37C204.622 64.8833 204.505 65.3433 204.272 65.75C204.045 66.1567 203.728 66.4767 203.322 66.71C202.915 66.9367 202.458 67.05 201.952 67.05ZM201.952 66.42C202.325 66.42 202.658 66.3367 202.952 66.17C203.252 65.9967 203.485 65.7533 203.652 65.44C203.818 65.1267 203.902 64.77 203.902 64.37C203.902 63.97 203.818 63.6133 203.652 63.3C203.485 62.9867 203.252 62.7467 202.952 62.58C202.658 62.4067 202.325 62.32 201.952 62.32C201.578 62.32 201.242 62.4067 200.942 62.58C200.648 62.7467 200.415 62.9867 200.242 63.3C200.075 63.6133 199.992 63.97 199.992 64.37C199.992 64.77 200.075 65.1267 200.242 65.44C200.415 65.7533 200.648 65.9967 200.942 66.17C201.242 66.3367 201.578 66.42 201.952 66.42Z" fill="black"/>
<path d="M42.68 140L39.5 145.89C39.2733 146.31 39.0067 146.623 38.7 146.83C38.4 147.03 38.07 147.13 37.71 147.13C37.4433 147.13 37.1567 147.067 36.85 146.94L37.06 146.34C37.3 146.433 37.52 146.48 37.72 146.48C38.18 146.48 38.5567 146.23 38.85 145.73L39.05 145.39L36.21 140H37L39.44 144.74L41.94 140H42.68ZM45.46 147.05C44.94 147.05 44.4733 146.937 44.06 146.71C43.6533 146.483 43.3333 146.167 43.1 145.76C42.8667 145.347 42.75 144.883 42.75 144.37C42.75 143.857 42.8667 143.397 43.1 142.99C43.3333 142.583 43.6533 142.267 44.06 142.04C44.4733 141.813 44.94 141.7 45.46 141.7C45.9133 141.7 46.3167 141.79 46.67 141.97C47.03 142.143 47.3133 142.4 47.52 142.74L46.99 143.1C46.8167 142.84 46.5967 142.647 46.33 142.52C46.0633 142.387 45.7733 142.32 45.46 142.32C45.08 142.32 44.7367 142.407 44.43 142.58C44.13 142.747 43.8933 142.987 43.72 143.3C43.5533 143.613 43.47 143.97 43.47 144.37C43.47 144.777 43.5533 145.137 43.72 145.45C43.8933 145.757 44.13 145.997 44.43 146.17C44.7367 146.337 45.08 146.42 45.46 146.42C45.7733 146.42 46.0633 146.357 46.33 146.23C46.5967 146.103 46.8167 145.91 46.99 145.65L47.52 146.01C47.3133 146.35 47.03 146.61 46.67 146.79C46.31 146.963 45.9067 147.05 45.46 147.05ZM52.4971 142.37H50.5071V147H49.7971V142.37H47.8071V141.74H52.4971V142.37ZM55.3337 141.7C56.0203 141.7 56.547 141.873 56.9137 142.22C57.2803 142.56 57.4637 143.067 57.4637 143.74V147H56.7837V146.18C56.6237 146.453 56.387 146.667 56.0737 146.82C55.767 146.973 55.4003 147.05 54.9737 147.05C54.387 147.05 53.9203 146.91 53.5737 146.63C53.227 146.35 53.0537 145.98 53.0537 145.52C53.0537 145.073 53.2137 144.713 53.5337 144.44C53.8603 144.167 54.377 144.03 55.0837 144.03H56.7537V143.71C56.7537 143.257 56.627 142.913 56.3737 142.68C56.1203 142.44 55.7503 142.32 55.2637 142.32C54.9303 142.32 54.6103 142.377 54.3037 142.49C53.997 142.597 53.7337 142.747 53.5137 142.94L53.1937 142.41C53.4603 142.183 53.7803 142.01 54.1537 141.89C54.527 141.763 54.9203 141.7 55.3337 141.7ZM55.0837 146.49C55.4837 146.49 55.827 146.4 56.1137 146.22C56.4003 146.033 56.6137 145.767 56.7537 145.42V144.56H55.1037C54.2037 144.56 53.7537 144.873 53.7537 145.5C53.7537 145.807 53.8703 146.05 54.1037 146.23C54.337 146.403 54.6637 146.49 55.0837 146.49ZM59.3538 141.74H60.0638V144.07H63.3738V141.74H64.0838V147H63.3738V144.68H60.0638V147H59.3538V141.74ZM68.2718 147.05C67.7651 147.05 67.3085 146.937 66.9018 146.71C66.4951 146.477 66.1751 146.157 65.9418 145.75C65.7085 145.343 65.5918 144.883 65.5918 144.37C65.5918 143.857 65.7085 143.397 65.9418 142.99C66.1751 142.583 66.4951 142.267 66.9018 142.04C67.3085 141.813 67.7651 141.7 68.2718 141.7C68.7785 141.7 69.2351 141.813 69.6418 142.04C70.0485 142.267 70.3651 142.583 70.5918 142.99C70.8251 143.397 70.9418 143.857 70.9418 144.37C70.9418 144.883 70.8251 145.343 70.5918 145.75C70.3651 146.157 70.0485 146.477 69.6418 146.71C69.2351 146.937 68.7785 147.05 68.2718 147.05ZM68.2718 146.42C68.6451 146.42 68.9785 146.337 69.2718 146.17C69.5718 145.997 69.8051 145.753 69.9718 145.44C70.1385 145.127 70.2218 144.77 70.2218 144.37C70.2218 143.97 70.1385 143.613 69.9718 143.3C69.8051 142.987 69.5718 142.747 69.2718 142.58C68.9785 142.407 68.6451 142.32 68.2718 142.32C67.8985 142.32 67.5618 142.407 67.2618 142.58C66.9685 142.747 66.7351 142.987 66.5618 143.3C66.3951 143.613 66.3118 143.97 66.3118 144.37C66.3118 144.77 66.3951 145.127 66.5618 145.44C66.7351 145.753 66.9685 145.997 67.2618 146.17C67.5618 146.337 67.8985 146.42 68.2718 146.42ZM75.8092 144.28C76.5226 144.447 76.8792 144.877 76.8792 145.57C76.8792 146.03 76.7092 146.383 76.3692 146.63C76.0292 146.877 75.5226 147 74.8492 147H72.4592V141.74H74.7792C75.3792 141.74 75.8492 141.857 76.1892 142.09C76.5292 142.323 76.6992 142.657 76.6992 143.09C76.6992 143.377 76.6192 143.623 76.4592 143.83C76.3059 144.03 76.0892 144.18 75.8092 144.28ZM73.1492 144.08H74.7292C75.1359 144.08 75.4459 144.003 75.6592 143.85C75.8792 143.697 75.9892 143.473 75.9892 143.18C75.9892 142.887 75.8792 142.667 75.6592 142.52C75.4459 142.373 75.1359 142.3 74.7292 142.3H73.1492V144.08ZM74.8192 146.44C75.2726 146.44 75.6126 146.367 75.8392 146.22C76.0659 146.073 76.1792 145.843 76.1792 145.53C76.1792 145.217 76.0759 144.987 75.8692 144.84C75.6626 144.687 75.3359 144.61 74.8892 144.61H73.1492V146.44H74.8192ZM78.5432 141.74H79.2532V145.92L82.7632 141.74H83.3932V147H82.6832V142.82L79.1832 147H78.5432V141.74ZM89.728 141.74V147H89.018V142.37H86.498L86.428 143.67C86.3746 144.763 86.248 145.603 86.048 146.19C85.848 146.777 85.4913 147.07 84.978 147.07C84.838 147.07 84.668 147.043 84.468 146.99L84.518 146.38C84.638 146.407 84.7213 146.42 84.768 146.42C85.0413 146.42 85.248 146.293 85.388 146.04C85.528 145.787 85.6213 145.473 85.668 145.1C85.7146 144.727 85.7546 144.233 85.788 143.62L85.878 141.74H89.728ZM41.73 153.74V159H41.02V154.37H37.72V159H37.01V153.74H41.73ZM46.4583 153.7C46.9516 153.7 47.3983 153.813 47.7983 154.04C48.1983 154.26 48.5116 154.573 48.7383 154.98C48.9649 155.387 49.0783 155.85 49.0783 156.37C49.0783 156.897 48.9649 157.363 48.7383 157.77C48.5116 158.177 48.1983 158.493 47.7983 158.72C47.4049 158.94 46.9583 159.05 46.4583 159.05C46.0316 159.05 45.6449 158.963 45.2983 158.79C44.9583 158.61 44.6783 158.35 44.4583 158.01V160.94H43.7483V153.74H44.4283V154.78C44.6416 154.433 44.9216 154.167 45.2683 153.98C45.6216 153.793 46.0183 153.7 46.4583 153.7ZM46.4083 158.42C46.7749 158.42 47.1083 158.337 47.4083 158.17C47.7083 157.997 47.9416 157.753 48.1083 157.44C48.2816 157.127 48.3683 156.77 48.3683 156.37C48.3683 155.97 48.2816 155.617 48.1083 155.31C47.9416 154.997 47.7083 154.753 47.4083 154.58C47.1083 154.407 46.7749 154.32 46.4083 154.32C46.0349 154.32 45.6983 154.407 45.3983 154.58C45.1049 154.753 44.8716 154.997 44.6983 155.31C44.5316 155.617 44.4483 155.97 44.4483 156.37C44.4483 156.77 44.5316 157.127 44.6983 157.44C44.8716 157.753 45.1049 157.997 45.3983 158.17C45.6983 158.337 46.0349 158.42 46.4083 158.42ZM50.6038 153.74H51.3138V157.92L54.8238 153.74H55.4538V159H54.7438V154.82L51.2438 159H50.6038V153.74ZM61.7885 153.74V159H61.0785V154.37H58.5585L58.4885 155.67C58.4352 156.763 58.3085 157.603 58.1085 158.19C57.9085 158.777 57.5518 159.07 57.0385 159.07C56.8985 159.07 56.7285 159.043 56.5285 158.99L56.5785 158.38C56.6985 158.407 56.7818 158.42 56.8285 158.42C57.1018 158.42 57.3085 158.293 57.4485 158.04C57.5885 157.787 57.6818 157.473 57.7285 157.1C57.7752 156.727 57.8152 156.233 57.8485 155.62L57.9385 153.74H61.7885ZM65.9769 159.05C65.4702 159.05 65.0135 158.937 64.6069 158.71C64.2002 158.477 63.8802 158.157 63.6469 157.75C63.4135 157.343 63.2969 156.883 63.2969 156.37C63.2969 155.857 63.4135 155.397 63.6469 154.99C63.8802 154.583 64.2002 154.267 64.6069 154.04C65.0135 153.813 65.4702 153.7 65.9769 153.7C66.4835 153.7 66.9402 153.813 67.3469 154.04C67.7535 154.267 68.0702 154.583 68.2969 154.99C68.5302 155.397 68.6469 155.857 68.6469 156.37C68.6469 156.883 68.5302 157.343 68.2969 157.75C68.0702 158.157 67.7535 158.477 67.3469 158.71C66.9402 158.937 66.4835 159.05 65.9769 159.05ZM65.9769 158.42C66.3502 158.42 66.6835 158.337 66.9769 158.17C67.2769 157.997 67.5102 157.753 67.6769 157.44C67.8435 157.127 67.9269 156.77 67.9269 156.37C67.9269 155.97 67.8435 155.613 67.6769 155.3C67.5102 154.987 67.2769 154.747 66.9769 154.58C66.6835 154.407 66.3502 154.32 65.9769 154.32C65.6035 154.32 65.2669 154.407 64.9669 154.58C64.6735 154.747 64.4402 154.987 64.2669 155.3C64.1002 155.613 64.0169 155.97 64.0169 156.37C64.0169 156.77 64.1002 157.127 64.2669 157.44C64.4402 157.753 64.6735 157.997 64.9669 158.17C65.2669 158.337 65.6035 158.42 65.9769 158.42ZM74.5888 156.66H73.4488V159H72.7388V156.66H71.5988L69.9888 159H69.1388L71.0288 156.29L69.2888 153.74H70.0588L71.5988 156.05H72.7388V153.74H73.4488V156.05H74.5888L76.1388 153.74H76.9088L75.1688 156.3L77.0588 159H76.2088L74.5888 156.66ZM82.6549 156.59H78.2549C78.2949 157.137 78.5049 157.58 78.8849 157.92C79.2649 158.253 79.7449 158.42 80.3249 158.42C80.6516 158.42 80.9516 158.363 81.2249 158.25C81.4983 158.13 81.7349 157.957 81.9349 157.73L82.3349 158.19C82.1016 158.47 81.8083 158.683 81.4549 158.83C81.1083 158.977 80.7249 159.05 80.3049 159.05C79.7649 159.05 79.2849 158.937 78.8649 158.71C78.4516 158.477 78.1283 158.157 77.8949 157.75C77.6616 157.343 77.5449 156.883 77.5449 156.37C77.5449 155.857 77.6549 155.397 77.8749 154.99C78.1016 154.583 78.4083 154.267 78.7949 154.04C79.1883 153.813 79.6283 153.7 80.1149 153.7C80.6016 153.7 81.0383 153.813 81.4249 154.04C81.8116 154.267 82.1149 154.583 82.3349 154.99C82.5549 155.39 82.6649 155.85 82.6649 156.37L82.6549 156.59ZM80.1149 154.31C79.6083 154.31 79.1816 154.473 78.8349 154.8C78.4949 155.12 78.3016 155.54 78.2549 156.06H81.9849C81.9383 155.54 81.7416 155.12 81.3949 154.8C81.0549 154.473 80.6283 154.31 80.1149 154.31ZM84.2366 153.74H84.9466V156.07H88.2566V153.74H88.9666V159H88.2566V156.68H84.9466V159H84.2366V153.74ZM90.9846 153.74H91.6946V157.92L95.2046 153.74H95.8346V159H95.1246V154.82L91.6246 159H90.9846V153.74ZM102.469 156.59H98.0694C98.1094 157.137 98.3194 157.58 98.6994 157.92C99.0794 158.253 99.5594 158.42 100.139 158.42C100.466 158.42 100.766 158.363 101.039 158.25C101.313 158.13 101.549 157.957 101.749 157.73L102.149 158.19C101.916 158.47 101.623 158.683 101.269 158.83C100.923 158.977 100.539 159.05 100.119 159.05C99.5794 159.05 99.0994 158.937 98.6794 158.71C98.266 158.477 97.9427 158.157 97.7094 157.75C97.476 157.343 97.3594 156.883 97.3594 156.37C97.3594 155.857 97.4694 155.397 97.6894 154.99C97.916 154.583 98.2227 154.267 98.6094 154.04C99.0027 153.813 99.4427 153.7 99.9294 153.7C100.416 153.7 100.853 153.813 101.239 154.04C101.626 154.267 101.929 154.583 102.149 154.99C102.369 155.39 102.479 155.85 102.479 156.37L102.469 156.59ZM99.9294 154.31C99.4227 154.31 98.996 154.473 98.6494 154.8C98.3094 155.12 98.116 155.54 98.0694 156.06H101.799C101.753 155.54 101.556 155.12 101.209 154.8C100.869 154.473 100.443 154.31 99.9294 154.31Z" fill="black"/>
<path d="M164.357 143.79H162.757V147H162.037V140H162.757V143.14H164.357L166.727 140H167.527L164.927 143.4L167.677 147H166.827L164.357 143.79ZM173.105 141.74L170.475 147.63C170.262 148.123 170.015 148.473 169.735 148.68C169.455 148.887 169.118 148.99 168.725 148.99C168.472 148.99 168.235 148.95 168.015 148.87C167.795 148.79 167.605 148.67 167.445 148.51L167.775 147.98C168.042 148.247 168.362 148.38 168.735 148.38C168.975 148.38 169.178 148.313 169.345 148.18C169.518 148.047 169.678 147.82 169.825 147.5L170.055 146.99L167.705 141.74H168.445L170.425 146.21L172.405 141.74H173.105ZM178.931 141.74V147H178.221V142.37H174.921V147H174.211V141.74H178.931ZM180.949 141.74H181.659V145.92L185.169 141.74H185.799V147H185.089V142.82L181.589 147H180.949V141.74ZM192.134 141.74V147H191.424V142.37H188.904L188.834 143.67C188.781 144.763 188.654 145.603 188.454 146.19C188.254 146.777 187.898 147.07 187.384 147.07C187.244 147.07 187.074 147.043 186.874 146.99L186.924 146.38C187.044 146.407 187.128 146.42 187.174 146.42C187.448 146.42 187.654 146.293 187.794 146.04C187.934 145.787 188.028 145.473 188.074 145.1C188.121 144.727 188.161 144.233 188.194 143.62L188.284 141.74H192.134ZM162.98 154.37H160.99V159H160.28V154.37H158.29V153.74H162.98V154.37ZM165.932 159.05C165.425 159.05 164.969 158.937 164.562 158.71C164.155 158.477 163.835 158.157 163.602 157.75C163.369 157.343 163.252 156.883 163.252 156.37C163.252 155.857 163.369 155.397 163.602 154.99C163.835 154.583 164.155 154.267 164.562 154.04C164.969 153.813 165.425 153.7 165.932 153.7C166.439 153.7 166.895 153.813 167.302 154.04C167.709 154.267 168.025 154.583 168.252 154.99C168.485 155.397 168.602 155.857 168.602 156.37C168.602 156.883 168.485 157.343 168.252 157.75C168.025 158.157 167.709 158.477 167.302 158.71C166.895 158.937 166.439 159.05 165.932 159.05ZM165.932 158.42C166.305 158.42 166.639 158.337 166.932 158.17C167.232 157.997 167.465 157.753 167.632 157.44C167.799 157.127 167.882 156.77 167.882 156.37C167.882 155.97 167.799 155.613 167.632 155.3C167.465 154.987 167.232 154.747 166.932 154.58C166.639 154.407 166.305 154.32 165.932 154.32C165.559 154.32 165.222 154.407 164.922 154.58C164.629 154.747 164.395 154.987 164.222 155.3C164.055 155.613 163.972 155.97 163.972 156.37C163.972 156.77 164.055 157.127 164.222 157.44C164.395 157.753 164.629 157.997 164.922 158.17C165.222 158.337 165.559 158.42 165.932 158.42ZM173.469 156.28C174.183 156.447 174.539 156.877 174.539 157.57C174.539 158.03 174.369 158.383 174.029 158.63C173.689 158.877 173.183 159 172.509 159H170.119V153.74H172.439C173.039 153.74 173.509 153.857 173.849 154.09C174.189 154.323 174.359 154.657 174.359 155.09C174.359 155.377 174.279 155.623 174.119 155.83C173.966 156.03 173.749 156.18 173.469 156.28ZM170.809 156.08H172.389C172.796 156.08 173.106 156.003 173.319 155.85C173.539 155.697 173.649 155.473 173.649 155.18C173.649 154.887 173.539 154.667 173.319 154.52C173.106 154.373 172.796 154.3 172.389 154.3H170.809V156.08ZM172.479 158.44C172.933 158.44 173.273 158.367 173.499 158.22C173.726 158.073 173.839 157.843 173.839 157.53C173.839 157.217 173.736 156.987 173.529 156.84C173.323 156.687 172.996 156.61 172.549 156.61H170.809V158.44H172.479ZM178.013 153.7C178.7 153.7 179.227 153.873 179.593 154.22C179.96 154.56 180.143 155.067 180.143 155.74V159H179.463V158.18C179.303 158.453 179.067 158.667 178.753 158.82C178.447 158.973 178.08 159.05 177.653 159.05C177.067 159.05 176.6 158.91 176.253 158.63C175.907 158.35 175.733 157.98 175.733 157.52C175.733 157.073 175.893 156.713 176.213 156.44C176.54 156.167 177.057 156.03 177.763 156.03H179.433V155.71C179.433 155.257 179.307 154.913 179.053 154.68C178.8 154.44 178.43 154.32 177.943 154.32C177.61 154.32 177.29 154.377 176.983 154.49C176.677 154.597 176.413 154.747 176.193 154.94L175.873 154.41C176.14 154.183 176.46 154.01 176.833 153.89C177.207 153.763 177.6 153.7 178.013 153.7ZM177.763 158.49C178.163 158.49 178.507 158.4 178.793 158.22C179.08 158.033 179.293 157.767 179.433 157.42V156.56H177.783C176.883 156.56 176.433 156.873 176.433 157.5C176.433 157.807 176.55 158.05 176.783 158.23C177.017 158.403 177.343 158.49 177.763 158.49ZM184.743 153.7C185.237 153.7 185.683 153.813 186.083 154.04C186.483 154.26 186.797 154.573 187.023 154.98C187.25 155.387 187.363 155.85 187.363 156.37C187.363 156.897 187.25 157.363 187.023 157.77C186.797 158.177 186.483 158.493 186.083 158.72C185.69 158.94 185.243 159.05 184.743 159.05C184.317 159.05 183.93 158.963 183.583 158.79C183.243 158.61 182.963 158.35 182.743 158.01V160.94H182.033V153.74H182.713V154.78C182.927 154.433 183.207 154.167 183.553 153.98C183.907 153.793 184.303 153.7 184.743 153.7ZM184.693 158.42C185.06 158.42 185.393 158.337 185.693 158.17C185.993 157.997 186.227 157.753 186.393 157.44C186.567 157.127 186.653 156.77 186.653 156.37C186.653 155.97 186.567 155.617 186.393 155.31C186.227 154.997 185.993 154.753 185.693 154.58C185.393 154.407 185.06 154.32 184.693 154.32C184.32 154.32 183.983 154.407 183.683 154.58C183.39 154.753 183.157 154.997 182.983 155.31C182.817 155.617 182.733 155.97 182.733 156.37C182.733 156.77 182.817 157.127 182.983 157.44C183.157 157.753 183.39 157.997 183.683 158.17C183.983 158.337 184.32 158.42 184.693 158.42ZM191.099 155.6C191.759 155.607 192.262 155.753 192.609 156.04C192.956 156.327 193.129 156.74 193.129 157.28C193.129 157.84 192.942 158.27 192.569 158.57C192.196 158.87 191.662 159.017 190.969 159.01L188.889 159V153.74H189.599V155.58L191.099 155.6ZM194.009 153.74H194.719V159H194.009V153.74ZM190.929 158.47C191.416 158.477 191.782 158.38 192.029 158.18C192.282 157.973 192.409 157.673 192.409 157.28C192.409 156.893 192.286 156.607 192.039 156.42C191.792 156.233 191.422 156.137 190.929 156.13L189.599 156.11V158.45L190.929 158.47Z" fill="black"/>
<path d="M165.217 100.9C166.177 100.9 166.92 101.2 167.447 101.8C167.98 102.4 168.247 103.26 168.247 104.38C168.247 105.167 168.104 105.84 167.817 106.4C167.53 106.953 167.127 107.377 166.607 107.67C166.094 107.957 165.497 108.1 164.817 108.1C164.457 108.1 164.117 108.063 163.797 107.99C163.484 107.91 163.21 107.797 162.977 107.65L163.457 106.67C163.804 106.897 164.247 107.01 164.787 107.01C165.46 107.01 165.987 106.803 166.367 106.39C166.747 105.977 166.937 105.38 166.937 104.6V104.59C166.73 104.83 166.467 105.013 166.147 105.14C165.827 105.26 165.467 105.32 165.067 105.32C164.607 105.32 164.194 105.233 163.827 105.06C163.46 104.88 163.174 104.627 162.967 104.3C162.76 103.973 162.657 103.597 162.657 103.17C162.657 102.717 162.77 102.32 162.997 101.98C163.224 101.633 163.53 101.367 163.917 101.18C164.304 100.993 164.737 100.9 165.217 100.9ZM165.317 104.3C165.737 104.3 166.077 104.187 166.337 103.96C166.604 103.733 166.737 103.447 166.737 103.1C166.737 102.76 166.607 102.48 166.347 102.26C166.094 102.033 165.74 101.92 165.287 101.92C164.88 101.92 164.55 102.03 164.297 102.25C164.044 102.463 163.917 102.75 163.917 103.11C163.917 103.477 164.044 103.767 164.297 103.98C164.55 104.193 164.89 104.3 165.317 104.3ZM175.367 106.41H174.127V108H172.867V106.41H169.027V105.51L172.477 101H173.867L170.617 105.31H172.907V103.9H174.127V105.31H175.367V106.41ZM178.834 108.1C178.274 108.1 177.774 107.96 177.334 107.68C176.894 107.393 176.547 106.98 176.294 106.44C176.04 105.893 175.914 105.247 175.914 104.5C175.914 103.753 176.04 103.11 176.294 102.57C176.547 102.023 176.894 101.61 177.334 101.33C177.774 101.043 178.274 100.9 178.834 100.9C179.394 100.9 179.894 101.043 180.334 101.33C180.78 101.61 181.13 102.023 181.384 102.57C181.637 103.11 181.764 103.753 181.764 104.5C181.764 105.247 181.637 105.893 181.384 106.44C181.13 106.98 180.78 107.393 180.334 107.68C179.894 107.96 179.394 108.1 178.834 108.1ZM178.834 106.97C179.334 106.97 179.727 106.763 180.014 106.35C180.307 105.937 180.454 105.32 180.454 104.5C180.454 103.68 180.307 103.063 180.014 102.65C179.727 102.237 179.334 102.03 178.834 102.03C178.34 102.03 177.947 102.237 177.654 102.65C177.367 103.063 177.224 103.68 177.224 104.5C177.224 105.32 177.367 105.937 177.654 106.35C177.947 106.763 178.34 106.97 178.834 106.97ZM187.566 105.69V106.26H189.766V106.96H187.566V108H186.266V106.96H185.266V106.26H186.266V101H189.146C190.079 101 190.806 101.2 191.326 101.6C191.852 102 192.116 102.583 192.116 103.35C192.116 104.11 191.852 104.69 191.326 105.09C190.806 105.49 190.079 105.69 189.146 105.69H187.566ZM190.806 103.36C190.806 102.953 190.662 102.643 190.376 102.43C190.089 102.21 189.676 102.1 189.136 102.1H187.566V104.64H189.136C189.669 104.64 190.079 104.53 190.366 104.31C190.659 104.083 190.806 103.767 190.806 103.36Z" fill="black"/>
<path d="M290.081 146.36V147H285.131V140H289.931V140.64H285.871V143.13H289.491V143.76H285.871V146.36H290.081ZM298.813 141.74V147H291.553V141.74H292.263V146.38H294.843V141.74H295.553V146.38H298.103V141.74H298.813ZM299.623 146.38V148.15H298.953V147H298.063V146.38H299.623ZM305.44 144.59H301.04C301.08 145.137 301.29 145.58 301.67 145.92C302.05 146.253 302.53 146.42 303.11 146.42C303.437 146.42 303.737 146.363 304.01 146.25C304.283 146.13 304.52 145.957 304.72 145.73L305.12 146.19C304.887 146.47 304.593 146.683 304.24 146.83C303.893 146.977 303.51 147.05 303.09 147.05C302.55 147.05 302.07 146.937 301.65 146.71C301.237 146.477 300.913 146.157 300.68 145.75C300.447 145.343 300.33 144.883 300.33 144.37C300.33 143.857 300.44 143.397 300.66 142.99C300.887 142.583 301.193 142.267 301.58 142.04C301.973 141.813 302.413 141.7 302.9 141.7C303.387 141.7 303.823 141.813 304.21 142.04C304.597 142.267 304.9 142.583 305.12 142.99C305.34 143.39 305.45 143.85 305.45 144.37L305.44 144.59ZM302.9 142.31C302.393 142.31 301.967 142.473 301.62 142.8C301.28 143.12 301.087 143.54 301.04 144.06H304.77C304.723 143.54 304.527 143.12 304.18 142.8C303.84 142.473 303.413 142.31 302.9 142.31ZM311.809 147.05C311.302 147.05 310.846 146.937 310.439 146.71C310.032 146.477 309.712 146.157 309.479 145.75C309.246 145.343 309.129 144.883 309.129 144.37C309.129 143.857 309.246 143.397 309.479 142.99C309.712 142.583 310.032 142.267 310.439 142.04C310.846 141.813 311.302 141.7 311.809 141.7C312.316 141.7 312.772 141.813 313.179 142.04C313.586 142.267 313.902 142.583 314.129 142.99C314.362 143.397 314.479 143.857 314.479 144.37C314.479 144.883 314.362 145.343 314.129 145.75C313.902 146.157 313.586 146.477 313.179 146.71C312.772 146.937 312.316 147.05 311.809 147.05ZM311.809 146.42C312.182 146.42 312.516 146.337 312.809 146.17C313.109 145.997 313.342 145.753 313.509 145.44C313.676 145.127 313.759 144.77 313.759 144.37C313.759 143.97 313.676 143.613 313.509 143.3C313.342 142.987 313.109 142.747 312.809 142.58C312.516 142.407 312.182 142.32 311.809 142.32C311.436 142.32 311.099 142.407 310.799 142.58C310.506 142.747 310.272 142.987 310.099 143.3C309.932 143.613 309.849 143.97 309.849 144.37C309.849 144.77 309.932 145.127 310.099 145.44C310.272 145.753 310.506 145.997 310.799 146.17C311.099 146.337 311.436 146.42 311.809 146.42ZM321.097 146.38V148.27H320.427V147H315.717V148.27H315.047V146.38H315.347C315.7 146.36 315.94 146.1 316.067 145.6C316.194 145.1 316.28 144.4 316.327 143.5L316.397 141.74H320.277V146.38H321.097ZM316.977 143.54C316.944 144.287 316.88 144.903 316.787 145.39C316.694 145.87 316.527 146.2 316.287 146.38H319.567V142.37H317.037L316.977 143.54ZM322.481 141.74H323.191V144.07H326.501V141.74H327.211V147H326.501V144.68H323.191V147H322.481V141.74ZM331.039 141.7C331.725 141.7 332.252 141.873 332.619 142.22C332.985 142.56 333.169 143.067 333.169 143.74V147H332.489V146.18C332.329 146.453 332.092 146.667 331.779 146.82C331.472 146.973 331.105 147.05 330.679 147.05C330.092 147.05 329.625 146.91 329.279 146.63C328.932 146.35 328.759 145.98 328.759 145.52C328.759 145.073 328.919 144.713 329.239 144.44C329.565 144.167 330.082 144.03 330.789 144.03H332.459V143.71C332.459 143.257 332.332 142.913 332.079 142.68C331.825 142.44 331.455 142.32 330.969 142.32C330.635 142.32 330.315 142.377 330.009 142.49C329.702 142.597 329.439 142.747 329.219 142.94L328.899 142.41C329.165 142.183 329.485 142.01 329.859 141.89C330.232 141.763 330.625 141.7 331.039 141.7ZM330.789 146.49C331.189 146.49 331.532 146.4 331.819 146.22C332.105 146.033 332.319 145.767 332.459 145.42V144.56H330.809C329.909 144.56 329.459 144.873 329.459 145.5C329.459 145.807 329.575 146.05 329.809 146.23C330.042 146.403 330.369 146.49 330.789 146.49ZM293.5 153.74V159H292.79V154.37H289.49V159H288.78V153.74H293.5ZM297.688 159.05C297.181 159.05 296.724 158.937 296.318 158.71C295.911 158.477 295.591 158.157 295.358 157.75C295.124 157.343 295.008 156.883 295.008 156.37C295.008 155.857 295.124 155.397 295.358 154.99C295.591 154.583 295.911 154.267 296.318 154.04C296.724 153.813 297.181 153.7 297.688 153.7C298.194 153.7 298.651 153.813 299.058 154.04C299.464 154.267 299.781 154.583 300.008 154.99C300.241 155.397 300.358 155.857 300.358 156.37C300.358 156.883 300.241 157.343 300.008 157.75C299.781 158.157 299.464 158.477 299.058 158.71C298.651 158.937 298.194 159.05 297.688 159.05ZM297.688 158.42C298.061 158.42 298.394 158.337 298.688 158.17C298.988 157.997 299.221 157.753 299.388 157.44C299.554 157.127 299.638 156.77 299.638 156.37C299.638 155.97 299.554 155.613 299.388 155.3C299.221 154.987 298.988 154.747 298.688 154.58C298.394 154.407 298.061 154.32 297.688 154.32C297.314 154.32 296.978 154.407 296.678 154.58C296.384 154.747 296.151 154.987 295.978 155.3C295.811 155.613 295.728 155.97 295.728 156.37C295.728 156.77 295.811 157.127 295.978 157.44C296.151 157.753 296.384 157.997 296.678 158.17C296.978 158.337 297.314 158.42 297.688 158.42ZM303.785 156.66H302.585V159H301.875V153.74H302.585V156.05H303.795L305.645 153.74H306.415L304.345 156.29L306.565 159H305.725L303.785 156.66ZM311.853 153.74L309.223 159.63C309.01 160.123 308.763 160.473 308.483 160.68C308.203 160.887 307.866 160.99 307.473 160.99C307.22 160.99 306.983 160.95 306.763 160.87C306.543 160.79 306.353 160.67 306.193 160.51L306.523 159.98C306.79 160.247 307.11 160.38 307.483 160.38C307.723 160.38 307.926 160.313 308.093 160.18C308.266 160.047 308.426 159.82 308.573 159.5L308.803 158.99L306.453 153.74H307.193L309.173 158.21L311.153 153.74H311.853ZM317.679 153.74V159H316.969V154.37H313.669V159H312.959V153.74H317.679ZM321.608 156.66H320.408V159H319.698V153.74H320.408V156.05H321.618L323.468 153.74H324.238L322.168 156.29L324.388 159H323.548L321.608 156.66ZM327.22 153.7C327.907 153.7 328.434 153.873 328.8 154.22C329.167 154.56 329.35 155.067 329.35 155.74V159H328.67V158.18C328.51 158.453 328.274 158.667 327.96 158.82C327.654 158.973 327.287 159.05 326.86 159.05C326.274 159.05 325.807 158.91 325.46 158.63C325.114 158.35 324.94 157.98 324.94 157.52C324.94 157.073 325.1 156.713 325.42 156.44C325.747 156.167 326.264 156.03 326.97 156.03H328.64V155.71C328.64 155.257 328.514 154.913 328.26 154.68C328.007 154.44 327.637 154.32 327.15 154.32C326.817 154.32 326.497 154.377 326.19 154.49C325.884 154.597 325.62 154.747 325.4 154.94L325.08 154.41C325.347 154.183 325.667 154.01 326.04 153.89C326.414 153.763 326.807 153.7 327.22 153.7ZM326.97 158.49C327.37 158.49 327.714 158.4 328 158.22C328.287 158.033 328.5 157.767 328.64 157.42V156.56H326.99C326.09 156.56 325.64 156.873 325.64 157.5C325.64 157.807 325.757 158.05 325.99 158.23C326.224 158.403 326.55 158.49 326.97 158.49Z" fill="black"/>
<path d="M298.066 103.68C298.526 103.68 298.94 103.77 299.306 103.95C299.673 104.123 299.96 104.373 300.166 104.7C300.373 105.027 300.476 105.403 300.476 105.83C300.476 106.283 300.363 106.683 300.136 107.03C299.91 107.37 299.603 107.633 299.216 107.82C298.83 108.007 298.396 108.1 297.916 108.1C296.956 108.1 296.21 107.8 295.676 107.2C295.15 106.6 294.886 105.74 294.886 104.62C294.886 103.833 295.03 103.163 295.316 102.61C295.603 102.05 296.003 101.627 296.516 101.34C297.036 101.047 297.636 100.9 298.316 100.9C298.676 100.9 299.013 100.94 299.326 101.02C299.646 101.093 299.923 101.203 300.156 101.35L299.676 102.33C299.33 102.103 298.886 101.99 298.346 101.99C297.673 101.99 297.146 102.197 296.766 102.61C296.386 103.023 296.196 103.62 296.196 104.4V104.41C296.403 104.17 296.666 103.99 296.986 103.87C297.306 103.743 297.666 103.68 298.066 103.68ZM297.846 107.08C298.253 107.08 298.583 106.973 298.836 106.76C299.09 106.54 299.216 106.25 299.216 105.89C299.216 105.523 299.09 105.233 298.836 105.02C298.583 104.807 298.243 104.7 297.816 104.7C297.396 104.7 297.053 104.813 296.786 105.04C296.526 105.267 296.396 105.553 296.396 105.9C296.396 106.24 296.523 106.523 296.776 106.75C297.036 106.97 297.393 107.08 297.846 107.08ZM304.076 108.1C303.516 108.1 303.016 107.96 302.576 107.68C302.136 107.393 301.789 106.98 301.536 106.44C301.282 105.893 301.156 105.247 301.156 104.5C301.156 103.753 301.282 103.11 301.536 102.57C301.789 102.023 302.136 101.61 302.576 101.33C303.016 101.043 303.516 100.9 304.076 100.9C304.636 100.9 305.136 101.043 305.576 101.33C306.022 101.61 306.372 102.023 306.626 102.57C306.879 103.11 307.006 103.753 307.006 104.5C307.006 105.247 306.879 105.893 306.626 106.44C306.372 106.98 306.022 107.393 305.576 107.68C305.136 107.96 304.636 108.1 304.076 108.1ZM304.076 106.97C304.576 106.97 304.969 106.763 305.256 106.35C305.549 105.937 305.696 105.32 305.696 104.5C305.696 103.68 305.549 103.063 305.256 102.65C304.969 102.237 304.576 102.03 304.076 102.03C303.582 102.03 303.189 102.237 302.896 102.65C302.609 103.063 302.466 103.68 302.466 104.5C302.466 105.32 302.609 105.937 302.896 106.35C303.189 106.763 303.582 106.97 304.076 106.97ZM310.804 108.1C310.244 108.1 309.744 107.96 309.304 107.68C308.864 107.393 308.518 106.98 308.264 106.44C308.011 105.893 307.884 105.247 307.884 104.5C307.884 103.753 308.011 103.11 308.264 102.57C308.518 102.023 308.864 101.61 309.304 101.33C309.744 101.043 310.244 100.9 310.804 100.9C311.364 100.9 311.864 101.043 312.304 101.33C312.751 101.61 313.101 102.023 313.354 102.57C313.608 103.11 313.734 103.753 313.734 104.5C313.734 105.247 313.608 105.893 313.354 106.44C313.101 106.98 312.751 107.393 312.304 107.68C311.864 107.96 311.364 108.1 310.804 108.1ZM310.804 106.97C311.304 106.97 311.698 106.763 311.984 106.35C312.278 105.937 312.424 105.32 312.424 104.5C312.424 103.68 312.278 103.063 311.984 102.65C311.698 102.237 311.304 102.03 310.804 102.03C310.311 102.03 309.918 102.237 309.624 102.65C309.338 103.063 309.194 103.68 309.194 104.5C309.194 105.32 309.338 105.937 309.624 106.35C309.918 106.763 310.311 106.97 310.804 106.97ZM319.537 105.69V106.26H321.737V106.96H319.537V108H318.237V106.96H317.237V106.26H318.237V101H321.117C322.05 101 322.777 101.2 323.297 101.6C323.823 102 324.087 102.583 324.087 103.35C324.087 104.11 323.823 104.69 323.297 105.09C322.777 105.49 322.05 105.69 321.117 105.69H319.537ZM322.777 103.36C322.777 102.953 322.633 102.643 322.347 102.43C322.06 102.21 321.647 102.1 321.107 102.1H319.537V104.64H321.107C321.64 104.64 322.05 104.53 322.337 104.31C322.63 104.083 322.777 103.767 322.777 103.36Z" fill="black"/>
<path d="M398.004 121.2V131H396.184V122.726H394.112V121.2H398.004ZM406.883 124.994C408.265 124.994 409.287 125.265 409.949 125.806C410.612 126.338 410.943 127.066 410.943 127.99C410.943 128.578 410.799 129.11 410.509 129.586C410.22 130.062 409.786 130.44 409.207 130.72C408.629 131 407.915 131.14 407.065 131.14C406.365 131.14 405.689 131.042 405.035 130.846C404.382 130.641 403.831 130.361 403.383 130.006L404.153 128.592C404.517 128.891 404.951 129.129 405.455 129.306C405.969 129.474 406.496 129.558 407.037 129.558C407.681 129.558 408.185 129.427 408.549 129.166C408.923 128.895 409.109 128.527 409.109 128.06C409.109 127.556 408.909 127.178 408.507 126.926C408.115 126.665 407.439 126.534 406.477 126.534H404.111L404.615 121.2H410.369V122.726H406.155L405.945 124.994H406.883ZM420.729 128.774H418.993V131H417.229V128.774H411.853V127.514L416.683 121.2H418.629L414.079 127.234H417.285V125.26H418.993V127.234H420.729V128.774ZM425.583 131.14C424.799 131.14 424.099 130.944 423.483 130.552C422.867 130.151 422.382 129.572 422.027 128.816C421.672 128.051 421.495 127.145 421.495 126.1C421.495 125.055 421.672 124.154 422.027 123.398C422.382 122.633 422.867 122.054 423.483 121.662C424.099 121.261 424.799 121.06 425.583 121.06C426.367 121.06 427.067 121.261 427.683 121.662C428.308 122.054 428.798 122.633 429.153 123.398C429.508 124.154 429.685 125.055 429.685 126.1C429.685 127.145 429.508 128.051 429.153 128.816C428.798 129.572 428.308 130.151 427.683 130.552C427.067 130.944 426.367 131.14 425.583 131.14ZM425.583 129.558C426.283 129.558 426.834 129.269 427.235 128.69C427.646 128.111 427.851 127.248 427.851 126.1C427.851 124.952 427.646 124.089 427.235 123.51C426.834 122.931 426.283 122.642 425.583 122.642C424.892 122.642 424.342 122.931 423.931 123.51C423.53 124.089 423.329 124.952 423.329 126.1C423.329 127.248 423.53 128.111 423.931 128.69C424.342 129.269 424.892 129.558 425.583 129.558ZM437.808 127.766V128.564H440.888V129.544H437.808V131H435.988V129.544H434.588V128.564H435.988V121.2H440.02C441.327 121.2 442.344 121.48 443.072 122.04C443.809 122.6 444.178 123.417 444.178 124.49C444.178 125.554 443.809 126.366 443.072 126.926C442.344 127.486 441.327 127.766 440.02 127.766H437.808ZM442.344 124.504C442.344 123.935 442.143 123.501 441.742 123.202C441.341 122.894 440.762 122.74 440.006 122.74H437.808V126.296H440.006C440.753 126.296 441.327 126.142 441.728 125.834C442.139 125.517 442.344 125.073 442.344 124.504Z" fill="#C873FF"/>
<path d="M379.354 126.354C379.549 126.158 379.549 125.842 379.354 125.646L376.172 122.464C375.976 122.269 375.66 122.269 375.464 122.464C375.269 122.66 375.269 122.976 375.464 123.172L378.293 126L375.464 128.828C375.269 129.024 375.269 129.34 375.464 129.536C375.66 129.731 375.976 129.731 376.172 129.536L379.354 126.354ZM42 126.5H379V125.5H42V126.5Z" fill="black"/>
<circle cx="42" cy="126" r="5" fill="black"/>
<circle cx="177" cy="126" r="5" fill="black"/>
<circle cx="309" cy="126" r="5" fill="black"/>
<rect x="0.5" y="0.5" width="479" height="185" stroke="black"/>
</svg>
