<svg width="1200" height="254" viewBox="0 0 1200 254" fill="none" xmlns="http://www.w3.org/2000/svg">
<rect width="1200" height="254" fill="white"/>
<path d="M0 90H1200" stroke="#262626"/>
<path d="M65.808 141.848V130.4H57.312L57.168 134.486C57.042 138.5 56.646 141.74 54.846 141.848H54.216L54.198 145.826H55.44L55.458 143H66.456V145.826H67.698V141.848H65.808ZM58.356 134.612L58.464 131.552H64.494V141.848H56.736C57.942 140.93 58.248 137.888 58.356 134.612ZM70.919 133.532L70.757 136.916C70.631 139.418 70.487 141.956 68.921 141.956C68.795 141.956 68.633 141.92 68.471 141.884L68.381 142.982C68.723 143.072 69.011 143.126 69.299 143.126C71.333 143.126 71.747 140.318 71.909 137.006L72.035 134.666H76.571V143H77.849V133.532H70.919ZM84.7761 133.532C82.3281 133.532 80.7441 134.612 80.7441 136.772C80.7441 138.302 81.5721 139.292 83.0301 139.688L80.6721 143H82.0581L84.2541 139.868H84.6141H87.5841V143H88.7541V133.532H84.7761ZM82.0401 136.808C82.0401 135.296 83.0481 134.666 84.8121 134.666H87.5841V138.914H84.7221C82.9581 138.914 82.0401 138.248 82.0401 136.808ZM104.039 143H105.551L101.555 138.122L105.281 133.532H103.895L100.565 137.69H98.387V133.532H97.109V143H98.387V138.788H100.547L104.039 143ZM108.378 133.532L108.216 136.916C108.09 139.418 107.946 141.956 106.38 141.956C106.254 141.956 106.092 141.92 105.93 141.884L105.84 142.982C106.182 143.072 106.47 143.126 106.758 143.126C108.792 143.126 109.206 140.318 109.368 137.006L109.494 134.666H114.03V143H115.308V133.532H108.378ZM118.941 143H120.093L126.393 135.476V143H127.671V133.532H126.537L120.219 141.056V133.532H118.941V143ZM139.632 138.266C139.632 135.422 137.706 133.46 135.042 133.46C132.378 133.46 130.416 135.458 130.416 138.266C130.416 141.074 132.432 143.09 135.384 143.09C136.878 143.09 138.192 142.55 139.038 141.542L138.318 140.714C137.598 141.542 136.572 141.956 135.42 141.956C133.35 141.956 131.838 140.642 131.694 138.662H139.614C139.614 138.518 139.632 138.374 139.632 138.266ZM135.042 134.558C136.896 134.558 138.246 135.854 138.408 137.708H131.694C131.856 135.854 133.206 134.558 135.042 134.558ZM142.461 143H143.739V138.824H149.697V143H150.975V133.532H149.697V137.726H143.739V133.532H142.461V143ZM161.267 133.532H152.825V134.666H156.407V143H157.685V134.666H161.267V133.532ZM166.581 143.09C169.353 143.09 171.387 141.074 171.387 138.266C171.387 135.458 169.353 133.46 166.581 133.46C163.809 133.46 161.757 135.458 161.757 138.266C161.757 141.074 163.809 143.09 166.581 143.09ZM166.581 141.956C164.565 141.956 163.053 140.48 163.053 138.266C163.053 136.052 164.565 134.576 166.581 134.576C168.597 134.576 170.091 136.052 170.091 138.266C170.091 140.48 168.597 141.956 166.581 141.956ZM180.149 138.104C181.139 137.744 181.751 137.024 181.751 135.962C181.751 134.396 180.437 133.532 178.295 133.532H174.119V143H178.421C180.887 143 182.075 142.064 182.075 140.426C182.075 139.184 181.463 138.41 180.149 138.104ZM175.361 134.54H178.205C179.663 134.54 180.473 135.062 180.473 136.124C180.473 137.186 179.663 137.744 178.205 137.744H175.361V134.54ZM178.367 141.992H175.361V138.698H178.493C180.095 138.698 180.815 139.22 180.815 140.354C180.815 141.488 179.969 141.992 178.367 141.992ZM198.889 140.948C197.917 141.65 196.801 141.92 195.595 141.92C192.499 141.92 190.213 139.688 190.213 136.7C190.213 133.694 192.499 131.48 195.613 131.48C197.089 131.48 198.349 131.912 199.411 132.956L200.239 132.11C199.123 130.904 197.467 130.292 195.559 130.292C191.707 130.292 188.899 133.01 188.899 136.7C188.899 140.39 191.707 143.108 195.541 143.108C197.287 143.108 198.979 142.568 200.167 141.506V136.7H198.889V140.948ZM207.537 143.09C210.309 143.09 212.343 141.074 212.343 138.266C212.343 135.458 210.309 133.46 207.537 133.46C204.765 133.46 202.713 135.458 202.713 138.266C202.713 141.074 204.765 143.09 207.537 143.09ZM207.537 141.956C205.521 141.956 204.009 140.48 204.009 138.266C204.009 136.052 205.521 134.576 207.537 134.576C209.553 134.576 211.047 136.052 211.047 138.266C211.047 140.48 209.553 141.956 207.537 141.956ZM224.649 130.4H219.933V143H221.265V139.022H224.649C227.853 139.022 229.797 137.402 229.797 134.72C229.797 132.02 227.853 130.4 224.649 130.4ZM224.613 137.852H221.265V131.552H224.613C227.133 131.552 228.465 132.704 228.465 134.72C228.465 136.7 227.133 137.852 224.613 137.852ZM233.385 135.386V133.532H232.161V143H233.439V138.176C233.439 135.944 234.645 134.684 236.625 134.684C236.715 134.684 236.823 134.702 236.931 134.702V133.46C235.185 133.46 233.979 134.126 233.385 135.386ZM247.419 138.266C247.419 135.422 245.493 133.46 242.829 133.46C240.165 133.46 238.203 135.458 238.203 138.266C238.203 141.074 240.219 143.09 243.171 143.09C244.665 143.09 245.979 142.55 246.825 141.542L246.105 140.714C245.385 141.542 244.359 141.956 243.207 141.956C241.137 141.956 239.625 140.642 239.481 138.662H247.401C247.401 138.518 247.419 138.374 247.419 138.266ZM242.829 134.558C244.683 134.558 246.033 135.854 246.195 137.708H239.481C239.643 135.854 240.993 134.558 242.829 134.558ZM257.382 129.644V135.332C256.59 134.108 255.294 133.46 253.782 133.46C251.082 133.46 249.066 135.404 249.066 138.266C249.066 141.128 251.082 143.09 253.782 143.09C255.348 143.09 256.662 142.406 257.436 141.128V143H258.66V129.644H257.382ZM253.89 141.956C251.874 141.956 250.362 140.48 250.362 138.266C250.362 136.052 251.874 134.576 253.89 134.576C255.888 134.576 257.4 136.052 257.4 138.266C257.4 140.48 255.888 141.956 253.89 141.956ZM262.868 131.462C263.408 131.462 263.804 131.048 263.804 130.526C263.804 130.04 263.39 129.644 262.868 129.644C262.346 129.644 261.932 130.058 261.932 130.544C261.932 131.048 262.346 131.462 262.868 131.462ZM262.22 143H263.498V133.532H262.22V143ZM270.977 143.09C272.579 143.09 273.929 142.442 274.685 141.218L273.731 140.57C273.083 141.524 272.075 141.956 270.977 141.956C268.907 141.956 267.395 140.498 267.395 138.266C267.395 136.052 268.907 134.576 270.977 134.576C272.075 134.576 273.083 135.026 273.731 135.98L274.685 135.332C273.929 134.09 272.579 133.46 270.977 133.46C268.151 133.46 266.099 135.44 266.099 138.266C266.099 141.092 268.151 143.09 270.977 143.09ZM281.838 141.506C281.478 141.83 280.956 141.992 280.434 141.992C279.372 141.992 278.796 141.38 278.796 140.264V134.612H281.676V133.532H278.796V131.462H277.518V133.532H275.826V134.612H277.518V140.336C277.518 142.082 278.508 143.09 280.29 143.09C281.028 143.09 281.784 142.874 282.288 142.424L281.838 141.506ZM287.152 143.09C289.618 143.09 291.058 142.028 291.058 140.39C291.058 136.754 284.92 138.68 284.92 136.124C284.92 135.224 285.676 134.558 287.386 134.558C288.358 134.558 289.348 134.792 290.176 135.368L290.734 134.342C289.942 133.802 288.61 133.46 287.386 133.46C284.974 133.46 283.642 134.612 283.642 136.16C283.642 139.904 289.78 137.96 289.78 140.426C289.78 141.362 289.042 141.974 287.242 141.974C285.91 141.974 284.632 141.506 283.876 140.912L283.3 141.92C284.074 142.586 285.586 143.09 287.152 143.09Z" fill="black"/>
<path d="M65.808 202.848V191.4H57.312L57.168 195.486C57.042 199.5 56.646 202.74 54.846 202.848H54.216L54.198 206.826H55.44L55.458 204H66.456V206.826H67.698V202.848H65.808ZM58.356 195.612L58.464 192.552H64.494V202.848H56.736C57.942 201.93 58.248 198.888 58.356 195.612ZM70.919 194.532L70.757 197.916C70.631 200.418 70.487 202.956 68.921 202.956C68.795 202.956 68.633 202.92 68.471 202.884L68.381 203.982C68.723 204.072 69.011 204.126 69.299 204.126C71.333 204.126 71.747 201.318 71.909 198.006L72.035 195.666H76.571V204H77.849V194.532H70.919ZM84.7761 194.532C82.3281 194.532 80.7441 195.612 80.7441 197.772C80.7441 199.302 81.5721 200.292 83.0301 200.688L80.6721 204H82.0581L84.2541 200.868H84.6141H87.5841V204H88.7541V194.532H84.7761ZM82.0401 197.808C82.0401 196.296 83.0481 195.666 84.8121 195.666H87.5841V199.914H84.7221C82.9581 199.914 82.0401 199.248 82.0401 197.808ZM101.015 204.09C103.787 204.09 105.821 202.074 105.821 199.266C105.821 196.458 103.787 194.46 101.015 194.46C98.243 194.46 96.191 196.458 96.191 199.266C96.191 202.074 98.243 204.09 101.015 204.09ZM101.015 202.956C98.999 202.956 97.487 201.48 97.487 199.266C97.487 197.052 98.999 195.576 101.015 195.576C103.031 195.576 104.525 197.052 104.525 199.266C104.525 201.48 103.031 202.956 101.015 202.956ZM112.512 204.09C114.114 204.09 115.464 203.442 116.22 202.218L115.266 201.57C114.618 202.524 113.61 202.956 112.512 202.956C110.442 202.956 108.93 201.498 108.93 199.266C108.93 197.052 110.442 195.576 112.512 195.576C113.61 195.576 114.618 196.026 115.266 196.98L116.22 196.332C115.464 195.09 114.114 194.46 112.512 194.46C109.686 194.46 107.634 196.44 107.634 199.266C107.634 202.092 109.686 204.09 112.512 204.09ZM125.179 194.532H116.737V195.666H120.319V204H121.597V195.666H125.179V194.532ZM130.285 194.46C128.791 194.46 127.387 194.928 126.433 195.738L127.009 196.692C127.783 196.008 128.935 195.576 130.159 195.576C131.923 195.576 132.841 196.458 132.841 198.078V198.654H129.835C127.117 198.654 126.181 199.878 126.181 201.336C126.181 202.974 127.495 204.09 129.637 204.09C131.203 204.09 132.319 203.496 132.895 202.524V204H134.119V198.132C134.119 195.684 132.733 194.46 130.285 194.46ZM129.835 203.082C128.323 203.082 127.441 202.398 127.441 201.3C127.441 200.328 128.035 199.608 129.871 199.608H132.841V201.156C132.337 202.398 131.275 203.082 129.835 203.082ZM138.331 194.532L138.169 197.916C138.043 200.418 137.899 202.956 136.333 202.956C136.207 202.956 136.045 202.92 135.883 202.884L135.793 203.982C136.135 204.072 136.423 204.126 136.711 204.126C138.745 204.126 139.159 201.318 139.321 198.006L139.447 195.666H143.983V204H145.261V194.532H138.331ZM152.962 197.88L150.172 197.844V194.532H148.894V204L152.71 204.018C155.23 204.054 156.598 202.92 156.598 200.904C156.598 198.96 155.338 197.898 152.962 197.88ZM152.638 203.046L150.172 203.01V198.798L152.638 198.834C154.402 198.852 155.302 199.5 155.302 200.904C155.302 202.326 154.384 203.064 152.638 203.046ZM159.037 204H160.315V199.824H166.273V204H167.551V194.532H166.273V198.726H160.315V194.532H159.037V204ZM175.161 197.88L172.461 197.844V194.532H171.183V204L174.927 204.018C177.429 204.054 178.815 202.92 178.815 200.904C178.815 198.96 177.537 197.898 175.161 197.88ZM180.399 204H181.677V194.532H180.399V204ZM174.855 203.046L172.461 203.01V198.798L174.855 198.834C176.619 198.852 177.519 199.5 177.519 200.904C177.519 202.326 176.601 203.064 174.855 203.046ZM192.696 204L188.916 199.14L192.48 194.532H191.076L188.232 198.24L185.388 194.532H183.948L187.512 199.14L183.768 204H185.208L188.232 200.04L191.238 204H192.696Z" fill="black"/>
<path d="M910.563 39.848V28.4H909.249V39.848H901.635V28.4H900.321V41H911.319V43.952H912.561V39.848H910.563ZM922.938 36.266C922.938 33.422 921.012 31.46 918.348 31.46C915.684 31.46 913.722 33.458 913.722 36.266C913.722 39.074 915.738 41.09 918.69 41.09C920.184 41.09 921.498 40.55 922.344 39.542L921.624 38.714C920.904 39.542 919.878 39.956 918.726 39.956C916.656 39.956 915.144 38.642 915 36.662H922.92C922.92 36.518 922.938 36.374 922.938 36.266ZM918.348 32.558C920.202 32.558 921.552 33.854 921.714 35.708H915C915.162 33.854 916.512 32.558 918.348 32.558ZM925.767 41H927.045V36.824H933.003V41H934.281V31.532H933.003V35.726H927.045V31.532H925.767V41ZM941.172 31.46C939.678 31.46 938.274 31.928 937.32 32.738L937.896 33.692C938.67 33.008 939.822 32.576 941.046 32.576C942.81 32.576 943.728 33.458 943.728 35.078V35.654H940.722C938.004 35.654 937.068 36.878 937.068 38.336C937.068 39.974 938.382 41.09 940.524 41.09C942.09 41.09 943.206 40.496 943.782 39.524V41H945.006V35.132C945.006 32.684 943.62 31.46 941.172 31.46ZM940.722 40.082C939.21 40.082 938.328 39.398 938.328 38.3C938.328 37.328 938.922 36.608 940.758 36.608H943.728V38.156C943.224 39.398 942.162 40.082 940.722 40.082ZM957.727 36.068C958.825 35.708 959.563 34.952 959.563 33.962C959.563 32.414 957.907 31.424 955.747 31.424C954.595 31.424 953.407 31.694 952.237 32.306L952.597 33.296C953.605 32.774 954.649 32.522 955.621 32.522C957.133 32.522 958.249 33.098 958.249 34.142C958.249 35.078 957.277 35.636 955.891 35.636H954.343V36.572H955.963C957.547 36.572 958.519 37.166 958.519 38.174C958.519 39.326 957.241 40.01 955.531 40.01C954.379 40.01 953.155 39.65 952.273 38.984L951.841 39.938C952.849 40.712 954.235 41.108 955.585 41.108C957.943 41.108 959.833 39.992 959.833 38.282C959.833 37.166 959.059 36.374 957.727 36.068ZM965.992 31.46C964.498 31.46 963.094 31.928 962.14 32.738L962.716 33.692C963.49 33.008 964.642 32.576 965.866 32.576C967.63 32.576 968.548 33.458 968.548 35.078V35.654H965.542C962.824 35.654 961.888 36.878 961.888 38.336C961.888 39.974 963.202 41.09 965.344 41.09C966.91 41.09 968.026 40.496 968.602 39.524V41H969.826V35.132C969.826 32.684 968.44 31.46 965.992 31.46ZM965.542 40.082C964.03 40.082 963.148 39.398 963.148 38.3C963.148 37.328 963.742 36.608 965.578 36.608H968.548V38.156C968.044 39.398 966.982 40.082 965.542 40.082ZM976.283 28.4V29.552H979.253V41H980.549V28.4H976.283ZM989.388 41H990.72V28.4H989.388V41ZM994.82 41H999.95C1003.98 41 1006.7 38.408 1006.7 34.7C1006.7 30.992 1003.98 28.4 999.95 28.4H994.82V41ZM996.152 39.848V29.552H999.878C1003.23 29.552 1005.39 31.676 1005.39 34.7C1005.39 37.724 1003.23 39.848 999.878 39.848H996.152ZM1014.17 31.532V41H1015.45V32.666H1021.39V41H1022.66V31.532H1014.17ZM1030.2 41.09C1032.97 41.09 1035.01 39.074 1035.01 36.266C1035.01 33.458 1032.97 31.46 1030.2 31.46C1027.43 31.46 1025.38 33.458 1025.38 36.266C1025.38 39.074 1027.43 41.09 1030.2 41.09ZM1030.2 39.956C1028.19 39.956 1026.67 38.48 1026.67 36.266C1026.67 34.052 1028.19 32.576 1030.2 32.576C1032.22 32.576 1033.71 34.052 1033.71 36.266C1033.71 38.48 1032.22 39.956 1030.2 39.956ZM1038.5 31.532L1038.34 34.916C1038.21 37.418 1038.07 39.956 1036.5 39.956C1036.37 39.956 1036.21 39.92 1036.05 39.884L1035.96 40.982C1036.3 41.072 1036.59 41.126 1036.88 41.126C1038.91 41.126 1039.33 38.318 1039.49 35.006L1039.61 32.666H1044.15V41H1045.43V31.532H1038.5ZM1053.13 34.88L1050.34 34.844V31.532H1049.06V41L1052.88 41.018C1055.4 41.054 1056.76 39.92 1056.76 37.904C1056.76 35.96 1055.5 34.898 1053.13 34.88ZM1052.8 40.046L1050.34 40.01V35.798L1052.8 35.834C1054.57 35.852 1055.47 36.5 1055.47 37.904C1055.47 39.326 1054.55 40.064 1052.8 40.046ZM1063.72 36.068C1064.82 35.708 1065.56 34.952 1065.56 33.962C1065.56 32.414 1063.9 31.424 1061.74 31.424C1060.59 31.424 1059.4 31.694 1058.23 32.306L1058.59 33.296C1059.6 32.774 1060.64 32.522 1061.62 32.522C1063.13 32.522 1064.24 33.098 1064.24 34.142C1064.24 35.078 1063.27 35.636 1061.89 35.636H1060.34V36.572H1061.96C1063.54 36.572 1064.51 37.166 1064.51 38.174C1064.51 39.326 1063.24 40.01 1061.53 40.01C1060.37 40.01 1059.15 39.65 1058.27 38.984L1057.84 39.938C1058.84 40.712 1060.23 41.108 1061.58 41.108C1063.94 41.108 1065.83 39.992 1065.83 38.282C1065.83 37.166 1065.05 36.374 1063.72 36.068ZM1072.64 41.09C1075.41 41.09 1077.44 39.074 1077.44 36.266C1077.44 33.458 1075.41 31.46 1072.64 31.46C1069.86 31.46 1067.81 33.458 1067.81 36.266C1067.81 39.074 1069.86 41.09 1072.64 41.09ZM1072.64 39.956C1070.62 39.956 1069.11 38.48 1069.11 36.266C1069.11 34.052 1070.62 32.576 1072.64 32.576C1074.65 32.576 1076.15 34.052 1076.15 36.266C1076.15 38.48 1074.65 39.956 1072.64 39.956ZM1086.2 36.104C1087.19 35.744 1087.81 35.024 1087.81 33.962C1087.81 32.396 1086.49 31.532 1084.35 31.532H1080.17V41H1084.48C1086.94 41 1088.13 40.064 1088.13 38.426C1088.13 37.184 1087.52 36.41 1086.2 36.104ZM1081.42 32.54H1084.26C1085.72 32.54 1086.53 33.062 1086.53 34.124C1086.53 35.186 1085.72 35.744 1084.26 35.744H1081.42V32.54ZM1084.42 39.992H1081.42V36.698H1084.55C1086.15 36.698 1086.87 37.22 1086.87 38.354C1086.87 39.488 1086.02 39.992 1084.42 39.992ZM1094.38 31.46C1092.89 31.46 1091.48 31.928 1090.53 32.738L1091.11 33.692C1091.88 33.008 1093.03 32.576 1094.26 32.576C1096.02 32.576 1096.94 33.458 1096.94 35.078V35.654H1093.93C1091.21 35.654 1090.28 36.878 1090.28 38.336C1090.28 39.974 1091.59 41.09 1093.73 41.09C1095.3 41.09 1096.42 40.496 1096.99 39.524V41H1098.22V35.132C1098.22 32.684 1096.83 31.46 1094.38 31.46ZM1093.93 40.082C1092.42 40.082 1091.54 39.398 1091.54 38.3C1091.54 37.328 1092.13 36.608 1093.97 36.608H1096.94V38.156C1096.43 39.398 1095.37 40.082 1093.93 40.082ZM1108.28 31.532H1099.84V32.666H1103.42V41H1104.7V32.666H1108.28V31.532ZM1117.99 36.266C1117.99 33.422 1116.06 31.46 1113.4 31.46C1110.73 31.46 1108.77 33.458 1108.77 36.266C1108.77 39.074 1110.79 41.09 1113.74 41.09C1115.23 41.09 1116.55 40.55 1117.39 39.542L1116.67 38.714C1115.95 39.542 1114.93 39.956 1113.77 39.956C1111.7 39.956 1110.19 38.642 1110.05 36.662H1117.97C1117.97 36.518 1117.99 36.374 1117.99 36.266ZM1113.4 32.558C1115.25 32.558 1116.6 33.854 1116.76 35.708H1110.05C1110.21 33.854 1111.56 32.558 1113.4 32.558ZM1121.43 31.532L1121.27 34.916C1121.14 37.418 1121 39.956 1119.43 39.956C1119.31 39.956 1119.14 39.92 1118.98 39.884L1118.89 40.982C1119.23 41.072 1119.52 41.126 1119.81 41.126C1121.84 41.126 1122.26 38.318 1122.42 35.006L1122.55 32.666H1127.08V41H1128.36V31.532H1121.43ZM1135.29 31.532C1132.84 31.532 1131.26 32.612 1131.26 34.772C1131.26 36.302 1132.08 37.292 1133.54 37.688L1131.18 41H1132.57L1134.77 37.868H1135.13H1138.1V41H1139.27V31.532H1135.29ZM1132.55 34.808C1132.55 33.296 1133.56 32.666 1135.32 32.666H1138.1V36.914H1135.23C1133.47 36.914 1132.55 36.248 1132.55 34.808ZM971.585 58.104C972.575 57.744 973.187 57.024 973.187 55.962C973.187 54.396 971.873 53.532 969.731 53.532H965.555V63H969.857C972.323 63 973.511 62.064 973.511 60.426C973.511 59.184 972.899 58.41 971.585 58.104ZM966.797 54.54H969.641C971.099 54.54 971.909 55.062 971.909 56.124C971.909 57.186 971.099 57.744 969.641 57.744H966.797V54.54ZM969.803 61.992H966.797V58.698H969.929C971.531 58.698 972.251 59.22 972.251 60.354C972.251 61.488 971.405 61.992 969.803 61.992ZM984.475 53.46C982.981 53.46 981.577 53.928 980.623 54.738L981.199 55.692C981.973 55.008 983.125 54.576 984.349 54.576C986.113 54.576 987.031 55.458 987.031 57.078V57.654H984.025C981.307 57.654 980.371 58.878 980.371 60.336C980.371 61.974 981.685 63.09 983.827 63.09C985.393 63.09 986.509 62.496 987.085 61.524V63H988.309V57.132C988.309 54.684 986.923 53.46 984.475 53.46ZM984.025 62.082C982.513 62.082 981.631 61.398 981.631 60.3C981.631 59.328 982.225 58.608 984.061 58.608H987.031V60.156C986.527 61.398 985.465 62.082 984.025 62.082ZM998.498 53.532L994.934 61.578L991.37 53.532H990.038L994.268 62.982L993.854 63.9C993.314 65.088 992.738 65.484 991.892 65.484C991.208 65.484 990.632 65.232 990.164 64.764L989.57 65.718C990.146 66.294 990.992 66.582 991.874 66.582C993.224 66.582 994.232 65.988 995.024 64.134L999.758 53.532H998.498ZM1009.08 61.884V53.532H1002.1L1001.97 56.7C1001.85 59.256 1001.61 61.794 1000.21 61.884H999.671V65.286H1000.88V63H1009.35V65.286H1010.56V61.884H1009.08ZM1003.14 56.772L1003.25 54.666H1007.81V61.884H1001.9C1002.86 61.164 1003.05 58.932 1003.14 56.772ZM1013.05 63H1014.2L1020.5 55.476V63H1021.78V53.532H1020.65L1014.33 61.056V53.532H1013.05V63ZM1032.1 53.532H1023.66V54.666H1027.24V63H1028.52V54.666H1032.1V53.532ZM1037.42 63.09C1040.19 63.09 1042.22 61.074 1042.22 58.266C1042.22 55.458 1040.19 53.46 1037.42 53.46C1034.65 53.46 1032.59 55.458 1032.59 58.266C1032.59 61.074 1034.65 63.09 1037.42 63.09ZM1037.42 61.956C1035.4 61.956 1033.89 60.48 1033.89 58.266C1033.89 56.052 1035.4 54.576 1037.42 54.576C1039.43 54.576 1040.93 56.052 1040.93 58.266C1040.93 60.48 1039.43 61.956 1037.42 61.956ZM1049.83 53.46C1048.27 53.46 1046.95 54.144 1046.18 55.404V53.532H1044.96V66.492H1046.23V61.218C1047.03 62.442 1048.32 63.09 1049.83 63.09C1052.53 63.09 1054.55 61.146 1054.55 58.266C1054.55 55.404 1052.53 53.46 1049.83 53.46ZM1049.74 61.956C1047.73 61.956 1046.22 60.48 1046.22 58.266C1046.22 56.07 1047.73 54.576 1049.74 54.576C1051.74 54.576 1053.27 56.07 1053.27 58.266C1053.27 60.48 1051.74 61.956 1049.74 61.956ZM1057.3 63H1058.45L1064.75 55.476V63H1066.03V53.532H1064.89L1058.57 61.056V53.532H1057.3V63ZM1069.69 63H1070.84L1077.14 55.476V63H1078.42V53.532H1077.28L1070.97 61.056V53.532H1069.69V63Z" fill="black"/>
<path d="M581.025 139.436C581.025 136.934 578.847 136.304 576.849 135.818V132.182C577.803 132.29 578.811 132.596 579.765 133.154L580.503 131.336C579.531 130.706 578.181 130.31 576.849 130.238V128.24H575.373V130.274C572.565 130.544 571.233 132.146 571.233 133.982C571.233 136.484 573.375 137.132 575.373 137.618V141.218C574.005 141.092 572.655 140.57 571.773 139.85L570.963 141.668C571.899 142.478 573.609 143.054 575.373 143.162V145.16H576.849V143.144C579.675 142.856 581.025 141.272 581.025 139.436ZM573.555 133.874C573.555 133.082 574.095 132.434 575.373 132.236V135.44C574.329 135.134 573.555 134.738 573.555 133.874ZM576.849 141.182V137.996C577.929 138.302 578.721 138.716 578.721 139.598C578.721 140.372 578.163 140.984 576.849 141.182ZM581.622 130.4V132.362H584.286V143H586.626V130.4H581.622ZM594.381 143.18C597.387 143.18 599.655 140.84 599.655 136.7C599.655 132.56 597.387 130.22 594.381 130.22C591.393 130.22 589.125 132.56 589.125 136.7C589.125 140.84 591.393 143.18 594.381 143.18ZM594.381 141.146C592.671 141.146 591.483 139.742 591.483 136.7C591.483 133.658 592.671 132.254 594.381 132.254C596.109 132.254 597.297 133.658 597.297 136.7C597.297 139.742 596.109 141.146 594.381 141.146ZM606.492 143.18C609.498 143.18 611.766 140.84 611.766 136.7C611.766 132.56 609.498 130.22 606.492 130.22C603.504 130.22 601.236 132.56 601.236 136.7C601.236 140.84 603.504 143.18 606.492 143.18ZM606.492 141.146C604.782 141.146 603.594 139.742 603.594 136.7C603.594 133.658 604.782 132.254 606.492 132.254C608.22 132.254 609.408 133.658 609.408 136.7C609.408 139.742 608.22 141.146 606.492 141.146ZM618.604 143.18C621.61 143.18 623.878 140.84 623.878 136.7C623.878 132.56 621.61 130.22 618.604 130.22C615.616 130.22 613.348 132.56 613.348 136.7C613.348 140.84 615.616 143.18 618.604 143.18ZM618.604 141.146C616.894 141.146 615.706 139.742 615.706 136.7C615.706 133.658 616.894 132.254 618.604 132.254C620.332 132.254 621.52 133.658 621.52 136.7C621.52 139.742 620.332 141.146 618.604 141.146Z" fill="black"/>
<path d="M598.976 200.436C598.976 197.934 596.798 197.304 594.8 196.818V193.182C595.754 193.29 596.762 193.596 597.716 194.154L598.454 192.336C597.482 191.706 596.132 191.31 594.8 191.238V189.24H593.324V191.274C590.516 191.544 589.184 193.146 589.184 194.982C589.184 197.484 591.326 198.132 593.324 198.618V202.218C591.956 202.092 590.606 201.57 589.724 200.85L588.914 202.668C589.85 203.478 591.56 204.054 593.324 204.162V206.16H594.8V204.144C597.626 203.856 598.976 202.272 598.976 200.436ZM591.506 194.874C591.506 194.082 592.046 193.434 593.324 193.236V196.44C592.28 196.134 591.506 195.738 591.506 194.874ZM594.8 202.182V198.996C595.88 199.302 596.672 199.716 596.672 200.598C596.672 201.372 596.114 201.984 594.8 202.182ZM605.652 204.18C608.658 204.18 610.926 201.84 610.926 197.7C610.926 193.56 608.658 191.22 605.652 191.22C602.664 191.22 600.396 193.56 600.396 197.7C600.396 201.84 602.664 204.18 605.652 204.18ZM605.652 202.146C603.942 202.146 602.754 200.742 602.754 197.7C602.754 194.658 603.942 193.254 605.652 193.254C607.38 193.254 608.568 194.658 608.568 197.7C608.568 200.742 607.38 202.146 605.652 202.146Z" fill="black"/>
<path d="M514.478 36.4V49H515.792V37.552H523.766V49H525.08V36.4H514.478ZM537.324 44.266C537.324 41.422 535.398 39.46 532.734 39.46C530.07 39.46 528.108 41.458 528.108 44.266C528.108 47.074 530.124 49.09 533.076 49.09C534.57 49.09 535.884 48.55 536.73 47.542L536.01 46.714C535.29 47.542 534.264 47.956 533.112 47.956C531.042 47.956 529.53 46.642 529.386 44.662H537.306C537.306 44.518 537.324 44.374 537.324 44.266ZM532.734 40.558C534.588 40.558 535.938 41.854 536.1 43.708H529.386C529.548 41.854 530.898 40.558 532.734 40.558ZM545.031 39.46C543.465 39.46 542.151 40.144 541.377 41.404V39.532H540.153V52.492H541.431V47.218C542.223 48.442 543.519 49.09 545.031 49.09C547.731 49.09 549.747 47.146 549.747 44.266C549.747 41.404 547.731 39.46 545.031 39.46ZM544.941 47.956C542.925 47.956 541.413 46.48 541.413 44.266C541.413 42.07 542.925 40.576 544.941 40.576C546.939 40.576 548.469 42.07 548.469 44.266C548.469 46.48 546.939 47.956 544.941 47.956ZM558.523 44.104C559.513 43.744 560.125 43.024 560.125 41.962C560.125 40.396 558.811 39.532 556.669 39.532H552.493V49H556.795C559.261 49 560.449 48.064 560.449 46.426C560.449 45.184 559.837 44.41 558.523 44.104ZM553.735 40.54H556.579C558.037 40.54 558.847 41.062 558.847 42.124C558.847 43.186 558.037 43.744 556.579 43.744H553.735V40.54ZM556.741 47.992H553.735V44.698H556.867C558.469 44.698 559.189 45.22 559.189 46.354C559.189 47.488 558.343 47.992 556.741 47.992ZM566.702 39.46C565.208 39.46 563.804 39.928 562.85 40.738L563.426 41.692C564.2 41.008 565.352 40.576 566.576 40.576C568.34 40.576 569.258 41.458 569.258 43.078V43.654H566.252C563.534 43.654 562.598 44.878 562.598 46.336C562.598 47.974 563.912 49.09 566.054 49.09C567.62 49.09 568.736 48.496 569.312 47.524V49H570.536V43.132C570.536 40.684 569.15 39.46 566.702 39.46ZM566.252 48.082C564.74 48.082 563.858 47.398 563.858 46.3C563.858 45.328 564.452 44.608 566.288 44.608H569.258V46.156C568.754 47.398 567.692 48.082 566.252 48.082ZM577.232 39.532C574.784 39.532 573.2 40.612 573.2 42.772C573.2 44.302 574.028 45.292 575.486 45.688L573.128 49H574.514L576.71 45.868H577.07H580.04V49H581.21V39.532H577.232ZM574.496 42.808C574.496 41.296 575.504 40.666 577.268 40.666H580.04V44.914H577.178C575.414 44.914 574.496 44.248 574.496 42.808ZM596.261 39.532H589.565V49H590.843V40.666H596.261V39.532ZM605.967 44.266C605.967 41.422 604.041 39.46 601.377 39.46C598.713 39.46 596.751 41.458 596.751 44.266C596.751 47.074 598.767 49.09 601.719 49.09C603.213 49.09 604.527 48.55 605.373 47.542L604.653 46.714C603.933 47.542 602.907 47.956 601.755 47.956C599.685 47.956 598.173 46.642 598.029 44.662H605.949C605.949 44.518 605.967 44.374 605.967 44.266ZM601.377 40.558C603.231 40.558 604.581 41.854 604.743 43.708H598.029C598.191 41.854 599.541 40.558 601.377 40.558ZM608.796 49H610.074V44.824H616.032V49H617.31V39.532H616.032V43.726H610.074V39.532H608.796V49ZM629.24 44.266C629.24 41.422 627.314 39.46 624.65 39.46C621.986 39.46 620.024 41.458 620.024 44.266C620.024 47.074 622.04 49.09 624.992 49.09C626.486 49.09 627.8 48.55 628.646 47.542L627.926 46.714C627.206 47.542 626.18 47.956 625.028 47.956C622.958 47.956 621.446 46.642 621.302 44.662H629.222C629.222 44.518 629.24 44.374 629.24 44.266ZM624.65 40.558C626.504 40.558 627.854 41.854 628.016 43.708H621.302C621.464 41.854 622.814 40.558 624.65 40.558ZM636.947 39.46C635.381 39.46 634.067 40.144 633.293 41.404V39.532H632.069V52.492H633.347V47.218C634.139 48.442 635.435 49.09 636.947 49.09C639.647 49.09 641.663 47.146 641.663 44.266C641.663 41.404 639.647 39.46 636.947 39.46ZM636.857 47.956C634.841 47.956 633.329 46.48 633.329 44.266C633.329 42.07 634.841 40.576 636.857 40.576C638.855 40.576 640.385 42.07 640.385 44.266C640.385 46.48 638.855 47.956 636.857 47.956ZM647.614 39.46C646.12 39.46 644.716 39.928 643.762 40.738L644.338 41.692C645.112 41.008 646.264 40.576 647.488 40.576C649.252 40.576 650.17 41.458 650.17 43.078V43.654H647.164C644.446 43.654 643.51 44.878 643.51 46.336C643.51 47.974 644.824 49.09 646.966 49.09C648.532 49.09 649.648 48.496 650.224 47.524V49H651.448V43.132C651.448 40.684 650.062 39.46 647.614 39.46ZM647.164 48.082C645.652 48.082 644.77 47.398 644.77 46.3C644.77 45.328 645.364 44.608 647.2 44.608H650.17V46.156C649.666 47.398 648.604 48.082 647.164 48.082ZM663.184 47.884V39.532H661.906V47.884H656.128V39.532H654.85V49H663.508V51.376H664.714V47.884H663.184ZM667.155 49H668.307L674.607 41.476V49H675.885V39.532H674.751L668.433 47.056V39.532H667.155V49ZM682.841 39.532C680.393 39.532 678.809 40.612 678.809 42.772C678.809 44.302 679.637 45.292 681.095 45.688L678.737 49H680.123L682.319 45.868H682.679H685.649V49H686.819V39.532H682.841ZM680.105 42.808C680.105 41.296 681.113 40.666 682.877 40.666H685.649V44.914H682.787C681.023 44.914 680.105 44.248 680.105 42.808Z" fill="black"/>
<path d="M1019.18 169.436C1019.18 166.934 1017 166.304 1015 165.818V162.182C1015.96 162.29 1016.96 162.596 1017.92 163.154L1018.66 161.336C1017.68 160.706 1016.33 160.31 1015 160.238V158.24H1013.53V160.274C1010.72 160.544 1009.39 162.146 1009.39 163.982C1009.39 166.484 1011.53 167.132 1013.53 167.618V171.218C1012.16 171.092 1010.81 170.57 1009.93 169.85L1009.12 171.668C1010.05 172.478 1011.76 173.054 1013.53 173.162V175.16H1015V173.144C1017.83 172.856 1019.18 171.272 1019.18 169.436ZM1011.71 163.874C1011.71 163.082 1012.25 162.434 1013.53 162.236V165.44C1012.48 165.134 1011.71 164.738 1011.71 163.874ZM1015 171.182V167.996C1016.08 168.302 1016.87 168.716 1016.87 169.598C1016.87 170.372 1016.32 170.984 1015 171.182ZM1025.85 173.18C1028.86 173.18 1031.13 170.84 1031.13 166.7C1031.13 162.56 1028.86 160.22 1025.85 160.22C1022.87 160.22 1020.6 162.56 1020.6 166.7C1020.6 170.84 1022.87 173.18 1025.85 173.18ZM1025.85 171.146C1024.14 171.146 1022.96 169.742 1022.96 166.7C1022.96 163.658 1024.14 162.254 1025.85 162.254C1027.58 162.254 1028.77 163.658 1028.77 166.7C1028.77 169.742 1027.58 171.146 1025.85 171.146ZM1033.9 173.126C1034.71 173.126 1035.38 172.496 1035.38 171.632C1035.38 170.732 1034.71 170.138 1033.9 170.138C1033.09 170.138 1032.43 170.732 1032.43 171.632C1032.43 172.496 1033.09 173.126 1033.9 173.126ZM1041.94 173.18C1044.94 173.18 1047.21 170.84 1047.21 166.7C1047.21 162.56 1044.94 160.22 1041.94 160.22C1038.95 160.22 1036.68 162.56 1036.68 166.7C1036.68 170.84 1038.95 173.18 1041.94 173.18ZM1041.94 171.146C1040.23 171.146 1039.04 169.742 1039.04 166.7C1039.04 163.658 1040.23 162.254 1041.94 162.254C1043.67 162.254 1044.85 163.658 1044.85 166.7C1044.85 169.742 1043.67 171.146 1041.94 171.146ZM1052.74 165.278H1051.53L1051.8 162.362H1057.22V160.4H1049.82L1049.17 167.258H1052.21C1054.82 167.258 1055.6 168.014 1055.6 169.22C1055.6 170.408 1054.61 171.146 1052.93 171.146C1051.51 171.146 1050.14 170.66 1049.23 169.904L1048.24 171.722C1049.39 172.64 1051.19 173.18 1052.97 173.18C1056.35 173.18 1057.96 171.344 1057.96 169.13C1057.96 166.898 1056.46 165.278 1052.74 165.278Z" fill="black"/>
</svg>
