<svg width="320" height="217" viewBox="0 0 320 217" fill="none" xmlns="http://www.w3.org/2000/svg">
<g clip-path="url(#clip0_448_2194)">
<rect width="320" height="217" fill="white"/>
<path d="M-440 83H760" stroke="#262626"/>
<path d="M22.872 120.232V112.6H17.208L17.112 115.324C17.028 118 16.764 120.16 15.564 120.232H15.144L15.132 122.884H15.96L15.972 121H23.304V122.884H24.132V120.232H22.872ZM17.904 115.408L17.976 113.368H21.996V120.232H16.824C17.628 119.62 17.832 117.592 17.904 115.408ZM26.2793 114.688L26.1713 116.944C26.0873 118.612 25.9913 120.304 24.9473 120.304C24.8633 120.304 24.7553 120.28 24.6473 120.256L24.5873 120.988C24.8153 121.048 25.0073 121.084 25.1993 121.084C26.5553 121.084 26.8313 119.212 26.9393 117.004L27.0233 115.444H30.0473V121H30.8993V114.688H26.2793ZM35.5174 114.688C33.8854 114.688 32.8294 115.408 32.8294 116.848C32.8294 117.868 33.3814 118.528 34.3534 118.792L32.7814 121H33.7054L35.1694 118.912H35.4094H37.3894V121H38.1694V114.688H35.5174ZM33.6934 116.872C33.6934 115.864 34.3654 115.444 35.5414 115.444H37.3894V118.276H35.4814C34.3054 118.276 33.6934 117.832 33.6934 116.872ZM48.3593 121H49.3673L46.7033 117.748L49.1873 114.688H48.2633L46.0433 117.46H44.5913V114.688H43.7393V121H44.5913V118.192H46.0313L48.3593 121ZM51.252 114.688L51.144 116.944C51.06 118.612 50.964 120.304 49.92 120.304C49.836 120.304 49.728 120.28 49.62 120.256L49.56 120.988C49.788 121.048 49.98 121.084 50.172 121.084C51.528 121.084 51.804 119.212 51.912 117.004L51.996 115.444H55.02V121H55.872V114.688H51.252ZM58.294 121H59.062L63.262 115.984V121H64.114V114.688H63.358L59.146 119.704V114.688H58.294V121ZM72.0878 117.844C72.0878 115.948 70.8038 114.64 69.0278 114.64C67.2518 114.64 65.9438 115.972 65.9438 117.844C65.9438 119.716 67.2878 121.06 69.2558 121.06C70.2518 121.06 71.1278 120.7 71.6918 120.028L71.2118 119.476C70.7318 120.028 70.0478 120.304 69.2798 120.304C67.8998 120.304 66.8918 119.428 66.7958 118.108H72.0758C72.0758 118.012 72.0878 117.916 72.0878 117.844ZM69.0278 115.372C70.2638 115.372 71.1638 116.236 71.2718 117.472H66.7958C66.9038 116.236 67.8038 115.372 69.0278 115.372ZM73.9737 121H74.8257V118.216H78.7977V121H79.6497V114.688H78.7977V117.484H74.8257V114.688H73.9737V121ZM86.5114 114.688H80.8834V115.444H83.2714V121H84.1234V115.444H86.5114V114.688ZM90.0543 121.06C91.9023 121.06 93.2583 119.716 93.2583 117.844C93.2583 115.972 91.9023 114.64 90.0543 114.64C88.2063 114.64 86.8383 115.972 86.8383 117.844C86.8383 119.716 88.2063 121.06 90.0543 121.06ZM90.0543 120.304C88.7103 120.304 87.7023 119.32 87.7023 117.844C87.7023 116.368 88.7103 115.384 90.0543 115.384C91.3983 115.384 92.3943 116.368 92.3943 117.844C92.3943 119.32 91.3983 120.304 90.0543 120.304ZM99.0992 117.736C99.7592 117.496 100.167 117.016 100.167 116.308C100.167 115.264 99.2912 114.688 97.8632 114.688H95.0792V121H97.9472C99.5912 121 100.383 120.376 100.383 119.284C100.383 118.456 99.9752 117.94 99.0992 117.736ZM95.9072 115.36H97.8032C98.7752 115.36 99.3152 115.708 99.3152 116.416C99.3152 117.124 98.7752 117.496 97.8032 117.496H95.9072V115.36ZM97.9112 120.328H95.9072V118.132H97.9952C99.0632 118.132 99.5432 118.48 99.5432 119.236C99.5432 119.992 98.9792 120.328 97.9112 120.328ZM22.284 134.632C21.636 135.1 20.892 135.28 20.088 135.28C18.024 135.28 16.5 133.792 16.5 131.8C16.5 129.796 18.024 128.32 20.1 128.32C21.084 128.32 21.924 128.608 22.632 129.304L23.184 128.74C22.44 127.936 21.336 127.528 20.064 127.528C17.496 127.528 15.624 129.34 15.624 131.8C15.624 134.26 17.496 136.072 20.052 136.072C21.216 136.072 22.344 135.712 23.136 135.004V131.8H22.284V134.632ZM28.0493 136.06C29.8973 136.06 31.2533 134.716 31.2533 132.844C31.2533 130.972 29.8973 129.64 28.0493 129.64C26.2013 129.64 24.8333 130.972 24.8333 132.844C24.8333 134.716 26.2013 136.06 28.0493 136.06ZM28.0493 135.304C26.7053 135.304 25.6973 134.32 25.6973 132.844C25.6973 131.368 26.7053 130.384 28.0493 130.384C29.3933 130.384 30.3893 131.368 30.3893 132.844C30.3893 134.32 29.3933 135.304 28.0493 135.304ZM39.4573 127.6H36.3133V136H37.2013V133.348H39.4573C41.5933 133.348 42.8893 132.268 42.8893 130.48C42.8893 128.68 41.5933 127.6 39.4573 127.6ZM39.4333 132.568H37.2013V128.368H39.4333C41.1133 128.368 42.0013 129.136 42.0013 130.48C42.0013 131.8 41.1133 132.568 39.4333 132.568ZM45.2813 130.924V129.688H44.4653V136H45.3173V132.784C45.3173 131.296 46.1213 130.456 47.4413 130.456C47.5013 130.456 47.5733 130.468 47.6453 130.468V129.64C46.4813 129.64 45.6773 130.084 45.2813 130.924ZM54.6374 132.844C54.6374 130.948 53.3534 129.64 51.5774 129.64C49.8014 129.64 48.4934 130.972 48.4934 132.844C48.4934 134.716 49.8374 136.06 51.8054 136.06C52.8014 136.06 53.6774 135.7 54.2414 135.028L53.7614 134.476C53.2814 135.028 52.5974 135.304 51.8294 135.304C50.4494 135.304 49.4414 134.428 49.3454 133.108H54.6254C54.6254 133.012 54.6374 132.916 54.6374 132.844ZM51.5774 130.372C52.8134 130.372 53.7134 131.236 53.8214 132.472H49.3454C49.4534 131.236 50.3534 130.372 51.5774 130.372ZM61.2796 127.096V130.888C60.7516 130.072 59.8876 129.64 58.8796 129.64C57.0796 129.64 55.7356 130.936 55.7356 132.844C55.7356 134.752 57.0796 136.06 58.8796 136.06C59.9236 136.06 60.7996 135.604 61.3156 134.752V136H62.1316V127.096H61.2796ZM58.9516 135.304C57.6076 135.304 56.5996 134.32 56.5996 132.844C56.5996 131.368 57.6076 130.384 58.9516 130.384C60.2836 130.384 61.2916 131.368 61.2916 132.844C61.2916 134.32 60.2836 135.304 58.9516 135.304ZM64.9364 128.308C65.2964 128.308 65.5604 128.032 65.5604 127.684C65.5604 127.36 65.2844 127.096 64.9364 127.096C64.5884 127.096 64.3124 127.372 64.3124 127.696C64.3124 128.032 64.5884 128.308 64.9364 128.308ZM64.5044 136H65.3564V129.688H64.5044V136ZM70.3431 136.06C71.4111 136.06 72.3111 135.628 72.8151 134.812L72.1791 134.38C71.7471 135.016 71.0751 135.304 70.3431 135.304C68.9631 135.304 67.9551 134.332 67.9551 132.844C67.9551 131.368 68.9631 130.384 70.3431 130.384C71.0751 130.384 71.7471 130.684 72.1791 131.32L72.8151 130.888C72.3111 130.06 71.4111 129.64 70.3431 129.64C68.4591 129.64 67.0911 130.96 67.0911 132.844C67.0911 134.728 68.4591 136.06 70.3431 136.06ZM77.5831 135.004C77.3431 135.22 76.9951 135.328 76.6471 135.328C75.9391 135.328 75.5551 134.92 75.5551 134.176V130.408H77.4751V129.688H75.5551V128.308H74.7031V129.688H73.5751V130.408H74.7031V134.224C74.7031 135.388 75.3631 136.06 76.5511 136.06C77.0431 136.06 77.5471 135.916 77.8831 135.616L77.5831 135.004ZM81.1261 136.06C82.7701 136.06 83.7301 135.352 83.7301 134.26C83.7301 131.836 79.6381 133.12 79.6381 131.416C79.6381 130.816 80.1421 130.372 81.2821 130.372C81.9301 130.372 82.5901 130.528 83.1421 130.912L83.5141 130.228C82.9861 129.868 82.0981 129.64 81.2821 129.64C79.6741 129.64 78.7861 130.408 78.7861 131.44C78.7861 133.936 82.8781 132.64 82.8781 134.284C82.8781 134.908 82.3861 135.316 81.1861 135.316C80.2981 135.316 79.4461 135.004 78.9421 134.608L78.5581 135.28C79.0741 135.724 80.0821 136.06 81.1261 136.06Z" fill="black"/>
<path d="M22.872 181.232V173.6H17.208L17.112 176.324C17.028 179 16.764 181.16 15.564 181.232H15.144L15.132 183.884H15.96L15.972 182H23.304V183.884H24.132V181.232H22.872ZM17.904 176.408L17.976 174.368H21.996V181.232H16.824C17.628 180.62 17.832 178.592 17.904 176.408ZM26.2793 175.688L26.1713 177.944C26.0873 179.612 25.9913 181.304 24.9473 181.304C24.8633 181.304 24.7553 181.28 24.6473 181.256L24.5873 181.988C24.8153 182.048 25.0073 182.084 25.1993 182.084C26.5553 182.084 26.8313 180.212 26.9393 178.004L27.0233 176.444H30.0473V182H30.8993V175.688H26.2793ZM35.5174 175.688C33.8854 175.688 32.8294 176.408 32.8294 177.848C32.8294 178.868 33.3814 179.528 34.3534 179.792L32.7814 182H33.7054L35.1694 179.912H35.4094H37.3894V182H38.1694V175.688H35.5174ZM33.6934 177.872C33.6934 176.864 34.3654 176.444 35.5414 176.444H37.3894V179.276H35.4814C34.3054 179.276 33.6934 178.832 33.6934 177.872ZM46.3433 182.06C48.1913 182.06 49.5473 180.716 49.5473 178.844C49.5473 176.972 48.1913 175.64 46.3433 175.64C44.4953 175.64 43.1273 176.972 43.1273 178.844C43.1273 180.716 44.4953 182.06 46.3433 182.06ZM46.3433 181.304C44.9993 181.304 43.9913 180.32 43.9913 178.844C43.9913 177.368 44.9993 176.384 46.3433 176.384C47.6873 176.384 48.6833 177.368 48.6833 178.844C48.6833 180.32 47.6873 181.304 46.3433 181.304ZM54.0083 182.06C55.0763 182.06 55.9763 181.628 56.4803 180.812L55.8443 180.38C55.4123 181.016 54.7403 181.304 54.0083 181.304C52.6283 181.304 51.6203 180.332 51.6203 178.844C51.6203 177.368 52.6283 176.384 54.0083 176.384C54.7403 176.384 55.4123 176.684 55.8443 177.32L56.4803 176.888C55.9763 176.06 55.0763 175.64 54.0083 175.64C52.1243 175.64 50.7563 176.96 50.7563 178.844C50.7563 180.728 52.1243 182.06 54.0083 182.06ZM62.4528 175.688H56.8248V176.444H59.2128V182H60.0648V176.444H62.4528V175.688ZM65.8567 175.64C64.8607 175.64 63.9247 175.952 63.2887 176.492L63.6727 177.128C64.1887 176.672 64.9567 176.384 65.7727 176.384C66.9487 176.384 67.5607 176.972 67.5607 178.052V178.436H65.5567C63.7447 178.436 63.1207 179.252 63.1207 180.224C63.1207 181.316 63.9967 182.06 65.4247 182.06C66.4687 182.06 67.2127 181.664 67.5967 181.016V182H68.4127V178.088C68.4127 176.456 67.4887 175.64 65.8567 175.64ZM65.5567 181.388C64.5487 181.388 63.9607 180.932 63.9607 180.2C63.9607 179.552 64.3567 179.072 65.5807 179.072H67.5607V180.104C67.2247 180.932 66.5167 181.388 65.5567 181.388ZM71.2208 175.688L71.1128 177.944C71.0288 179.612 70.9328 181.304 69.8888 181.304C69.8048 181.304 69.6968 181.28 69.5888 181.256L69.5288 181.988C69.7568 182.048 69.9488 182.084 70.1408 182.084C71.4968 182.084 71.7728 180.212 71.8808 178.004L71.9648 176.444H74.9888V182H75.8408V175.688H71.2208ZM80.9748 177.92L79.1148 177.896V175.688H78.2628V182L80.8068 182.012C82.4868 182.036 83.3988 181.28 83.3988 179.936C83.3988 178.64 82.5588 177.932 80.9748 177.92ZM80.7588 181.364L79.1148 181.34V178.532L80.7588 178.556C81.9348 178.568 82.5348 179 82.5348 179.936C82.5348 180.884 81.9228 181.376 80.7588 181.364ZM85.0245 182H85.8765V179.216H89.8485V182H90.7005V175.688H89.8485V178.484H85.8765V175.688H85.0245V182ZM95.7742 177.92L93.9742 177.896V175.688H93.1222V182L95.6182 182.012C97.2862 182.036 98.2102 181.28 98.2102 179.936C98.2102 178.64 97.3582 177.932 95.7742 177.92ZM99.2662 182H100.118V175.688H99.2662V182ZM95.5702 181.364L93.9742 181.34V178.532L95.5702 178.556C96.7462 178.568 97.3462 179 97.3462 179.936C97.3462 180.884 96.7342 181.376 95.5702 181.364ZM107.464 182L104.944 178.76L107.32 175.688H106.384L104.488 178.16L102.592 175.688H101.632L104.008 178.76L101.512 182H102.472L104.488 179.36L106.492 182H107.464Z" fill="black"/>
<path d="M232.764 27.232V19.6H231.888V27.232H226.812V19.6H225.936V28H233.268V29.968H234.096V27.232H232.764ZM241.014 24.844C241.014 22.948 239.73 21.64 237.954 21.64C236.178 21.64 234.87 22.972 234.87 24.844C234.87 26.716 236.214 28.06 238.182 28.06C239.178 28.06 240.054 27.7 240.618 27.028L240.138 26.476C239.658 27.028 238.974 27.304 238.206 27.304C236.826 27.304 235.818 26.428 235.722 25.108H241.002C241.002 25.012 241.014 24.916 241.014 24.844ZM237.954 22.372C239.19 22.372 240.09 23.236 240.198 24.472H235.722C235.83 23.236 236.73 22.372 237.954 22.372ZM242.9 28H243.752V25.216H247.724V28H248.576V21.688H247.724V24.484H243.752V21.688H242.9V28ZM253.169 21.64C252.173 21.64 251.237 21.952 250.601 22.492L250.985 23.128C251.501 22.672 252.269 22.384 253.085 22.384C254.261 22.384 254.873 22.972 254.873 24.052V24.436H252.869C251.057 24.436 250.433 25.252 250.433 26.224C250.433 27.316 251.309 28.06 252.737 28.06C253.781 28.06 254.525 27.664 254.909 27.016V28H255.725V24.088C255.725 22.456 254.801 21.64 253.169 21.64ZM252.869 27.388C251.861 27.388 251.273 26.932 251.273 26.2C251.273 25.552 251.669 25.072 252.893 25.072H254.873V26.104C254.537 26.932 253.829 27.388 252.869 27.388ZM264.206 24.712C264.938 24.472 265.43 23.968 265.43 23.308C265.43 22.276 264.326 21.616 262.886 21.616C262.118 21.616 261.326 21.796 260.546 22.204L260.786 22.864C261.458 22.516 262.154 22.348 262.802 22.348C263.81 22.348 264.554 22.732 264.554 23.428C264.554 24.052 263.906 24.424 262.982 24.424H261.95V25.048H263.03C264.086 25.048 264.734 25.444 264.734 26.116C264.734 26.884 263.882 27.34 262.742 27.34C261.974 27.34 261.158 27.1 260.57 26.656L260.282 27.292C260.954 27.808 261.878 28.072 262.778 28.072C264.35 28.072 265.61 27.328 265.61 26.188C265.61 25.444 265.094 24.916 264.206 24.712ZM269.716 21.64C268.72 21.64 267.784 21.952 267.148 22.492L267.532 23.128C268.048 22.672 268.816 22.384 269.632 22.384C270.808 22.384 271.42 22.972 271.42 24.052V24.436H269.416C267.604 24.436 266.98 25.252 266.98 26.224C266.98 27.316 267.856 28.06 269.284 28.06C270.328 28.06 271.072 27.664 271.456 27.016V28H272.272V24.088C272.272 22.456 271.348 21.64 269.716 21.64ZM269.416 27.388C268.408 27.388 267.82 26.932 267.82 26.2C267.82 25.552 268.216 25.072 269.44 25.072H271.42V26.104C271.084 26.932 270.376 27.388 269.416 27.388ZM276.577 19.6V20.368H278.557V28H279.421V19.6H276.577ZM285.313 28H286.201V19.6H285.313V28ZM288.934 28H292.354C295.042 28 296.854 26.272 296.854 23.8C296.854 21.328 295.042 19.6 292.354 19.6H288.934V28ZM289.822 27.232V20.368H292.306C294.538 20.368 295.978 21.784 295.978 23.8C295.978 25.816 294.538 27.232 292.306 27.232H289.822ZM217.728 36.688V43H218.58V37.444H222.54V43H223.392V36.688H217.728ZM228.418 43.06C230.266 43.06 231.622 41.716 231.622 39.844C231.622 37.972 230.266 36.64 228.418 36.64C226.57 36.64 225.202 37.972 225.202 39.844C225.202 41.716 226.57 43.06 228.418 43.06ZM228.418 42.304C227.074 42.304 226.066 41.32 226.066 39.844C226.066 38.368 227.074 37.384 228.418 37.384C229.762 37.384 230.758 38.368 230.758 39.844C230.758 41.32 229.762 42.304 228.418 42.304ZM233.947 36.688L233.839 38.944C233.755 40.612 233.659 42.304 232.615 42.304C232.531 42.304 232.423 42.28 232.315 42.256L232.255 42.988C232.483 43.048 232.675 43.084 232.867 43.084C234.223 43.084 234.499 41.212 234.607 39.004L234.691 37.444H237.715V43H238.567V36.688H233.947ZM243.701 38.92L241.841 38.896V36.688H240.989V43L243.533 43.012C245.213 43.036 246.125 42.28 246.125 40.936C246.125 39.64 245.285 38.932 243.701 38.92ZM243.485 42.364L241.841 42.34V39.532L243.485 39.556C244.661 39.568 245.261 40 245.261 40.936C245.261 41.884 244.649 42.376 243.485 42.364ZM250.764 39.712C251.496 39.472 251.988 38.968 251.988 38.308C251.988 37.276 250.884 36.616 249.444 36.616C248.676 36.616 247.884 36.796 247.104 37.204L247.344 37.864C248.016 37.516 248.712 37.348 249.36 37.348C250.368 37.348 251.112 37.732 251.112 38.428C251.112 39.052 250.464 39.424 249.54 39.424H248.508V40.048H249.588C250.644 40.048 251.292 40.444 251.292 41.116C251.292 41.884 250.44 42.34 249.3 42.34C248.532 42.34 247.716 42.1 247.128 41.656L246.84 42.292C247.512 42.808 248.436 43.072 249.336 43.072C250.908 43.072 252.168 42.328 252.168 41.188C252.168 40.444 251.652 39.916 250.764 39.712ZM256.707 43.06C258.555 43.06 259.911 41.716 259.911 39.844C259.911 37.972 258.555 36.64 256.707 36.64C254.859 36.64 253.491 37.972 253.491 39.844C253.491 41.716 254.859 43.06 256.707 43.06ZM256.707 42.304C255.363 42.304 254.355 41.32 254.355 39.844C254.355 38.368 255.363 37.384 256.707 37.384C258.051 37.384 259.047 38.368 259.047 39.844C259.047 41.32 258.051 42.304 256.707 42.304ZM265.752 39.736C266.412 39.496 266.82 39.016 266.82 38.308C266.82 37.264 265.944 36.688 264.516 36.688H261.732V43H264.6C266.244 43 267.036 42.376 267.036 41.284C267.036 40.456 266.628 39.94 265.752 39.736ZM262.56 37.36H264.456C265.428 37.36 265.968 37.708 265.968 38.416C265.968 39.124 265.428 39.496 264.456 39.496H262.56V37.36ZM264.564 42.328H262.56V40.132H264.648C265.716 40.132 266.196 40.48 266.196 41.236C266.196 41.992 265.632 42.328 264.564 42.328ZM271.204 36.64C270.208 36.64 269.272 36.952 268.636 37.492L269.02 38.128C269.536 37.672 270.304 37.384 271.12 37.384C272.296 37.384 272.908 37.972 272.908 39.052V39.436H270.904C269.092 39.436 268.468 40.252 268.468 41.224C268.468 42.316 269.344 43.06 270.772 43.06C271.816 43.06 272.56 42.664 272.944 42.016V43H273.76V39.088C273.76 37.456 272.836 36.64 271.204 36.64ZM270.904 42.388C269.896 42.388 269.308 41.932 269.308 41.2C269.308 40.552 269.704 40.072 270.928 40.072H272.908V41.104C272.572 41.932 271.864 42.388 270.904 42.388ZM280.468 36.688H274.84V37.444H277.228V43H278.08V37.444H280.468V36.688ZM286.939 39.844C286.939 37.948 285.655 36.64 283.879 36.64C282.103 36.64 280.795 37.972 280.795 39.844C280.795 41.716 282.139 43.06 284.107 43.06C285.103 43.06 285.979 42.7 286.543 42.028L286.063 41.476C285.583 42.028 284.899 42.304 284.131 42.304C282.751 42.304 281.743 41.428 281.647 40.108H286.927C286.927 40.012 286.939 39.916 286.939 39.844ZM283.879 37.372C285.115 37.372 286.015 38.236 286.123 39.472H281.647C281.755 38.236 282.655 37.372 283.879 37.372ZM289.236 36.688L289.128 38.944C289.044 40.612 288.948 42.304 287.904 42.304C287.82 42.304 287.712 42.28 287.604 42.256L287.544 42.988C287.772 43.048 287.964 43.084 288.156 43.084C289.512 43.084 289.788 41.212 289.896 39.004L289.98 37.444H293.004V43H293.856V36.688H289.236ZM298.474 36.688C296.842 36.688 295.786 37.408 295.786 38.848C295.786 39.868 296.338 40.528 297.31 40.792L295.738 43H296.662L298.126 40.912H298.366H300.346V43H301.126V36.688H298.474ZM296.65 38.872C296.65 37.864 297.322 37.444 298.498 37.444H300.346V40.276H298.438C297.262 40.276 296.65 39.832 296.65 38.872ZM227.39 54.736C228.05 54.496 228.458 54.016 228.458 53.308C228.458 52.264 227.582 51.688 226.154 51.688H223.37V58H226.238C227.882 58 228.674 57.376 228.674 56.284C228.674 55.456 228.266 54.94 227.39 54.736ZM224.198 52.36H226.094C227.066 52.36 227.606 52.708 227.606 53.416C227.606 54.124 227.066 54.496 226.094 54.496H224.198V52.36ZM226.202 57.328H224.198V55.132H226.286C227.354 55.132 227.834 55.48 227.834 56.236C227.834 56.992 227.27 57.328 226.202 57.328ZM235.984 51.64C234.988 51.64 234.052 51.952 233.416 52.492L233.8 53.128C234.316 52.672 235.084 52.384 235.9 52.384C237.076 52.384 237.688 52.972 237.688 54.052V54.436H235.684C233.872 54.436 233.248 55.252 233.248 56.224C233.248 57.316 234.124 58.06 235.552 58.06C236.596 58.06 237.34 57.664 237.724 57.016V58H238.54V54.088C238.54 52.456 237.616 51.64 235.984 51.64ZM235.684 57.388C234.676 57.388 234.088 56.932 234.088 56.2C234.088 55.552 234.484 55.072 235.708 55.072H237.688V56.104C237.352 56.932 236.644 57.388 235.684 57.388ZM245.332 51.688L242.956 57.052L240.58 51.688H239.692L242.512 57.988L242.236 58.6C241.876 59.392 241.492 59.656 240.928 59.656C240.472 59.656 240.088 59.488 239.776 59.176L239.38 59.812C239.764 60.196 240.328 60.388 240.916 60.388C241.816 60.388 242.488 59.992 243.016 58.756L246.172 51.688H245.332ZM252.39 57.256V51.688H247.734L247.65 53.8C247.566 55.504 247.41 57.196 246.474 57.256H246.114V59.524H246.918V58H252.57V59.524H253.374V57.256H252.39ZM248.43 53.848L248.502 52.444H251.538V57.256H247.602C248.238 56.776 248.37 55.288 248.43 53.848ZM255.034 58H255.802L260.002 52.984V58H260.854V51.688H260.098L255.886 56.704V51.688H255.034V58ZM267.736 51.688H262.108V52.444H264.496V58H265.348V52.444H267.736V51.688ZM271.279 58.06C273.127 58.06 274.483 56.716 274.483 54.844C274.483 52.972 273.127 51.64 271.279 51.64C269.431 51.64 268.063 52.972 268.063 54.844C268.063 56.716 269.431 58.06 271.279 58.06ZM271.279 57.304C269.935 57.304 268.927 56.32 268.927 54.844C268.927 53.368 269.935 52.384 271.279 52.384C272.623 52.384 273.619 53.368 273.619 54.844C273.619 56.32 272.623 57.304 271.279 57.304ZM279.556 51.64C278.512 51.64 277.636 52.096 277.12 52.936V51.688H276.304V60.328H277.156V56.812C277.684 57.628 278.548 58.06 279.556 58.06C281.356 58.06 282.7 56.764 282.7 54.844C282.7 52.936 281.356 51.64 279.556 51.64ZM279.496 57.304C278.152 57.304 277.144 56.32 277.144 54.844C277.144 53.38 278.152 52.384 279.496 52.384C280.828 52.384 281.848 53.38 281.848 54.844C281.848 56.32 280.828 57.304 279.496 57.304ZM284.53 58H285.298L289.498 52.984V58H290.35V51.688H289.594L285.382 56.704V51.688H284.53V58ZM292.792 58H293.56L297.76 52.984V58H298.612V51.688H297.856L293.644 56.704V51.688H292.792V58Z" fill="black"/>
<path d="M145.856 121.832C145.856 119.608 143.92 119.048 142.144 118.616V115.384C142.992 115.48 143.888 115.752 144.736 116.248L145.392 114.632C144.528 114.072 143.328 113.72 142.144 113.656V111.88H140.832V113.688C138.336 113.928 137.152 115.352 137.152 116.984C137.152 119.208 139.056 119.784 140.832 120.216V123.416C139.616 123.304 138.416 122.84 137.632 122.2L136.912 123.816C137.744 124.536 139.264 125.048 140.832 125.144V126.92H142.144V125.128C144.656 124.872 145.856 123.464 145.856 121.832ZM139.216 116.888C139.216 116.184 139.696 115.608 140.832 115.432V118.28C139.904 118.008 139.216 117.656 139.216 116.888ZM142.144 123.384V120.552C143.104 120.824 143.808 121.192 143.808 121.976C143.808 122.664 143.312 123.208 142.144 123.384ZM146.386 113.8V115.544H148.754V125H150.834V113.8H146.386ZM157.728 125.16C160.4 125.16 162.416 123.08 162.416 119.4C162.416 115.72 160.4 113.64 157.728 113.64C155.072 113.64 153.056 115.72 153.056 119.4C153.056 123.08 155.072 125.16 157.728 125.16ZM157.728 123.352C156.208 123.352 155.152 122.104 155.152 119.4C155.152 116.696 156.208 115.448 157.728 115.448C159.264 115.448 160.32 116.696 160.32 119.4C160.32 122.104 159.264 123.352 157.728 123.352ZM168.493 125.16C171.165 125.16 173.181 123.08 173.181 119.4C173.181 115.72 171.165 113.64 168.493 113.64C165.837 113.64 163.821 115.72 163.821 119.4C163.821 123.08 165.837 125.16 168.493 125.16ZM168.493 123.352C166.973 123.352 165.917 122.104 165.917 119.4C165.917 116.696 166.973 115.448 168.493 115.448C170.029 115.448 171.085 116.696 171.085 119.4C171.085 122.104 170.029 123.352 168.493 123.352ZM179.259 125.16C181.931 125.16 183.947 123.08 183.947 119.4C183.947 115.72 181.931 113.64 179.259 113.64C176.603 113.64 174.587 115.72 174.587 119.4C174.587 123.08 176.603 125.16 179.259 125.16ZM179.259 123.352C177.739 123.352 176.683 122.104 176.683 119.4C176.683 116.696 177.739 115.448 179.259 115.448C180.795 115.448 181.851 116.696 181.851 119.4C181.851 122.104 180.795 123.352 179.259 123.352Z" fill="black"/>
<path d="M162.59 178.832C162.59 176.608 160.654 176.048 158.878 175.616V172.384C159.726 172.48 160.622 172.752 161.47 173.248L162.126 171.632C161.262 171.072 160.062 170.72 158.878 170.656V168.88H157.566V170.688C155.07 170.928 153.886 172.352 153.886 173.984C153.886 176.208 155.79 176.784 157.566 177.216V180.416C156.35 180.304 155.15 179.84 154.366 179.2L153.646 180.816C154.478 181.536 155.998 182.048 157.566 182.144V183.92H158.878V182.128C161.39 181.872 162.59 180.464 162.59 178.832ZM155.95 173.888C155.95 173.184 156.43 172.608 157.566 172.432V175.28C156.638 175.008 155.95 174.656 155.95 173.888ZM158.878 180.384V177.552C159.838 177.824 160.542 178.192 160.542 178.976C160.542 179.664 160.046 180.208 158.878 180.384ZM168.524 182.16C171.196 182.16 173.212 180.08 173.212 176.4C173.212 172.72 171.196 170.64 168.524 170.64C165.868 170.64 163.852 172.72 163.852 176.4C163.852 180.08 165.868 182.16 168.524 182.16ZM168.524 180.352C167.004 180.352 165.948 179.104 165.948 176.4C165.948 173.696 167.004 172.448 168.524 172.448C170.06 172.448 171.116 173.696 171.116 176.4C171.116 179.104 170.06 180.352 168.524 180.352Z" fill="black"/>
<path d="M138.355 27.6V36H139.231V28.368H144.547V36H145.423V27.6H138.355ZM153.586 32.844C153.586 30.948 152.302 29.64 150.526 29.64C148.75 29.64 147.442 30.972 147.442 32.844C147.442 34.716 148.786 36.06 150.754 36.06C151.75 36.06 152.626 35.7 153.19 35.028L152.71 34.476C152.23 35.028 151.546 35.304 150.778 35.304C149.398 35.304 148.39 34.428 148.294 33.108H153.574C153.574 33.012 153.586 32.916 153.586 32.844ZM150.526 30.372C151.762 30.372 152.662 31.236 152.77 32.472H148.294C148.402 31.236 149.302 30.372 150.526 30.372ZM158.724 29.64C157.68 29.64 156.804 30.096 156.288 30.936V29.688H155.472V38.328H156.324V34.812C156.852 35.628 157.716 36.06 158.724 36.06C160.524 36.06 161.868 34.764 161.868 32.844C161.868 30.936 160.524 29.64 158.724 29.64ZM158.664 35.304C157.32 35.304 156.312 34.32 156.312 32.844C156.312 31.38 157.32 30.384 158.664 30.384C159.996 30.384 161.016 31.38 161.016 32.844C161.016 34.32 159.996 35.304 158.664 35.304ZM167.718 32.736C168.378 32.496 168.786 32.016 168.786 31.308C168.786 30.264 167.91 29.688 166.482 29.688H163.698V36H166.566C168.21 36 169.002 35.376 169.002 34.284C169.002 33.456 168.594 32.94 167.718 32.736ZM164.526 30.36H166.422C167.394 30.36 167.934 30.708 167.934 31.416C167.934 32.124 167.394 32.496 166.422 32.496H164.526V30.36ZM166.53 35.328H164.526V33.132H166.614C167.682 33.132 168.162 33.48 168.162 34.236C168.162 34.992 167.598 35.328 166.53 35.328ZM173.171 29.64C172.175 29.64 171.239 29.952 170.603 30.492L170.987 31.128C171.503 30.672 172.271 30.384 173.087 30.384C174.263 30.384 174.875 30.972 174.875 32.052V32.436H172.871C171.059 32.436 170.435 33.252 170.435 34.224C170.435 35.316 171.311 36.06 172.739 36.06C173.783 36.06 174.527 35.664 174.911 35.016V36H175.727V32.088C175.727 30.456 174.803 29.64 173.171 29.64ZM172.871 35.388C171.863 35.388 171.275 34.932 171.275 34.2C171.275 33.552 171.671 33.072 172.895 33.072H174.875V34.104C174.539 34.932 173.831 35.388 172.871 35.388ZM180.191 29.688C178.559 29.688 177.503 30.408 177.503 31.848C177.503 32.868 178.055 33.528 179.027 33.792L177.455 36H178.379L179.843 33.912H180.083H182.063V36H182.843V29.688H180.191ZM178.367 31.872C178.367 30.864 179.039 30.444 180.215 30.444H182.063V33.276H180.155C178.979 33.276 178.367 32.832 178.367 31.872ZM132.543 44.688H128.079V51H128.931V45.444H132.543V44.688ZM139.014 47.844C139.014 45.948 137.73 44.64 135.954 44.64C134.178 44.64 132.87 45.972 132.87 47.844C132.87 49.716 134.214 51.06 136.182 51.06C137.178 51.06 138.054 50.7 138.618 50.028L138.138 49.476C137.658 50.028 136.974 50.304 136.206 50.304C134.826 50.304 133.818 49.428 133.722 48.108H139.002C139.002 48.012 139.014 47.916 139.014 47.844ZM135.954 45.372C137.19 45.372 138.09 46.236 138.198 47.472H133.722C133.83 46.236 134.73 45.372 135.954 45.372ZM140.9 51H141.752V48.216H145.724V51H146.576V44.688H145.724V47.484H141.752V44.688H140.9V51ZM154.529 47.844C154.529 45.948 153.245 44.64 151.469 44.64C149.693 44.64 148.385 45.972 148.385 47.844C148.385 49.716 149.729 51.06 151.697 51.06C152.693 51.06 153.569 50.7 154.133 50.028L153.653 49.476C153.173 50.028 152.489 50.304 151.721 50.304C150.341 50.304 149.333 49.428 149.237 48.108H154.517C154.517 48.012 154.529 47.916 154.529 47.844ZM151.469 45.372C152.705 45.372 153.605 46.236 153.713 47.472H149.237C149.345 46.236 150.245 45.372 151.469 45.372ZM159.667 44.64C158.623 44.64 157.747 45.096 157.231 45.936V44.688H156.415V53.328H157.267V49.812C157.795 50.628 158.659 51.06 159.667 51.06C161.467 51.06 162.811 49.764 162.811 47.844C162.811 45.936 161.467 44.64 159.667 44.64ZM159.607 50.304C158.263 50.304 157.255 49.32 157.255 47.844C157.255 46.38 158.263 45.384 159.607 45.384C160.939 45.384 161.959 46.38 161.959 47.844C161.959 49.32 160.939 50.304 159.607 50.304ZM166.779 44.64C165.783 44.64 164.847 44.952 164.211 45.492L164.595 46.128C165.111 45.672 165.879 45.384 166.695 45.384C167.871 45.384 168.483 45.972 168.483 47.052V47.436H166.479C164.667 47.436 164.043 48.252 164.043 49.224C164.043 50.316 164.919 51.06 166.347 51.06C167.391 51.06 168.135 50.664 168.519 50.016V51H169.335V47.088C169.335 45.456 168.411 44.64 166.779 44.64ZM166.479 50.388C165.471 50.388 164.883 49.932 164.883 49.2C164.883 48.552 165.279 48.072 166.503 48.072H168.483V49.104C168.147 49.932 167.439 50.388 166.479 50.388ZM177.159 50.256V44.688H176.307V50.256H172.455V44.688H171.603V51H177.375V52.584H178.179V50.256H177.159ZM179.806 51H180.574L184.774 45.984V51H185.626V44.688H184.87L180.658 49.704V44.688H179.806V51ZM190.263 44.688C188.631 44.688 187.575 45.408 187.575 46.848C187.575 47.868 188.127 48.528 189.099 48.792L187.527 51H188.451L189.915 48.912H190.155H192.135V51H192.915V44.688H190.263ZM188.439 46.872C188.439 45.864 189.111 45.444 190.287 45.444H192.135V48.276H190.227C189.051 48.276 188.439 47.832 188.439 46.872Z" fill="black"/>
<path d="M246.178 149.436C246.178 146.934 244 146.304 242.002 145.818V142.182C242.956 142.29 243.964 142.596 244.918 143.154L245.656 141.336C244.684 140.706 243.334 140.31 242.002 140.238V138.24H240.526V140.274C237.718 140.544 236.386 142.146 236.386 143.982C236.386 146.484 238.528 147.132 240.526 147.618V151.218C239.158 151.092 237.808 150.57 236.926 149.85L236.116 151.668C237.052 152.478 238.762 153.054 240.526 153.162V155.16H242.002V153.144C244.828 152.856 246.178 151.272 246.178 149.436ZM238.708 143.874C238.708 143.082 239.248 142.434 240.526 142.236V145.44C239.482 145.134 238.708 144.738 238.708 143.874ZM242.002 151.182V147.996C243.082 148.302 243.874 148.716 243.874 149.598C243.874 150.372 243.316 150.984 242.002 151.182ZM252.855 153.18C255.861 153.18 258.129 150.84 258.129 146.7C258.129 142.56 255.861 140.22 252.855 140.22C249.867 140.22 247.599 142.56 247.599 146.7C247.599 150.84 249.867 153.18 252.855 153.18ZM252.855 151.146C251.145 151.146 249.957 149.742 249.957 146.7C249.957 143.658 251.145 142.254 252.855 142.254C254.583 142.254 255.771 143.658 255.771 146.7C255.771 149.742 254.583 151.146 252.855 151.146ZM260.903 153.126C261.713 153.126 262.379 152.496 262.379 151.632C262.379 150.732 261.713 150.138 260.903 150.138C260.093 150.138 259.427 150.732 259.427 151.632C259.427 152.496 260.093 153.126 260.903 153.126ZM268.939 153.18C271.945 153.18 274.213 150.84 274.213 146.7C274.213 142.56 271.945 140.22 268.939 140.22C265.951 140.22 263.683 142.56 263.683 146.7C263.683 150.84 265.951 153.18 268.939 153.18ZM268.939 151.146C267.229 151.146 266.041 149.742 266.041 146.7C266.041 143.658 267.229 142.254 268.939 142.254C270.667 142.254 271.855 143.658 271.855 146.7C271.855 149.742 270.667 151.146 268.939 151.146ZM279.736 145.278H278.53L278.8 142.362H284.218V140.4H276.82L276.172 147.258H279.214C281.824 147.258 282.598 148.014 282.598 149.22C282.598 150.408 281.608 151.146 279.934 151.146C278.512 151.146 277.144 150.66 276.226 149.904L275.236 151.722C276.388 152.64 278.188 153.18 279.97 153.18C283.354 153.18 284.956 151.344 284.956 149.13C284.956 146.898 283.462 145.278 279.736 145.278Z" fill="black"/>
</g>
<defs>
<clipPath id="clip0_448_2194">
<rect width="320" height="217" fill="white"/>
</clipPath>
</defs>
</svg>
