<svg width="154" height="28" viewBox="0 0 154 28" fill="none" xmlns="http://www.w3.org/2000/svg">
<path d="M16.6605 6.96866V19.1992C16.6605 21.8928 15.9581 23.8949 14.5534 25.2053C13.1486 26.5157 11.0963 27.1709 8.39627 27.1709C6.9733 27.1709 5.62331 26.998 4.34628 26.6522C3.06925 26.3064 2.01115 25.8059 1.17196 25.1507L2.86858 22.093C3.48885 22.6026 4.27331 23.003 5.22195 23.2943C6.1706 23.6037 7.11925 23.7584 8.0679 23.7584C9.5456 23.7584 10.6311 23.4217 11.3243 22.7482C12.0358 22.093 12.3915 21.092 12.3915 19.7452V19.1173C11.2787 20.3367 9.72803 20.9464 7.73952 20.9464C6.38952 20.9464 5.14898 20.6552 4.0179 20.0728C2.90507 19.4722 2.02027 18.635 1.36351 17.5612C0.706758 16.4874 0.37838 15.2498 0.37838 13.8483C0.37838 12.4469 0.706758 11.2093 1.36351 10.1355C2.02027 9.06169 2.90507 8.23357 4.0179 7.65117C5.14898 7.05056 6.38952 6.75026 7.73952 6.75026C9.87398 6.75026 11.4976 7.45096 12.6105 8.85238V6.96866H16.6605ZM8.58783 17.452C9.71891 17.452 10.6402 17.1244 11.3517 16.4692C12.0814 15.7958 12.4463 14.9221 12.4463 13.8483C12.4463 12.7745 12.0814 11.91 11.3517 11.2548C10.6402 10.5814 9.71891 10.2447 8.58783 10.2447C7.45675 10.2447 6.52634 10.5814 5.79662 11.2548C5.06689 11.91 4.70202 12.7745 4.70202 13.8483C4.70202 14.9221 5.06689 15.7958 5.79662 16.4692C6.52634 17.1244 7.45675 17.452 8.58783 17.452ZM27.6391 21.8746C26.0884 21.8746 24.6928 21.5561 23.4523 20.9191C22.23 20.2639 21.2722 19.363 20.579 18.2164C19.8857 17.0698 19.5391 15.7685 19.5391 14.3124C19.5391 12.8564 19.8857 11.5551 20.579 10.4085C21.2722 9.26188 22.23 8.37008 23.4523 7.73307C24.6928 7.07786 26.0884 6.75026 27.6391 6.75026C29.1898 6.75026 30.5762 7.07786 31.7985 7.73307C33.0208 8.37008 33.9786 9.26188 34.6718 10.4085C35.3651 11.5551 35.7117 12.8564 35.7117 14.3124C35.7117 15.7685 35.3651 17.0698 34.6718 18.2164C33.9786 19.363 33.0208 20.2639 31.7985 20.9191C30.5762 21.5561 29.1898 21.8746 27.6391 21.8746ZM27.6391 18.3802C28.7337 18.3802 29.6276 18.0162 30.3208 17.2882C31.0323 16.542 31.3881 15.5501 31.3881 14.3124C31.3881 13.0748 31.0323 12.092 30.3208 11.364C29.6276 10.6178 28.7337 10.2447 27.6391 10.2447C26.5445 10.2447 25.6415 10.6178 24.93 11.364C24.2185 12.092 23.8627 13.0748 23.8627 14.3124C23.8627 15.5501 24.2185 16.542 24.93 17.2882C25.6415 18.0162 26.5445 18.3802 27.6391 18.3802Z" fill="#C873FF"/>
<path d="M47.2673 6.75028C48.6355 6.75028 49.8761 7.06878 50.9889 7.70579C52.12 8.32459 53.0048 9.20731 53.6433 10.3539C54.2818 11.4823 54.6011 12.8018 54.6011 14.3125C54.6011 15.8231 54.2818 17.1517 53.6433 18.2983C53.0048 19.4267 52.12 20.3094 50.9889 20.9464C49.8761 21.5653 48.6355 21.8747 47.2673 21.8747C45.3882 21.8747 43.9104 21.2831 42.834 20.1001V26.9525H38.5651V6.96868H42.6425V8.6613C43.7006 7.38728 45.2423 6.75028 47.2673 6.75028ZM46.5284 18.3802C47.623 18.3802 48.517 18.0162 49.2102 17.2882C49.9217 16.542 50.2774 15.5501 50.2774 14.3125C50.2774 13.0749 49.9217 12.092 49.2102 11.364C48.517 10.6178 47.623 10.2447 46.5284 10.2447C45.4339 10.2447 44.5306 10.6178 43.8191 11.364C43.1259 12.092 42.7793 13.0749 42.7793 14.3125C42.7793 15.5501 43.1259 16.542 43.8191 17.2882C44.5306 18.0162 45.4339 18.3802 46.5284 18.3802ZM61.5358 8.907C62.0466 8.19719 62.7307 7.66029 63.5881 7.29628C64.4638 6.93228 65.4672 6.75028 66.5983 6.75028V10.6815C66.1239 10.6451 65.8047 10.6269 65.6405 10.6269C64.4182 10.6269 63.4604 10.9727 62.7672 11.6643C62.074 12.3377 61.7273 13.357 61.7273 14.722V21.6562H57.4584V6.96868H61.5358V8.907ZM83.4244 14.3671C83.4244 14.4217 83.3971 14.8039 83.3424 15.5137H72.2049C72.4055 16.4237 72.8799 17.1426 73.6278 17.6704C74.3758 18.1982 75.3062 18.4621 76.4191 18.4621C77.1853 18.4621 77.8603 18.3529 78.444 18.1345C79.0461 17.8979 79.6025 17.5339 80.1133 17.0425L82.3846 19.4995C80.9981 21.0829 78.9731 21.8747 76.3096 21.8747C74.6495 21.8747 73.1809 21.5562 71.9039 20.9191C70.6268 20.2639 69.6417 19.363 68.9484 18.2164C68.2552 17.0698 67.9086 15.7685 67.9086 14.3125C67.9086 12.8746 68.2461 11.5824 68.9211 10.4358C69.6143 9.271 70.5539 8.3701 71.7397 7.73309C72.9437 7.07788 74.2846 6.75028 75.7623 6.75028C77.2035 6.75028 78.5079 7.05968 79.6755 7.67849C80.843 8.29729 81.7552 9.18911 82.4119 10.3539C83.0869 11.5005 83.4244 12.8382 83.4244 14.3671ZM75.7897 9.97172C74.8228 9.97172 74.0109 10.2447 73.3542 10.7907C72.6974 11.3367 72.2961 12.0829 72.1501 13.0294H79.4018C79.2559 12.1011 78.8545 11.364 78.1978 10.818C77.541 10.2538 76.7383 9.97172 75.7897 9.97172ZM101.262 1.39941V21.6562H97.1849V19.9636C96.1267 21.2376 94.5943 21.8747 92.5876 21.8747C91.2011 21.8747 89.9423 21.5653 88.8112 20.9464C87.6984 20.3276 86.8227 19.4449 86.1842 18.2983C85.5457 17.1517 85.2264 15.8231 85.2264 14.3125C85.2264 12.8018 85.5457 11.4732 86.1842 10.3266C86.8227 9.18001 87.6984 8.29729 88.8112 7.67849C89.9423 7.05968 91.2011 6.75028 92.5876 6.75028C94.4666 6.75028 95.9352 7.34178 96.9933 8.5248V1.39941H101.262ZM93.3264 18.3802C94.4028 18.3802 95.2967 18.0162 96.0082 17.2882C96.7197 16.542 97.0754 15.5501 97.0754 14.3125C97.0754 13.0749 96.7197 12.092 96.0082 11.364C95.2967 10.6178 94.4028 10.2447 93.3264 10.2447C92.2318 10.2447 91.3288 10.6178 90.6173 11.364C89.9058 12.092 89.5501 13.0749 89.5501 14.3125C89.5501 15.5501 89.9058 16.542 90.6173 17.2882C91.3288 18.0162 92.2318 18.3802 93.3264 18.3802ZM105.213 6.96868H109.482V21.6562H105.213V6.96868ZM107.348 4.92115C106.563 4.92115 105.925 4.69365 105.432 4.23865C104.94 3.78364 104.693 3.21943 104.693 2.54603C104.693 1.87262 104.94 1.30841 105.432 0.853406C105.925 0.398401 106.563 0.170898 107.348 0.170898C108.132 0.170898 108.771 0.389302 109.263 0.826107C109.756 1.26291 110.002 1.80892 110.002 2.46413C110.002 3.17394 109.756 3.76544 109.263 4.23865C108.771 4.69365 108.132 4.92115 107.348 4.92115ZM120.559 21.8747C118.99 21.8747 117.576 21.5562 116.317 20.9191C115.077 20.2639 114.101 19.363 113.389 18.2164C112.696 17.0698 112.35 15.7685 112.35 14.3125C112.35 12.8564 112.696 11.5551 113.389 10.4085C114.101 9.2619 115.077 8.3701 116.317 7.73309C117.576 7.07788 118.99 6.75028 120.559 6.75028C122.11 6.75028 123.46 7.07788 124.609 7.73309C125.777 8.3701 126.625 9.28921 127.154 10.4904L123.843 12.2649C123.077 10.9181 121.973 10.2447 120.532 10.2447C119.419 10.2447 118.497 10.6087 117.768 11.3367C117.038 12.0647 116.673 13.0567 116.673 14.3125C116.673 15.5683 117.038 16.5602 117.768 17.2882C118.497 18.0162 119.419 18.3802 120.532 18.3802C121.991 18.3802 123.095 17.7068 123.843 16.36L127.154 18.1618C126.625 19.3266 125.777 20.2366 124.609 20.8918C123.46 21.5471 122.11 21.8747 120.559 21.8747ZM139.321 20.9464C138.902 21.2558 138.382 21.4924 137.761 21.6562C137.159 21.8019 136.521 21.8747 135.846 21.8747C134.095 21.8747 132.735 21.4288 131.769 20.5369C130.82 19.6451 130.346 18.3347 130.346 16.6057V10.5723H128.074V7.29628H130.346V3.71994H134.614V7.29628H138.281V10.5723H134.614V16.5511C134.614 17.1699 134.77 17.6522 135.08 17.998C135.408 18.3256 135.864 18.4894 136.448 18.4894C137.123 18.4894 137.698 18.3074 138.172 17.9434L139.321 20.9464ZM146.671 21.8747C145.449 21.8747 144.254 21.7291 143.086 21.4378C141.919 21.1284 140.988 20.7462 140.295 20.2912L141.718 17.2336C142.375 17.6522 143.168 17.998 144.099 18.271C145.029 18.5258 145.941 18.6532 146.835 18.6532C148.641 18.6532 149.544 18.2073 149.544 17.3155C149.544 16.8969 149.298 16.5966 148.805 16.4146C148.313 16.2326 147.556 16.0779 146.534 15.9505C145.33 15.7685 144.336 15.5592 143.551 15.3226C142.767 15.086 142.083 14.6674 141.499 14.0668C140.933 13.4662 140.65 12.6107 140.65 11.5005C140.65 10.5723 140.915 9.75331 141.444 9.0435C141.992 8.31549 142.776 7.75129 143.798 7.35088C144.838 6.95048 146.06 6.75028 147.465 6.75028C148.504 6.75028 149.535 6.86858 150.557 7.10518C151.597 7.32358 152.454 7.63299 153.129 8.03339L151.706 11.0637C150.411 10.3357 148.997 9.97172 147.465 9.97172C146.552 9.97172 145.868 10.0991 145.412 10.3539C144.956 10.6087 144.728 10.9363 144.728 11.3367C144.728 11.7917 144.974 12.1102 145.467 12.2922C145.959 12.4742 146.744 12.6471 147.82 12.8109C149.024 13.0111 150.009 13.2296 150.776 13.4662C151.542 13.6846 152.208 14.0941 152.773 14.6947C153.339 15.2953 153.622 16.1325 153.622 17.2063C153.622 18.1163 153.348 18.9262 152.801 19.636C152.253 20.3458 151.451 20.9009 150.393 21.3013C149.353 21.6835 148.112 21.8747 146.671 21.8747Z" fill="white"/>
</svg>
