<svg width="432" height="139" viewBox="0 0 432 139" fill="none" xmlns="http://www.w3.org/2000/svg">
<path d="M47.88 26.8798C44.52 26.8798 41.5333 26.2265 38.92 24.9198C36.4 23.5198 33.6467 21.6065 30.66 19.1798C28.0467 17.2198 26.04 15.8665 24.64 15.1198C23.3333 14.3732 21.9333 13.9998 20.44 13.9998C17.7333 13.9998 15.54 15.0732 13.86 17.2198C12.2733 19.3665 11.3867 22.2132 11.2 25.7598H0C0.186667 17.6398 2.05333 11.4798 5.6 7.27984C9.14667 2.98651 13.8133 0.839844 19.6 0.839844C23.0533 0.839844 26.04 1.53984 28.56 2.93985C31.1733 4.24651 34.02 6.15985 37.1 8.67985C39.34 10.4532 41.16 11.7598 42.56 12.5998C44.0533 13.4398 45.5467 13.8598 47.04 13.8598C49.84 13.8598 52.0333 12.7865 53.62 10.6398C55.3 8.49318 56.2333 5.59985 56.42 1.95985H67.48C67.3867 10.1732 65.5667 16.3798 62.02 20.5798C58.4733 24.7798 53.76 26.8798 47.88 26.8798Z" fill="white"/>
<path d="M169.15 26.8798C165.79 26.8798 162.803 26.2265 160.19 24.9198C157.67 23.5198 154.916 21.6065 151.93 19.1798C149.316 17.2198 147.31 15.8665 145.91 15.1198C144.603 14.3732 143.203 13.9998 141.71 13.9998C139.003 13.9998 136.81 15.0732 135.13 17.2198C133.543 19.3665 132.656 22.2132 132.47 25.7598H121.27C121.456 17.6398 123.323 11.4798 126.87 7.27984C130.416 2.98651 135.083 0.839844 140.87 0.839844C144.323 0.839844 147.31 1.53984 149.83 2.93985C152.443 4.24651 155.29 6.15985 158.37 8.67985C160.61 10.4532 162.43 11.7598 163.83 12.5998C165.323 13.4398 166.816 13.8598 168.31 13.8598C171.11 13.8598 173.303 12.7865 174.89 10.6398C176.57 8.49318 177.503 5.59985 177.69 1.95985H188.75C188.656 10.1732 186.836 16.3798 183.29 20.5798C179.743 24.7798 175.03 26.8798 169.15 26.8798Z" fill="white"/>
<path d="M290.419 26.8798C287.059 26.8798 284.072 26.2265 281.459 24.9198C278.939 23.5198 276.186 21.6065 273.199 19.1798C270.586 17.2198 268.579 15.8665 267.179 15.1198C265.872 14.3732 264.472 13.9998 262.979 13.9998C260.272 13.9998 258.079 15.0732 256.399 17.2198C254.812 19.3665 253.926 22.2132 253.739 25.7598H242.539C242.726 17.6398 244.592 11.4798 248.139 7.27984C251.686 2.98651 256.352 0.839844 262.139 0.839844C265.592 0.839844 268.579 1.53984 271.099 2.93985C273.712 4.24651 276.559 6.15985 279.639 8.67985C281.879 10.4532 283.699 11.7598 285.099 12.5998C286.592 13.4398 288.086 13.8598 289.579 13.8598C292.379 13.8598 294.572 12.7865 296.159 10.6398C297.839 8.49318 298.772 5.59985 298.959 1.95985H310.019C309.926 10.1732 308.106 16.3798 304.559 20.5798C301.012 24.7798 296.299 26.8798 290.419 26.8798Z" fill="white"/>
<path d="M411.689 26.8798C408.329 26.8798 405.342 26.2265 402.729 24.9198C400.209 23.5198 397.455 21.6065 394.469 19.1798C391.855 17.2198 389.849 15.8665 388.449 15.1198C387.142 14.3732 385.742 13.9998 384.249 13.9998C381.542 13.9998 379.349 15.0732 377.669 17.2198C376.082 19.3665 375.195 22.2132 375.009 25.7598H363.809C363.995 17.6398 365.862 11.4798 369.409 7.27984C372.955 2.98651 377.622 0.839844 383.409 0.839844C386.862 0.839844 389.849 1.53984 392.369 2.93985C394.982 4.24651 397.829 6.15985 400.909 8.67985C403.149 10.4532 404.969 11.7598 406.369 12.5998C407.862 13.4398 409.355 13.8598 410.849 13.8598C413.649 13.8598 415.842 12.7865 417.429 10.6398C419.109 8.49318 420.042 5.59985 420.229 1.95985H431.289C431.195 10.1732 429.375 16.3798 425.829 20.5798C422.282 24.7798 417.569 26.8798 411.689 26.8798Z" fill="white"/>
<path d="M47.88 138.88C44.52 138.88 41.5333 138.227 38.92 136.92C36.4 135.52 33.6467 133.607 30.66 131.18C28.0467 129.22 26.04 127.867 24.64 127.12C23.3333 126.373 21.9333 126 20.44 126C17.7333 126 15.54 127.073 13.86 129.22C12.2733 131.367 11.3867 134.213 11.2 137.76H0C0.186667 129.64 2.05333 123.48 5.6 119.28C9.14667 114.987 13.8133 112.84 19.6 112.84C23.0533 112.84 26.04 113.54 28.56 114.94C31.1733 116.247 34.02 118.16 37.1 120.68C39.34 122.453 41.16 123.76 42.56 124.6C44.0533 125.44 45.5467 125.86 47.04 125.86C49.84 125.86 52.0333 124.787 53.62 122.64C55.3 120.493 56.2333 117.6 56.42 113.96H67.48C67.3867 122.173 65.5667 128.38 62.02 132.58C58.4733 136.78 53.76 138.88 47.88 138.88Z" fill="white"/>
<path d="M169.15 138.88C165.79 138.88 162.803 138.227 160.19 136.92C157.67 135.52 154.916 133.607 151.93 131.18C149.316 129.22 147.31 127.867 145.91 127.12C144.603 126.373 143.203 126 141.71 126C139.003 126 136.81 127.073 135.13 129.22C133.543 131.367 132.656 134.213 132.47 137.76H121.27C121.456 129.64 123.323 123.48 126.87 119.28C130.416 114.987 135.083 112.84 140.87 112.84C144.323 112.84 147.31 113.54 149.83 114.94C152.443 116.247 155.29 118.16 158.37 120.68C160.61 122.453 162.43 123.76 163.83 124.6C165.323 125.44 166.816 125.86 168.31 125.86C171.11 125.86 173.303 124.787 174.89 122.64C176.57 120.493 177.503 117.6 177.69 113.96H188.75C188.656 122.173 186.836 128.38 183.29 132.58C179.743 136.78 175.03 138.88 169.15 138.88Z" fill="white"/>
<path d="M290.419 138.88C287.059 138.88 284.072 138.227 281.459 136.92C278.939 135.52 276.186 133.607 273.199 131.18C270.586 129.22 268.579 127.867 267.179 127.12C265.872 126.373 264.472 126 262.979 126C260.272 126 258.079 127.073 256.399 129.22C254.812 131.367 253.926 134.213 253.739 137.76H242.539C242.726 129.64 244.592 123.48 248.139 119.28C251.686 114.987 256.352 112.84 262.139 112.84C265.592 112.84 268.579 113.54 271.099 114.94C273.712 116.247 276.559 118.16 279.639 120.68C281.879 122.453 283.699 123.76 285.099 124.6C286.592 125.44 288.086 125.86 289.579 125.86C292.379 125.86 294.572 124.787 296.159 122.64C297.839 120.493 298.772 117.6 298.959 113.96H310.019C309.926 122.173 308.106 128.38 304.559 132.58C301.012 136.78 296.299 138.88 290.419 138.88Z" fill="white"/>
<path d="M411.689 138.88C408.329 138.88 405.342 138.227 402.729 136.92C400.209 135.52 397.455 133.607 394.469 131.18C391.855 129.22 389.849 127.867 388.449 127.12C387.142 126.373 385.742 126 384.249 126C381.542 126 379.349 127.073 377.669 129.22C376.082 131.367 375.195 134.213 375.009 137.76H363.809C363.995 129.64 365.862 123.48 369.409 119.28C372.955 114.987 377.622 112.84 383.409 112.84C386.862 112.84 389.849 113.54 392.369 114.94C394.982 116.247 397.829 118.16 400.909 120.68C403.149 122.453 404.969 123.76 406.369 124.6C407.862 125.44 409.355 125.86 410.849 125.86C413.649 125.86 415.842 124.787 417.429 122.64C419.109 120.493 420.042 117.6 420.229 113.96H431.289C431.195 122.173 429.375 128.38 425.829 132.58C422.282 136.78 417.569 138.88 411.689 138.88Z" fill="white"/>
</svg>
