<svg width="49" height="35" viewBox="0 0 49 35" fill="none" xmlns="http://www.w3.org/2000/svg">
<path d="M44.9141 28.2031C45.8516 28.2031 46.6484 28.5391 47.3047 29.2109C47.9766 29.8672 48.3125 30.6641 48.3125 31.6016C48.3125 32.3047 48.1172 32.9375 47.7266 33.5C47.0234 34.5 46.0859 35 44.9141 35H4.08594C3.44531 35 2.85938 34.8359 2.32812 34.5078C1.23438 33.8047 0.6875 32.8359 0.6875 31.6016C0.6875 30.7578 0.960938 30.0234 1.50781 29.3984C2.05469 28.7734 2.74219 28.3906 3.57031 28.25C3.74219 28.2188 3.91406 28.2031 4.08594 28.2031H21.1016V7.78906H4.08594C3.27344 7.78906 2.55469 7.53906 1.92969 7.03906C1.32031 6.52344 0.929688 5.86719 0.757812 5.07031C0.710938 4.85156 0.6875 4.625 0.6875 4.39062C0.6875 3.45312 1.01562 2.65625 1.67188 2C2.34375 1.32812 3.14844 0.992188 4.08594 0.992188H24.5C25.4375 0.992188 26.2344 1.32812 26.8906 2C27.5625 2.65625 27.8984 3.45312 27.8984 4.39062V28.2031H44.9141Z" fill="url(#paint0_linear_6_1376)"/>
<defs>
<linearGradient id="paint0_linear_6_1376" x1="18.6221" y1="31.7097" x2="52" y2="31.7097" gradientUnits="userSpaceOnUse">
<stop/>
<stop offset="1" stop-color="#C873FF"/>
</linearGradient>
</defs>
</svg>
