<svg width="49" height="35" viewBox="0 0 49 35" fill="none" xmlns="http://www.w3.org/2000/svg">
<path d="M44.9141 0.992188C45.8516 0.992188 46.6484 1.32812 47.3047 2C47.9766 2.65625 48.3125 3.45312 48.3125 4.39062V31.6016C48.3125 32.3047 48.1172 32.9375 47.7266 33.5C47.0234 34.5 46.0859 35 44.9141 35H4.08594C3.44531 35 2.85938 34.8359 2.32812 34.5078C1.23438 33.8047 0.6875 32.8359 0.6875 31.6016C0.6875 30.7578 0.960938 30.0234 1.50781 29.3984C2.05469 28.7734 2.74219 28.3906 3.57031 28.25C3.74219 28.2188 3.91406 28.2031 4.08594 28.2031H41.5156V21.4062H24.5C23.2656 21.4062 22.2969 20.8594 21.5938 19.7656C21.2656 19.2344 21.1016 18.6484 21.1016 18.0078C21.1016 17.7734 21.125 17.5391 21.1719 17.3047C21.3438 16.5234 21.7344 15.8828 22.3438 15.3828C22.9531 14.8672 23.6719 14.6094 24.5 14.6094H41.5156V7.78906H4.08594C3.27344 7.78906 2.55469 7.53906 1.92969 7.03906C1.32031 6.52344 0.929688 5.86719 0.757812 5.07031C0.710938 4.85156 0.6875 4.625 0.6875 4.39062C0.6875 3.45312 1.01562 2.65625 1.67188 2C2.34375 1.32812 3.14844 0.992188 4.08594 0.992188H44.9141Z" fill="url(#paint0_linear_601_37)"/>
<defs>
<linearGradient id="paint0_linear_601_37" x1="18.6221" y1="31.7097" x2="52" y2="31.7097" gradientUnits="userSpaceOnUse">
<stop/>
<stop offset="1" stop-color="#C873FF"/>
</linearGradient>
</defs>
</svg>
