<svg width="40" height="29" viewBox="0 0 40 29" fill="none" xmlns="http://www.w3.org/2000/svg">
<path d="M34.1602 23.3359V17.6719H5.82031V23.3359H34.1602ZM39.8242 14.8398V26.168C39.8242 26.7539 39.668 27.2812 39.3555 27.75C38.7565 28.5833 37.9688 29 36.9922 29H2.98828C2.44141 29 1.94661 28.8633 1.50391 28.5898C0.605469 28.0039 0.15625 27.1966 0.15625 26.168V3.49219C0.15625 2.71094 0.429688 2.04688 0.976562 1.5C1.53646 0.940104 2.20703 0.660156 2.98828 0.660156H36.9922C37.7734 0.660156 38.4375 0.940104 38.9844 1.5C39.5443 2.04688 39.8242 2.71094 39.8242 3.49219C39.8242 4.18229 39.6094 4.78776 39.1797 5.30859C38.75 5.81641 38.1966 6.14193 37.5195 6.28516C37.4544 6.29818 37.3893 6.30469 37.3242 6.30469C37.2982 6.30469 37.2786 6.3112 37.2656 6.32422H5.82031V12.0078H36.9922C37.7734 12.0078 38.4375 12.2878 38.9844 12.8477C39.5443 13.3945 39.8242 14.0586 39.8242 14.8398Z" fill="url(#paint0_linear_626_335)"/>
<defs>
<linearGradient id="paint0_linear_626_335" x1="15.084" y1="25.8845" x2="43" y2="25.8845" gradientUnits="userSpaceOnUse">
<stop/>
<stop offset="1" stop-color="#C873FF"/>
</linearGradient>
</defs>
</svg>
