<svg width="49" height="35" viewBox="0 0 49 35" fill="none" xmlns="http://www.w3.org/2000/svg">
<path d="M44.625 28.2031C45.5625 28.2031 46.3594 28.5391 47.0156 29.2109C47.6875 29.8672 48.0234 30.6641 48.0234 31.6016C48.0234 32.3047 47.8281 32.9375 47.4375 33.5C46.7344 34.5 45.7969 35 44.625 35H3.79688C3.15625 35 2.57031 34.8359 2.03906 34.5078C0.945312 33.8047 0.398438 32.8359 0.398438 31.6016C0.398438 30.7578 0.671875 30.0234 1.21875 29.3984C1.76562 28.7734 2.45312 28.3906 3.28125 28.25C3.45312 28.2188 3.625 28.2031 3.79688 28.2031H20.8125V7.78906H3.79688C2.98438 7.78906 2.26562 7.53906 1.64062 7.03906C1.03125 6.52344 0.640625 5.86719 0.46875 5.07031C0.421875 4.85156 0.398438 4.625 0.398438 4.39062C0.398438 3.45312 0.726562 2.65625 1.38281 2C2.05469 1.32812 2.85938 0.992188 3.79688 0.992188H24.2109C25.1484 0.992188 25.9453 1.32812 26.6016 2C27.2734 2.65625 27.6094 3.45312 27.6094 4.39062V28.2031H44.625Z" fill="url(#paint0_linear_414_991)"/>
<defs>
<linearGradient id="paint0_linear_414_991" x1="18.6221" y1="31.7097" x2="52" y2="31.7097" gradientUnits="userSpaceOnUse">
<stop stop-color="white"/>
<stop offset="1" stop-color="#C873FF"/>
</linearGradient>
</defs>
</svg>
