<svg width="49" height="35" viewBox="0 0 49 35" fill="none" xmlns="http://www.w3.org/2000/svg">
<path d="M44.6016 28.2031C45.5547 28.2031 46.3594 28.5391 47.0156 29.2109C47.6875 29.8672 48.0234 30.6641 48.0234 31.6016C48.0234 32.3047 47.8281 32.9375 47.4375 33.5C46.7344 34.5 45.7891 35 44.6016 35H3.79688C3.14062 35 2.55469 34.8359 2.03906 34.5078C0.945312 33.8047 0.398438 32.8359 0.398438 31.6016V18.0078C0.398438 17.7734 0.421875 17.5391 0.46875 17.3047C0.640625 16.5234 1.03125 15.8828 1.64062 15.3828C2.25 14.8672 2.96875 14.6094 3.79688 14.6094H39.1172L35.6953 7.78906H3.79688C2.96875 7.78906 2.25 7.53906 1.64062 7.03906C1.03125 6.52344 0.640625 5.86719 0.46875 5.07031C0.421875 4.85156 0.398438 4.625 0.398438 4.39062C0.398438 3.45312 0.726562 2.65625 1.38281 2C2.05469 1.32812 2.85938 0.992188 3.79688 0.992188H37.8047C39.1328 0.992188 40.1484 1.61719 40.8516 2.86719V2.89062H40.875V2.9375L47.6484 16.4844C47.8984 16.9531 48.0234 17.4609 48.0234 18.0078C48.0234 18.8828 47.7266 19.6406 47.1328 20.2812C46.4453 21.0312 45.6016 21.4062 44.6016 21.4062H7.19531V28.2031H44.6016Z" fill="url(#paint0_linear_414_996)"/>
<defs>
<linearGradient id="paint0_linear_414_996" x1="18.6221" y1="31.7097" x2="52" y2="31.7097" gradientUnits="userSpaceOnUse">
<stop stop-color="white"/>
<stop offset="1" stop-color="#C873FF"/>
</linearGradient>
</defs>
</svg>
