<svg width="64" height="33" viewBox="0 0 64 33" fill="none" xmlns="http://www.w3.org/2000/svg">
<path fill-rule="evenodd" clip-rule="evenodd" d="M39.8235 7.9252C39.8235 12.3022 36.2753 15.8504 31.8983 15.8504C27.5214 15.8504 23.9731 12.3022 23.9731 7.9252C23.9731 3.54823 27.5214 0 31.8983 0C36.2753 0 39.8235 3.54823 39.8235 7.9252ZM11.3141 19.8141C14.6092 19.8141 17.2805 17.1428 17.2805 13.8477C17.2805 10.5526 14.6092 7.88131 11.3141 7.88131C8.01892 7.88131 5.34768 10.5526 5.34768 13.8477C5.34768 17.1428 8.01892 19.8141 11.3141 19.8141ZM11.178 21.3559C5.2807 21.3559 0.5 26.1366 0.5 32.0339H17.5338C17.5338 32.0339 17.5338 32.034 17.5338 32.0341H46.2627C46.2627 32.034 46.2627 32.0339 46.2627 32.0339H63.2967C63.2967 26.1366 58.516 21.3559 52.6187 21.3559H52.3645C49.1759 21.3559 46.3138 22.7535 44.3572 24.9695C41.8656 20.6841 37.1903 17.7967 31.8982 17.7967C26.6062 17.7967 21.931 20.6841 19.4394 24.9693C17.4828 22.7534 14.6207 21.3559 11.4322 21.3559H11.178ZM58.467 13.8477C58.467 17.1428 55.7958 19.8141 52.5006 19.8141C49.2055 19.8141 46.5342 17.1428 46.5342 13.8477C46.5342 10.5526 49.2055 7.88131 52.5006 7.88131C55.7958 7.88131 58.467 10.5526 58.467 13.8477Z" fill="black"/>
</svg>
