<svg width="50" height="52" viewBox="0 0 50 52" fill="none" xmlns="http://www.w3.org/2000/svg">
<path fill-rule="evenodd" clip-rule="evenodd" d="M49.9617 24.9617C49.9617 38.7476 38.7859 49.9233 25 49.9233C22.3407 49.9233 19.7785 49.5075 17.375 48.7372L11.2213 51.9202L12.0045 46.2779C4.82818 41.8934 0.0383453 33.9869 0.0383453 24.9617C0.0383453 11.1757 11.2141 0 25 0C38.7859 0 49.9617 11.1757 49.9617 24.9617ZM25 12.6024C19.1114 12.6024 14.3137 17.4469 14.2698 23.4633C14.8372 23.8156 15.215 24.4443 15.215 25.1612V29.155C15.215 30.2579 14.3209 31.152 13.2181 31.152C12.1152 31.152 11.2211 30.2579 11.2211 29.155V25.1612C11.2211 24.1057 12.04 23.2415 13.077 23.1692C13.2728 16.6476 18.5259 11.4042 25 11.4042C31.4971 11.4042 36.7645 16.685 36.9249 23.2388C37.7642 23.4751 38.3794 24.2463 38.3794 25.1612V29.155C38.3794 30.2579 37.4854 31.152 36.3825 31.152C35.2796 31.152 34.3855 30.2579 34.3855 29.155V25.1612C34.3855 24.2878 34.9462 23.5454 35.7272 23.2743C35.5854 17.3457 30.8268 12.6024 25 12.6024ZM15.1247 35.1026C13.3961 34.286 12.688 32.9647 12.6443 31.8936L13.8415 31.8448C13.8649 32.42 14.2633 33.3706 15.6365 34.0193C16.9086 34.6202 19.031 34.9617 22.4204 34.4178C22.4096 34.3292 22.404 34.2389 22.404 34.1474C22.404 32.9342 23.3874 31.9508 24.6006 31.9508C25.8137 31.9508 26.7972 32.9342 26.7972 34.1474C26.7972 35.3605 25.8137 36.344 24.6006 36.344C23.9211 36.344 23.3137 36.0355 22.9107 35.5509C19.2169 36.1848 16.7362 35.8639 15.1247 35.1026Z" fill="black"/>
</svg>
