<svg width="8" height="555" viewBox="0 0 8 555" fill="none" xmlns="http://www.w3.org/2000/svg">
<path d="M3.64647 554.354C3.84173 554.549 4.15832 554.549 4.35358 554.354L7.53556 551.172C7.73082 550.976 7.73082 550.66 7.53556 550.464C7.3403 550.269 7.02371 550.269 6.82845 550.464L4.00002 553.293L1.1716 550.464C0.976335 550.269 0.659752 550.269 0.46449 550.464C0.269228 550.66 0.269228 550.976 0.46449 551.172L3.64647 554.354ZM3.5 4L3.50002 554L4.50002 554L4.5 4L3.5 4Z" fill="black"/>
<circle cx="4" cy="4" r="4" fill="#262626"/>
<circle cx="4" cy="152" r="4" fill="#262626"/>
<circle cx="4" cy="283" r="4" fill="#262626"/>
</svg>
