<svg width="154" height="27" viewBox="0 0 154 27" fill="none" xmlns="http://www.w3.org/2000/svg">
<path d="M16.2821 6.79776V19.0283C16.2821 21.7219 15.5797 23.724 14.175 25.0344C12.7703 26.3448 10.7179 27 8.01789 27C6.59492 27 5.24493 26.8271 3.9679 26.4813C2.69087 26.1355 1.63277 25.635 0.79358 24.9798L2.4902 21.9221C3.11047 22.4317 3.89493 22.8321 4.84358 23.1234C5.79222 23.4328 6.74087 23.5875 7.68952 23.5875C9.16722 23.5875 10.2527 23.2508 10.9459 22.5773C11.6574 21.9221 12.0132 20.9211 12.0132 19.5743V18.9464C10.9003 20.1658 9.34965 20.7755 7.36114 20.7755C6.01114 20.7755 4.7706 20.4843 3.63952 19.9019C2.52669 19.3013 1.64189 18.4641 0.985134 17.3903C0.328378 16.3165 0 15.0789 0 13.6774C0 12.276 0.328378 11.0384 0.985134 9.9646C1.64189 8.89079 2.52669 8.06267 3.63952 7.48027C4.7706 6.87966 6.01114 6.57936 7.36114 6.57936C9.4956 6.57936 11.1192 7.28007 12.2321 8.68148V6.79776H16.2821ZM8.20945 17.2811C9.34053 17.2811 10.2618 16.9535 10.9733 16.2983C11.703 15.6249 12.0679 14.7513 12.0679 13.6774C12.0679 12.6036 11.703 11.7391 10.9733 11.0839C10.2618 10.4105 9.34053 10.0738 8.20945 10.0738C7.07837 10.0738 6.14797 10.4105 5.41824 11.0839C4.68851 11.7391 4.32364 12.6036 4.32364 13.6774C4.32364 14.7513 4.68851 15.6249 5.41824 16.2983C6.14797 16.9535 7.07837 17.2811 8.20945 17.2811ZM27.2607 21.7037C25.71 21.7037 24.3144 21.3852 23.0739 20.7482C21.8516 20.093 20.8938 19.1921 20.2006 18.0455C19.5073 16.8989 19.1607 15.5976 19.1607 14.1415C19.1607 12.6855 19.5073 11.3842 20.2006 10.2376C20.8938 9.09099 21.8516 8.19918 23.0739 7.56217C24.3144 6.90696 25.71 6.57936 27.2607 6.57936C28.8114 6.57936 30.1979 6.90696 31.4202 7.56217C32.6425 8.19918 33.6002 9.09099 34.2935 10.2376C34.9867 11.3842 35.3333 12.6855 35.3333 14.1415C35.3333 15.5976 34.9867 16.8989 34.2935 18.0455C33.6002 19.1921 32.6425 20.093 31.4202 20.7482C30.1979 21.3852 28.8114 21.7037 27.2607 21.7037ZM27.2607 18.2093C28.3553 18.2093 29.2492 17.8453 29.9425 17.1173C30.6539 16.3711 31.0097 15.3792 31.0097 14.1415C31.0097 12.9039 30.6539 11.9211 29.9425 11.1931C29.2492 10.4469 28.3553 10.0738 27.2607 10.0738C26.1661 10.0738 25.2631 10.4469 24.5516 11.1931C23.8401 11.9211 23.4844 12.9039 23.4844 14.1415C23.4844 15.3792 23.8401 16.3711 24.5516 17.1173C25.2631 17.8453 26.1661 18.2093 27.2607 18.2093Z" fill="#C873FF"/>
<path d="M46.8889 6.57938C48.2572 6.57938 49.4977 6.89788 50.6105 7.53489C51.7416 8.15369 52.6264 9.03641 53.2649 10.183C53.9034 11.3114 54.2227 12.6309 54.2227 14.1416C54.2227 15.6522 53.9034 16.9808 53.2649 18.1274C52.6264 19.2558 51.7416 20.1385 50.6105 20.7755C49.4977 21.3944 48.2572 21.7038 46.8889 21.7038C45.0099 21.7038 43.532 21.1122 42.4556 19.9292V26.7816H38.1867V6.79778H42.2641V8.4904C43.3222 7.21639 44.8639 6.57938 46.8889 6.57938ZM46.1501 18.2093C47.2447 18.2093 48.1386 17.8453 48.8318 17.1173C49.5433 16.3711 49.899 15.3792 49.899 14.1416C49.899 12.904 49.5433 11.9211 48.8318 11.1931C48.1386 10.4469 47.2447 10.0738 46.1501 10.0738C45.0555 10.0738 44.1523 10.4469 43.4408 11.1931C42.7475 11.9211 42.4009 12.904 42.4009 14.1416C42.4009 15.3792 42.7475 16.3711 43.4408 17.1173C44.1523 17.8453 45.0555 18.2093 46.1501 18.2093ZM61.1574 8.7361C61.6682 8.02629 62.3523 7.48939 63.2098 7.12538C64.0854 6.76138 65.0888 6.57938 66.2199 6.57938V10.5106C65.7456 10.4742 65.4263 10.456 65.2621 10.456C64.0398 10.456 63.0821 10.8018 62.3888 11.4934C61.6956 12.1668 61.3489 13.1861 61.3489 14.5511V21.4854H57.08V6.79778H61.1574V8.7361ZM83.0461 14.1962C83.0461 14.2508 83.0187 14.633 82.964 15.3428H71.8265C72.0272 16.2528 72.5015 16.9717 73.2495 17.4995C73.9974 18.0273 74.9278 18.2912 76.0407 18.2912C76.8069 18.2912 77.4819 18.182 78.0657 17.9636C78.6677 17.727 79.2241 17.363 79.7349 16.8716L82.0062 19.3286C80.6197 20.912 78.5947 21.7038 75.9312 21.7038C74.2711 21.7038 72.8025 21.3853 71.5255 20.7482C70.2484 20.093 69.2633 19.1921 68.5701 18.0455C67.8768 16.8989 67.5302 15.5976 67.5302 14.1416C67.5302 12.7037 67.8677 11.4115 68.5427 10.2649C69.236 9.10011 70.1755 8.1992 71.3613 7.56219C72.5653 6.90699 73.9062 6.57938 75.3839 6.57938C76.8251 6.57938 78.1295 6.88878 79.2971 7.50759C80.4647 8.1264 81.3768 9.01821 82.0336 10.183C82.7086 11.3296 83.0461 12.6673 83.0461 14.1962ZM75.4113 9.80082C74.4444 9.80082 73.6326 10.0738 72.9758 10.6198C72.3191 11.1658 71.9177 11.912 71.7718 12.8585H79.0234C78.8775 11.9302 78.4761 11.1931 77.8194 10.6471C77.1626 10.0829 76.3599 9.80082 75.4113 9.80082ZM100.884 1.22851V21.4854H96.8065V19.7927C95.7484 21.0667 94.2159 21.7038 92.2092 21.7038C90.8227 21.7038 89.5639 21.3944 88.4328 20.7755C87.32 20.1567 86.4443 19.274 85.8058 18.1274C85.1673 16.9808 84.848 15.6522 84.848 14.1416C84.848 12.6309 85.1673 11.3023 85.8058 10.1557C86.4443 9.00911 87.32 8.1264 88.4328 7.50759C89.5639 6.88878 90.8227 6.57938 92.2092 6.57938C94.0882 6.57938 95.5568 7.17088 96.6149 8.3539V1.22851H100.884ZM92.948 18.2093C94.0244 18.2093 94.9183 17.8453 95.6298 17.1173C96.3413 16.3711 96.697 15.3792 96.697 14.1416C96.697 12.904 96.3413 11.9211 95.6298 11.1931C94.9183 10.4469 94.0244 10.0738 92.948 10.0738C91.8534 10.0738 90.9504 10.4469 90.2389 11.1931C89.5274 11.9211 89.1717 12.904 89.1717 14.1416C89.1717 15.3792 89.5274 16.3711 90.2389 17.1173C90.9504 17.8453 91.8534 18.2093 92.948 18.2093ZM104.835 6.79778H109.104V21.4854H104.835V6.79778ZM106.969 4.75026C106.185 4.75026 105.546 4.52275 105.054 4.06775C104.561 3.61274 104.315 3.04854 104.315 2.37513C104.315 1.70172 104.561 1.13751 105.054 0.682508C105.546 0.227503 106.185 0 106.969 0C107.754 0 108.392 0.218404 108.885 0.655209C109.377 1.09201 109.624 1.63802 109.624 2.29323C109.624 3.00304 109.377 3.59454 108.885 4.06775C108.392 4.52275 107.754 4.75026 106.969 4.75026ZM120.181 21.7038C118.612 21.7038 117.198 21.3853 115.939 20.7482C114.699 20.093 113.723 19.1921 113.011 18.0455C112.318 16.8989 111.971 15.5976 111.971 14.1416C111.971 12.6855 112.318 11.3842 113.011 10.2376C113.723 9.09101 114.699 8.1992 115.939 7.56219C117.198 6.90699 118.612 6.57938 120.181 6.57938C121.731 6.57938 123.081 6.90699 124.231 7.56219C125.398 8.1992 126.246 9.11831 126.776 10.3195L123.464 12.094C122.698 10.7472 121.594 10.0738 120.153 10.0738C119.04 10.0738 118.119 10.4378 117.389 11.1658C116.66 11.8938 116.295 12.8858 116.295 14.1416C116.295 15.3974 116.66 16.3893 117.389 17.1173C118.119 17.8453 119.04 18.2093 120.153 18.2093C121.613 18.2093 122.716 17.5359 123.464 16.1891L126.776 17.9909C126.246 19.1557 125.398 20.0657 124.231 20.7209C123.081 21.3762 121.731 21.7038 120.181 21.7038ZM138.943 20.7755C138.523 21.0849 138.003 21.3215 137.383 21.4854C136.781 21.631 136.142 21.7038 135.467 21.7038C133.716 21.7038 132.357 21.2579 131.39 20.366C130.441 19.4742 129.967 18.1638 129.967 16.4348V10.4014H127.696V7.12538H129.967V3.54904H134.236V7.12538H137.903V10.4014H134.236V16.3802C134.236 16.999 134.391 17.4813 134.701 17.8271C135.03 18.1547 135.486 18.3185 136.07 18.3185C136.745 18.3185 137.319 18.1365 137.794 17.7725L138.943 20.7755ZM146.293 21.7038C145.07 21.7038 143.875 21.5582 142.708 21.267C141.54 20.9575 140.61 20.5753 139.917 20.1203L141.34 17.0627C141.996 17.4813 142.79 17.8271 143.72 18.1001C144.651 18.3549 145.563 18.4823 146.457 18.4823C148.263 18.4823 149.166 18.0364 149.166 17.1446C149.166 16.726 148.92 16.4257 148.427 16.2437C147.934 16.0617 147.177 15.907 146.156 15.7796C144.952 15.5976 143.957 15.3883 143.173 15.1517C142.389 14.9151 141.704 14.4965 141.121 13.8959C140.555 13.2953 140.272 12.4398 140.272 11.3296C140.272 10.4014 140.537 9.58241 141.066 8.8726C141.613 8.14459 142.398 7.58039 143.419 7.17998C144.459 6.77958 145.681 6.57938 147.086 6.57938C148.126 6.57938 149.157 6.69768 150.178 6.93428C151.218 7.15269 152.076 7.46209 152.751 7.86249L151.328 10.8928C150.032 10.1648 148.619 9.80082 147.086 9.80082C146.174 9.80082 145.49 9.92822 145.034 10.183C144.578 10.4378 144.35 10.7654 144.35 11.1658C144.35 11.6208 144.596 11.9393 145.089 12.1213C145.581 12.3033 146.366 12.4762 147.442 12.64C148.646 12.8402 149.631 13.0587 150.397 13.2953C151.164 13.5137 151.829 13.9232 152.395 14.5238C152.96 15.1244 153.243 15.9616 153.243 17.0354C153.243 17.9454 152.97 18.7553 152.422 19.4651C151.875 20.1749 151.072 20.73 150.014 21.1304C148.974 21.5127 147.734 21.7038 146.293 21.7038Z" fill="#262626"/>
</svg>
