<svg width="200" height="200" viewBox="0 0 200 200" fill="none" xmlns="http://www.w3.org/2000/svg">
<g clip-path="url(#clip0_211_305)">
<circle cx="100" cy="100" r="100" fill="#C873FF"/>
<path d="M94.2882 67.8235V113.941C94.2882 124.098 91.6443 131.647 86.3567 136.588C81.0691 141.529 73.3437 144 63.1805 144C57.8242 144 52.7426 143.348 47.9357 142.044C43.1289 140.74 39.146 138.853 35.9872 136.382L42.3735 124.853C44.7083 126.775 47.661 128.284 51.2319 129.382C54.8028 130.549 58.3736 131.132 61.9445 131.132C67.5068 131.132 71.5926 129.863 74.2021 127.324C76.8802 124.853 78.2193 121.078 78.2193 116V113.632C74.0304 118.23 68.1935 120.529 60.7084 120.529C55.6268 120.529 50.9572 119.431 46.6997 117.235C42.5108 114.971 39.1803 111.814 36.7082 107.765C34.2361 103.716 33 99.049 33 93.7647C33 88.4804 34.2361 83.8137 36.7082 79.7647C39.1803 75.7157 42.5108 72.5931 46.6997 70.3971C50.9572 68.1323 55.6268 67 60.7084 67C68.7428 67 74.8545 69.6421 79.0434 74.9265V67.8235H94.2882ZM63.9016 107.353C68.1591 107.353 71.627 106.118 74.3051 103.647C77.0519 101.108 78.4253 97.8137 78.4253 93.7647C78.4253 89.7157 77.0519 86.4559 74.3051 83.9853C71.627 81.4461 68.1591 80.1765 63.9016 80.1765C59.644 80.1765 56.1418 81.4461 53.395 83.9853C50.6482 86.4559 49.2748 89.7157 49.2748 93.7647C49.2748 97.8137 50.6482 101.108 53.395 103.647C56.1418 106.118 59.644 107.353 63.9016 107.353ZM135.613 124.029C129.776 124.029 124.523 122.828 119.854 120.426C115.253 117.956 111.647 114.559 109.038 110.235C106.429 105.912 105.124 101.005 105.124 95.5147C105.124 90.0245 106.429 85.1176 109.038 80.7941C111.647 76.4706 115.253 73.1078 119.854 70.7059C124.523 68.2353 129.776 67 135.613 67C141.45 67 146.669 68.2353 151.27 70.7059C155.871 73.1078 159.476 76.4706 162.086 80.7941C164.695 85.1176 166 90.0245 166 95.5147C166 101.005 164.695 105.912 162.086 110.235C159.476 114.559 155.871 117.956 151.27 120.426C146.669 122.828 141.45 124.029 135.613 124.029ZM135.613 110.853C139.734 110.853 143.098 109.48 145.708 106.735C148.386 103.922 149.725 100.181 149.725 95.5147C149.725 90.848 148.386 87.1422 145.708 84.3971C143.098 81.5833 139.734 80.1765 135.613 80.1765C131.493 80.1765 128.094 81.5833 125.416 84.3971C122.738 87.1422 121.399 90.848 121.399 95.5147C121.399 100.181 122.738 103.922 125.416 106.735C128.094 109.48 131.493 110.853 135.613 110.853Z" fill="white"/>
</g>
<defs>
<clipPath id="clip0_211_305">
<rect width="200" height="200" fill="white"/>
</clipPath>
</defs>
</svg>
