<svg width="49" height="35" viewBox="0 0 49 35" fill="none" xmlns="http://www.w3.org/2000/svg">
<path d="M44.8906 28.2031C45.8438 28.2031 46.6484 28.5391 47.3047 29.2109C47.9766 29.8672 48.3125 30.6641 48.3125 31.6016C48.3125 32.3047 48.1172 32.9375 47.7266 33.5C47.0234 34.5 46.0781 35 44.8906 35H4.08594C3.42969 35 2.84375 34.8359 2.32812 34.5078C1.23438 33.8047 0.6875 32.8359 0.6875 31.6016V18.0078C0.6875 17.7734 0.710938 17.5391 0.757812 17.3047C0.929688 16.5234 1.32031 15.8828 1.92969 15.3828C2.53906 14.8672 3.25781 14.6094 4.08594 14.6094H39.4062L35.9844 7.78906H4.08594C3.25781 7.78906 2.53906 7.53906 1.92969 7.03906C1.32031 6.52344 0.929688 5.86719 0.757812 5.07031C0.710938 4.85156 0.6875 4.625 0.6875 4.39062C0.6875 3.45312 1.01562 2.65625 1.67188 2C2.34375 1.32812 3.14844 0.992188 4.08594 0.992188H38.0938C39.4219 0.992188 40.4375 1.61719 41.1406 2.86719V2.89062H41.1641V2.9375L47.9375 16.4844C48.1875 16.9531 48.3125 17.4609 48.3125 18.0078C48.3125 18.8828 48.0156 19.6406 47.4219 20.2812C46.7344 21.0312 45.8906 21.4062 44.8906 21.4062H7.48438V28.2031H44.8906Z" fill="url(#paint0_linear_601_604)"/>
<defs>
<linearGradient id="paint0_linear_601_604" x1="18.6221" y1="31.7097" x2="52" y2="31.7097" gradientUnits="userSpaceOnUse">
<stop/>
<stop offset="1" stop-color="#C873FF"/>
</linearGradient>
</defs>
</svg>
