<svg width="49" height="35" viewBox="0 0 49 35" fill="none" xmlns="http://www.w3.org/2000/svg">
<path d="M44.8906 0.992188C45.8281 0.992188 46.6328 1.32812 47.3047 2C47.9766 2.65625 48.3125 3.45312 48.3125 4.39062V31.6016C48.3125 32.3047 48.1172 32.9375 47.7266 33.5C47.0234 34.5 46.0781 35 44.8906 35C43.9531 35 43.1484 34.6719 42.4766 34.0156C41.8203 33.3438 41.4922 32.5391 41.4922 31.6016V21.4062H4.08594C3.14844 21.4062 2.34375 21.0781 1.67188 20.4219C1.01562 19.75 0.6875 18.9453 0.6875 18.0078V4.39062C0.6875 3.45312 1.01562 2.65625 1.67188 2C2.34375 1.32812 3.14844 0.992188 4.08594 0.992188C5.13281 0.992188 6.00781 1.40625 6.71094 2.23438C6.83594 2.39063 6.94531 2.55469 7.03906 2.72656L7.0625 2.75C7.0625 2.76563 7.07031 2.78125 7.08594 2.79688C7.21094 3.03125 7.30469 3.27344 7.36719 3.52344V3.54688C7.41406 3.6875 7.44531 3.83594 7.46094 3.99219V4.0625C7.47656 4.17188 7.48438 4.28125 7.48438 4.39062V14.6094H41.4922V4.39062C41.4922 4.10938 41.5312 3.83594 41.6094 3.57031V3.54688C41.6719 3.3125 41.7578 3.08594 41.8672 2.86719C42.5547 1.61719 43.5625 0.992188 44.8906 0.992188Z" fill="url(#paint0_linear_601_11)"/>
<defs>
<linearGradient id="paint0_linear_601_11" x1="18.6221" y1="31.7097" x2="52" y2="31.7097" gradientUnits="userSpaceOnUse">
<stop/>
<stop offset="1" stop-color="#C873FF"/>
</linearGradient>
</defs>
</svg>
