<svg width="49" height="35" viewBox="0 0 49 35" fill="none" xmlns="http://www.w3.org/2000/svg">
<path d="M48.3125 18.0078V31.6016C48.3125 32.3047 48.1172 32.9375 47.7266 33.5C47.0234 34.5 46.0859 35 44.9141 35H4.08594C3.44531 35 2.85938 34.8359 2.32812 34.5078C1.23438 33.8047 0.6875 32.8359 0.6875 31.6016C0.6875 30.7578 0.960938 30.0234 1.50781 29.3984C2.05469 28.7734 2.74219 28.3906 3.57031 28.25C3.74219 28.2188 3.91406 28.2031 4.08594 28.2031H41.5156V21.4062H4.08594C3.14844 21.4062 2.34375 21.0781 1.67188 20.4219C1.01562 19.75 0.6875 18.9453 0.6875 18.0078C0.6875 17.7734 0.710938 17.5391 0.757812 17.3047C0.820312 17.0234 0.914062 16.75 1.03906 16.4844L7.83594 2.9375V2.89062L7.85938 2.86719C8.54688 1.61719 9.5625 0.992188 10.9062 0.992188H44.9141C45.8516 0.992188 46.6484 1.32812 47.3047 2C47.9766 2.65625 48.3125 3.45312 48.3125 4.39062C48.3125 5.21875 48.0469 5.94531 47.5156 6.57031C47 7.17969 46.3438 7.57031 45.5469 7.74219C45.4688 7.75781 45.3906 7.76562 45.3125 7.76562H45.2891C45.2734 7.76562 45.2578 7.77344 45.2422 7.78906H12.9922L9.59375 14.6094H44.9141C45.8516 14.6094 46.6484 14.9453 47.3047 15.6172C47.9766 16.2734 48.3125 17.0703 48.3125 18.0078Z" fill="url(#paint0_linear_6_1424)"/>
<defs>
<linearGradient id="paint0_linear_6_1424" x1="18.6221" y1="31.7097" x2="52" y2="31.7097" gradientUnits="userSpaceOnUse">
<stop/>
<stop offset="1" stop-color="#C873FF"/>
</linearGradient>
</defs>
</svg>
