<svg width="40" height="29" viewBox="0 0 40 29" fill="none" xmlns="http://www.w3.org/2000/svg">
<path d="M37.0117 0.660156C37.793 0.660156 38.457 0.940104 39.0039 1.5C39.5638 2.04688 39.8438 2.71094 39.8438 3.49219V26.168C39.8438 26.7539 39.681 27.2812 39.3555 27.75C38.7695 28.5833 37.9883 29 37.0117 29C36.2305 29 35.5599 28.7266 35 28.1797C34.4531 27.6198 34.1797 26.9492 34.1797 26.168V6.32422H2.98828C2.3112 6.32422 1.71224 6.11589 1.19141 5.69922C0.683594 5.26953 0.358073 4.72266 0.214844 4.05859C0.175781 3.8763 0.15625 3.6875 0.15625 3.49219C0.15625 2.71094 0.429688 2.04688 0.976562 1.5C1.53646 0.940104 2.20703 0.660156 2.98828 0.660156H37.0117Z" fill="url(#paint0_linear_626_234)"/>
<defs>
<linearGradient id="paint0_linear_626_234" x1="15.084" y1="25.8845" x2="43" y2="25.8845" gradientUnits="userSpaceOnUse">
<stop/>
<stop offset="1" stop-color="#C873FF"/>
</linearGradient>
</defs>
</svg>
