<svg width="694" height="191" viewBox="0 0 694 191" fill="none" xmlns="http://www.w3.org/2000/svg">
<rect x="0.5" y="0.5" width="693" height="190" fill="white"/>
<path d="M192.163 32.584C191.192 32.584 190.315 32.3693 189.531 31.94C188.756 31.5107 188.145 30.918 187.697 30.162C187.258 29.3967 187.039 28.5427 187.039 27.6C187.039 26.6573 187.258 25.808 187.697 25.052C188.145 24.2867 188.761 23.6893 189.545 23.26C190.329 22.8307 191.206 22.616 192.177 22.616C192.905 22.616 193.577 22.7373 194.193 22.98C194.809 23.2227 195.331 23.5773 195.761 24.044L195.103 24.702C194.337 23.9273 193.371 23.54 192.205 23.54C191.43 23.54 190.725 23.7173 190.091 24.072C189.456 24.4267 188.957 24.912 188.593 25.528C188.238 26.144 188.061 26.8347 188.061 27.6C188.061 28.3653 188.238 29.056 188.593 29.672C188.957 30.288 189.456 30.7733 190.091 31.128C190.725 31.4827 191.43 31.66 192.205 31.66C193.381 31.66 194.347 31.268 195.103 30.484L195.761 31.142C195.331 31.6087 194.804 31.968 194.179 32.22C193.563 32.4627 192.891 32.584 192.163 32.584ZM202.637 26.018H199.851V32.5H198.857V26.018H196.071V25.136H202.637V26.018ZM206.77 32.57C206.061 32.57 205.422 32.4113 204.852 32.094C204.283 31.7673 203.835 31.3193 203.508 30.75C203.182 30.1807 203.018 29.5367 203.018 28.818C203.018 28.0993 203.182 27.4553 203.508 26.886C203.835 26.3167 204.283 25.8733 204.852 25.556C205.422 25.2387 206.061 25.08 206.77 25.08C207.48 25.08 208.119 25.2387 208.688 25.556C209.258 25.8733 209.701 26.3167 210.018 26.886C210.345 27.4553 210.508 28.0993 210.508 28.818C210.508 29.5367 210.345 30.1807 210.018 30.75C209.701 31.3193 209.258 31.7673 208.688 32.094C208.119 32.4113 207.48 32.57 206.77 32.57ZM206.77 31.688C207.293 31.688 207.76 31.5713 208.17 31.338C208.59 31.0953 208.917 30.7547 209.15 30.316C209.384 29.8773 209.5 29.378 209.5 28.818C209.5 28.258 209.384 27.7587 209.15 27.32C208.917 26.8813 208.59 26.5453 208.17 26.312C207.76 26.0693 207.293 25.948 206.77 25.948C206.248 25.948 205.776 26.0693 205.356 26.312C204.946 26.5453 204.619 26.8813 204.376 27.32C204.143 27.7587 204.026 28.258 204.026 28.818C204.026 29.378 204.143 29.8773 204.376 30.316C204.619 30.7547 204.946 31.0953 205.356 31.338C205.776 31.5713 206.248 31.688 206.77 31.688ZM212.633 25.136H213.627V30.988L218.541 25.136H219.423V32.5H218.429V26.648L213.529 32.5H212.633V25.136ZM230.503 25.136V32.5H229.593V26.676L226.611 31.604H226.163L223.181 26.662V32.5H222.271V25.136H223.279L226.401 30.442L229.579 25.136H230.503ZM236.37 32.57C235.661 32.57 235.021 32.4113 234.452 32.094C233.883 31.7673 233.435 31.3193 233.108 30.75C232.781 30.1807 232.618 29.5367 232.618 28.818C232.618 28.0993 232.781 27.4553 233.108 26.886C233.435 26.3167 233.883 25.8733 234.452 25.556C235.021 25.2387 235.661 25.08 236.37 25.08C237.079 25.08 237.719 25.2387 238.288 25.556C238.857 25.8733 239.301 26.3167 239.618 26.886C239.945 27.4553 240.108 28.0993 240.108 28.818C240.108 29.5367 239.945 30.1807 239.618 30.75C239.301 31.3193 238.857 31.7673 238.288 32.094C237.719 32.4113 237.079 32.57 236.37 32.57ZM236.37 31.688C236.893 31.688 237.359 31.5713 237.77 31.338C238.19 31.0953 238.517 30.7547 238.75 30.316C238.983 29.8773 239.1 29.378 239.1 28.818C239.1 28.258 238.983 27.7587 238.75 27.32C238.517 26.8813 238.19 26.5453 237.77 26.312C237.359 26.0693 236.893 25.948 236.37 25.948C235.847 25.948 235.376 26.0693 234.956 26.312C234.545 26.5453 234.219 26.8813 233.976 27.32C233.743 27.7587 233.626 28.258 233.626 28.818C233.626 29.378 233.743 29.8773 233.976 30.316C234.219 30.7547 234.545 31.0953 234.956 31.338C235.376 31.5713 235.847 31.688 236.37 31.688ZM245.312 32.57C244.584 32.57 243.931 32.4113 243.352 32.094C242.783 31.7767 242.335 31.3333 242.008 30.764C241.682 30.1853 241.518 29.5367 241.518 28.818C241.518 28.0993 241.682 27.4553 242.008 26.886C242.335 26.3167 242.783 25.8733 243.352 25.556C243.931 25.2387 244.584 25.08 245.312 25.08C245.947 25.08 246.512 25.206 247.006 25.458C247.51 25.7007 247.907 26.06 248.196 26.536L247.454 27.04C247.212 26.676 246.904 26.4053 246.53 26.228C246.157 26.0413 245.751 25.948 245.312 25.948C244.78 25.948 244.3 26.0693 243.87 26.312C243.45 26.5453 243.119 26.8813 242.876 27.32C242.643 27.7587 242.526 28.258 242.526 28.818C242.526 29.3873 242.643 29.8913 242.876 30.33C243.119 30.7593 243.45 31.0953 243.87 31.338C244.3 31.5713 244.78 31.688 245.312 31.688C245.751 31.688 246.157 31.5993 246.53 31.422C246.904 31.2447 247.212 30.974 247.454 30.61L248.196 31.114C247.907 31.59 247.51 31.954 247.006 32.206C246.502 32.4487 245.938 32.57 245.312 32.57ZM255.164 26.018H252.378V32.5H251.384V26.018H248.598V25.136H255.164V26.018ZM259.766 27.74C260.69 27.7493 261.39 27.9547 261.866 28.356C262.351 28.7573 262.594 29.336 262.594 30.092C262.594 30.876 262.332 31.478 261.81 31.898C261.296 32.318 260.55 32.5233 259.57 32.514L256.602 32.5V25.136H257.596V27.712L259.766 27.74ZM259.514 31.758C260.195 31.7673 260.708 31.632 261.054 31.352C261.408 31.0627 261.586 30.6427 261.586 30.092C261.586 29.5507 261.413 29.1493 261.068 28.888C260.722 28.6267 260.204 28.4913 259.514 28.482L257.596 28.454V31.73L259.514 31.758ZM272.06 22.7C273.311 22.7 274.291 22.9987 275 23.596C275.71 24.1933 276.064 25.0147 276.064 26.06C276.064 27.1053 275.71 27.9267 275 28.524C274.291 29.112 273.311 29.406 272.06 29.406H269.428V32.5H268.392V22.7H272.06ZM272.032 28.496C273.003 28.496 273.745 28.286 274.258 27.866C274.772 27.4367 275.028 26.8347 275.028 26.06C275.028 25.2667 274.772 24.66 274.258 24.24C273.745 23.8107 273.003 23.596 272.032 23.596H269.428V28.496H272.032ZM285.676 22.7L281.224 30.946C280.907 31.534 280.534 31.9727 280.104 32.262C279.684 32.542 279.222 32.682 278.718 32.682C278.345 32.682 277.944 32.5933 277.514 32.416L277.808 31.576C278.144 31.7067 278.452 31.772 278.732 31.772C279.376 31.772 279.904 31.422 280.314 30.722L280.594 30.246L276.618 22.7H277.724L281.14 29.336L284.64 22.7H285.676ZM287.287 22.7H294.455V23.582H288.309V26.788H291.515C292.672 26.788 293.549 27.026 294.147 27.502C294.753 27.978 295.057 28.6687 295.057 29.574C295.057 30.5167 294.73 31.24 294.077 31.744C293.433 32.248 292.504 32.5 291.291 32.5H287.287V22.7ZM291.277 31.674C292.182 31.674 292.863 31.5013 293.321 31.156C293.787 30.8107 294.021 30.2973 294.021 29.616C294.021 28.944 293.792 28.4447 293.335 28.118C292.887 27.782 292.201 27.614 291.277 27.614H288.309V31.674H291.277ZM297.305 31.044C297.519 31.044 297.697 31.1187 297.837 31.268C297.977 31.408 298.047 31.5853 298.047 31.8C298.047 31.912 298.028 32.0333 297.991 32.164C297.963 32.2947 297.916 32.444 297.851 32.612L297.263 34.544H296.591L297.067 32.514C296.917 32.4673 296.796 32.3833 296.703 32.262C296.609 32.1313 296.563 31.9773 296.563 31.8C296.563 31.5853 296.633 31.408 296.773 31.268C296.913 31.1187 297.09 31.044 297.305 31.044ZM191.338 39.7V49.5H190.316V44.978H184.184V49.5H183.148V39.7H184.184V44.068H190.316V39.7H191.338ZM203.498 48.604V51.698H202.532V49.5H193.978L193.964 51.698H192.998L193.012 48.604H193.502C194.146 48.5667 194.594 48.058 194.846 47.078C195.098 46.0887 195.252 44.6887 195.308 42.878L195.42 39.7H202.028V48.604H203.498ZM196.232 42.976C196.185 44.4693 196.068 45.7013 195.882 46.672C195.704 47.6333 195.401 48.2773 194.972 48.604H201.006V40.596H196.316L196.232 42.976ZM209.895 49.584C208.924 49.584 208.047 49.3693 207.263 48.94C206.488 48.5107 205.877 47.918 205.429 47.162C204.99 46.3967 204.771 45.5427 204.771 44.6C204.771 43.6573 204.99 42.808 205.429 42.052C205.877 41.2867 206.493 40.6893 207.277 40.26C208.061 39.8307 208.938 39.616 209.909 39.616C210.637 39.616 211.309 39.7373 211.925 39.98C212.541 40.2227 213.064 40.5773 213.493 41.044L212.835 41.702C212.07 40.9273 211.104 40.54 209.937 40.54C209.162 40.54 208.458 40.7173 207.823 41.072C207.188 41.4267 206.689 41.912 206.325 42.528C205.97 43.144 205.793 43.8347 205.793 44.6C205.793 45.3653 205.97 46.056 206.325 46.672C206.689 47.288 207.188 47.7733 207.823 48.128C208.458 48.4827 209.162 48.66 209.937 48.66C211.113 48.66 212.079 48.268 212.835 47.484L213.493 48.142C213.064 48.6087 212.536 48.968 211.911 49.22C211.295 49.4627 210.623 49.584 209.895 49.584ZM219.059 42.136H220.053V45.398H224.687V42.136H225.681V49.5H224.687V46.252H220.053V49.5H219.059V42.136ZM234.946 46.126H228.786C228.842 46.8913 229.136 47.512 229.668 47.988C230.2 48.4547 230.872 48.688 231.684 48.688C232.141 48.688 232.561 48.6087 232.944 48.45C233.326 48.282 233.658 48.0393 233.938 47.722L234.498 48.366C234.171 48.758 233.76 49.0567 233.266 49.262C232.78 49.4673 232.244 49.57 231.656 49.57C230.9 49.57 230.228 49.4113 229.64 49.094C229.061 48.7673 228.608 48.3193 228.282 47.75C227.955 47.1807 227.792 46.5367 227.792 45.818C227.792 45.0993 227.946 44.4553 228.254 43.886C228.571 43.3167 229 42.8733 229.542 42.556C230.092 42.2387 230.708 42.08 231.39 42.08C232.071 42.08 232.682 42.2387 233.224 42.556C233.765 42.8733 234.19 43.3167 234.498 43.886C234.806 44.446 234.96 45.09 234.96 45.818L234.946 46.126ZM231.39 42.934C230.68 42.934 230.083 43.1627 229.598 43.62C229.122 44.068 228.851 44.656 228.786 45.384H234.008C233.942 44.656 233.667 44.068 233.182 43.62C232.706 43.1627 232.108 42.934 231.39 42.934ZM245.514 45.692C246.513 45.9253 247.012 46.5273 247.012 47.498C247.012 48.142 246.774 48.6367 246.298 48.982C245.822 49.3273 245.113 49.5 244.17 49.5H240.824V42.136H244.072C244.912 42.136 245.57 42.2993 246.046 42.626C246.522 42.9527 246.76 43.4193 246.76 44.026C246.76 44.4273 246.648 44.7727 246.424 45.062C246.209 45.342 245.906 45.552 245.514 45.692ZM241.79 45.412H244.002C244.571 45.412 245.005 45.3047 245.304 45.09C245.612 44.8753 245.766 44.5627 245.766 44.152C245.766 43.7413 245.612 43.4333 245.304 43.228C245.005 43.0227 244.571 42.92 244.002 42.92H241.79V45.412ZM244.128 48.716C244.763 48.716 245.239 48.6133 245.556 48.408C245.873 48.2027 246.032 47.8807 246.032 47.442C246.032 47.0033 245.887 46.6813 245.598 46.476C245.309 46.2613 244.851 46.154 244.226 46.154H241.79V48.716H244.128ZM252.016 46.224H250.336V49.5H249.342V42.136H250.336V45.37H252.03L254.62 42.136H255.698L252.8 45.706L255.908 49.5H254.732L252.016 46.224ZM263.497 42.136V49.5H262.503V43.018H258.975L258.877 44.838C258.802 46.3687 258.625 47.5447 258.345 48.366C258.065 49.1873 257.565 49.598 256.847 49.598C256.651 49.598 256.413 49.5607 256.133 49.486L256.203 48.632C256.371 48.6693 256.487 48.688 256.553 48.688C256.935 48.688 257.225 48.5107 257.421 48.156C257.617 47.8013 257.747 47.3627 257.812 46.84C257.878 46.3173 257.934 45.6267 257.981 44.768L258.107 42.136H263.497ZM272.65 42.08C273.341 42.08 273.962 42.2387 274.512 42.556C275.072 42.8733 275.511 43.3167 275.828 43.886C276.146 44.4553 276.304 45.0993 276.304 45.818C276.304 46.5367 276.146 47.1807 275.828 47.75C275.511 48.3193 275.072 48.7673 274.512 49.094C273.962 49.4113 273.341 49.57 272.65 49.57C271.997 49.57 271.404 49.43 270.872 49.15C270.34 48.8607 269.906 48.464 269.57 47.96C269.244 47.456 269.052 46.8773 268.996 46.224H267.316V49.5H266.322V42.136H267.316V45.314H269.01C269.085 44.6793 269.286 44.1193 269.612 43.634C269.948 43.1393 270.378 42.7567 270.9 42.486C271.423 42.2153 272.006 42.08 272.65 42.08ZM272.65 48.702C273.154 48.702 273.607 48.5807 274.008 48.338C274.419 48.0953 274.741 47.7547 274.974 47.316C275.208 46.8773 275.324 46.378 275.324 45.818C275.324 45.258 275.208 44.7587 274.974 44.32C274.741 43.8813 274.419 43.5453 274.008 43.312C273.607 43.0693 273.154 42.948 272.65 42.948C272.146 42.948 271.689 43.0693 271.278 43.312C270.877 43.5453 270.56 43.8813 270.326 44.32C270.093 44.7587 269.976 45.258 269.976 45.818C269.976 46.378 270.093 46.8773 270.326 47.316C270.56 47.7547 270.877 48.0953 271.278 48.338C271.689 48.5807 272.146 48.702 272.65 48.702ZM283.993 42.136V49.5H282.999V46.434C282.15 46.8073 281.315 46.994 280.493 46.994C279.607 46.994 278.916 46.7933 278.421 46.392C277.927 45.9813 277.679 45.37 277.679 44.558V42.136H278.673V44.502C278.673 45.0527 278.851 45.4727 279.205 45.762C279.56 46.042 280.05 46.182 280.675 46.182C281.366 46.182 282.141 46 282.999 45.636V42.136H283.993ZM293.256 46.126H287.096C287.152 46.8913 287.446 47.512 287.978 47.988C288.51 48.4547 289.182 48.688 289.994 48.688C290.452 48.688 290.872 48.6087 291.254 48.45C291.637 48.282 291.968 48.0393 292.248 47.722L292.808 48.366C292.482 48.758 292.071 49.0567 291.576 49.262C291.091 49.4673 290.554 49.57 289.966 49.57C289.21 49.57 288.538 49.4113 287.95 49.094C287.372 48.7673 286.919 48.3193 286.592 47.75C286.266 47.1807 286.102 46.5367 286.102 45.818C286.102 45.0993 286.256 44.4553 286.564 43.886C286.882 43.3167 287.311 42.8733 287.852 42.556C288.403 42.2387 289.019 42.08 289.7 42.08C290.382 42.08 290.993 42.2387 291.534 42.556C292.076 42.8733 292.5 43.3167 292.808 43.886C293.116 44.446 293.27 45.09 293.27 45.818L293.256 46.126ZM289.7 42.934C288.991 42.934 288.394 43.1627 287.908 43.62C287.432 44.068 287.162 44.656 287.096 45.384H292.318C292.253 44.656 291.978 44.068 291.492 43.62C291.016 43.1627 290.419 42.934 289.7 42.934ZM295.471 42.136H296.465V45.398H301.099V42.136H302.093V49.5H301.099V46.252H296.465V49.5H295.471V42.136Z" fill="black"/>
<path d="M360.548 28.006H358.308V32.5H357.3V22.7H358.308V27.096H360.548L363.866 22.7H364.986L361.346 27.46L365.196 32.5H364.006L360.548 28.006ZM369.507 32.57C368.797 32.57 368.158 32.4113 367.589 32.094C367.019 31.7673 366.571 31.3193 366.245 30.75C365.918 30.1807 365.755 29.5367 365.755 28.818C365.755 28.0993 365.918 27.4553 366.245 26.886C366.571 26.3167 367.019 25.8733 367.589 25.556C368.158 25.2387 368.797 25.08 369.507 25.08C370.216 25.08 370.855 25.2387 371.425 25.556C371.994 25.8733 372.437 26.3167 372.755 26.886C373.081 27.4553 373.245 28.0993 373.245 28.818C373.245 29.5367 373.081 30.1807 372.755 30.75C372.437 31.3193 371.994 31.7673 371.425 32.094C370.855 32.4113 370.216 32.57 369.507 32.57ZM369.507 31.688C370.029 31.688 370.496 31.5713 370.907 31.338C371.327 31.0953 371.653 30.7547 371.887 30.316C372.12 29.8773 372.237 29.378 372.237 28.818C372.237 28.258 372.12 27.7587 371.887 27.32C371.653 26.8813 371.327 26.5453 370.907 26.312C370.496 26.0693 370.029 25.948 369.507 25.948C368.984 25.948 368.513 26.0693 368.093 26.312C367.682 26.5453 367.355 26.8813 367.113 27.32C366.879 27.7587 366.763 28.258 366.763 28.818C366.763 29.378 366.879 29.8773 367.113 30.316C367.355 30.7547 367.682 31.0953 368.093 31.338C368.513 31.5713 368.984 31.688 369.507 31.688ZM381.348 25.136V32.5H380.354V26.018H376.826L376.728 27.838C376.653 29.3687 376.476 30.5447 376.196 31.366C375.916 32.1873 375.417 32.598 374.698 32.598C374.502 32.598 374.264 32.5607 373.984 32.486L374.054 31.632C374.222 31.6693 374.339 31.688 374.404 31.688C374.787 31.688 375.076 31.5107 375.272 31.156C375.468 30.8013 375.599 30.3627 375.664 29.84C375.729 29.3173 375.785 28.6267 375.832 27.768L375.958 25.136H381.348ZM384.174 25.136H385.168V30.988L390.082 25.136H390.964V32.5H389.97V26.648L385.07 32.5H384.174V25.136ZM399.37 25.136V32.5H398.376V29.434C397.527 29.8073 396.692 29.994 395.87 29.994C394.984 29.994 394.293 29.7933 393.798 29.392C393.304 28.9813 393.056 28.37 393.056 27.558V25.136H394.05V27.502C394.05 28.0527 394.228 28.4727 394.582 28.762C394.937 29.042 395.427 29.182 396.052 29.182C396.743 29.182 397.518 29 398.376 28.636V25.136H399.37ZM408.633 29.126H402.473C402.529 29.8913 402.823 30.512 403.355 30.988C403.887 31.4547 404.559 31.688 405.371 31.688C405.829 31.688 406.249 31.6087 406.631 31.45C407.014 31.282 407.345 31.0393 407.625 30.722L408.185 31.366C407.859 31.758 407.448 32.0567 406.953 32.262C406.468 32.4673 405.931 32.57 405.343 32.57C404.587 32.57 403.915 32.4113 403.327 32.094C402.749 31.7673 402.296 31.3193 401.969 30.75C401.643 30.1807 401.479 29.5367 401.479 28.818C401.479 28.0993 401.633 27.4553 401.941 26.886C402.259 26.3167 402.688 25.8733 403.229 25.556C403.78 25.2387 404.396 25.08 405.077 25.08C405.759 25.08 406.37 25.2387 406.911 25.556C407.453 25.8733 407.877 26.3167 408.185 26.886C408.493 27.446 408.647 28.09 408.647 28.818L408.633 29.126ZM405.077 25.934C404.368 25.934 403.771 26.1627 403.285 26.62C402.809 27.068 402.539 27.656 402.473 28.384H407.695C407.63 27.656 407.355 27.068 406.869 26.62C406.393 26.1627 405.796 25.934 405.077 25.934ZM413.928 32.57C413.2 32.57 412.546 32.4113 411.968 32.094C411.398 31.7767 410.95 31.3333 410.624 30.764C410.297 30.1853 410.134 29.5367 410.134 28.818C410.134 28.0993 410.297 27.4553 410.624 26.886C410.95 26.3167 411.398 25.8733 411.968 25.556C412.546 25.2387 413.2 25.08 413.928 25.08C414.562 25.08 415.127 25.206 415.622 25.458C416.126 25.7007 416.522 26.06 416.812 26.536L416.07 27.04C415.827 26.676 415.519 26.4053 415.146 26.228C414.772 26.0413 414.366 25.948 413.928 25.948C413.396 25.948 412.915 26.0693 412.486 26.312C412.066 26.5453 411.734 26.8813 411.492 27.32C411.258 27.7587 411.142 28.258 411.142 28.818C411.142 29.3873 411.258 29.8913 411.492 30.33C411.734 30.7593 412.066 31.0953 412.486 31.338C412.915 31.5713 413.396 31.688 413.928 31.688C414.366 31.688 414.772 31.5993 415.146 31.422C415.519 31.2447 415.827 30.974 416.07 30.61L416.812 31.114C416.522 31.59 416.126 31.954 415.622 32.206C415.118 32.4487 414.553 32.57 413.928 32.57ZM423.78 26.018H420.994V32.5H420V26.018H417.214V25.136H423.78V26.018ZM429.907 28.692C430.905 28.9253 431.405 29.5273 431.405 30.498C431.405 31.142 431.167 31.6367 430.691 31.982C430.215 32.3273 429.505 32.5 428.563 32.5H425.217V25.136H428.465C429.305 25.136 429.963 25.2993 430.439 25.626C430.915 25.9527 431.153 26.4193 431.153 27.026C431.153 27.4273 431.041 27.7727 430.817 28.062C430.602 28.342 430.299 28.552 429.907 28.692ZM426.183 28.412H428.395C428.964 28.412 429.398 28.3047 429.697 28.09C430.005 27.8753 430.159 27.5627 430.159 27.152C430.159 26.7413 430.005 26.4333 429.697 26.228C429.398 26.0227 428.964 25.92 428.395 25.92H426.183V28.412ZM428.521 31.716C429.155 31.716 429.631 31.6133 429.949 31.408C430.266 31.2027 430.425 30.8807 430.425 30.442C430.425 30.0033 430.28 29.6813 429.991 29.476C429.701 29.2613 429.244 29.154 428.619 29.154H426.183V31.716H428.521ZM436.772 32.57C436.063 32.57 435.424 32.4113 434.854 32.094C434.285 31.7673 433.837 31.3193 433.51 30.75C433.184 30.1807 433.02 29.5367 433.02 28.818C433.02 28.0993 433.184 27.4553 433.51 26.886C433.837 26.3167 434.285 25.8733 434.854 25.556C435.424 25.2387 436.063 25.08 436.772 25.08C437.482 25.08 438.121 25.2387 438.69 25.556C439.26 25.8733 439.703 26.3167 440.02 26.886C440.347 27.4553 440.51 28.0993 440.51 28.818C440.51 29.5367 440.347 30.1807 440.02 30.75C439.703 31.3193 439.26 31.7673 438.69 32.094C438.121 32.4113 437.482 32.57 436.772 32.57ZM436.772 31.688C437.295 31.688 437.762 31.5713 438.172 31.338C438.592 31.0953 438.919 30.7547 439.152 30.316C439.386 29.8773 439.502 29.378 439.502 28.818C439.502 28.258 439.386 27.7587 439.152 27.32C438.919 26.8813 438.592 26.5453 438.172 26.312C437.762 26.0693 437.295 25.948 436.772 25.948C436.25 25.948 435.778 26.0693 435.358 26.312C434.948 26.5453 434.621 26.8813 434.378 27.32C434.145 27.7587 434.028 28.258 434.028 28.818C434.028 29.378 434.145 29.8773 434.378 30.316C434.621 30.7547 434.948 31.0953 435.358 31.338C435.778 31.5713 436.25 31.688 436.772 31.688ZM448.245 32.57C447.647 32.57 447.073 32.486 446.523 32.318C445.981 32.1407 445.557 31.9213 445.249 31.66L445.697 30.876C446.005 31.1187 446.392 31.3193 446.859 31.478C447.325 31.6273 447.811 31.702 448.315 31.702C448.987 31.702 449.481 31.5993 449.799 31.394C450.125 31.1793 450.289 30.8807 450.289 30.498C450.289 30.2273 450.2 30.0173 450.023 29.868C449.845 29.7093 449.621 29.5927 449.351 29.518C449.08 29.434 448.721 29.3547 448.273 29.28C447.675 29.168 447.195 29.056 446.831 28.944C446.467 28.8227 446.154 28.622 445.893 28.342C445.641 28.062 445.515 27.6747 445.515 27.18C445.515 26.564 445.771 26.06 446.285 25.668C446.798 25.276 447.512 25.08 448.427 25.08C448.903 25.08 449.379 25.1453 449.855 25.276C450.331 25.3973 450.723 25.5607 451.031 25.766L450.597 26.564C449.99 26.144 449.267 25.934 448.427 25.934C447.792 25.934 447.311 26.046 446.985 26.27C446.667 26.494 446.509 26.788 446.509 27.152C446.509 27.432 446.597 27.656 446.775 27.824C446.961 27.992 447.19 28.118 447.461 28.202C447.731 28.2767 448.105 28.356 448.581 28.44C449.169 28.552 449.64 28.664 449.995 28.776C450.349 28.888 450.653 29.0793 450.905 29.35C451.157 29.6207 451.283 29.994 451.283 30.47C451.283 31.114 451.012 31.6273 450.471 32.01C449.939 32.3833 449.197 32.57 448.245 32.57ZM462.304 25.08C463.228 25.08 463.952 25.346 464.474 25.878C465.006 26.41 465.272 27.194 465.272 28.23V32.5H464.278V28.328C464.278 27.5627 464.092 26.9793 463.718 26.578C463.354 26.1767 462.836 25.976 462.164 25.976C461.399 25.976 460.797 26.214 460.358 26.69C459.92 27.1567 459.7 27.8053 459.7 28.636V32.5H458.706V28.328C458.706 27.5627 458.52 26.9793 458.146 26.578C457.782 26.1767 457.26 25.976 456.578 25.976C455.822 25.976 455.22 26.214 454.772 26.69C454.334 27.1567 454.114 27.8053 454.114 28.636V32.5H453.12V25.136H454.072V26.48C454.334 26.032 454.698 25.6867 455.164 25.444C455.631 25.2013 456.168 25.08 456.774 25.08C457.39 25.08 457.922 25.2107 458.37 25.472C458.828 25.7333 459.168 26.1207 459.392 26.634C459.663 26.1487 460.05 25.7707 460.554 25.5C461.068 25.22 461.651 25.08 462.304 25.08ZM470.544 25.08C471.505 25.08 472.243 25.3227 472.756 25.808C473.269 26.284 473.526 26.9933 473.526 27.936V32.5H472.574V31.352C472.35 31.7347 472.019 32.0333 471.58 32.248C471.151 32.4627 470.637 32.57 470.04 32.57C469.219 32.57 468.565 32.374 468.08 31.982C467.595 31.59 467.352 31.072 467.352 30.428C467.352 29.8027 467.576 29.2987 468.024 28.916C468.481 28.5333 469.205 28.342 470.194 28.342H472.532V27.894C472.532 27.2593 472.355 26.7787 472 26.452C471.645 26.116 471.127 25.948 470.446 25.948C469.979 25.948 469.531 26.0273 469.102 26.186C468.673 26.3353 468.304 26.5453 467.996 26.816L467.548 26.074C467.921 25.7567 468.369 25.514 468.892 25.346C469.415 25.1687 469.965 25.08 470.544 25.08ZM470.194 31.786C470.754 31.786 471.235 31.66 471.636 31.408C472.037 31.1467 472.336 30.7733 472.532 30.288V29.084H470.222C468.962 29.084 468.332 29.5227 468.332 30.4C468.332 30.8293 468.495 31.17 468.822 31.422C469.149 31.6647 469.606 31.786 470.194 31.786ZM477.178 26.578C477.411 26.0833 477.757 25.71 478.214 25.458C478.681 25.206 479.255 25.08 479.936 25.08V26.046L479.698 26.032C478.923 26.032 478.317 26.27 477.878 26.746C477.439 27.222 477.22 27.8893 477.22 28.748V32.5H476.226V25.136H477.178V26.578ZM485.928 32.052C485.741 32.22 485.508 32.3507 485.228 32.444C484.957 32.528 484.673 32.57 484.374 32.57C483.683 32.57 483.151 32.3833 482.778 32.01C482.405 31.6367 482.218 31.1093 482.218 30.428V25.976H480.902V25.136H482.218V23.526H483.212V25.136H485.452V25.976H483.212V30.372C483.212 30.8107 483.319 31.1467 483.534 31.38C483.758 31.604 484.075 31.716 484.486 31.716C484.691 31.716 484.887 31.6833 485.074 31.618C485.27 31.5527 485.438 31.4593 485.578 31.338L485.928 32.052ZM373.434 46.126H367.274C367.33 46.8913 367.624 47.512 368.156 47.988C368.688 48.4547 369.36 48.688 370.172 48.688C370.629 48.688 371.049 48.6087 371.432 48.45C371.814 48.282 372.146 48.0393 372.426 47.722L372.986 48.366C372.659 48.758 372.248 49.0567 371.754 49.262C371.268 49.4673 370.732 49.57 370.144 49.57C369.388 49.57 368.716 49.4113 368.128 49.094C367.549 48.7673 367.096 48.3193 366.77 47.75C366.443 47.1807 366.28 46.5367 366.28 45.818C366.28 45.0993 366.434 44.4553 366.742 43.886C367.059 43.3167 367.488 42.8733 368.03 42.556C368.58 42.2387 369.196 42.08 369.878 42.08C370.559 42.08 371.17 42.2387 371.712 42.556C372.253 42.8733 372.678 43.3167 372.986 43.886C373.294 44.446 373.448 45.09 373.448 45.818L373.434 46.126ZM369.878 42.934C369.168 42.934 368.571 43.1627 368.086 43.62C367.61 44.068 367.339 44.656 367.274 45.384H372.496C372.43 44.656 372.155 44.068 371.67 43.62C371.194 43.1627 370.596 42.934 369.878 42.934ZM381.522 42.136L378.246 49.5H377.224L373.962 42.136H374.998L377.756 48.408L380.542 42.136H381.522ZM389.129 46.126H382.969C383.025 46.8913 383.319 47.512 383.851 47.988C384.383 48.4547 385.055 48.688 385.867 48.688C386.324 48.688 386.744 48.6087 387.127 48.45C387.51 48.282 387.841 48.0393 388.121 47.722L388.681 48.366C388.354 48.758 387.944 49.0567 387.449 49.262C386.964 49.4673 386.427 49.57 385.839 49.57C385.083 49.57 384.411 49.4113 383.823 49.094C383.244 48.7673 382.792 48.3193 382.465 47.75C382.138 47.1807 381.975 46.5367 381.975 45.818C381.975 45.0993 382.129 44.4553 382.437 43.886C382.754 43.3167 383.184 42.8733 383.725 42.556C384.276 42.2387 384.892 42.08 385.573 42.08C386.254 42.08 386.866 42.2387 387.407 42.556C387.948 42.8733 388.373 43.3167 388.681 43.886C388.989 44.446 389.143 45.09 389.143 45.818L389.129 46.126ZM385.573 42.934C384.864 42.934 384.266 43.1627 383.781 43.62C383.305 44.068 383.034 44.656 382.969 45.384H388.191C388.126 44.656 387.85 44.068 387.365 43.62C386.889 43.1627 386.292 42.934 385.573 42.934ZM394.918 42.08C395.842 42.08 396.575 42.3507 397.116 42.892C397.667 43.424 397.942 44.2033 397.942 45.23V49.5H396.948V45.328C396.948 44.5627 396.757 43.9793 396.374 43.578C395.992 43.1767 395.446 42.976 394.736 42.976C393.943 42.976 393.313 43.214 392.846 43.69C392.389 44.1567 392.16 44.8053 392.16 45.636V49.5H391.166V42.136H392.118V43.494C392.389 43.046 392.762 42.7007 393.238 42.458C393.724 42.206 394.284 42.08 394.918 42.08ZM404.519 49.052C404.332 49.22 404.099 49.3507 403.819 49.444C403.548 49.528 403.264 49.57 402.965 49.57C402.274 49.57 401.742 49.3833 401.369 49.01C400.996 48.6367 400.809 48.1093 400.809 47.428V42.976H399.493V42.136H400.809V40.526H401.803V42.136H404.043V42.976H401.803V47.372C401.803 47.8107 401.91 48.1467 402.125 48.38C402.349 48.604 402.666 48.716 403.077 48.716C403.282 48.716 403.478 48.6833 403.665 48.618C403.861 48.5527 404.029 48.4593 404.169 48.338L404.519 49.052ZM408.302 49.57C407.705 49.57 407.131 49.486 406.58 49.318C406.039 49.1407 405.614 48.9213 405.306 48.66L405.754 47.876C406.062 48.1187 406.45 48.3193 406.916 48.478C407.383 48.6273 407.868 48.702 408.372 48.702C409.044 48.702 409.539 48.5993 409.856 48.394C410.183 48.1793 410.346 47.8807 410.346 47.498C410.346 47.2273 410.258 47.0173 410.08 46.868C409.903 46.7093 409.679 46.5927 409.408 46.518C409.138 46.434 408.778 46.3547 408.33 46.28C407.733 46.168 407.252 46.056 406.888 45.944C406.524 45.8227 406.212 45.622 405.95 45.342C405.698 45.062 405.572 44.6747 405.572 44.18C405.572 43.564 405.829 43.06 406.342 42.668C406.856 42.276 407.57 42.08 408.484 42.08C408.96 42.08 409.436 42.1453 409.912 42.276C410.388 42.3973 410.78 42.5607 411.088 42.766L410.654 43.564C410.048 43.144 409.324 42.934 408.484 42.934C407.85 42.934 407.369 43.046 407.042 43.27C406.725 43.494 406.566 43.788 406.566 44.152C406.566 44.432 406.655 44.656 406.832 44.824C407.019 44.992 407.248 45.118 407.518 45.202C407.789 45.2767 408.162 45.356 408.638 45.44C409.226 45.552 409.698 45.664 410.052 45.776C410.407 45.888 410.71 46.0793 410.962 46.35C411.214 46.6207 411.34 46.994 411.34 47.47C411.34 48.114 411.07 48.6273 410.528 49.01C409.996 49.3833 409.254 49.57 408.302 49.57ZM421.56 45.692C422.559 45.9253 423.058 46.5273 423.058 47.498C423.058 48.142 422.82 48.6367 422.344 48.982C421.868 49.3273 421.159 49.5 420.216 49.5H416.87V42.136H420.118C420.958 42.136 421.616 42.2993 422.092 42.626C422.568 42.9527 422.806 43.4193 422.806 44.026C422.806 44.4273 422.694 44.7727 422.47 45.062C422.255 45.342 421.952 45.552 421.56 45.692ZM417.836 45.412H420.048C420.617 45.412 421.051 45.3047 421.35 45.09C421.658 44.8753 421.812 44.5627 421.812 44.152C421.812 43.7413 421.658 43.4333 421.35 43.228C421.051 43.0227 420.617 42.92 420.048 42.92H417.836V45.412ZM420.174 48.716C420.809 48.716 421.285 48.6133 421.602 48.408C421.919 48.2027 422.078 47.8807 422.078 47.442C422.078 47.0033 421.933 46.6813 421.644 46.476C421.355 46.2613 420.897 46.154 420.272 46.154H417.836V48.716H420.174ZM435.66 42.136V49.5H434.666V43.018H430.046V49.5H429.052V42.136H435.66ZM441.019 42.08C441.981 42.08 442.718 42.3227 443.231 42.808C443.745 43.284 444.001 43.9933 444.001 44.936V49.5H443.049V48.352C442.825 48.7347 442.494 49.0333 442.055 49.248C441.626 49.4627 441.113 49.57 440.515 49.57C439.694 49.57 439.041 49.374 438.555 48.982C438.07 48.59 437.827 48.072 437.827 47.428C437.827 46.8027 438.051 46.2987 438.499 45.916C438.957 45.5333 439.68 45.342 440.669 45.342H443.007V44.894C443.007 44.2593 442.83 43.7787 442.475 43.452C442.121 43.116 441.603 42.948 440.921 42.948C440.455 42.948 440.007 43.0273 439.577 43.186C439.148 43.3353 438.779 43.5453 438.471 43.816L438.023 43.074C438.397 42.7567 438.845 42.514 439.367 42.346C439.89 42.1687 440.441 42.08 441.019 42.08ZM440.669 48.786C441.229 48.786 441.71 48.66 442.111 48.408C442.513 48.1467 442.811 47.7733 443.007 47.288V46.084H440.697C439.437 46.084 438.807 46.5227 438.807 47.4C438.807 47.8293 438.971 48.17 439.297 48.422C439.624 48.6647 440.081 48.786 440.669 48.786ZM449.321 46.224H447.641V49.5H446.647V42.136H447.641V45.37H449.335L451.925 42.136H453.003L450.105 45.706L453.213 49.5H452.037L449.321 46.224ZM460.962 46.126H454.802C454.858 46.8913 455.152 47.512 455.684 47.988C456.216 48.4547 456.888 48.688 457.7 48.688C458.158 48.688 458.578 48.6087 458.96 48.45C459.343 48.282 459.674 48.0393 459.954 47.722L460.514 48.366C460.188 48.758 459.777 49.0567 459.282 49.262C458.797 49.4673 458.26 49.57 457.672 49.57C456.916 49.57 456.244 49.4113 455.656 49.094C455.078 48.7673 454.625 48.3193 454.298 47.75C453.972 47.1807 453.808 46.5367 453.808 45.818C453.808 45.0993 453.962 44.4553 454.27 43.886C454.588 43.3167 455.017 42.8733 455.558 42.556C456.109 42.2387 456.725 42.08 457.406 42.08C458.088 42.08 458.699 42.2387 459.24 42.556C459.782 42.8733 460.206 43.3167 460.514 43.886C460.822 44.446 460.976 45.09 460.976 45.818L460.962 46.126ZM457.406 42.934C456.697 42.934 456.1 43.1627 455.614 43.62C455.138 44.068 454.868 44.656 454.802 45.384H460.024C459.959 44.656 459.684 44.068 459.198 43.62C458.722 43.1627 458.125 42.934 457.406 42.934ZM468.029 43.018H465.243V49.5H464.249V43.018H461.463V42.136H468.029V43.018ZM475.564 46.126H469.404C469.46 46.8913 469.754 47.512 470.286 47.988C470.818 48.4547 471.49 48.688 472.302 48.688C472.759 48.688 473.179 48.6087 473.562 48.45C473.945 48.282 474.276 48.0393 474.556 47.722L475.116 48.366C474.789 48.758 474.379 49.0567 473.884 49.262C473.399 49.4673 472.862 49.57 472.274 49.57C471.518 49.57 470.846 49.4113 470.258 49.094C469.679 48.7673 469.227 48.3193 468.9 47.75C468.573 47.1807 468.41 46.5367 468.41 45.818C468.41 45.0993 468.564 44.4553 468.872 43.886C469.189 43.3167 469.619 42.8733 470.16 42.556C470.711 42.2387 471.327 42.08 472.008 42.08C472.689 42.08 473.301 42.2387 473.842 42.556C474.383 42.8733 474.808 43.3167 475.116 43.886C475.424 44.446 475.578 45.09 475.578 45.818L475.564 46.126ZM472.008 42.934C471.299 42.934 470.701 43.1627 470.216 43.62C469.74 44.068 469.469 44.656 469.404 45.384H474.626C474.561 44.656 474.285 44.068 473.8 43.62C473.324 43.1627 472.727 42.934 472.008 42.934Z" fill="black"/>
<path d="M562.114 28.006H559.874V32.5H558.866V22.7H559.874V27.096H562.114L565.432 22.7H566.552L562.912 27.46L566.762 32.5H565.572L562.114 28.006ZM571.072 32.57C570.363 32.57 569.723 32.4113 569.154 32.094C568.585 31.7673 568.137 31.3193 567.81 30.75C567.483 30.1807 567.32 29.5367 567.32 28.818C567.32 28.0993 567.483 27.4553 567.81 26.886C568.137 26.3167 568.585 25.8733 569.154 25.556C569.723 25.2387 570.363 25.08 571.072 25.08C571.781 25.08 572.421 25.2387 572.99 25.556C573.559 25.8733 574.003 26.3167 574.32 26.886C574.647 27.4553 574.81 28.0993 574.81 28.818C574.81 29.5367 574.647 30.1807 574.32 30.75C574.003 31.3193 573.559 31.7673 572.99 32.094C572.421 32.4113 571.781 32.57 571.072 32.57ZM571.072 31.688C571.595 31.688 572.061 31.5713 572.472 31.338C572.892 31.0953 573.219 30.7547 573.452 30.316C573.685 29.8773 573.802 29.378 573.802 28.818C573.802 28.258 573.685 27.7587 573.452 27.32C573.219 26.8813 572.892 26.5453 572.472 26.312C572.061 26.0693 571.595 25.948 571.072 25.948C570.549 25.948 570.078 26.0693 569.658 26.312C569.247 26.5453 568.921 26.8813 568.678 27.32C568.445 27.7587 568.328 28.258 568.328 28.818C568.328 29.378 568.445 29.8773 568.678 30.316C568.921 30.7547 569.247 31.0953 569.658 31.338C570.078 31.5713 570.549 31.688 571.072 31.688ZM582.913 25.136V32.5H581.919V26.018H578.391L578.293 27.838C578.219 29.3687 578.041 30.5447 577.761 31.366C577.481 32.1873 576.982 32.598 576.263 32.598C576.067 32.598 575.829 32.5607 575.549 32.486L575.619 31.632C575.787 31.6693 575.904 31.688 575.969 31.688C576.352 31.688 576.641 31.5107 576.837 31.156C577.033 30.8013 577.164 30.3627 577.229 29.84C577.295 29.3173 577.351 28.6267 577.397 27.768L577.523 25.136H582.913ZM585.739 25.136H586.733V30.988L591.647 25.136H592.529V32.5H591.535V26.648L586.635 32.5H585.739V25.136ZM600.936 25.136V32.5H599.942V29.434C599.093 29.8073 598.257 29.994 597.436 29.994C596.549 29.994 595.859 29.7933 595.364 29.392C594.869 28.9813 594.622 28.37 594.622 27.558V25.136H595.616V27.502C595.616 28.0527 595.793 28.4727 596.148 28.762C596.503 29.042 596.993 29.182 597.618 29.182C598.309 29.182 599.083 29 599.942 28.636V25.136H600.936ZM610.199 29.126H604.039C604.095 29.8913 604.389 30.512 604.921 30.988C605.453 31.4547 606.125 31.688 606.937 31.688C607.394 31.688 607.814 31.6087 608.197 31.45C608.579 31.282 608.911 31.0393 609.191 30.722L609.751 31.366C609.424 31.758 609.013 32.0567 608.519 32.262C608.033 32.4673 607.497 32.57 606.909 32.57C606.153 32.57 605.481 32.4113 604.893 32.094C604.314 31.7673 603.861 31.3193 603.535 30.75C603.208 30.1807 603.045 29.5367 603.045 28.818C603.045 28.0993 603.199 27.4553 603.507 26.886C603.824 26.3167 604.253 25.8733 604.795 25.556C605.345 25.2387 605.961 25.08 606.643 25.08C607.324 25.08 607.935 25.2387 608.477 25.556C609.018 25.8733 609.443 26.3167 609.751 26.886C610.059 27.446 610.213 28.09 610.213 28.818L610.199 29.126ZM606.643 25.934C605.933 25.934 605.336 26.1627 604.851 26.62C604.375 27.068 604.104 27.656 604.039 28.384H609.261C609.195 27.656 608.92 27.068 608.435 26.62C607.959 26.1627 607.361 25.934 606.643 25.934ZM615.493 32.57C614.765 32.57 614.112 32.4113 613.533 32.094C612.964 31.7767 612.516 31.3333 612.189 30.764C611.862 30.1853 611.699 29.5367 611.699 28.818C611.699 28.0993 611.862 27.4553 612.189 26.886C612.516 26.3167 612.964 25.8733 613.533 25.556C614.112 25.2387 614.765 25.08 615.493 25.08C616.128 25.08 616.692 25.206 617.187 25.458C617.691 25.7007 618.088 26.06 618.377 26.536L617.635 27.04C617.392 26.676 617.084 26.4053 616.711 26.228C616.338 26.0413 615.932 25.948 615.493 25.948C614.961 25.948 614.48 26.0693 614.051 26.312C613.631 26.5453 613.3 26.8813 613.057 27.32C612.824 27.7587 612.707 28.258 612.707 28.818C612.707 29.3873 612.824 29.8913 613.057 30.33C613.3 30.7593 613.631 31.0953 614.051 31.338C614.48 31.5713 614.961 31.688 615.493 31.688C615.932 31.688 616.338 31.5993 616.711 31.422C617.084 31.2447 617.392 30.974 617.635 30.61L618.377 31.114C618.088 31.59 617.691 31.954 617.187 32.206C616.683 32.4487 616.118 32.57 615.493 32.57ZM625.345 26.018H622.559V32.5H621.565V26.018H618.779V25.136H625.345V26.018ZM631.472 28.692C632.471 28.9253 632.97 29.5273 632.97 30.498C632.97 31.142 632.732 31.6367 632.256 31.982C631.78 32.3273 631.071 32.5 630.128 32.5H626.782V25.136H630.03C630.87 25.136 631.528 25.2993 632.004 25.626C632.48 25.9527 632.718 26.4193 632.718 27.026C632.718 27.4273 632.606 27.7727 632.382 28.062C632.167 28.342 631.864 28.552 631.472 28.692ZM627.748 28.412H629.96C630.529 28.412 630.963 28.3047 631.262 28.09C631.57 27.8753 631.724 27.5627 631.724 27.152C631.724 26.7413 631.57 26.4333 631.262 26.228C630.963 26.0227 630.529 25.92 629.96 25.92H627.748V28.412ZM630.086 31.716C630.721 31.716 631.197 31.6133 631.514 31.408C631.831 31.2027 631.99 30.8807 631.99 30.442C631.99 30.0033 631.845 29.6813 631.556 29.476C631.267 29.2613 630.809 29.154 630.184 29.154H627.748V31.716H630.086ZM638.338 32.57C637.628 32.57 636.989 32.4113 636.42 32.094C635.85 31.7673 635.402 31.3193 635.076 30.75C634.749 30.1807 634.586 29.5367 634.586 28.818C634.586 28.0993 634.749 27.4553 635.076 26.886C635.402 26.3167 635.85 25.8733 636.42 25.556C636.989 25.2387 637.628 25.08 638.338 25.08C639.047 25.08 639.686 25.2387 640.256 25.556C640.825 25.8733 641.268 26.3167 641.586 26.886C641.912 27.4553 642.076 28.0993 642.076 28.818C642.076 29.5367 641.912 30.1807 641.586 30.75C641.268 31.3193 640.825 31.7673 640.256 32.094C639.686 32.4113 639.047 32.57 638.338 32.57ZM638.338 31.688C638.86 31.688 639.327 31.5713 639.738 31.338C640.158 31.0953 640.484 30.7547 640.718 30.316C640.951 29.8773 641.068 29.378 641.068 28.818C641.068 28.258 640.951 27.7587 640.718 27.32C640.484 26.8813 640.158 26.5453 639.738 26.312C639.327 26.0693 638.86 25.948 638.338 25.948C637.815 25.948 637.344 26.0693 636.924 26.312C636.513 26.5453 636.186 26.8813 635.944 27.32C635.71 27.7587 635.594 28.258 635.594 28.818C635.594 29.378 635.71 29.8773 635.944 30.316C636.186 30.7547 636.513 31.0953 636.924 31.338C637.344 31.5713 637.815 31.688 638.338 31.688ZM560.601 42.136V49.5H559.607V43.018H554.987V49.5H553.993V42.136H560.601ZM567.221 42.08C567.911 42.08 568.537 42.2387 569.097 42.556C569.657 42.864 570.095 43.3027 570.413 43.872C570.73 44.4413 570.889 45.09 570.889 45.818C570.889 46.5553 570.73 47.2087 570.413 47.778C570.095 48.3473 569.657 48.7907 569.097 49.108C568.546 49.416 567.921 49.57 567.221 49.57C566.623 49.57 566.082 49.4487 565.597 49.206C565.121 48.954 564.729 48.59 564.421 48.114V52.216H563.427V42.136H564.379V43.592C564.677 43.1067 565.069 42.7333 565.555 42.472C566.049 42.2107 566.605 42.08 567.221 42.08ZM567.151 48.688C567.664 48.688 568.131 48.5713 568.551 48.338C568.971 48.0953 569.297 47.7547 569.531 47.316C569.773 46.8773 569.895 46.378 569.895 45.818C569.895 45.258 569.773 44.7633 569.531 44.334C569.297 43.8953 568.971 43.5547 568.551 43.312C568.131 43.0693 567.664 42.948 567.151 42.948C566.628 42.948 566.157 43.0693 565.737 43.312C565.326 43.5547 564.999 43.8953 564.757 44.334C564.523 44.7633 564.407 45.258 564.407 45.818C564.407 46.378 564.523 46.8773 564.757 47.316C564.999 47.7547 565.326 48.0953 565.737 48.338C566.157 48.5713 566.628 48.688 567.151 48.688ZM573.024 42.136H574.018V47.988L578.932 42.136H579.814V49.5H578.82V43.648L573.92 49.5H573.024V42.136ZM588.683 42.136V49.5H587.689V43.018H584.161L584.063 44.838C583.988 46.3687 583.811 47.5447 583.531 48.366C583.251 49.1873 582.752 49.598 582.033 49.598C581.837 49.598 581.599 49.5607 581.319 49.486L581.389 48.632C581.557 48.6693 581.674 48.688 581.739 48.688C582.122 48.688 582.411 48.5107 582.607 48.156C582.803 47.8013 582.934 47.3627 582.999 46.84C583.064 46.3173 583.12 45.6267 583.167 44.768L583.293 42.136H588.683ZM594.547 49.57C593.837 49.57 593.198 49.4113 592.629 49.094C592.059 48.7673 591.611 48.3193 591.285 47.75C590.958 47.1807 590.795 46.5367 590.795 45.818C590.795 45.0993 590.958 44.4553 591.285 43.886C591.611 43.3167 592.059 42.8733 592.629 42.556C593.198 42.2387 593.837 42.08 594.547 42.08C595.256 42.08 595.895 42.2387 596.465 42.556C597.034 42.8733 597.477 43.3167 597.795 43.886C598.121 44.4553 598.285 45.0993 598.285 45.818C598.285 46.5367 598.121 47.1807 597.795 47.75C597.477 48.3193 597.034 48.7673 596.465 49.094C595.895 49.4113 595.256 49.57 594.547 49.57ZM594.547 48.688C595.069 48.688 595.536 48.5713 595.947 48.338C596.367 48.0953 596.693 47.7547 596.927 47.316C597.16 46.8773 597.277 46.378 597.277 45.818C597.277 45.258 597.16 44.7587 596.927 44.32C596.693 43.8813 596.367 43.5453 595.947 43.312C595.536 43.0693 595.069 42.948 594.547 42.948C594.024 42.948 593.553 43.0693 593.133 43.312C592.722 43.5453 592.395 43.8813 592.153 44.32C591.919 44.7587 591.803 45.258 591.803 45.818C591.803 46.378 591.919 46.8773 592.153 47.316C592.395 47.7547 592.722 48.0953 593.133 48.338C593.553 48.5713 594.024 48.688 594.547 48.688ZM606.603 46.224H605.007V49.5H604.013V46.224H602.417L600.163 49.5H598.973L601.619 45.706L599.183 42.136H600.261L602.417 45.37H604.013V42.136H605.007V45.37H606.603L608.773 42.136H609.851L607.415 45.72L610.061 49.5H608.871L606.603 46.224ZM617.896 46.126H611.736C611.792 46.8913 612.086 47.512 612.618 47.988C613.15 48.4547 613.822 48.688 614.634 48.688C615.091 48.688 615.511 48.6087 615.894 48.45C616.277 48.282 616.608 48.0393 616.888 47.722L617.448 48.366C617.121 48.758 616.711 49.0567 616.216 49.262C615.731 49.4673 615.194 49.57 614.606 49.57C613.85 49.57 613.178 49.4113 612.59 49.094C612.011 48.7673 611.559 48.3193 611.232 47.75C610.905 47.1807 610.742 46.5367 610.742 45.818C610.742 45.0993 610.896 44.4553 611.204 43.886C611.521 43.3167 611.951 42.8733 612.492 42.556C613.043 42.2387 613.659 42.08 614.34 42.08C615.021 42.08 615.633 42.2387 616.174 42.556C616.715 42.8733 617.14 43.3167 617.448 43.886C617.756 44.446 617.91 45.09 617.91 45.818L617.896 46.126ZM614.34 42.934C613.631 42.934 613.033 43.1627 612.548 43.62C612.072 44.068 611.801 44.656 611.736 45.384H616.958C616.893 44.656 616.617 44.068 616.132 43.62C615.656 43.1627 615.059 42.934 614.34 42.934ZM620.11 42.136H621.104V45.398H625.738V42.136H626.732V49.5H625.738V46.252H621.104V49.5H620.11V42.136ZM629.558 42.136H630.552V47.988L635.466 42.136H636.348V49.5H635.354V43.648L630.454 49.5H629.558V42.136ZM639.196 42.136H640.19V47.988L645.104 42.136H645.986V49.5H644.992V43.648L640.092 49.5H639.196V42.136ZM642.542 41.072C641.908 41.072 641.404 40.9133 641.03 40.596C640.657 40.2787 640.466 39.8307 640.456 39.252H641.17C641.18 39.616 641.31 39.91 641.562 40.134C641.814 40.3487 642.141 40.456 642.542 40.456C642.944 40.456 643.27 40.3487 643.522 40.134C643.784 39.91 643.919 39.616 643.928 39.252H644.642C644.633 39.8307 644.437 40.2787 644.054 40.596C643.681 40.9133 643.177 41.072 642.542 41.072Z" fill="black"/>
<path d="M28.77 100.446C29.414 100.586 29.9087 100.866 30.254 101.286C30.6087 101.697 30.786 102.229 30.786 102.882C30.786 103.722 30.4733 104.371 29.848 104.828C29.232 105.276 28.3173 105.5 27.104 105.5H22.596V95.7H26.824C27.916 95.7 28.7607 95.9193 29.358 96.358C29.9647 96.7967 30.268 97.4173 30.268 98.22C30.268 98.7613 30.1327 99.2233 29.862 99.606C29.6007 99.9793 29.2367 100.259 28.77 100.446ZM23.632 96.554V100.11H26.754C27.5473 100.11 28.1587 99.9607 28.588 99.662C29.0173 99.354 29.232 98.9107 29.232 98.332C29.232 97.7533 29.0173 97.3147 28.588 97.016C28.1587 96.708 27.5473 96.554 26.754 96.554H23.632ZM27.09 104.646C27.9673 104.646 28.63 104.497 29.078 104.198C29.526 103.899 29.75 103.433 29.75 102.798C29.75 101.575 28.8633 100.964 27.09 100.964H23.632V104.646H27.09ZM35.5167 98.08C36.478 98.08 37.2154 98.3227 37.7287 98.808C38.242 99.284 38.4987 99.9933 38.4987 100.936V105.5H37.5467V104.352C37.3227 104.735 36.9914 105.033 36.5527 105.248C36.1234 105.463 35.61 105.57 35.0127 105.57C34.1914 105.57 33.538 105.374 33.0527 104.982C32.5674 104.59 32.3247 104.072 32.3247 103.428C32.3247 102.803 32.5487 102.299 32.9967 101.916C33.454 101.533 34.1774 101.342 35.1667 101.342H37.5047V100.894C37.5047 100.259 37.3274 99.7787 36.9727 99.452C36.618 99.116 36.1 98.948 35.4187 98.948C34.952 98.948 34.504 99.0273 34.0747 99.186C33.6454 99.3353 33.2767 99.5453 32.9687 99.816L32.5207 99.074C32.894 98.7567 33.342 98.514 33.8647 98.346C34.3874 98.1687 34.938 98.08 35.5167 98.08ZM35.1667 104.786C35.7267 104.786 36.2074 104.66 36.6087 104.408C37.01 104.147 37.3087 103.773 37.5047 103.288V102.084H35.1947C33.9347 102.084 33.3047 102.523 33.3047 103.4C33.3047 103.829 33.468 104.17 33.7947 104.422C34.1214 104.665 34.5787 104.786 35.1667 104.786ZM43.1725 105.57C42.5752 105.57 42.0012 105.486 41.4505 105.318C40.9092 105.141 40.4845 104.921 40.1765 104.66L40.6245 103.876C40.9325 104.119 41.3198 104.319 41.7865 104.478C42.2532 104.627 42.7385 104.702 43.2425 104.702C43.9145 104.702 44.4092 104.599 44.7265 104.394C45.0532 104.179 45.2165 103.881 45.2165 103.498C45.2165 103.227 45.1278 103.017 44.9505 102.868C44.7732 102.709 44.5492 102.593 44.2785 102.518C44.0078 102.434 43.6485 102.355 43.2005 102.28C42.6032 102.168 42.1225 102.056 41.7585 101.944C41.3945 101.823 41.0818 101.622 40.8205 101.342C40.5685 101.062 40.4425 100.675 40.4425 100.18C40.4425 99.564 40.6992 99.06 41.2125 98.668C41.7258 98.276 42.4398 98.08 43.3545 98.08C43.8305 98.08 44.3065 98.1453 44.7825 98.276C45.2585 98.3973 45.6505 98.5607 45.9585 98.766L45.5245 99.564C44.9178 99.144 44.1945 98.934 43.3545 98.934C42.7198 98.934 42.2392 99.046 41.9125 99.27C41.5952 99.494 41.4365 99.788 41.4365 100.152C41.4365 100.432 41.5252 100.656 41.7025 100.824C41.8892 100.992 42.1178 101.118 42.3885 101.202C42.6592 101.277 43.0325 101.356 43.5085 101.44C44.0965 101.552 44.5678 101.664 44.9225 101.776C45.2772 101.888 45.5805 102.079 45.8325 102.35C46.0845 102.621 46.2105 102.994 46.2105 103.47C46.2105 104.114 45.9398 104.627 45.3985 105.01C44.8665 105.383 44.1245 105.57 43.1725 105.57ZM48.0481 98.136H49.0421V105.5H48.0481V98.136ZM48.5521 96.526C48.3468 96.526 48.1741 96.456 48.0341 96.316C47.8941 96.176 47.8241 96.008 47.8241 95.812C47.8241 95.6253 47.8941 95.462 48.0341 95.322C48.1741 95.182 48.3468 95.112 48.5521 95.112C48.7574 95.112 48.9301 95.182 49.0701 95.322C49.2101 95.4527 49.2801 95.6113 49.2801 95.798C49.2801 96.0033 49.2101 96.176 49.0701 96.316C48.9301 96.456 48.7574 96.526 48.5521 96.526ZM54.8599 105.57C54.1319 105.57 53.4785 105.411 52.8999 105.094C52.3305 104.777 51.8825 104.333 51.5559 103.764C51.2292 103.185 51.0659 102.537 51.0659 101.818C51.0659 101.099 51.2292 100.455 51.5559 99.886C51.8825 99.3167 52.3305 98.8733 52.8999 98.556C53.4785 98.2387 54.1319 98.08 54.8599 98.08C55.4945 98.08 56.0592 98.206 56.5539 98.458C57.0579 98.7007 57.4545 99.06 57.7439 99.536L57.0019 100.04C56.7592 99.676 56.4512 99.4053 56.0779 99.228C55.7045 99.0413 55.2985 98.948 54.8599 98.948C54.3279 98.948 53.8472 99.0693 53.4179 99.312C52.9979 99.5453 52.6665 99.8813 52.4239 100.32C52.1905 100.759 52.0739 101.258 52.0739 101.818C52.0739 102.387 52.1905 102.891 52.4239 103.33C52.6665 103.759 52.9979 104.095 53.4179 104.338C53.8472 104.571 54.3279 104.688 54.8599 104.688C55.2985 104.688 55.7045 104.599 56.0779 104.422C56.4512 104.245 56.7592 103.974 57.0019 103.61L57.7439 104.114C57.4545 104.59 57.0579 104.954 56.5539 105.206C56.0499 105.449 55.4852 105.57 54.8599 105.57Z" fill="black"/>
<path d="M208.112 104.02V106H198.824V104.434L203.828 99.682C204.392 99.142 204.77 98.674 204.962 98.278C205.166 97.87 205.268 97.468 205.268 97.072C205.268 96.484 205.07 96.034 204.674 95.722C204.278 95.41 203.696 95.254 202.928 95.254C201.644 95.254 200.66 95.692 199.976 96.568L198.338 95.308C198.83 94.648 199.49 94.138 200.318 93.778C201.158 93.406 202.094 93.22 203.126 93.22C204.494 93.22 205.586 93.544 206.402 94.192C207.218 94.84 207.626 95.722 207.626 96.838C207.626 97.522 207.482 98.164 207.194 98.764C206.906 99.364 206.354 100.048 205.538 100.816L202.172 104.02H208.112ZM213.819 93.4V106H211.479V95.362H208.815V93.4H213.819ZM220.566 93.22C222.294 93.22 223.632 93.76 224.58 94.84C225.54 95.92 226.02 97.468 226.02 99.484C226.02 100.9 225.762 102.112 225.246 103.12C224.73 104.116 224.004 104.878 223.068 105.406C222.144 105.922 221.07 106.18 219.846 106.18C219.198 106.18 218.586 106.114 218.01 105.982C217.446 105.838 216.954 105.634 216.534 105.37L217.398 103.606C218.022 104.014 218.82 104.218 219.792 104.218C221.004 104.218 221.952 103.846 222.636 103.102C223.32 102.358 223.662 101.284 223.662 99.88V99.862C223.29 100.294 222.816 100.624 222.24 100.852C221.664 101.068 221.016 101.176 220.296 101.176C219.468 101.176 218.724 101.02 218.064 100.708C217.404 100.384 216.888 99.928 216.516 99.34C216.144 98.752 215.958 98.074 215.958 97.306C215.958 96.49 216.162 95.776 216.57 95.164C216.978 94.54 217.53 94.06 218.226 93.724C218.922 93.388 219.702 93.22 220.566 93.22ZM220.746 99.34C221.502 99.34 222.114 99.136 222.582 98.728C223.062 98.32 223.302 97.804 223.302 97.18C223.302 96.568 223.068 96.064 222.6 95.668C222.144 95.26 221.508 95.056 220.692 95.056C219.96 95.056 219.366 95.254 218.91 95.65C218.454 96.034 218.226 96.55 218.226 97.198C218.226 97.858 218.454 98.38 218.91 98.764C219.366 99.148 219.978 99.34 220.746 99.34ZM237.834 106.18C236.826 106.18 235.926 105.928 235.134 105.424C234.342 104.908 233.718 104.164 233.262 103.192C232.806 102.208 232.578 101.044 232.578 99.7C232.578 98.356 232.806 97.198 233.262 96.226C233.718 95.242 234.342 94.498 235.134 93.994C235.926 93.478 236.826 93.22 237.834 93.22C238.842 93.22 239.742 93.478 240.534 93.994C241.338 94.498 241.968 95.242 242.424 96.226C242.88 97.198 243.108 98.356 243.108 99.7C243.108 101.044 242.88 102.208 242.424 103.192C241.968 104.164 241.338 104.908 240.534 105.424C239.742 105.928 238.842 106.18 237.834 106.18ZM237.834 104.146C238.734 104.146 239.442 103.774 239.958 103.03C240.486 102.286 240.75 101.176 240.75 99.7C240.75 98.224 240.486 97.114 239.958 96.37C239.442 95.626 238.734 95.254 237.834 95.254C236.946 95.254 236.238 95.626 235.71 96.37C235.194 97.114 234.936 98.224 234.936 99.7C234.936 101.176 235.194 102.286 235.71 103.03C236.238 103.774 236.946 104.146 237.834 104.146ZM249.945 106.18C248.937 106.18 248.037 105.928 247.245 105.424C246.453 104.908 245.829 104.164 245.373 103.192C244.917 102.208 244.689 101.044 244.689 99.7C244.689 98.356 244.917 97.198 245.373 96.226C245.829 95.242 246.453 94.498 247.245 93.994C248.037 93.478 248.937 93.22 249.945 93.22C250.953 93.22 251.853 93.478 252.645 93.994C253.449 94.498 254.079 95.242 254.535 96.226C254.991 97.198 255.219 98.356 255.219 99.7C255.219 101.044 254.991 102.208 254.535 103.192C254.079 104.164 253.449 104.908 252.645 105.424C251.853 105.928 250.953 106.18 249.945 106.18ZM249.945 104.146C250.845 104.146 251.553 103.774 252.069 103.03C252.597 102.286 252.861 101.176 252.861 99.7C252.861 98.224 252.597 97.114 252.069 96.37C251.553 95.626 250.845 95.254 249.945 95.254C249.057 95.254 248.349 95.626 247.821 96.37C247.305 97.114 247.047 98.224 247.047 99.7C247.047 101.176 247.305 102.286 247.821 103.03C248.349 103.774 249.057 104.146 249.945 104.146ZM262.057 106.18C261.049 106.18 260.149 105.928 259.357 105.424C258.565 104.908 257.941 104.164 257.485 103.192C257.029 102.208 256.801 101.044 256.801 99.7C256.801 98.356 257.029 97.198 257.485 96.226C257.941 95.242 258.565 94.498 259.357 93.994C260.149 93.478 261.049 93.22 262.057 93.22C263.065 93.22 263.965 93.478 264.757 93.994C265.561 94.498 266.191 95.242 266.647 96.226C267.103 97.198 267.331 98.356 267.331 99.7C267.331 101.044 267.103 102.208 266.647 103.192C266.191 104.164 265.561 104.908 264.757 105.424C263.965 105.928 263.065 106.18 262.057 106.18ZM262.057 104.146C262.957 104.146 263.665 103.774 264.181 103.03C264.709 102.286 264.973 101.176 264.973 99.7C264.973 98.224 264.709 97.114 264.181 96.37C263.665 95.626 262.957 95.254 262.057 95.254C261.169 95.254 260.461 95.626 259.933 96.37C259.417 97.114 259.159 98.224 259.159 99.7C259.159 101.176 259.417 102.286 259.933 103.03C260.461 103.774 261.169 104.146 262.057 104.146ZM277.775 101.842V102.868H281.735V104.128H277.775V106H275.435V104.128H273.635V102.868H275.435V93.4H280.619C282.299 93.4 283.607 93.76 284.543 94.48C285.491 95.2 285.965 96.25 285.965 97.63C285.965 98.998 285.491 100.042 284.543 100.762C283.607 101.482 282.299 101.842 280.619 101.842H277.775ZM283.607 97.648C283.607 96.916 283.349 96.358 282.833 95.974C282.317 95.578 281.573 95.38 280.601 95.38H277.775V99.952H280.601C281.561 99.952 282.299 99.754 282.815 99.358C283.343 98.95 283.607 98.38 283.607 97.648Z" fill="black"/>
<path d="M422.529 94.8V106H420.449V96.544H418.081V94.8H422.529Z" fill="black"/>
<path d="M601.529 94.8V106H599.449V96.544H597.081V94.8H601.529Z" fill="black"/>
<path d="M1 71H693V69H1V71Z" fill="#A8A8A8" mask="url(#path-5-inside-1_19_419)"/>
<path d="M28.742 162.882H23.282L22.106 165.5H21.028L25.508 155.7H26.53L31.01 165.5H29.918L28.742 162.882ZM28.364 162.042L26.012 156.778L23.66 162.042H28.364ZM39.0728 155.112V165.5H38.1208V164.044C37.8221 164.539 37.4255 164.917 36.9308 165.178C36.4455 165.439 35.8948 165.57 35.2788 165.57C34.5881 165.57 33.9628 165.411 33.4028 165.094C32.8428 164.777 32.4041 164.333 32.0868 163.764C31.7695 163.195 31.6108 162.546 31.6108 161.818C31.6108 161.09 31.7695 160.441 32.0868 159.872C32.4041 159.303 32.8428 158.864 33.4028 158.556C33.9628 158.239 34.5881 158.08 35.2788 158.08C35.8761 158.08 36.4128 158.206 36.8888 158.458C37.3741 158.701 37.7708 159.06 38.0788 159.536V155.112H39.0728ZM35.3628 164.688C35.8761 164.688 36.3381 164.571 36.7488 164.338C37.1688 164.095 37.4955 163.755 37.7288 163.316C37.9715 162.877 38.0928 162.378 38.0928 161.818C38.0928 161.258 37.9715 160.759 37.7288 160.32C37.4955 159.881 37.1688 159.545 36.7488 159.312C36.3381 159.069 35.8761 158.948 35.3628 158.948C34.8401 158.948 34.3688 159.069 33.9488 159.312C33.5381 159.545 33.2115 159.881 32.9688 160.32C32.7355 160.759 32.6188 161.258 32.6188 161.818C32.6188 162.378 32.7355 162.877 32.9688 163.316C33.2115 163.755 33.5381 164.095 33.9488 164.338C34.3688 164.571 34.8401 164.688 35.3628 164.688ZM48.0291 158.136L44.7531 165.5H43.7311L40.4691 158.136H41.5051L44.2631 164.408L47.0491 158.136H48.0291ZM51.7862 158.08C52.7476 158.08 53.4849 158.323 53.9982 158.808C54.5116 159.284 54.7682 159.993 54.7682 160.936V165.5H53.8162V164.352C53.5922 164.735 53.2609 165.033 52.8222 165.248C52.3929 165.463 51.8796 165.57 51.2822 165.57C50.4609 165.57 49.8076 165.374 49.3222 164.982C48.8369 164.59 48.5942 164.072 48.5942 163.428C48.5942 162.803 48.8182 162.299 49.2662 161.916C49.7236 161.533 50.4469 161.342 51.4362 161.342H53.7742V160.894C53.7742 160.259 53.5969 159.779 53.2422 159.452C52.8876 159.116 52.3696 158.948 51.6882 158.948C51.2216 158.948 50.7736 159.027 50.3442 159.186C49.9149 159.335 49.5462 159.545 49.2382 159.816L48.7902 159.074C49.1636 158.757 49.6116 158.514 50.1342 158.346C50.6569 158.169 51.2076 158.08 51.7862 158.08ZM51.4362 164.786C51.9962 164.786 52.4769 164.66 52.8782 164.408C53.2796 164.147 53.5782 163.773 53.7742 163.288V162.084H51.4642C50.2042 162.084 49.5742 162.523 49.5742 163.4C49.5742 163.829 49.7376 164.17 50.0642 164.422C50.3909 164.665 50.8482 164.786 51.4362 164.786ZM61.22 158.08C62.144 158.08 62.8767 158.351 63.418 158.892C63.9687 159.424 64.244 160.203 64.244 161.23V165.5H63.25V161.328C63.25 160.563 63.0587 159.979 62.676 159.578C62.2934 159.177 61.7474 158.976 61.038 158.976C60.2447 158.976 59.6147 159.214 59.148 159.69C58.6907 160.157 58.462 160.805 58.462 161.636V165.5H57.468V158.136H58.42V159.494C58.6907 159.046 59.064 158.701 59.54 158.458C60.0254 158.206 60.5854 158.08 61.22 158.08ZM70.022 165.57C69.294 165.57 68.6407 165.411 68.062 165.094C67.4927 164.777 67.0447 164.333 66.718 163.764C66.3913 163.185 66.228 162.537 66.228 161.818C66.228 161.099 66.3913 160.455 66.718 159.886C67.0447 159.317 67.4927 158.873 68.062 158.556C68.6407 158.239 69.294 158.08 70.022 158.08C70.6567 158.08 71.2213 158.206 71.716 158.458C72.22 158.701 72.6167 159.06 72.906 159.536L72.164 160.04C71.9213 159.676 71.6133 159.405 71.24 159.228C70.8667 159.041 70.4607 158.948 70.022 158.948C69.49 158.948 69.0093 159.069 68.58 159.312C68.16 159.545 67.8287 159.881 67.586 160.32C67.3527 160.759 67.236 161.258 67.236 161.818C67.236 162.387 67.3527 162.891 67.586 163.33C67.8287 163.759 68.16 164.095 68.58 164.338C69.0093 164.571 69.49 164.688 70.022 164.688C70.4607 164.688 70.8667 164.599 71.24 164.422C71.6133 164.245 71.9213 163.974 72.164 163.61L72.906 164.114C72.6167 164.59 72.22 164.954 71.716 165.206C71.212 165.449 70.6473 165.57 70.022 165.57ZM81.1476 162.126H74.9876C75.0436 162.891 75.3376 163.512 75.8696 163.988C76.4016 164.455 77.0736 164.688 77.8856 164.688C78.3429 164.688 78.7629 164.609 79.1456 164.45C79.5283 164.282 79.8596 164.039 80.1396 163.722L80.6996 164.366C80.3729 164.758 79.9623 165.057 79.4676 165.262C78.9823 165.467 78.4456 165.57 77.8576 165.57C77.1016 165.57 76.4296 165.411 75.8416 165.094C75.2629 164.767 74.8103 164.319 74.4836 163.75C74.1569 163.181 73.9936 162.537 73.9936 161.818C73.9936 161.099 74.1476 160.455 74.4556 159.886C74.7729 159.317 75.2023 158.873 75.7436 158.556C76.2943 158.239 76.9103 158.08 77.5916 158.08C78.2729 158.08 78.8843 158.239 79.4256 158.556C79.9669 158.873 80.3916 159.317 80.6996 159.886C81.0076 160.446 81.1616 161.09 81.1616 161.818L81.1476 162.126ZM77.5916 158.934C76.8823 158.934 76.2849 159.163 75.7996 159.62C75.3236 160.068 75.0529 160.656 74.9876 161.384H80.2096C80.1443 160.656 79.8689 160.068 79.3836 159.62C78.9076 159.163 78.3103 158.934 77.5916 158.934ZM89.9048 155.112V165.5H88.9528V164.044C88.6542 164.539 88.2575 164.917 87.7628 165.178C87.2775 165.439 86.7268 165.57 86.1108 165.57C85.4202 165.57 84.7948 165.411 84.2348 165.094C83.6748 164.777 83.2362 164.333 82.9188 163.764C82.6015 163.195 82.4428 162.546 82.4428 161.818C82.4428 161.09 82.6015 160.441 82.9188 159.872C83.2362 159.303 83.6748 158.864 84.2348 158.556C84.7948 158.239 85.4202 158.08 86.1108 158.08C86.7082 158.08 87.2448 158.206 87.7208 158.458C88.2062 158.701 88.6028 159.06 88.9108 159.536V155.112H89.9048ZM86.1948 164.688C86.7082 164.688 87.1702 164.571 87.5808 164.338C88.0008 164.095 88.3275 163.755 88.5608 163.316C88.8035 162.877 88.9248 162.378 88.9248 161.818C88.9248 161.258 88.8035 160.759 88.5608 160.32C88.3275 159.881 88.0008 159.545 87.5808 159.312C87.1702 159.069 86.7082 158.948 86.1948 158.948C85.6722 158.948 85.2008 159.069 84.7808 159.312C84.3702 159.545 84.0435 159.881 83.8008 160.32C83.5675 160.759 83.4508 161.258 83.4508 161.818C83.4508 162.378 83.5675 162.877 83.8008 163.316C84.0435 163.755 84.3702 164.095 84.7808 164.338C85.2008 164.571 85.6722 164.688 86.1948 164.688Z" fill="black"/>
<path d="M201.714 158.602C202.878 158.746 203.766 159.142 204.378 159.79C204.99 160.438 205.296 161.248 205.296 162.22C205.296 162.952 205.11 163.618 204.738 164.218C204.366 164.818 203.802 165.298 203.046 165.658C202.302 166.006 201.39 166.18 200.31 166.18C199.41 166.18 198.54 166.054 197.7 165.802C196.872 165.538 196.164 165.178 195.576 164.722L196.584 162.904C197.04 163.288 197.592 163.594 198.24 163.822C198.9 164.038 199.578 164.146 200.274 164.146C201.102 164.146 201.75 163.978 202.218 163.642C202.698 163.294 202.938 162.826 202.938 162.238C202.938 161.65 202.71 161.194 202.254 160.87C201.81 160.534 201.126 160.366 200.202 160.366H199.05V158.764L201.912 155.362H196.188V153.4H204.774V154.966L201.714 158.602ZM218.058 163.138H215.826V166H213.558V163.138H206.646V161.518L212.856 153.4H215.358L209.508 161.158H213.63V158.62H215.826V161.158H218.058V163.138ZM223.203 153.22C224.931 153.22 226.269 153.76 227.217 154.84C228.177 155.92 228.657 157.468 228.657 159.484C228.657 160.9 228.399 162.112 227.883 163.12C227.367 164.116 226.641 164.878 225.705 165.406C224.781 165.922 223.707 166.18 222.483 166.18C221.835 166.18 221.223 166.114 220.647 165.982C220.083 165.838 219.591 165.634 219.171 165.37L220.035 163.606C220.659 164.014 221.457 164.218 222.429 164.218C223.641 164.218 224.589 163.846 225.273 163.102C225.957 162.358 226.299 161.284 226.299 159.88V159.862C225.927 160.294 225.453 160.624 224.877 160.852C224.301 161.068 223.653 161.176 222.933 161.176C222.105 161.176 221.361 161.02 220.701 160.708C220.041 160.384 219.525 159.928 219.153 159.34C218.781 158.752 218.595 158.074 218.595 157.306C218.595 156.49 218.799 155.776 219.207 155.164C219.615 154.54 220.167 154.06 220.863 153.724C221.559 153.388 222.339 153.22 223.203 153.22ZM223.383 159.34C224.139 159.34 224.751 159.136 225.219 158.728C225.699 158.32 225.939 157.804 225.939 157.18C225.939 156.568 225.705 156.064 225.237 155.668C224.781 155.26 224.145 155.056 223.329 155.056C222.597 155.056 222.003 155.254 221.547 155.65C221.091 156.034 220.863 156.55 220.863 157.198C220.863 157.858 221.091 158.38 221.547 158.764C222.003 159.148 222.615 159.34 223.383 159.34ZM240.471 166.18C239.463 166.18 238.563 165.928 237.771 165.424C236.979 164.908 236.355 164.164 235.899 163.192C235.443 162.208 235.215 161.044 235.215 159.7C235.215 158.356 235.443 157.198 235.899 156.226C236.355 155.242 236.979 154.498 237.771 153.994C238.563 153.478 239.463 153.22 240.471 153.22C241.479 153.22 242.379 153.478 243.171 153.994C243.975 154.498 244.605 155.242 245.061 156.226C245.517 157.198 245.745 158.356 245.745 159.7C245.745 161.044 245.517 162.208 245.061 163.192C244.605 164.164 243.975 164.908 243.171 165.424C242.379 165.928 241.479 166.18 240.471 166.18ZM240.471 164.146C241.371 164.146 242.079 163.774 242.595 163.03C243.123 162.286 243.387 161.176 243.387 159.7C243.387 158.224 243.123 157.114 242.595 156.37C242.079 155.626 241.371 155.254 240.471 155.254C239.583 155.254 238.875 155.626 238.347 156.37C237.831 157.114 237.573 158.224 237.573 159.7C237.573 161.176 237.831 162.286 238.347 163.03C238.875 163.774 239.583 164.146 240.471 164.146ZM252.582 166.18C251.574 166.18 250.674 165.928 249.882 165.424C249.09 164.908 248.466 164.164 248.01 163.192C247.554 162.208 247.326 161.044 247.326 159.7C247.326 158.356 247.554 157.198 248.01 156.226C248.466 155.242 249.09 154.498 249.882 153.994C250.674 153.478 251.574 153.22 252.582 153.22C253.59 153.22 254.49 153.478 255.282 153.994C256.086 154.498 256.716 155.242 257.172 156.226C257.628 157.198 257.856 158.356 257.856 159.7C257.856 161.044 257.628 162.208 257.172 163.192C256.716 164.164 256.086 164.908 255.282 165.424C254.49 165.928 253.59 166.18 252.582 166.18ZM252.582 164.146C253.482 164.146 254.19 163.774 254.706 163.03C255.234 162.286 255.498 161.176 255.498 159.7C255.498 158.224 255.234 157.114 254.706 156.37C254.19 155.626 253.482 155.254 252.582 155.254C251.694 155.254 250.986 155.626 250.458 156.37C249.942 157.114 249.684 158.224 249.684 159.7C249.684 161.176 249.942 162.286 250.458 163.03C250.986 163.774 251.694 164.146 252.582 164.146ZM264.694 166.18C263.686 166.18 262.786 165.928 261.994 165.424C261.202 164.908 260.578 164.164 260.122 163.192C259.666 162.208 259.438 161.044 259.438 159.7C259.438 158.356 259.666 157.198 260.122 156.226C260.578 155.242 261.202 154.498 261.994 153.994C262.786 153.478 263.686 153.22 264.694 153.22C265.702 153.22 266.602 153.478 267.394 153.994C268.198 154.498 268.828 155.242 269.284 156.226C269.74 157.198 269.968 158.356 269.968 159.7C269.968 161.044 269.74 162.208 269.284 163.192C268.828 164.164 268.198 164.908 267.394 165.424C266.602 165.928 265.702 166.18 264.694 166.18ZM264.694 164.146C265.594 164.146 266.302 163.774 266.818 163.03C267.346 162.286 267.61 161.176 267.61 159.7C267.61 158.224 267.346 157.114 266.818 156.37C266.302 155.626 265.594 155.254 264.694 155.254C263.806 155.254 263.098 155.626 262.57 156.37C262.054 157.114 261.796 158.224 261.796 159.7C261.796 161.176 262.054 162.286 262.57 163.03C263.098 163.774 263.806 164.146 264.694 164.146ZM280.411 161.842V162.868H284.371V164.128H280.411V166H278.071V164.128H276.271V162.868H278.071V153.4H283.255C284.935 153.4 286.243 153.76 287.179 154.48C288.127 155.2 288.601 156.25 288.601 157.63C288.601 158.998 288.127 160.042 287.179 160.762C286.243 161.482 284.935 161.842 283.255 161.842H280.411ZM286.243 157.648C286.243 156.916 285.985 156.358 285.469 155.974C284.953 155.578 284.209 155.38 283.237 155.38H280.411V159.952H283.237C284.197 159.952 284.935 159.754 285.451 159.358C285.979 158.95 286.243 158.38 286.243 157.648Z" fill="black"/>
<path d="M425.16 164.24V166H416.904V164.608L421.352 160.384C421.853 159.904 422.189 159.488 422.36 159.136C422.541 158.773 422.632 158.416 422.632 158.064C422.632 157.541 422.456 157.141 422.104 156.864C421.752 156.587 421.234 156.448 420.552 156.448C419.41 156.448 418.536 156.837 417.928 157.616L416.472 156.496C416.909 155.909 417.496 155.456 418.232 155.136C418.978 154.805 419.81 154.64 420.728 154.64C421.944 154.64 422.914 154.928 423.64 155.504C424.365 156.08 424.728 156.864 424.728 157.856C424.728 158.464 424.6 159.035 424.344 159.568C424.088 160.101 423.597 160.709 422.872 161.392L419.88 164.24H425.16Z" fill="black"/>
<path d="M604.16 164.24V166H595.904V164.608L600.352 160.384C600.853 159.904 601.189 159.488 601.36 159.136C601.541 158.773 601.632 158.416 601.632 158.064C601.632 157.541 601.456 157.141 601.104 156.864C600.752 156.587 600.234 156.448 599.552 156.448C598.41 156.448 597.536 156.837 596.928 157.616L595.472 156.496C595.909 155.909 596.496 155.456 597.232 155.136C597.978 154.805 598.81 154.64 599.728 154.64C600.944 154.64 601.914 154.928 602.64 155.504C603.365 156.08 603.728 156.864 603.728 157.856C603.728 158.464 603.6 159.035 603.344 159.568C603.088 160.101 602.597 160.709 601.872 161.392L598.88 164.24H604.16Z" fill="black"/>
<rect x="0.5" y="0.5" width="693" height="190" stroke="black"/>
</svg>
