<svg width="480" height="186" viewBox="0 0 480 186" fill="none" xmlns="http://www.w3.org/2000/svg">
<rect x="0.5" y="0.5" width="479" height="185" fill="white"/>
<path d="M64.647 57.7699V56.401V51.6951C63.3208 53.2352 61.4813 54.433 59.0855 54.433C56.7754 54.433 54.9358 53.1924 53.5668 51.6951V56.3154V57.7272L59.2567 60.5079L64.647 57.7699Z" stroke="black" stroke-miterlimit="10"/>
<path d="M64.647 57.7701L59.2995 60.4653L53.6096 57.6846L51.385 58.0268C51.8556 65.8557 55.3208 72.3584 55.6203 72.9145C58.9572 72.9145 61.0535 72.9145 62.7647 72.9145C63.1069 72.3156 66.4011 65.8129 66.9144 58.0696L64.647 57.7701Z" stroke="black" stroke-miterlimit="10"/>
<path d="M51.3423 58.0696C50.9572 58.1551 41.0321 59.738 38.5508 61.0215C38.5508 61.0215 35.7273 61.9626 35 72.9573C35 72.9573 54.6364 72.9573 55.492 72.9573C55.1925 72.4439 51.8128 65.8985 51.3423 58.0696Z" fill="black" stroke="black" stroke-miterlimit="10"/>
<path d="M66.8717 58.1123C67.2567 58.1979 77.1819 59.7808 79.6631 61.0642C79.6631 61.0642 82.4867 62.0054 83.2139 73C83.2139 73 63.5776 73 62.722 73C62.9786 72.4439 66.4011 65.9412 66.8717 58.1123Z" fill="black" stroke="black" stroke-miterlimit="10"/>
<path d="M70.5081 39.802C69.2674 38.9891 68.0696 39.9731 67.6846 40.3581C67.6846 40.2298 67.6846 40.1014 67.6846 39.9731C67.8129 34.5827 66.23 29.2779 59.0856 29.2351C51.9412 29.2351 50.3583 34.5827 50.4867 39.9731C50.4867 40.1014 50.4867 40.187 50.4867 40.3153C50.0589 39.9303 48.9038 38.9463 47.7059 39.7592C46.2514 40.7431 47.6204 46.2191 50.4439 45.5346C50.4867 45.7057 50.5295 45.9196 50.5722 46.0479C50.7006 46.8608 51.6845 49.5132 53.5669 51.6522C54.9359 53.1923 56.7755 54.3902 59.0856 54.3902C61.4813 54.3902 63.2781 53.1923 64.6471 51.6522C66.4439 49.6415 67.3851 47.0319 67.6846 46.0479C67.7273 45.8768 67.7701 45.7057 67.8129 45.5346C70.6364 46.2191 72.0054 40.7859 70.5081 39.802Z" stroke="black" stroke-miterlimit="10"/>
<path d="M73.4599 41.4706C72.4759 39.6738 71.4919 37.9198 70.8075 35.9947C69.8663 33.3422 69.139 30.4759 67.1283 28.3797C67.0427 28.2941 66.9572 28.2086 66.8716 28.123C64.7754 26.1123 61.9518 25 59.0855 25C54.893 25 50.8288 27.4813 49.032 31.246C47.7914 33.8556 47.3636 36.7647 46.1657 39.3743C44.9251 42.1123 43.4278 44.8075 42.9144 47.8021C42.5721 49.7273 43.1283 51.6952 44.4973 53.1497C46.1657 54.9037 48.3475 55.631 50.6149 55.9305C51.5989 56.0588 52.6256 56.1872 53.6524 56.2727V51.6952C51.77 49.5989 50.7861 46.9037 50.6577 46.0909C50.6149 45.9198 50.5722 45.7487 50.5294 45.5775C47.6631 46.262 46.2941 40.7861 47.7914 39.8021C48.9893 38.9893 50.1871 39.9305 50.5722 40.3583C50.5722 40.23 50.5722 40.1444 50.5722 40.016C50.5722 39.5882 50.5722 39.1604 50.5722 38.7326C52.7968 37.2781 57.5454 36.7647 59.1711 32.1872C60.754 37.4492 64.9893 36.9358 67.77 38.6898C67.77 39.1177 67.77 39.5455 67.77 40.016C67.77 40.1444 67.77 40.2727 67.77 40.4011C67.9839 40.1872 68.369 39.8449 68.8823 39.6738C68.9679 39.7594 69.0107 39.8449 69.0962 39.9305C69.0962 39.9305 69.0962 39.8449 69.0534 39.631C69.524 39.5027 70.0802 39.5027 70.6363 39.8449C72.0909 40.8289 70.7647 46.262 67.8984 45.6203C67.8556 45.7915 67.8128 45.9626 67.77 46.1337C67.4706 47.1177 66.5294 49.6845 64.7326 51.738V56.4439C65.9732 56.3583 67.1711 56.23 68.4117 56.0588C71.3636 55.631 73.9732 54.9038 75.3422 52.0374C76.6256 48.9572 75.0428 44.3369 73.4599 41.4706Z" fill="black"/>
<path d="M103.4 30.116C104.315 30.116 105.141 30.3307 105.878 30.76C106.625 31.1893 107.208 31.7867 107.628 32.552C108.057 33.308 108.272 34.1573 108.272 35.1C108.272 36.0427 108.057 36.8967 107.628 37.662C107.208 38.418 106.625 39.0107 105.878 39.44C105.141 39.8693 104.315 40.084 103.4 40.084C102.635 40.084 101.935 39.9627 101.3 39.72C100.665 39.4773 100.133 39.118 99.7039 38.642L100.348 37.984C101.123 38.768 102.126 39.16 103.358 39.16C104.049 39.16 104.679 39.0013 105.248 38.684C105.817 38.3573 106.275 37.914 106.62 37.354C106.975 36.7847 107.175 36.1453 107.222 35.436H102.168V34.582H107.208C107.133 33.9007 106.919 33.294 106.564 32.762C106.219 32.2207 105.766 31.8007 105.206 31.502C104.646 31.194 104.03 31.04 103.358 31.04C102.126 31.04 101.123 31.432 100.348 32.216L99.7039 31.558C100.133 31.082 100.665 30.7227 101.3 30.48C101.935 30.2373 102.635 30.116 103.4 30.116ZM115.488 33.518H112.702V40H111.708V33.518H108.922V32.636H115.488V33.518ZM119.621 40.07C118.912 40.07 118.272 39.9113 117.703 39.594C117.134 39.2673 116.686 38.8193 116.359 38.25C116.032 37.6807 115.869 37.0367 115.869 36.318C115.869 35.5993 116.032 34.9553 116.359 34.386C116.686 33.8167 117.134 33.3733 117.703 33.056C118.272 32.7387 118.912 32.58 119.621 32.58C120.33 32.58 120.97 32.7387 121.539 33.056C122.108 33.3733 122.552 33.8167 122.869 34.386C123.196 34.9553 123.359 35.5993 123.359 36.318C123.359 37.0367 123.196 37.6807 122.869 38.25C122.552 38.8193 122.108 39.2673 121.539 39.594C120.97 39.9113 120.33 40.07 119.621 40.07ZM119.621 39.188C120.144 39.188 120.61 39.0713 121.021 38.838C121.441 38.5953 121.768 38.2547 122.001 37.816C122.234 37.3773 122.351 36.878 122.351 36.318C122.351 35.758 122.234 35.2587 122.001 34.82C121.768 34.3813 121.441 34.0453 121.021 33.812C120.61 33.5693 120.144 33.448 119.621 33.448C119.098 33.448 118.627 33.5693 118.207 33.812C117.796 34.0453 117.47 34.3813 117.227 34.82C116.994 35.2587 116.877 35.758 116.877 36.318C116.877 36.878 116.994 37.3773 117.227 37.816C117.47 38.2547 117.796 38.5953 118.207 38.838C118.627 39.0713 119.098 39.188 119.621 39.188ZM132.633 35.506H130.393V40H129.385V30.2H130.393V34.596H132.633L135.951 30.2H137.071L133.431 34.96L137.281 40H136.091L132.633 35.506ZM141.293 32.58C142.254 32.58 142.991 32.8227 143.505 33.308C144.018 33.784 144.275 34.4933 144.275 35.436V40H143.323V38.852C143.099 39.2347 142.767 39.5333 142.329 39.748C141.899 39.9627 141.386 40.07 140.789 40.07C139.967 40.07 139.314 39.874 138.829 39.482C138.343 39.09 138.101 38.572 138.101 37.928C138.101 37.3027 138.325 36.7987 138.773 36.416C139.23 36.0333 139.953 35.842 140.943 35.842H143.281V35.394C143.281 34.7593 143.103 34.2787 142.749 33.952C142.394 33.616 141.876 33.448 141.195 33.448C140.728 33.448 140.28 33.5273 139.851 33.686C139.421 33.8353 139.053 34.0453 138.745 34.316L138.297 33.574C138.67 33.2567 139.118 33.014 139.641 32.846C140.163 32.6687 140.714 32.58 141.293 32.58ZM140.943 39.286C141.503 39.286 141.983 39.16 142.385 38.908C142.786 38.6467 143.085 38.2733 143.281 37.788V36.584H140.971C139.711 36.584 139.081 37.0227 139.081 37.9C139.081 38.3293 139.244 38.67 139.571 38.922C139.897 39.1647 140.355 39.286 140.943 39.286ZM152.101 33.518H149.315V40H148.321V33.518H145.535V32.636H152.101V33.518ZM159.044 32.636V40H158.134V37.564H155.824H155.544L153.836 40H152.758L154.592 37.424C154.022 37.2653 153.584 36.9947 153.276 36.612C152.968 36.2293 152.814 35.744 152.814 35.156C152.814 34.3347 153.094 33.7093 153.654 33.28C154.214 32.8507 154.979 32.636 155.95 32.636H159.044ZM153.822 35.184C153.822 36.276 154.517 36.822 155.908 36.822H158.134V33.518H155.978C154.54 33.518 153.822 34.0733 153.822 35.184Z" fill="black"/>
<path d="M106.104 51.74V57H105.454V52.84L103.324 56.36H103.004L100.874 52.83V57H100.224V51.74H100.944L103.174 55.53L105.444 51.74H106.104ZM110.334 53.6C110.994 53.6067 111.498 53.7533 111.844 54.04C112.191 54.3267 112.364 54.74 112.364 55.28C112.364 55.84 112.178 56.27 111.804 56.57C111.431 56.87 110.898 57.0167 110.204 57.01L108.124 57V51.74H108.834V53.58L110.334 53.6ZM113.244 51.74H113.954V57H113.244V51.74ZM110.164 56.47C110.651 56.4767 111.018 56.38 111.264 56.18C111.518 55.9733 111.644 55.6733 111.644 55.28C111.644 54.8933 111.521 54.6067 111.274 54.42C111.028 54.2333 110.658 54.1367 110.164 54.13L108.834 54.11V56.45L110.164 56.47ZM121.153 54.26C121.526 54.3467 121.813 54.4967 122.013 54.71C122.22 54.9233 122.323 55.1833 122.323 55.49C122.323 55.7967 122.216 56.07 122.003 56.31C121.796 56.55 121.513 56.7367 121.153 56.87C120.793 56.9967 120.396 57.06 119.963 57.06C119.583 57.06 119.21 57.0067 118.843 56.9C118.476 56.7867 118.156 56.6233 117.883 56.41L118.123 55.88C118.363 56.06 118.643 56.2 118.963 56.3C119.283 56.4 119.606 56.45 119.933 56.45C120.42 56.45 120.816 56.36 121.123 56.18C121.436 55.9933 121.593 55.7433 121.593 55.43C121.593 55.15 121.466 54.9333 121.213 54.78C120.96 54.62 120.613 54.54 120.173 54.54H119.273V54.02H120.133C120.526 54.02 120.843 53.9467 121.083 53.8C121.323 53.6467 121.443 53.4433 121.443 53.19C121.443 52.91 121.306 52.69 121.033 52.53C120.766 52.37 120.416 52.29 119.983 52.29C119.416 52.29 118.856 52.4333 118.303 52.72L118.103 52.17C118.73 51.8433 119.38 51.68 120.053 51.68C120.453 51.68 120.813 51.74 121.133 51.86C121.46 51.9733 121.713 52.1367 121.893 52.35C122.08 52.5633 122.173 52.81 122.173 53.09C122.173 53.3567 122.08 53.5933 121.893 53.8C121.713 54.0067 121.466 54.16 121.153 54.26ZM125.745 51.7C126.432 51.7 126.958 51.8733 127.325 52.22C127.692 52.56 127.875 53.0667 127.875 53.74V57H127.195V56.18C127.035 56.4533 126.798 56.6667 126.485 56.82C126.178 56.9733 125.812 57.05 125.385 57.05C124.798 57.05 124.332 56.91 123.985 56.63C123.638 56.35 123.465 55.98 123.465 55.52C123.465 55.0733 123.625 54.7133 123.945 54.44C124.272 54.1667 124.788 54.03 125.495 54.03H127.165V53.71C127.165 53.2567 127.038 52.9133 126.785 52.68C126.532 52.44 126.162 52.32 125.675 52.32C125.342 52.32 125.022 52.3767 124.715 52.49C124.408 52.5967 124.145 52.7467 123.925 52.94L123.605 52.41C123.872 52.1833 124.192 52.01 124.565 51.89C124.938 51.7633 125.332 51.7 125.745 51.7ZM125.495 56.49C125.895 56.49 126.238 56.4 126.525 56.22C126.812 56.0333 127.025 55.7667 127.165 55.42V54.56H125.515C124.615 54.56 124.165 54.8733 124.165 55.5C124.165 55.8067 124.282 56.05 124.515 56.23C124.748 56.4033 125.075 56.49 125.495 56.49ZM134.485 51.74V57H133.775V52.37H130.475V57H129.765V51.74H134.485ZM140.803 51.74V57H140.093V52.37H137.573L137.503 53.67C137.45 54.7633 137.323 55.6033 137.123 56.19C136.923 56.7767 136.567 57.07 136.053 57.07C135.913 57.07 135.743 57.0433 135.543 56.99L135.593 56.38C135.713 56.4067 135.797 56.42 135.843 56.42C136.117 56.42 136.323 56.2933 136.463 56.04C136.603 55.7867 136.697 55.4733 136.743 55.1C136.79 54.7267 136.83 54.2333 136.863 53.62L136.953 51.74H140.803ZM144.632 51.7C145.318 51.7 145.845 51.8733 146.212 52.22C146.578 52.56 146.762 53.0667 146.762 53.74V57H146.082V56.18C145.922 56.4533 145.685 56.6667 145.372 56.82C145.065 56.9733 144.698 57.05 144.272 57.05C143.685 57.05 143.218 56.91 142.872 56.63C142.525 56.35 142.352 55.98 142.352 55.52C142.352 55.0733 142.512 54.7133 142.832 54.44C143.158 54.1667 143.675 54.03 144.382 54.03H146.052V53.71C146.052 53.2567 145.925 52.9133 145.672 52.68C145.418 52.44 145.048 52.32 144.562 52.32C144.228 52.32 143.908 52.3767 143.602 52.49C143.295 52.5967 143.032 52.7467 142.812 52.94L142.492 52.41C142.758 52.1833 143.078 52.01 143.452 51.89C143.825 51.7633 144.218 51.7 144.632 51.7ZM144.382 56.49C144.782 56.49 145.125 56.4 145.412 56.22C145.698 56.0333 145.912 55.7667 146.052 55.42V54.56H144.402C143.502 54.56 143.052 54.8733 143.052 55.5C143.052 55.8067 143.168 56.05 143.402 56.23C143.635 56.4033 143.962 56.49 144.382 56.49ZM152.352 52.37H150.362V57H149.652V52.37H147.662V51.74H152.352V52.37ZM153.378 51.74H154.088V55.92L157.598 51.74H158.228V57H157.518V52.82L154.018 57H153.378V51.74ZM164.563 51.74V57H163.853V52.37H161.333L161.263 53.67C161.21 54.7633 161.083 55.6033 160.883 56.19C160.683 56.7767 160.326 57.07 159.813 57.07C159.673 57.07 159.503 57.0433 159.303 56.99L159.353 56.38C159.473 56.4067 159.556 56.42 159.603 56.42C159.876 56.42 160.083 56.2933 160.223 56.04C160.363 55.7867 160.456 55.4733 160.503 55.1C160.55 54.7267 160.59 54.2333 160.623 53.62L160.713 51.74H164.563ZM166.581 51.74H167.291V55.92L170.801 51.74H171.431V57H170.721V52.82L167.221 57H166.581V51.74ZM179.253 57.06C178.56 57.06 177.933 56.9067 177.373 56.6C176.82 56.2933 176.383 55.87 176.063 55.33C175.75 54.7833 175.593 54.1733 175.593 53.5C175.593 52.8267 175.75 52.22 176.063 51.68C176.383 51.1333 176.823 50.7067 177.383 50.4C177.943 50.0933 178.57 49.94 179.263 49.94C179.783 49.94 180.263 50.0267 180.703 50.2C181.143 50.3733 181.517 50.6267 181.823 50.96L181.353 51.43C180.807 50.8767 180.117 50.6 179.283 50.6C178.73 50.6 178.227 50.7267 177.773 50.98C177.32 51.2333 176.963 51.58 176.703 52.02C176.45 52.46 176.323 52.9533 176.323 53.5C176.323 54.0467 176.45 54.54 176.703 54.98C176.963 55.42 177.32 55.7667 177.773 56.02C178.227 56.2733 178.73 56.4 179.283 56.4C180.123 56.4 180.813 56.12 181.353 55.56L181.823 56.03C181.517 56.3633 181.14 56.62 180.693 56.8C180.253 56.9733 179.773 57.06 179.253 57.06ZM186.021 50C186.914 50 187.614 50.2133 188.121 50.64C188.627 51.0667 188.881 51.6533 188.881 52.4C188.881 53.1467 188.627 53.7333 188.121 54.16C187.614 54.58 186.914 54.79 186.021 54.79H184.141V57H183.401V50H186.021ZM186.001 54.14C186.694 54.14 187.224 53.99 187.591 53.69C187.957 53.3833 188.141 52.9533 188.141 52.4C188.141 51.8333 187.957 51.4 187.591 51.1C187.224 50.7933 186.694 50.64 186.001 50.64H184.141V54.14H186.001ZM190.481 50H191.221V57H190.481V50ZM197.436 50V57H196.716V50.64H195.066V50H197.436ZM201.899 57.06C201.359 57.06 200.876 56.9167 200.449 56.63C200.029 56.3433 199.699 55.9333 199.459 55.4C199.226 54.86 199.109 54.2267 199.109 53.5C199.109 52.7733 199.226 52.1433 199.459 51.61C199.699 51.07 200.029 50.6567 200.449 50.37C200.876 50.0833 201.359 49.94 201.899 49.94C202.439 49.94 202.919 50.0833 203.339 50.37C203.766 50.6567 204.099 51.07 204.339 51.61C204.579 52.1433 204.699 52.7733 204.699 53.5C204.699 54.2267 204.579 54.86 204.339 55.4C204.099 55.9333 203.766 56.3433 203.339 56.63C202.919 56.9167 202.439 57.06 201.899 57.06ZM201.899 56.4C202.306 56.4 202.662 56.2867 202.969 56.06C203.282 55.8333 203.526 55.5033 203.699 55.07C203.872 54.6367 203.959 54.1133 203.959 53.5C203.959 52.8867 203.872 52.3633 203.699 51.93C203.526 51.4967 203.282 51.1667 202.969 50.94C202.662 50.7133 202.306 50.6 201.899 50.6C201.492 50.6 201.132 50.7133 200.819 50.94C200.512 51.1667 200.272 51.4967 200.099 51.93C199.926 52.3633 199.839 52.8867 199.839 53.5C199.839 54.1133 199.926 54.6367 200.099 55.07C200.272 55.5033 200.512 55.8333 200.819 56.06C201.132 56.2867 201.492 56.4 201.899 56.4ZM208.52 57.06C207.98 57.06 207.497 56.9167 207.07 56.63C206.65 56.3433 206.32 55.9333 206.08 55.4C205.847 54.86 205.73 54.2267 205.73 53.5C205.73 52.7733 205.847 52.1433 206.08 51.61C206.32 51.07 206.65 50.6567 207.07 50.37C207.497 50.0833 207.98 49.94 208.52 49.94C209.06 49.94 209.54 50.0833 209.96 50.37C210.387 50.6567 210.72 51.07 210.96 51.61C211.2 52.1433 211.32 52.7733 211.32 53.5C211.32 54.2267 211.2 54.86 210.96 55.4C210.72 55.9333 210.387 56.3433 209.96 56.63C209.54 56.9167 209.06 57.06 208.52 57.06ZM208.52 56.4C208.927 56.4 209.283 56.2867 209.59 56.06C209.903 55.8333 210.147 55.5033 210.32 55.07C210.493 54.6367 210.58 54.1133 210.58 53.5C210.58 52.8867 210.493 52.3633 210.32 51.93C210.147 51.4967 209.903 51.1667 209.59 50.94C209.283 50.7133 208.927 50.6 208.52 50.6C208.113 50.6 207.753 50.7133 207.44 50.94C207.133 51.1667 206.893 51.4967 206.72 51.93C206.547 52.3633 206.46 52.8867 206.46 53.5C206.46 54.1133 206.547 54.6367 206.72 55.07C206.893 55.5033 207.133 55.8333 207.44 56.06C207.753 56.2867 208.113 56.4 208.52 56.4ZM216.538 54.65V55.26H218.788V55.7H216.538V57H215.798V55.7H214.748V55.26H215.798V50H218.418C219.318 50 220.018 50.2033 220.518 50.61C221.025 51.01 221.278 51.58 221.278 52.32C221.278 53.0667 221.025 53.6433 220.518 54.05C220.018 54.45 219.318 54.65 218.418 54.65H216.538ZM216.538 50.64V54.02H218.428C219.108 54.02 219.628 53.8733 219.988 53.58C220.355 53.2867 220.538 52.87 220.538 52.33C220.538 51.79 220.355 51.3733 219.988 51.08C219.628 50.7867 219.108 50.64 218.428 50.64H216.538ZM222.618 55.96C222.771 55.96 222.898 56.0133 222.998 56.12C223.098 56.22 223.148 56.3467 223.148 56.5C223.148 56.58 223.135 56.6667 223.108 56.76C223.088 56.8533 223.055 56.96 223.008 57.08L222.588 58.46H222.108L222.448 57.01C222.341 56.9767 222.255 56.9167 222.188 56.83C222.121 56.7367 222.088 56.6267 222.088 56.5C222.088 56.3467 222.138 56.22 222.238 56.12C222.338 56.0133 222.465 55.96 222.618 55.96ZM104.194 63.74V69H103.484V66.81C102.877 67.0767 102.281 67.21 101.694 67.21C101.061 67.21 100.567 67.0667 100.214 66.78C99.8606 66.4867 99.6839 66.05 99.6839 65.47V63.74H100.394V65.43C100.394 65.8233 100.521 66.1233 100.774 66.33C101.027 66.53 101.377 66.63 101.824 66.63C102.317 66.63 102.871 66.5 103.484 66.24V63.74H104.194ZM109.91 64.37H107.92V69H107.21V64.37H105.22V63.74H109.91V64.37ZM112.863 69.05C112.356 69.05 111.899 68.9367 111.493 68.71C111.086 68.4767 110.766 68.1567 110.533 67.75C110.299 67.3433 110.183 66.8833 110.183 66.37C110.183 65.8567 110.299 65.3967 110.533 64.99C110.766 64.5833 111.086 64.2667 111.493 64.04C111.899 63.8133 112.356 63.7 112.863 63.7C113.369 63.7 113.826 63.8133 114.233 64.04C114.639 64.2667 114.956 64.5833 115.183 64.99C115.416 65.3967 115.533 65.8567 115.533 66.37C115.533 66.8833 115.416 67.3433 115.183 67.75C114.956 68.1567 114.639 68.4767 114.233 68.71C113.826 68.9367 113.369 69.05 112.863 69.05ZM112.863 68.42C113.236 68.42 113.569 68.3367 113.863 68.17C114.163 67.9967 114.396 67.7533 114.563 67.44C114.729 67.1267 114.813 66.77 114.813 66.37C114.813 65.97 114.729 65.6133 114.563 65.3C114.396 64.9867 114.163 64.7467 113.863 64.58C113.569 64.4067 113.236 64.32 112.863 64.32C112.489 64.32 112.153 64.4067 111.853 64.58C111.559 64.7467 111.326 64.9867 111.153 65.3C110.986 65.6133 110.903 65.97 110.903 66.37C110.903 66.77 110.986 67.1267 111.153 67.44C111.326 67.7533 111.559 67.9967 111.853 68.17C112.153 68.3367 112.489 68.42 112.863 68.42ZM119.6 63.87C120.087 63.87 120.52 63.98 120.9 64.2C121.287 64.4133 121.587 64.7167 121.8 65.11C122.013 65.4967 122.12 65.94 122.12 66.44C122.12 66.9533 122.007 67.41 121.78 67.81C121.56 68.2033 121.25 68.51 120.85 68.73C120.45 68.95 119.99 69.06 119.47 69.06C118.597 69.06 117.92 68.7533 117.44 68.14C116.96 67.5267 116.72 66.68 116.72 65.6C116.72 64.4733 116.933 63.61 117.36 63.01C117.793 62.41 118.467 62.0033 119.38 61.79L121.74 61.25L121.86 61.9L119.64 62.41C118.887 62.5767 118.333 62.8733 117.98 63.3C117.627 63.72 117.433 64.3433 117.4 65.17C117.613 64.7633 117.91 64.4467 118.29 64.22C118.67 63.9867 119.107 63.87 119.6 63.87ZM119.49 68.47C119.857 68.47 120.183 68.3867 120.47 68.22C120.763 68.0467 120.99 67.8067 121.15 67.5C121.317 67.1933 121.4 66.8467 121.4 66.46C121.4 66.0733 121.32 65.7333 121.16 65.44C121 65.1467 120.773 64.92 120.48 64.76C120.193 64.5933 119.863 64.51 119.49 64.51C119.117 64.51 118.783 64.5933 118.49 64.76C118.203 64.92 117.977 65.1467 117.81 65.44C117.65 65.7333 117.57 66.0733 117.57 66.46C117.57 66.8467 117.65 67.1933 117.81 67.5C117.977 67.8067 118.207 68.0467 118.5 68.22C118.793 68.3867 119.123 68.47 119.49 68.47ZM125.852 65.6C126.512 65.6067 127.015 65.7533 127.362 66.04C127.709 66.3267 127.882 66.74 127.882 67.28C127.882 67.84 127.695 68.27 127.322 68.57C126.949 68.87 126.415 69.0167 125.722 69.01L123.642 69V63.74H124.352V65.58L125.852 65.6ZM128.762 63.74H129.472V69H128.762V63.74ZM125.682 68.47C126.169 68.4767 126.535 68.38 126.782 68.18C127.035 67.9733 127.162 67.6733 127.162 67.28C127.162 66.8933 127.039 66.6067 126.792 66.42C126.545 66.2333 126.175 66.1367 125.682 66.13L124.352 66.11V68.45L125.682 68.47ZM138.831 63.74V69H138.121V64.37H134.821V69H134.111V63.74H138.831ZM143.559 63.7C144.052 63.7 144.499 63.8133 144.899 64.04C145.299 64.26 145.612 64.5733 145.839 64.98C146.066 65.3867 146.179 65.85 146.179 66.37C146.179 66.8967 146.066 67.3633 145.839 67.77C145.612 68.1767 145.299 68.4933 144.899 68.72C144.506 68.94 144.059 69.05 143.559 69.05C143.132 69.05 142.746 68.9633 142.399 68.79C142.059 68.61 141.779 68.35 141.559 68.01V70.94H140.849V63.74H141.529V64.78C141.742 64.4333 142.022 64.1667 142.369 63.98C142.722 63.7933 143.119 63.7 143.559 63.7ZM143.509 68.42C143.876 68.42 144.209 68.3367 144.509 68.17C144.809 67.9967 145.042 67.7533 145.209 67.44C145.382 67.1267 145.469 66.77 145.469 66.37C145.469 65.97 145.382 65.6167 145.209 65.31C145.042 64.9967 144.809 64.7533 144.509 64.58C144.209 64.4067 143.876 64.32 143.509 64.32C143.136 64.32 142.799 64.4067 142.499 64.58C142.206 64.7533 141.972 64.9967 141.799 65.31C141.632 65.6167 141.549 65.97 141.549 66.37C141.549 66.77 141.632 67.1267 141.799 67.44C141.972 67.7533 142.206 67.9967 142.499 68.17C142.799 68.3367 143.136 68.42 143.509 68.42ZM147.704 63.74H148.414V67.92L151.924 63.74H152.554V69H151.844V64.82L148.344 69H147.704V63.74ZM157.939 66.28C158.652 66.4467 159.009 66.8767 159.009 67.57C159.009 68.03 158.839 68.3833 158.499 68.63C158.159 68.8767 157.652 69 156.979 69H154.589V63.74H156.909C157.509 63.74 157.979 63.8567 158.319 64.09C158.659 64.3233 158.829 64.6567 158.829 65.09C158.829 65.3767 158.749 65.6233 158.589 65.83C158.436 66.03 158.219 66.18 157.939 66.28ZM155.279 66.08H156.859C157.266 66.08 157.576 66.0033 157.789 65.85C158.009 65.6967 158.119 65.4733 158.119 65.18C158.119 64.8867 158.009 64.6667 157.789 64.52C157.576 64.3733 157.266 64.3 156.859 64.3H155.279V66.08ZM156.949 68.44C157.402 68.44 157.742 68.3667 157.969 68.22C158.196 68.0733 158.309 67.8433 158.309 67.53C158.309 67.2167 158.206 66.9867 157.999 66.84C157.792 66.6867 157.466 66.61 157.019 66.61H155.279V68.44H156.949ZM164.973 63.74V69H164.263V64.37H161.743L161.673 65.67C161.62 66.7633 161.493 67.6033 161.293 68.19C161.093 68.7767 160.736 69.07 160.223 69.07C160.083 69.07 159.913 69.0433 159.713 68.99L159.763 68.38C159.883 68.4067 159.966 68.42 160.013 68.42C160.286 68.42 160.493 68.2933 160.633 68.04C160.773 67.7867 160.866 67.4733 160.913 67.1C160.96 66.7267 161 66.2333 161.033 65.62L161.123 63.74H164.973ZM171.592 66.59H167.192C167.232 67.1367 167.442 67.58 167.822 67.92C168.202 68.2533 168.682 68.42 169.262 68.42C169.588 68.42 169.888 68.3633 170.162 68.25C170.435 68.13 170.672 67.9567 170.872 67.73L171.272 68.19C171.038 68.47 170.745 68.6833 170.392 68.83C170.045 68.9767 169.662 69.05 169.242 69.05C168.702 69.05 168.222 68.9367 167.802 68.71C167.388 68.4767 167.065 68.1567 166.832 67.75C166.598 67.3433 166.482 66.8833 166.482 66.37C166.482 65.8567 166.592 65.3967 166.812 64.99C167.038 64.5833 167.345 64.2667 167.732 64.04C168.125 63.8133 168.565 63.7 169.052 63.7C169.538 63.7 169.975 63.8133 170.362 64.04C170.748 64.2667 171.052 64.5833 171.272 64.99C171.492 65.39 171.602 65.85 171.602 66.37L171.592 66.59ZM169.052 64.31C168.545 64.31 168.118 64.4733 167.772 64.8C167.432 65.12 167.238 65.54 167.192 66.06H170.922C170.875 65.54 170.678 65.12 170.332 64.8C169.992 64.4733 169.565 64.31 169.052 64.31ZM177.143 63.74V69H176.433V66.81C175.826 67.0767 175.23 67.21 174.643 67.21C174.01 67.21 173.516 67.0667 173.163 66.78C172.81 66.4867 172.633 66.05 172.633 65.47V63.74H173.343V65.43C173.343 65.8233 173.47 66.1233 173.723 66.33C173.976 66.53 174.326 66.63 174.773 66.63C175.266 66.63 175.82 66.5 176.433 66.24V63.74H177.143ZM181.419 65.6C182.079 65.6067 182.579 65.7533 182.919 66.04C183.266 66.3267 183.439 66.74 183.439 67.28C183.439 67.84 183.253 68.27 182.879 68.57C182.513 68.87 181.979 69.0167 181.279 69.01L179.159 69V63.74H179.869V65.58L181.419 65.6ZM181.239 68.47C181.726 68.4767 182.093 68.38 182.339 68.18C182.593 67.9733 182.719 67.6733 182.719 67.28C182.719 66.8933 182.596 66.6067 182.349 66.42C182.103 66.2333 181.733 66.1367 181.239 66.13L179.869 66.11V68.45L181.239 68.47ZM192.011 66.59H187.611C187.651 67.1367 187.861 67.58 188.241 67.92C188.621 68.2533 189.101 68.42 189.681 68.42C190.008 68.42 190.308 68.3633 190.581 68.25C190.855 68.13 191.091 67.9567 191.291 67.73L191.691 68.19C191.458 68.47 191.165 68.6833 190.811 68.83C190.465 68.9767 190.081 69.05 189.661 69.05C189.121 69.05 188.641 68.9367 188.221 68.71C187.808 68.4767 187.485 68.1567 187.251 67.75C187.018 67.3433 186.901 66.8833 186.901 66.37C186.901 65.8567 187.011 65.3967 187.231 64.99C187.458 64.5833 187.765 64.2667 188.151 64.04C188.545 63.8133 188.985 63.7 189.471 63.7C189.958 63.7 190.395 63.8133 190.781 64.04C191.168 64.2667 191.471 64.5833 191.691 64.99C191.911 65.39 192.021 65.85 192.021 66.37L192.011 66.59ZM189.471 64.31C188.965 64.31 188.538 64.4733 188.191 64.8C187.851 65.12 187.658 65.54 187.611 66.06H191.341C191.295 65.54 191.098 65.12 190.751 64.8C190.411 64.4733 189.985 64.31 189.471 64.31ZM198.193 66.59H193.793C193.833 67.1367 194.043 67.58 194.423 67.92C194.803 68.2533 195.283 68.42 195.863 68.42C196.19 68.42 196.49 68.3633 196.763 68.25C197.036 68.13 197.273 67.9567 197.473 67.73L197.873 68.19C197.64 68.47 197.346 68.6833 196.993 68.83C196.646 68.9767 196.263 69.05 195.843 69.05C195.303 69.05 194.823 68.9367 194.403 68.71C193.99 68.4767 193.666 68.1567 193.433 67.75C193.2 67.3433 193.083 66.8833 193.083 66.37C193.083 65.8567 193.193 65.3967 193.413 64.99C193.64 64.5833 193.946 64.2667 194.333 64.04C194.726 63.8133 195.166 63.7 195.653 63.7C196.14 63.7 196.576 63.8133 196.963 64.04C197.35 64.2667 197.653 64.5833 197.873 64.99C198.093 65.39 198.203 65.85 198.203 66.37L198.193 66.59ZM195.653 64.31C195.146 64.31 194.72 64.4733 194.373 64.8C194.033 65.12 193.84 65.54 193.793 66.06H197.523C197.476 65.54 197.28 65.12 196.933 64.8C196.593 64.4733 196.166 64.31 195.653 64.31Z" fill="black"/>
<path d="M41.68 139L38.5 144.89C38.2733 145.31 38.0067 145.623 37.7 145.83C37.4 146.03 37.07 146.13 36.71 146.13C36.4433 146.13 36.1567 146.067 35.85 145.94L36.06 145.34C36.3 145.433 36.52 145.48 36.72 145.48C37.18 145.48 37.5567 145.23 37.85 144.73L38.05 144.39L35.21 139H36L38.44 143.74L40.94 139H41.68ZM44.46 146.05C43.94 146.05 43.4733 145.937 43.06 145.71C42.6533 145.483 42.3333 145.167 42.1 144.76C41.8667 144.347 41.75 143.883 41.75 143.37C41.75 142.857 41.8667 142.397 42.1 141.99C42.3333 141.583 42.6533 141.267 43.06 141.04C43.4733 140.813 43.94 140.7 44.46 140.7C44.9133 140.7 45.3167 140.79 45.67 140.97C46.03 141.143 46.3133 141.4 46.52 141.74L45.99 142.1C45.8167 141.84 45.5967 141.647 45.33 141.52C45.0633 141.387 44.7733 141.32 44.46 141.32C44.08 141.32 43.7367 141.407 43.43 141.58C43.13 141.747 42.8933 141.987 42.72 142.3C42.5533 142.613 42.47 142.97 42.47 143.37C42.47 143.777 42.5533 144.137 42.72 144.45C42.8933 144.757 43.13 144.997 43.43 145.17C43.7367 145.337 44.08 145.42 44.46 145.42C44.7733 145.42 45.0633 145.357 45.33 145.23C45.5967 145.103 45.8167 144.91 45.99 144.65L46.52 145.01C46.3133 145.35 46.03 145.61 45.67 145.79C45.31 145.963 44.9067 146.05 44.46 146.05ZM51.4971 141.37H49.5071V146H48.7971V141.37H46.8071V140.74H51.4971V141.37ZM54.3337 140.7C55.0203 140.7 55.547 140.873 55.9137 141.22C56.2803 141.56 56.4637 142.067 56.4637 142.74V146H55.7837V145.18C55.6237 145.453 55.387 145.667 55.0737 145.82C54.767 145.973 54.4003 146.05 53.9737 146.05C53.387 146.05 52.9203 145.91 52.5737 145.63C52.227 145.35 52.0537 144.98 52.0537 144.52C52.0537 144.073 52.2137 143.713 52.5337 143.44C52.8603 143.167 53.377 143.03 54.0837 143.03H55.7537V142.71C55.7537 142.257 55.627 141.913 55.3737 141.68C55.1203 141.44 54.7503 141.32 54.2637 141.32C53.9303 141.32 53.6103 141.377 53.3037 141.49C52.997 141.597 52.7337 141.747 52.5137 141.94L52.1937 141.41C52.4603 141.183 52.7803 141.01 53.1537 140.89C53.527 140.763 53.9203 140.7 54.3337 140.7ZM54.0837 145.49C54.4837 145.49 54.827 145.4 55.1137 145.22C55.4003 145.033 55.6137 144.767 55.7537 144.42V143.56H54.1037C53.2037 143.56 52.7537 143.873 52.7537 144.5C52.7537 144.807 52.8703 145.05 53.1037 145.23C53.337 145.403 53.6637 145.49 54.0837 145.49ZM58.3538 140.74H59.0638V143.07H62.3738V140.74H63.0838V146H62.3738V143.68H59.0638V146H58.3538V140.74ZM67.2718 146.05C66.7651 146.05 66.3085 145.937 65.9018 145.71C65.4951 145.477 65.1751 145.157 64.9418 144.75C64.7085 144.343 64.5918 143.883 64.5918 143.37C64.5918 142.857 64.7085 142.397 64.9418 141.99C65.1751 141.583 65.4951 141.267 65.9018 141.04C66.3085 140.813 66.7651 140.7 67.2718 140.7C67.7785 140.7 68.2351 140.813 68.6418 141.04C69.0485 141.267 69.3651 141.583 69.5918 141.99C69.8251 142.397 69.9418 142.857 69.9418 143.37C69.9418 143.883 69.8251 144.343 69.5918 144.75C69.3651 145.157 69.0485 145.477 68.6418 145.71C68.2351 145.937 67.7785 146.05 67.2718 146.05ZM67.2718 145.42C67.6451 145.42 67.9785 145.337 68.2718 145.17C68.5718 144.997 68.8051 144.753 68.9718 144.44C69.1385 144.127 69.2218 143.77 69.2218 143.37C69.2218 142.97 69.1385 142.613 68.9718 142.3C68.8051 141.987 68.5718 141.747 68.2718 141.58C67.9785 141.407 67.6451 141.32 67.2718 141.32C66.8985 141.32 66.5618 141.407 66.2618 141.58C65.9685 141.747 65.7351 141.987 65.5618 142.3C65.3951 142.613 65.3118 142.97 65.3118 143.37C65.3118 143.77 65.3951 144.127 65.5618 144.44C65.7351 144.753 65.9685 144.997 66.2618 145.17C66.5618 145.337 66.8985 145.42 67.2718 145.42ZM74.8092 143.28C75.5226 143.447 75.8792 143.877 75.8792 144.57C75.8792 145.03 75.7092 145.383 75.3692 145.63C75.0292 145.877 74.5226 146 73.8492 146H71.4592V140.74H73.7792C74.3792 140.74 74.8492 140.857 75.1892 141.09C75.5292 141.323 75.6992 141.657 75.6992 142.09C75.6992 142.377 75.6192 142.623 75.4592 142.83C75.3059 143.03 75.0892 143.18 74.8092 143.28ZM72.1492 143.08H73.7292C74.1359 143.08 74.4459 143.003 74.6592 142.85C74.8792 142.697 74.9892 142.473 74.9892 142.18C74.9892 141.887 74.8792 141.667 74.6592 141.52C74.4459 141.373 74.1359 141.3 73.7292 141.3H72.1492V143.08ZM73.8192 145.44C74.2726 145.44 74.6126 145.367 74.8392 145.22C75.0659 145.073 75.1792 144.843 75.1792 144.53C75.1792 144.217 75.0759 143.987 74.8692 143.84C74.6626 143.687 74.3359 143.61 73.8892 143.61H72.1492V145.44H73.8192ZM77.5432 140.74H78.2532V144.92L81.7632 140.74H82.3932V146H81.6832V141.82L78.1832 146H77.5432V140.74ZM88.728 140.74V146H88.018V141.37H85.498L85.428 142.67C85.3746 143.763 85.248 144.603 85.048 145.19C84.848 145.777 84.4913 146.07 83.978 146.07C83.838 146.07 83.668 146.043 83.468 145.99L83.518 145.38C83.638 145.407 83.7213 145.42 83.768 145.42C84.0413 145.42 84.248 145.293 84.388 145.04C84.528 144.787 84.6213 144.473 84.668 144.1C84.7146 143.727 84.7546 143.233 84.788 142.62L84.878 140.74H88.728ZM92.5563 140.7C93.243 140.7 93.7697 140.873 94.1363 141.22C94.503 141.56 94.6863 142.067 94.6863 142.74V146H94.0063V145.18C93.8463 145.453 93.6097 145.667 93.2963 145.82C92.9897 145.973 92.623 146.05 92.1963 146.05C91.6097 146.05 91.143 145.91 90.7963 145.63C90.4497 145.35 90.2763 144.98 90.2763 144.52C90.2763 144.073 90.4363 143.713 90.7563 143.44C91.083 143.167 91.5997 143.03 92.3063 143.03H93.9763V142.71C93.9763 142.257 93.8497 141.913 93.5963 141.68C93.343 141.44 92.973 141.32 92.4863 141.32C92.153 141.32 91.833 141.377 91.5263 141.49C91.2197 141.597 90.9563 141.747 90.7363 141.94L90.4163 141.41C90.683 141.183 91.003 141.01 91.3763 140.89C91.7497 140.763 92.143 140.7 92.5563 140.7ZM92.3063 145.49C92.7063 145.49 93.0497 145.4 93.3363 145.22C93.623 145.033 93.8363 144.767 93.9763 144.42V143.56H92.3263C91.4263 143.56 90.9763 143.873 90.9763 144.5C90.9763 144.807 91.093 145.05 91.3263 145.23C91.5597 145.403 91.8863 145.49 92.3063 145.49ZM40.73 152.74V158H40.02V153.37H36.72V158H36.01V152.74H40.73ZM45.4583 152.7C45.9516 152.7 46.3983 152.813 46.7983 153.04C47.1983 153.26 47.5116 153.573 47.7383 153.98C47.9649 154.387 48.0783 154.85 48.0783 155.37C48.0783 155.897 47.9649 156.363 47.7383 156.77C47.5116 157.177 47.1983 157.493 46.7983 157.72C46.4049 157.94 45.9583 158.05 45.4583 158.05C45.0316 158.05 44.6449 157.963 44.2983 157.79C43.9583 157.61 43.6783 157.35 43.4583 157.01V159.94H42.7483V152.74H43.4283V153.78C43.6416 153.433 43.9216 153.167 44.2683 152.98C44.6216 152.793 45.0183 152.7 45.4583 152.7ZM45.4083 157.42C45.7749 157.42 46.1083 157.337 46.4083 157.17C46.7083 156.997 46.9416 156.753 47.1083 156.44C47.2816 156.127 47.3683 155.77 47.3683 155.37C47.3683 154.97 47.2816 154.617 47.1083 154.31C46.9416 153.997 46.7083 153.753 46.4083 153.58C46.1083 153.407 45.7749 153.32 45.4083 153.32C45.0349 153.32 44.6983 153.407 44.3983 153.58C44.1049 153.753 43.8716 153.997 43.6983 154.31C43.5316 154.617 43.4483 154.97 43.4483 155.37C43.4483 155.77 43.5316 156.127 43.6983 156.44C43.8716 156.753 44.1049 156.997 44.3983 157.17C44.6983 157.337 45.0349 157.42 45.4083 157.42ZM49.6038 152.74H50.3138V156.92L53.8238 152.74H54.4538V158H53.7438V153.82L50.2438 158H49.6038V152.74ZM60.7885 152.74V158H60.0785V153.37H57.5585L57.4885 154.67C57.4352 155.763 57.3085 156.603 57.1085 157.19C56.9085 157.777 56.5518 158.07 56.0385 158.07C55.8985 158.07 55.7285 158.043 55.5285 157.99L55.5785 157.38C55.6985 157.407 55.7818 157.42 55.8285 157.42C56.1018 157.42 56.3085 157.293 56.4485 157.04C56.5885 156.787 56.6818 156.473 56.7285 156.1C56.7752 155.727 56.8152 155.233 56.8485 154.62L56.9385 152.74H60.7885ZM64.9769 158.05C64.4702 158.05 64.0135 157.937 63.6069 157.71C63.2002 157.477 62.8802 157.157 62.6469 156.75C62.4135 156.343 62.2969 155.883 62.2969 155.37C62.2969 154.857 62.4135 154.397 62.6469 153.99C62.8802 153.583 63.2002 153.267 63.6069 153.04C64.0135 152.813 64.4702 152.7 64.9769 152.7C65.4835 152.7 65.9402 152.813 66.3469 153.04C66.7535 153.267 67.0702 153.583 67.2969 153.99C67.5302 154.397 67.6469 154.857 67.6469 155.37C67.6469 155.883 67.5302 156.343 67.2969 156.75C67.0702 157.157 66.7535 157.477 66.3469 157.71C65.9402 157.937 65.4835 158.05 64.9769 158.05ZM64.9769 157.42C65.3502 157.42 65.6835 157.337 65.9769 157.17C66.2769 156.997 66.5102 156.753 66.6769 156.44C66.8435 156.127 66.9269 155.77 66.9269 155.37C66.9269 154.97 66.8435 154.613 66.6769 154.3C66.5102 153.987 66.2769 153.747 65.9769 153.58C65.6835 153.407 65.3502 153.32 64.9769 153.32C64.6035 153.32 64.2669 153.407 63.9669 153.58C63.6735 153.747 63.4402 153.987 63.2669 154.3C63.1002 154.613 63.0169 154.97 63.0169 155.37C63.0169 155.77 63.1002 156.127 63.2669 156.44C63.4402 156.753 63.6735 156.997 63.9669 157.17C64.2669 157.337 64.6035 157.42 64.9769 157.42ZM73.5888 155.66H72.4488V158H71.7388V155.66H70.5988L68.9888 158H68.1388L70.0288 155.29L68.2888 152.74H69.0588L70.5988 155.05H71.7388V152.74H72.4488V155.05H73.5888L75.1388 152.74H75.9088L74.1688 155.3L76.0588 158H75.2088L73.5888 155.66ZM81.6549 155.59H77.2549C77.2949 156.137 77.5049 156.58 77.8849 156.92C78.2649 157.253 78.7449 157.42 79.3249 157.42C79.6516 157.42 79.9516 157.363 80.2249 157.25C80.4983 157.13 80.7349 156.957 80.9349 156.73L81.3349 157.19C81.1016 157.47 80.8083 157.683 80.4549 157.83C80.1083 157.977 79.7249 158.05 79.3049 158.05C78.7649 158.05 78.2849 157.937 77.8649 157.71C77.4516 157.477 77.1283 157.157 76.8949 156.75C76.6616 156.343 76.5449 155.883 76.5449 155.37C76.5449 154.857 76.6549 154.397 76.8749 153.99C77.1016 153.583 77.4083 153.267 77.7949 153.04C78.1883 152.813 78.6283 152.7 79.1149 152.7C79.6016 152.7 80.0383 152.813 80.4249 153.04C80.8116 153.267 81.1149 153.583 81.3349 153.99C81.5549 154.39 81.6649 154.85 81.6649 155.37L81.6549 155.59ZM79.1149 153.31C78.6083 153.31 78.1816 153.473 77.8349 153.8C77.4949 154.12 77.3016 154.54 77.2549 155.06H80.9849C80.9383 154.54 80.7416 154.12 80.3949 153.8C80.0549 153.473 79.6283 153.31 79.1149 153.31ZM83.2366 152.74H83.9466V155.07H87.2566V152.74H87.9666V158H87.2566V155.68H83.9466V158H83.2366V152.74ZM89.9846 152.74H90.6946V156.92L94.2046 152.74H94.8346V158H94.1246V153.82L90.6246 158H89.9846V152.74ZM101.469 155.59H97.0694C97.1094 156.137 97.3194 156.58 97.6994 156.92C98.0794 157.253 98.5594 157.42 99.1394 157.42C99.466 157.42 99.766 157.363 100.039 157.25C100.313 157.13 100.549 156.957 100.749 156.73L101.149 157.19C100.916 157.47 100.623 157.683 100.269 157.83C99.9227 157.977 99.5394 158.05 99.1194 158.05C98.5794 158.05 98.0994 157.937 97.6794 157.71C97.266 157.477 96.9427 157.157 96.7094 156.75C96.476 156.343 96.3594 155.883 96.3594 155.37C96.3594 154.857 96.4694 154.397 96.6894 153.99C96.916 153.583 97.2227 153.267 97.6094 153.04C98.0027 152.813 98.4427 152.7 98.9294 152.7C99.416 152.7 99.8527 152.813 100.239 153.04C100.626 153.267 100.929 153.583 101.149 153.99C101.369 154.39 101.479 154.85 101.479 155.37L101.469 155.59ZM98.9294 153.31C98.4227 153.31 97.996 153.473 97.6494 153.8C97.3094 154.12 97.116 154.54 97.0694 155.06H100.799C100.753 154.54 100.556 154.12 100.209 153.8C99.8694 153.473 99.4427 153.31 98.9294 153.31Z" fill="black"/>
<path d="M139.442 142.79H137.842V146H137.122V139H137.842V142.14H139.442L141.812 139H142.612L140.012 142.4L142.762 146H141.912L139.442 142.79ZM148.19 140.74L145.56 146.63C145.347 147.123 145.1 147.473 144.82 147.68C144.54 147.887 144.203 147.99 143.81 147.99C143.557 147.99 143.32 147.95 143.1 147.87C142.88 147.79 142.69 147.67 142.53 147.51L142.86 146.98C143.127 147.247 143.447 147.38 143.82 147.38C144.06 147.38 144.263 147.313 144.43 147.18C144.603 147.047 144.763 146.82 144.91 146.5L145.14 145.99L142.79 140.74H143.53L145.51 145.21L147.49 140.74H148.19ZM154.016 140.74V146H153.306V141.37H150.006V146H149.296V140.74H154.016ZM156.034 140.74H156.744V144.92L160.254 140.74H160.884V146H160.174V141.82L156.674 146H156.034V140.74ZM167.219 140.74V146H166.509V141.37H163.989L163.919 142.67C163.866 143.763 163.739 144.603 163.539 145.19C163.339 145.777 162.983 146.07 162.469 146.07C162.329 146.07 162.159 146.043 161.959 145.99L162.009 145.38C162.129 145.407 162.213 145.42 162.259 145.42C162.533 145.42 162.739 145.293 162.879 145.04C163.019 144.787 163.113 144.473 163.159 144.1C163.206 143.727 163.246 143.233 163.279 142.62L163.369 140.74H167.219ZM171.048 140.7C171.734 140.7 172.261 140.873 172.628 141.22C172.994 141.56 173.178 142.067 173.178 142.74V146H172.498V145.18C172.338 145.453 172.101 145.667 171.788 145.82C171.481 145.973 171.114 146.05 170.688 146.05C170.101 146.05 169.634 145.91 169.288 145.63C168.941 145.35 168.768 144.98 168.768 144.52C168.768 144.073 168.928 143.713 169.248 143.44C169.574 143.167 170.091 143.03 170.798 143.03H172.468V142.71C172.468 142.257 172.341 141.913 172.088 141.68C171.834 141.44 171.464 141.32 170.978 141.32C170.644 141.32 170.324 141.377 170.018 141.49C169.711 141.597 169.448 141.747 169.228 141.94L168.908 141.41C169.174 141.183 169.494 141.01 169.868 140.89C170.241 140.763 170.634 140.7 171.048 140.7ZM170.798 145.49C171.198 145.49 171.541 145.4 171.828 145.22C172.114 145.033 172.328 144.767 172.468 144.42V143.56H170.818C169.918 143.56 169.468 143.873 169.468 144.5C169.468 144.807 169.584 145.05 169.818 145.23C170.051 145.403 170.378 145.49 170.798 145.49ZM140.98 153.37H138.99V158H138.28V153.37H136.29V152.74H140.98V153.37ZM143.932 158.05C143.425 158.05 142.969 157.937 142.562 157.71C142.155 157.477 141.835 157.157 141.602 156.75C141.369 156.343 141.252 155.883 141.252 155.37C141.252 154.857 141.369 154.397 141.602 153.99C141.835 153.583 142.155 153.267 142.562 153.04C142.969 152.813 143.425 152.7 143.932 152.7C144.439 152.7 144.895 152.813 145.302 153.04C145.709 153.267 146.025 153.583 146.252 153.99C146.485 154.397 146.602 154.857 146.602 155.37C146.602 155.883 146.485 156.343 146.252 156.75C146.025 157.157 145.709 157.477 145.302 157.71C144.895 157.937 144.439 158.05 143.932 158.05ZM143.932 157.42C144.305 157.42 144.639 157.337 144.932 157.17C145.232 156.997 145.465 156.753 145.632 156.44C145.799 156.127 145.882 155.77 145.882 155.37C145.882 154.97 145.799 154.613 145.632 154.3C145.465 153.987 145.232 153.747 144.932 153.58C144.639 153.407 144.305 153.32 143.932 153.32C143.559 153.32 143.222 153.407 142.922 153.58C142.629 153.747 142.395 153.987 142.222 154.3C142.055 154.613 141.972 154.97 141.972 155.37C141.972 155.77 142.055 156.127 142.222 156.44C142.395 156.753 142.629 156.997 142.922 157.17C143.222 157.337 143.559 157.42 143.932 157.42ZM151.469 155.28C152.183 155.447 152.539 155.877 152.539 156.57C152.539 157.03 152.369 157.383 152.029 157.63C151.689 157.877 151.183 158 150.509 158H148.119V152.74H150.439C151.039 152.74 151.509 152.857 151.849 153.09C152.189 153.323 152.359 153.657 152.359 154.09C152.359 154.377 152.279 154.623 152.119 154.83C151.966 155.03 151.749 155.18 151.469 155.28ZM148.809 155.08H150.389C150.796 155.08 151.106 155.003 151.319 154.85C151.539 154.697 151.649 154.473 151.649 154.18C151.649 153.887 151.539 153.667 151.319 153.52C151.106 153.373 150.796 153.3 150.389 153.3H148.809V155.08ZM150.479 157.44C150.933 157.44 151.273 157.367 151.499 157.22C151.726 157.073 151.839 156.843 151.839 156.53C151.839 156.217 151.736 155.987 151.529 155.84C151.323 155.687 150.996 155.61 150.549 155.61H148.809V157.44H150.479ZM156.013 152.7C156.7 152.7 157.227 152.873 157.593 153.22C157.96 153.56 158.143 154.067 158.143 154.74V158H157.463V157.18C157.303 157.453 157.067 157.667 156.753 157.82C156.447 157.973 156.08 158.05 155.653 158.05C155.067 158.05 154.6 157.91 154.253 157.63C153.907 157.35 153.733 156.98 153.733 156.52C153.733 156.073 153.893 155.713 154.213 155.44C154.54 155.167 155.057 155.03 155.763 155.03H157.433V154.71C157.433 154.257 157.307 153.913 157.053 153.68C156.8 153.44 156.43 153.32 155.943 153.32C155.61 153.32 155.29 153.377 154.983 153.49C154.677 153.597 154.413 153.747 154.193 153.94L153.873 153.41C154.14 153.183 154.46 153.01 154.833 152.89C155.207 152.763 155.6 152.7 156.013 152.7ZM155.763 157.49C156.163 157.49 156.507 157.4 156.793 157.22C157.08 157.033 157.293 156.767 157.433 156.42V155.56H155.783C154.883 155.56 154.433 155.873 154.433 156.5C154.433 156.807 154.55 157.05 154.783 157.23C155.017 157.403 155.343 157.49 155.763 157.49ZM162.743 152.7C163.237 152.7 163.683 152.813 164.083 153.04C164.483 153.26 164.797 153.573 165.023 153.98C165.25 154.387 165.363 154.85 165.363 155.37C165.363 155.897 165.25 156.363 165.023 156.77C164.797 157.177 164.483 157.493 164.083 157.72C163.69 157.94 163.243 158.05 162.743 158.05C162.317 158.05 161.93 157.963 161.583 157.79C161.243 157.61 160.963 157.35 160.743 157.01V159.94H160.033V152.74H160.713V153.78C160.927 153.433 161.207 153.167 161.553 152.98C161.907 152.793 162.303 152.7 162.743 152.7ZM162.693 157.42C163.06 157.42 163.393 157.337 163.693 157.17C163.993 156.997 164.227 156.753 164.393 156.44C164.567 156.127 164.653 155.77 164.653 155.37C164.653 154.97 164.567 154.617 164.393 154.31C164.227 153.997 163.993 153.753 163.693 153.58C163.393 153.407 163.06 153.32 162.693 153.32C162.32 153.32 161.983 153.407 161.683 153.58C161.39 153.753 161.157 153.997 160.983 154.31C160.817 154.617 160.733 154.97 160.733 155.37C160.733 155.77 160.817 156.127 160.983 156.44C161.157 156.753 161.39 156.997 161.683 157.17C161.983 157.337 162.32 157.42 162.693 157.42ZM169.099 154.6C169.759 154.607 170.262 154.753 170.609 155.04C170.956 155.327 171.129 155.74 171.129 156.28C171.129 156.84 170.942 157.27 170.569 157.57C170.196 157.87 169.662 158.017 168.969 158.01L166.889 158V152.74H167.599V154.58L169.099 154.6ZM172.009 152.74H172.719V158H172.009V152.74ZM168.929 157.47C169.416 157.477 169.782 157.38 170.029 157.18C170.282 156.973 170.409 156.673 170.409 156.28C170.409 155.893 170.286 155.607 170.039 155.42C169.792 155.233 169.422 155.137 168.929 155.13L167.599 155.11V157.45L168.929 157.47Z" fill="black"/>
<path d="M144.037 100V107H142.737V101.09H141.257V100H144.037ZM148.345 107.1C147.785 107.1 147.285 106.96 146.845 106.68C146.405 106.393 146.059 105.98 145.805 105.44C145.552 104.893 145.425 104.247 145.425 103.5C145.425 102.753 145.552 102.11 145.805 101.57C146.059 101.023 146.405 100.61 146.845 100.33C147.285 100.043 147.785 99.9 148.345 99.9C148.905 99.9 149.405 100.043 149.845 100.33C150.292 100.61 150.642 101.023 150.895 101.57C151.149 102.11 151.275 102.753 151.275 103.5C151.275 104.247 151.149 104.893 150.895 105.44C150.642 105.98 150.292 106.393 149.845 106.68C149.405 106.96 148.905 107.1 148.345 107.1ZM148.345 105.97C148.845 105.97 149.239 105.763 149.525 105.35C149.819 104.937 149.965 104.32 149.965 103.5C149.965 102.68 149.819 102.063 149.525 101.65C149.239 101.237 148.845 101.03 148.345 101.03C147.852 101.03 147.459 101.237 147.165 101.65C146.879 102.063 146.735 102.68 146.735 103.5C146.735 104.32 146.879 104.937 147.165 105.35C147.459 105.763 147.852 105.97 148.345 105.97ZM155.074 107.1C154.514 107.1 154.014 106.96 153.574 106.68C153.134 106.393 152.787 105.98 152.534 105.44C152.281 104.893 152.154 104.247 152.154 103.5C152.154 102.753 152.281 102.11 152.534 101.57C152.787 101.023 153.134 100.61 153.574 100.33C154.014 100.043 154.514 99.9 155.074 99.9C155.634 99.9 156.134 100.043 156.574 100.33C157.021 100.61 157.371 101.023 157.624 101.57C157.877 102.11 158.004 102.753 158.004 103.5C158.004 104.247 157.877 104.893 157.624 105.44C157.371 105.98 157.021 106.393 156.574 106.68C156.134 106.96 155.634 107.1 155.074 107.1ZM155.074 105.97C155.574 105.97 155.967 105.763 156.254 105.35C156.547 104.937 156.694 104.32 156.694 103.5C156.694 102.68 156.547 102.063 156.254 101.65C155.967 101.237 155.574 101.03 155.074 101.03C154.581 101.03 154.187 101.237 153.894 101.65C153.607 102.063 153.464 102.68 153.464 103.5C153.464 104.32 153.607 104.937 153.894 105.35C154.187 105.763 154.581 105.97 155.074 105.97ZM163.806 104.69V105.26H166.006V105.96H163.806V107H162.506V105.96H161.506V105.26H162.506V100H165.386C166.319 100 167.046 100.2 167.566 100.6C168.093 101 168.356 101.583 168.356 102.35C168.356 103.11 168.093 103.69 167.566 104.09C167.046 104.49 166.319 104.69 165.386 104.69H163.806ZM167.046 102.36C167.046 101.953 166.903 101.643 166.616 101.43C166.329 101.21 165.916 101.1 165.376 101.1H163.806V103.64H165.376C165.909 103.64 166.319 103.53 166.606 103.31C166.899 103.083 167.046 102.767 167.046 102.36Z" fill="black"/>
<path d="M220.081 145.36V146H215.131V139H219.931V139.64H215.871V142.13H219.491V142.76H215.871V145.36H220.081ZM228.813 140.74V146H221.553V140.74H222.263V145.38H224.843V140.74H225.553V145.38H228.103V140.74H228.813ZM229.623 145.38V147.15H228.953V146H228.063V145.38H229.623ZM235.44 143.59H231.04C231.08 144.137 231.29 144.58 231.67 144.92C232.05 145.253 232.53 145.42 233.11 145.42C233.437 145.42 233.737 145.363 234.01 145.25C234.283 145.13 234.52 144.957 234.72 144.73L235.12 145.19C234.887 145.47 234.593 145.683 234.24 145.83C233.893 145.977 233.51 146.05 233.09 146.05C232.55 146.05 232.07 145.937 231.65 145.71C231.237 145.477 230.913 145.157 230.68 144.75C230.447 144.343 230.33 143.883 230.33 143.37C230.33 142.857 230.44 142.397 230.66 141.99C230.887 141.583 231.193 141.267 231.58 141.04C231.973 140.813 232.413 140.7 232.9 140.7C233.387 140.7 233.823 140.813 234.21 141.04C234.597 141.267 234.9 141.583 235.12 141.99C235.34 142.39 235.45 142.85 235.45 143.37L235.44 143.59ZM232.9 141.31C232.393 141.31 231.967 141.473 231.62 141.8C231.28 142.12 231.087 142.54 231.04 143.06H234.77C234.723 142.54 234.527 142.12 234.18 141.8C233.84 141.473 233.413 141.31 232.9 141.31ZM241.809 146.05C241.302 146.05 240.846 145.937 240.439 145.71C240.032 145.477 239.712 145.157 239.479 144.75C239.246 144.343 239.129 143.883 239.129 143.37C239.129 142.857 239.246 142.397 239.479 141.99C239.712 141.583 240.032 141.267 240.439 141.04C240.846 140.813 241.302 140.7 241.809 140.7C242.316 140.7 242.772 140.813 243.179 141.04C243.586 141.267 243.902 141.583 244.129 141.99C244.362 142.397 244.479 142.857 244.479 143.37C244.479 143.883 244.362 144.343 244.129 144.75C243.902 145.157 243.586 145.477 243.179 145.71C242.772 145.937 242.316 146.05 241.809 146.05ZM241.809 145.42C242.182 145.42 242.516 145.337 242.809 145.17C243.109 144.997 243.342 144.753 243.509 144.44C243.676 144.127 243.759 143.77 243.759 143.37C243.759 142.97 243.676 142.613 243.509 142.3C243.342 141.987 243.109 141.747 242.809 141.58C242.516 141.407 242.182 141.32 241.809 141.32C241.436 141.32 241.099 141.407 240.799 141.58C240.506 141.747 240.272 141.987 240.099 142.3C239.932 142.613 239.849 142.97 239.849 143.37C239.849 143.77 239.932 144.127 240.099 144.44C240.272 144.753 240.506 144.997 240.799 145.17C241.099 145.337 241.436 145.42 241.809 145.42ZM251.097 145.38V147.27H250.427V146H245.717V147.27H245.047V145.38H245.347C245.7 145.36 245.94 145.1 246.067 144.6C246.194 144.1 246.28 143.4 246.327 142.5L246.397 140.74H250.277V145.38H251.097ZM246.977 142.54C246.944 143.287 246.88 143.903 246.787 144.39C246.694 144.87 246.527 145.2 246.287 145.38H249.567V141.37H247.037L246.977 142.54ZM252.481 140.74H253.191V143.07H256.501V140.74H257.211V146H256.501V143.68H253.191V146H252.481V140.74ZM261.039 140.7C261.725 140.7 262.252 140.873 262.619 141.22C262.985 141.56 263.169 142.067 263.169 142.74V146H262.489V145.18C262.329 145.453 262.092 145.667 261.779 145.82C261.472 145.973 261.105 146.05 260.679 146.05C260.092 146.05 259.625 145.91 259.279 145.63C258.932 145.35 258.759 144.98 258.759 144.52C258.759 144.073 258.919 143.713 259.239 143.44C259.565 143.167 260.082 143.03 260.789 143.03H262.459V142.71C262.459 142.257 262.332 141.913 262.079 141.68C261.825 141.44 261.455 141.32 260.969 141.32C260.635 141.32 260.315 141.377 260.009 141.49C259.702 141.597 259.439 141.747 259.219 141.94L258.899 141.41C259.165 141.183 259.485 141.01 259.859 140.89C260.232 140.763 260.625 140.7 261.039 140.7ZM260.789 145.49C261.189 145.49 261.532 145.4 261.819 145.22C262.105 145.033 262.319 144.767 262.459 144.42V143.56H260.809C259.909 143.56 259.459 143.873 259.459 144.5C259.459 144.807 259.575 145.05 259.809 145.23C260.042 145.403 260.369 145.49 260.789 145.49ZM223.5 152.74V158H222.79V153.37H219.49V158H218.78V152.74H223.5ZM227.688 158.05C227.181 158.05 226.724 157.937 226.318 157.71C225.911 157.477 225.591 157.157 225.358 156.75C225.124 156.343 225.008 155.883 225.008 155.37C225.008 154.857 225.124 154.397 225.358 153.99C225.591 153.583 225.911 153.267 226.318 153.04C226.724 152.813 227.181 152.7 227.688 152.7C228.194 152.7 228.651 152.813 229.058 153.04C229.464 153.267 229.781 153.583 230.008 153.99C230.241 154.397 230.358 154.857 230.358 155.37C230.358 155.883 230.241 156.343 230.008 156.75C229.781 157.157 229.464 157.477 229.058 157.71C228.651 157.937 228.194 158.05 227.688 158.05ZM227.688 157.42C228.061 157.42 228.394 157.337 228.688 157.17C228.988 156.997 229.221 156.753 229.388 156.44C229.554 156.127 229.638 155.77 229.638 155.37C229.638 154.97 229.554 154.613 229.388 154.3C229.221 153.987 228.988 153.747 228.688 153.58C228.394 153.407 228.061 153.32 227.688 153.32C227.314 153.32 226.978 153.407 226.678 153.58C226.384 153.747 226.151 153.987 225.978 154.3C225.811 154.613 225.728 154.97 225.728 155.37C225.728 155.77 225.811 156.127 225.978 156.44C226.151 156.753 226.384 156.997 226.678 157.17C226.978 157.337 227.314 157.42 227.688 157.42ZM233.785 155.66H232.585V158H231.875V152.74H232.585V155.05H233.795L235.645 152.74H236.415L234.345 155.29L236.565 158H235.725L233.785 155.66ZM241.853 152.74L239.223 158.63C239.01 159.123 238.763 159.473 238.483 159.68C238.203 159.887 237.866 159.99 237.473 159.99C237.22 159.99 236.983 159.95 236.763 159.87C236.543 159.79 236.353 159.67 236.193 159.51L236.523 158.98C236.79 159.247 237.11 159.38 237.483 159.38C237.723 159.38 237.926 159.313 238.093 159.18C238.266 159.047 238.426 158.82 238.573 158.5L238.803 157.99L236.453 152.74H237.193L239.173 157.21L241.153 152.74H241.853ZM247.679 152.74V158H246.969V153.37H243.669V158H242.959V152.74H247.679ZM251.608 155.66H250.408V158H249.698V152.74H250.408V155.05H251.618L253.468 152.74H254.238L252.168 155.29L254.388 158H253.548L251.608 155.66ZM257.22 152.7C257.907 152.7 258.434 152.873 258.8 153.22C259.167 153.56 259.35 154.067 259.35 154.74V158H258.67V157.18C258.51 157.453 258.274 157.667 257.96 157.82C257.654 157.973 257.287 158.05 256.86 158.05C256.274 158.05 255.807 157.91 255.46 157.63C255.114 157.35 254.94 156.98 254.94 156.52C254.94 156.073 255.1 155.713 255.42 155.44C255.747 155.167 256.264 155.03 256.97 155.03H258.64V154.71C258.64 154.257 258.514 153.913 258.26 153.68C258.007 153.44 257.637 153.32 257.15 153.32C256.817 153.32 256.497 153.377 256.19 153.49C255.884 153.597 255.62 153.747 255.4 153.94L255.08 153.41C255.347 153.183 255.667 153.01 256.04 152.89C256.414 152.763 256.807 152.7 257.22 152.7ZM256.97 157.49C257.37 157.49 257.714 157.4 258 157.22C258.287 157.033 258.5 156.767 258.64 156.42V155.56H256.99C256.09 155.56 255.64 155.873 255.64 156.5C255.64 156.807 255.757 157.05 255.99 157.23C256.224 157.403 256.55 157.49 256.97 157.49Z" fill="black"/>
<path d="M297.671 139H298.401V144.8L302.881 139H303.551V146H302.821V140.21L298.341 146H297.671V139ZM312.961 143.59H308.561C308.601 144.137 308.811 144.58 309.191 144.92C309.571 145.253 310.051 145.42 310.631 145.42C310.957 145.42 311.257 145.363 311.531 145.25C311.804 145.13 312.041 144.957 312.241 144.73L312.641 145.19C312.407 145.47 312.114 145.683 311.761 145.83C311.414 145.977 311.031 146.05 310.611 146.05C310.071 146.05 309.591 145.937 309.171 145.71C308.757 145.477 308.434 145.157 308.201 144.75C307.967 144.343 307.851 143.883 307.851 143.37C307.851 142.857 307.961 142.397 308.181 141.99C308.407 141.583 308.714 141.267 309.101 141.04C309.494 140.813 309.934 140.7 310.421 140.7C310.907 140.7 311.344 140.813 311.731 141.04C312.117 141.267 312.421 141.583 312.641 141.99C312.861 142.39 312.971 142.85 312.971 143.37L312.961 143.59ZM310.421 141.31C309.914 141.31 309.487 141.473 309.141 141.8C308.801 142.12 308.607 142.54 308.561 143.06H312.291C312.244 142.54 312.047 142.12 311.701 141.8C311.361 141.473 310.934 141.31 310.421 141.31ZM321.802 140.74V146H314.542V140.74H315.252V145.38H317.832V140.74H318.542V145.38H321.092V140.74H321.802ZM322.612 145.38V147.15H321.942V146H321.052V145.38H322.612ZM328.429 143.59H324.029C324.069 144.137 324.279 144.58 324.659 144.92C325.039 145.253 325.519 145.42 326.099 145.42C326.426 145.42 326.726 145.363 326.999 145.25C327.273 145.13 327.509 144.957 327.709 144.73L328.109 145.19C327.876 145.47 327.583 145.683 327.229 145.83C326.883 145.977 326.499 146.05 326.079 146.05C325.539 146.05 325.059 145.937 324.639 145.71C324.226 145.477 323.903 145.157 323.669 144.75C323.436 144.343 323.319 143.883 323.319 143.37C323.319 142.857 323.429 142.397 323.649 141.99C323.876 141.583 324.183 141.267 324.569 141.04C324.963 140.813 325.403 140.7 325.889 140.7C326.376 140.7 326.813 140.813 327.199 141.04C327.586 141.267 327.889 141.583 328.109 141.99C328.329 142.39 328.439 142.85 328.439 143.37L328.429 143.59ZM325.889 141.31C325.383 141.31 324.956 141.473 324.609 141.8C324.269 142.12 324.076 142.54 324.029 143.06H327.759C327.713 142.54 327.516 142.12 327.169 141.8C326.829 141.473 326.403 141.31 325.889 141.31ZM335.338 140.7C335.831 140.7 336.278 140.813 336.678 141.04C337.078 141.26 337.391 141.573 337.618 141.98C337.845 142.387 337.958 142.85 337.958 143.37C337.958 143.897 337.845 144.363 337.618 144.77C337.391 145.177 337.078 145.493 336.678 145.72C336.285 145.94 335.838 146.05 335.338 146.05C334.911 146.05 334.525 145.963 334.178 145.79C333.838 145.61 333.558 145.35 333.338 145.01V147.94H332.628V140.74H333.308V141.78C333.521 141.433 333.801 141.167 334.148 140.98C334.501 140.793 334.898 140.7 335.338 140.7ZM335.288 145.42C335.655 145.42 335.988 145.337 336.288 145.17C336.588 144.997 336.821 144.753 336.988 144.44C337.161 144.127 337.248 143.77 337.248 143.37C337.248 142.97 337.161 142.617 336.988 142.31C336.821 141.997 336.588 141.753 336.288 141.58C335.988 141.407 335.655 141.32 335.288 141.32C334.915 141.32 334.578 141.407 334.278 141.58C333.985 141.753 333.751 141.997 333.578 142.31C333.411 142.617 333.328 142.97 333.328 143.37C333.328 143.77 333.411 144.127 333.578 144.44C333.751 144.753 333.985 144.997 334.278 145.17C334.578 145.337 334.915 145.42 335.288 145.42ZM341.264 140.7C341.951 140.7 342.478 140.873 342.844 141.22C343.211 141.56 343.394 142.067 343.394 142.74V146H342.714V145.18C342.554 145.453 342.318 145.667 342.004 145.82C341.698 145.973 341.331 146.05 340.904 146.05C340.318 146.05 339.851 145.91 339.504 145.63C339.158 145.35 338.984 144.98 338.984 144.52C338.984 144.073 339.144 143.713 339.464 143.44C339.791 143.167 340.308 143.03 341.014 143.03H342.684V142.71C342.684 142.257 342.558 141.913 342.304 141.68C342.051 141.44 341.681 141.32 341.194 141.32C340.861 141.32 340.541 141.377 340.234 141.49C339.928 141.597 339.664 141.747 339.444 141.94L339.124 141.41C339.391 141.183 339.711 141.01 340.084 140.89C340.458 140.763 340.851 140.7 341.264 140.7ZM341.014 145.49C341.414 145.49 341.758 145.4 342.044 145.22C342.331 145.033 342.544 144.767 342.684 144.42V143.56H341.034C340.134 143.56 339.684 143.873 339.684 144.5C339.684 144.807 339.801 145.05 340.034 145.23C340.268 145.403 340.594 145.49 341.014 145.49ZM347.737 143.26C348.11 143.347 348.397 143.497 348.597 143.71C348.804 143.923 348.907 144.183 348.907 144.49C348.907 144.797 348.8 145.07 348.587 145.31C348.38 145.55 348.097 145.737 347.737 145.87C347.377 145.997 346.98 146.06 346.547 146.06C346.167 146.06 345.794 146.007 345.427 145.9C345.06 145.787 344.74 145.623 344.467 145.41L344.707 144.88C344.947 145.06 345.227 145.2 345.547 145.3C345.867 145.4 346.19 145.45 346.517 145.45C347.004 145.45 347.4 145.36 347.707 145.18C348.02 144.993 348.177 144.743 348.177 144.43C348.177 144.15 348.05 143.933 347.797 143.78C347.544 143.62 347.197 143.54 346.757 143.54H345.857V143.02H346.717C347.11 143.02 347.427 142.947 347.667 142.8C347.907 142.647 348.027 142.443 348.027 142.19C348.027 141.91 347.89 141.69 347.617 141.53C347.35 141.37 347 141.29 346.567 141.29C346 141.29 345.44 141.433 344.887 141.72L344.687 141.17C345.314 140.843 345.964 140.68 346.637 140.68C347.037 140.68 347.397 140.74 347.717 140.86C348.044 140.973 348.297 141.137 348.477 141.35C348.664 141.563 348.757 141.81 348.757 142.09C348.757 142.357 348.664 142.593 348.477 142.8C348.297 143.007 348.05 143.16 347.737 143.26Z" fill="black"/>
<path d="M224.211 100V107H222.911V101.09H221.431V100H224.211ZM233.643 100V100.87L230.923 107H229.533L232.163 101.1H229.413V102.29H228.203V100H233.643ZM237.172 107.1C236.612 107.1 236.112 106.96 235.672 106.68C235.232 106.393 234.885 105.98 234.632 105.44C234.378 104.893 234.252 104.247 234.252 103.5C234.252 102.753 234.378 102.11 234.632 101.57C234.885 101.023 235.232 100.61 235.672 100.33C236.112 100.043 236.612 99.9 237.172 99.9C237.732 99.9 238.232 100.043 238.672 100.33C239.118 100.61 239.468 101.023 239.722 101.57C239.975 102.11 240.102 102.753 240.102 103.5C240.102 104.247 239.975 104.893 239.722 105.44C239.468 105.98 239.118 106.393 238.672 106.68C238.232 106.96 237.732 107.1 237.172 107.1ZM237.172 105.97C237.672 105.97 238.065 105.763 238.352 105.35C238.645 104.937 238.792 104.32 238.792 103.5C238.792 102.68 238.645 102.063 238.352 101.65C238.065 101.237 237.672 101.03 237.172 101.03C236.678 101.03 236.285 101.237 235.992 101.65C235.705 102.063 235.562 102.68 235.562 103.5C235.562 104.32 235.705 104.937 235.992 105.35C236.285 105.763 236.678 105.97 237.172 105.97ZM243.9 107.1C243.34 107.1 242.84 106.96 242.4 106.68C241.96 106.393 241.613 105.98 241.36 105.44C241.107 104.893 240.98 104.247 240.98 103.5C240.98 102.753 241.107 102.11 241.36 101.57C241.613 101.023 241.96 100.61 242.4 100.33C242.84 100.043 243.34 99.9 243.9 99.9C244.46 99.9 244.96 100.043 245.4 100.33C245.847 100.61 246.197 101.023 246.45 101.57C246.703 102.11 246.83 102.753 246.83 103.5C246.83 104.247 246.703 104.893 246.45 105.44C246.197 105.98 245.847 106.393 245.4 106.68C244.96 106.96 244.46 107.1 243.9 107.1ZM243.9 105.97C244.4 105.97 244.793 105.763 245.08 105.35C245.373 104.937 245.52 104.32 245.52 103.5C245.52 102.68 245.373 102.063 245.08 101.65C244.793 101.237 244.4 101.03 243.9 101.03C243.407 101.03 243.013 101.237 242.72 101.65C242.433 102.063 242.29 102.68 242.29 103.5C242.29 104.32 242.433 104.937 242.72 105.35C243.013 105.763 243.407 105.97 243.9 105.97ZM252.632 104.69V105.26H254.832V105.96H252.632V107H251.332V105.96H250.332V105.26H251.332V100H254.212C255.146 100 255.872 100.2 256.392 100.6C256.919 101 257.182 101.583 257.182 102.35C257.182 103.11 256.919 103.69 256.392 104.09C255.872 104.49 255.146 104.69 254.212 104.69H252.632ZM255.872 102.36C255.872 101.953 255.729 101.643 255.442 101.43C255.156 101.21 254.742 101.1 254.202 101.1H252.632V103.64H254.202C254.736 103.64 255.146 103.53 255.432 103.31C255.726 103.083 255.872 102.767 255.872 102.36Z" fill="black"/>
<path d="M308.204 100V107H306.904V101.09H305.424V100H308.204ZM314.546 102.71C315.533 102.71 316.263 102.903 316.736 103.29C317.209 103.67 317.446 104.19 317.446 104.85C317.446 105.27 317.343 105.65 317.136 105.99C316.929 106.33 316.619 106.6 316.206 106.8C315.793 107 315.283 107.1 314.676 107.1C314.176 107.1 313.693 107.03 313.226 106.89C312.759 106.743 312.366 106.543 312.046 106.29L312.596 105.28C312.856 105.493 313.166 105.663 313.526 105.79C313.893 105.91 314.269 105.97 314.656 105.97C315.116 105.97 315.476 105.877 315.736 105.69C316.003 105.497 316.136 105.233 316.136 104.9C316.136 104.54 315.993 104.27 315.706 104.09C315.426 103.903 314.943 103.81 314.256 103.81H312.566L312.926 100H317.036V101.09H314.026L313.876 102.71H314.546ZM320.337 102.71C321.324 102.71 322.054 102.903 322.527 103.29C323 103.67 323.237 104.19 323.237 104.85C323.237 105.27 323.134 105.65 322.927 105.99C322.72 106.33 322.41 106.6 321.997 106.8C321.584 107 321.074 107.1 320.467 107.1C319.967 107.1 319.484 107.03 319.017 106.89C318.55 106.743 318.157 106.543 317.837 106.29L318.387 105.28C318.647 105.493 318.957 105.663 319.317 105.79C319.684 105.91 320.06 105.97 320.447 105.97C320.907 105.97 321.267 105.877 321.527 105.69C321.794 105.497 321.927 105.233 321.927 104.9C321.927 104.54 321.784 104.27 321.497 104.09C321.217 103.903 320.734 103.81 320.047 103.81H318.357L318.717 100H322.827V101.09H319.817L319.667 102.71H320.337ZM326.907 107.1C326.347 107.1 325.847 106.96 325.407 106.68C324.967 106.393 324.62 105.98 324.367 105.44C324.114 104.893 323.987 104.247 323.987 103.5C323.987 102.753 324.114 102.11 324.367 101.57C324.62 101.023 324.967 100.61 325.407 100.33C325.847 100.043 326.347 99.9 326.907 99.9C327.467 99.9 327.967 100.043 328.407 100.33C328.854 100.61 329.204 101.023 329.457 101.57C329.71 102.11 329.837 102.753 329.837 103.5C329.837 104.247 329.71 104.893 329.457 105.44C329.204 105.98 328.854 106.393 328.407 106.68C327.967 106.96 327.467 107.1 326.907 107.1ZM326.907 105.97C327.407 105.97 327.8 105.763 328.087 105.35C328.38 104.937 328.527 104.32 328.527 103.5C328.527 102.68 328.38 102.063 328.087 101.65C327.8 101.237 327.407 101.03 326.907 101.03C326.414 101.03 326.02 101.237 325.727 101.65C325.44 102.063 325.297 102.68 325.297 103.5C325.297 104.32 325.44 104.937 325.727 105.35C326.02 105.763 326.414 105.97 326.907 105.97ZM335.639 104.69V105.26H337.839V105.96H335.639V107H334.339V105.96H333.339V105.26H334.339V100H337.219C338.152 100 338.879 100.2 339.399 100.6C339.926 101 340.189 101.583 340.189 102.35C340.189 103.11 339.926 103.69 339.399 104.09C338.879 104.49 338.152 104.69 337.219 104.69H335.639ZM338.879 102.36C338.879 101.953 338.736 101.643 338.449 101.43C338.162 101.21 337.749 101.1 337.209 101.1H335.639V103.64H337.209C337.742 103.64 338.152 103.53 338.439 103.31C338.732 103.083 338.879 102.767 338.879 102.36Z" fill="black"/>
<path d="M397.788 124.246C398.693 124.358 399.384 124.666 399.86 125.17C400.336 125.674 400.574 126.304 400.574 127.06C400.574 127.629 400.429 128.147 400.14 128.614C399.851 129.081 399.412 129.454 398.824 129.734C398.245 130.005 397.536 130.14 396.696 130.14C395.996 130.14 395.319 130.042 394.666 129.846C394.022 129.641 393.471 129.361 393.014 129.006L393.798 127.592C394.153 127.891 394.582 128.129 395.086 128.306C395.599 128.474 396.127 128.558 396.668 128.558C397.312 128.558 397.816 128.427 398.18 128.166C398.553 127.895 398.74 127.531 398.74 127.074C398.74 126.617 398.563 126.262 398.208 126.01C397.863 125.749 397.331 125.618 396.612 125.618H395.716V124.372L397.942 121.726H393.49V120.2H400.168V121.418L397.788 124.246ZM409.806 124.246C410.711 124.358 411.402 124.666 411.878 125.17C412.354 125.674 412.592 126.304 412.592 127.06C412.592 127.629 412.447 128.147 412.158 128.614C411.868 129.081 411.43 129.454 410.842 129.734C410.263 130.005 409.554 130.14 408.714 130.14C408.014 130.14 407.337 130.042 406.684 129.846C406.04 129.641 405.489 129.361 405.032 129.006L405.816 127.592C406.17 127.891 406.6 128.129 407.104 128.306C407.617 128.474 408.144 128.558 408.686 128.558C409.33 128.558 409.834 128.427 410.198 128.166C410.571 127.895 410.758 127.531 410.758 127.074C410.758 126.617 410.58 126.262 410.226 126.01C409.88 125.749 409.348 125.618 408.63 125.618H407.734V124.372L409.96 121.726H405.508V120.2H412.186V121.418L409.806 124.246ZM416.711 123.994C418.093 123.994 419.115 124.265 419.777 124.806C420.44 125.338 420.771 126.066 420.771 126.99C420.771 127.578 420.627 128.11 420.337 128.586C420.048 129.062 419.614 129.44 419.035 129.72C418.457 130 417.743 130.14 416.893 130.14C416.193 130.14 415.517 130.042 414.863 129.846C414.21 129.641 413.659 129.361 413.211 129.006L413.981 127.592C414.345 127.891 414.779 128.129 415.283 128.306C415.797 128.474 416.324 128.558 416.865 128.558C417.509 128.558 418.013 128.427 418.377 128.166C418.751 127.895 418.937 127.527 418.937 127.06C418.937 126.556 418.737 126.178 418.335 125.926C417.943 125.665 417.267 125.534 416.305 125.534H413.939L414.443 120.2H420.197V121.726H415.983L415.773 123.994H416.711ZM425.909 130.14C425.125 130.14 424.425 129.944 423.809 129.552C423.193 129.151 422.708 128.572 422.353 127.816C421.998 127.051 421.821 126.145 421.821 125.1C421.821 124.055 421.998 123.154 422.353 122.398C422.708 121.633 423.193 121.054 423.809 120.662C424.425 120.261 425.125 120.06 425.909 120.06C426.693 120.06 427.393 120.261 428.009 120.662C428.634 121.054 429.124 121.633 429.479 122.398C429.834 123.154 430.011 124.055 430.011 125.1C430.011 126.145 429.834 127.051 429.479 127.816C429.124 128.572 428.634 129.151 428.009 129.552C427.393 129.944 426.693 130.14 425.909 130.14ZM425.909 128.558C426.609 128.558 427.16 128.269 427.561 127.69C427.972 127.111 428.177 126.248 428.177 125.1C428.177 123.952 427.972 123.089 427.561 122.51C427.16 121.931 426.609 121.642 425.909 121.642C425.218 121.642 424.668 121.931 424.257 122.51C423.856 123.089 423.655 123.952 423.655 125.1C423.655 126.248 423.856 127.111 424.257 127.69C424.668 128.269 425.218 128.558 425.909 128.558ZM438.134 126.766V127.564H441.214V128.544H438.134V130H436.314V128.544H434.914V127.564H436.314V120.2H440.346C441.653 120.2 442.67 120.48 443.398 121.04C444.135 121.6 444.504 122.417 444.504 123.49C444.504 124.554 444.135 125.366 443.398 125.926C442.67 126.486 441.653 126.766 440.346 126.766H438.134ZM442.67 123.504C442.67 122.935 442.469 122.501 442.068 122.202C441.667 121.894 441.088 121.74 440.332 121.74H438.134V125.296H440.332C441.079 125.296 441.653 125.142 442.054 124.834C442.465 124.517 442.67 124.073 442.67 123.504Z" fill="#C873FF"/>
<path d="M378.354 125.354C378.549 125.158 378.549 124.842 378.354 124.646L375.172 121.464C374.976 121.269 374.66 121.269 374.464 121.464C374.269 121.66 374.269 121.976 374.464 122.172L377.293 125L374.464 127.828C374.269 128.024 374.269 128.34 374.464 128.536C374.66 128.731 374.976 128.731 375.172 128.536L378.354 125.354ZM41 125.5H378V124.5H41V125.5Z" fill="black"/>
<circle cx="41" cy="125" r="5" fill="black"/>
<circle cx="155" cy="125" r="5" fill="black"/>
<circle cx="239" cy="125" r="5" fill="black"/>
<circle cx="323" cy="125" r="5" fill="black"/>
<rect x="0.5" y="0.5" width="479" height="185" stroke="black"/>
</svg>
