<svg width="30" height="30" viewBox="0 0 30 30" fill="none" xmlns="http://www.w3.org/2000/svg">
<path d="M10.4021 29.8968C10.4021 29.8349 10.3823 29.7731 10.3823 29.7112C10.4021 24.4329 10.4219 19.1545 10.4417 13.8556C10.4417 12.5979 10.4219 11.3401 10.4021 10.103C10.4021 9.99993 10.4021 9.87622 10.4021 9.75251C12.5379 9.75251 14.6737 9.75251 16.8095 9.75251C16.8095 10.6803 16.8095 11.6288 16.8095 12.5566C16.8095 12.5566 16.8293 12.5566 16.8293 12.5772C16.849 12.536 16.8886 12.5154 16.9084 12.4741C17.3434 11.7937 17.8576 11.1958 18.4707 10.701C19.2815 10.0412 20.1912 9.60818 21.2195 9.42261C22.5445 9.17519 23.8695 9.23704 25.1549 9.69065C26.9545 10.3092 28.24 11.5257 29.0705 13.2989C29.4265 14.0618 29.644 14.8659 29.8022 15.6906C29.9407 16.4948 30 17.2989 30 18.1236C30 22.0205 30 25.938 30 29.8349C30 29.8762 30 29.9174 30 29.9586C27.8642 29.9586 25.7284 29.9586 23.6124 29.9586C23.6124 29.8968 23.6124 29.8349 23.6124 29.7731C23.6124 26.2885 23.6124 22.804 23.6124 19.3195C23.6124 18.7628 23.5926 18.2061 23.4937 17.6494C23.4146 17.1339 23.2762 16.6597 23.0389 16.1855C22.6632 15.4638 22.1094 14.969 21.3579 14.7628C20.9031 14.6391 20.4483 14.6185 19.9736 14.6597C19.3408 14.7216 18.7871 14.9277 18.2927 15.3401C17.8774 15.6906 17.5412 16.103 17.2841 16.5978C17.0666 16.9896 16.9282 17.3814 16.8688 17.835C16.8293 18.1649 16.8293 18.4948 16.8293 18.8453C16.8293 22.4947 16.8293 26.1648 16.8293 29.8143C16.8293 29.8762 16.8293 29.938 16.8095 29.9999C14.6737 29.8968 12.5379 29.8968 10.4021 29.8968Z" fill="white"/>
<path d="M0.415204 29.8967C0.415204 29.8348 0.415204 29.773 0.415204 29.7111C0.415204 23.1132 0.415204 16.5153 0.415204 9.93797C0.415204 9.87611 0.415204 9.81426 0.415204 9.7524C2.551 9.7524 4.68679 9.7524 6.82259 9.7524C6.82259 9.77302 6.84236 9.81426 6.84236 9.83488C6.84236 9.87611 6.84236 9.91735 6.84236 9.95859C6.84236 16.5359 6.84236 23.1338 6.84236 29.7111C6.84236 29.773 6.84236 29.8348 6.84236 29.8967C4.68679 29.8967 2.551 29.8967 0.415204 29.8967Z" fill="white"/>
<path d="M3.99473 0.0204961C4.11339 0.0411146 4.23204 0.0617332 4.33092 0.0617332C5.10218 0.164826 5.77456 0.474103 6.32828 1.05142C6.86223 1.60812 7.15887 2.26791 7.23798 3.05141C7.2973 3.54626 7.27753 4.0411 7.1391 4.51533C6.88201 5.44316 6.32828 6.08233 5.51747 6.53594C5.0824 6.78336 4.62756 6.90707 4.13316 6.94831C3.59921 7.01016 3.06526 6.98954 2.53131 6.84521C1.24588 6.53594 0.316415 5.46378 0.0791038 4.24729C0.059328 4.14419 0.0593286 4.06172 0.0395527 3.95863C0.0197768 3.89677 0 3.83492 0 3.77306C0 3.56688 0 3.38131 0 3.17512C0.0197759 3.11327 0.0395527 3.07203 0.0395527 3.01018C0.118656 2.28853 0.415294 1.64936 0.889915 1.11328C1.46342 0.494722 2.17535 0.164826 2.98616 0.0411151C3.10482 0.0204966 3.22347 -0.00012207 3.32235 -0.00012207C3.57944 0.0204964 3.7772 0.0204961 3.99473 0.0204961Z" fill="white"/>
</svg>
