<svg width="58" height="42" viewBox="0 0 58 42" fill="none" xmlns="http://www.w3.org/2000/svg">
<path d="M35.8556 25.6466V20.6473L31.5028 19.3975C31.1913 18.2646 30.7357 17.186 30.1668 16.1874L32.3648 12.2446L28.8308 8.71061L24.888 10.9086C23.8894 10.3409 22.8095 9.88409 21.6779 9.57255L20.4281 5.21851H15.4288L14.179 9.57132C13.0461 9.88285 11.9662 10.3385 10.9689 10.9073L7.02484 8.70938L3.49087 12.2433L5.68883 16.1861C5.12118 17.1847 4.66435 18.2646 4.35282 19.3963L0 20.6461V25.6453L4.35282 26.8952C4.66435 28.028 5.11995 29.1079 5.68883 30.1053L3.49087 34.0481L7.02484 37.582L10.9676 35.3841C11.9662 35.9517 13.0461 36.4086 14.1777 36.7201L15.4276 41.0729H20.4268L21.6767 36.7201C22.8095 36.4086 23.8882 35.953 24.8868 35.3841L28.8296 37.582L32.3635 34.0481L30.1656 30.1053C30.7332 29.1067 31.1901 28.0268 31.5016 26.8952L35.8556 25.6466ZM17.9284 29.3517C14.5004 29.3517 11.7224 26.5726 11.7224 23.1457C11.7224 19.7176 14.5016 16.9397 17.9284 16.9397C21.3565 16.9397 24.1344 19.7189 24.1344 23.1457C24.1332 26.5738 21.3553 29.3517 17.9284 29.3517Z" fill="black"/>
<path d="M57.6394 9.32008L56.4154 6.11488L53.3186 6.37962C52.842 5.72946 52.2842 5.1495 51.6759 4.64834L52.1192 1.58228L48.9891 0.181008L46.9993 2.55628C46.2198 2.43684 45.4158 2.40852 44.6142 2.48609L42.7462 0L39.541 1.22396L39.8057 4.3208C39.1556 4.79733 38.5756 5.35513 38.0745 5.96342L35.0084 5.52013L33.6084 8.65145L35.9836 10.6413C35.8642 11.4208 35.8359 12.2248 35.9134 13.0264L33.4286 14.8932L34.6525 18.0984L37.7494 17.8336C38.2259 18.4838 38.7837 19.0637 39.392 19.5649L38.9487 22.631L42.08 24.031L44.0699 21.6557C44.8493 21.7752 45.6534 21.8035 46.455 21.7259L48.3217 24.2108L51.5269 22.9868L51.2622 19.89C51.9124 19.4134 52.4923 18.8556 52.9935 18.2474L56.0595 18.6906L57.4596 15.5593L55.0843 13.5695C55.2038 12.79 55.2321 11.9859 55.1545 11.1843L57.6394 9.32008ZM47.0522 16.0851C44.8543 16.9249 42.3928 15.8228 41.5543 13.6261C40.7145 11.4281 41.8165 8.96668 44.0133 8.12813C46.2112 7.28835 48.6727 8.39041 49.5112 10.5871C50.351 12.7851 49.2502 15.2466 47.0522 16.0851Z" fill="black"/>
</svg>
