<svg width="31" height="28" viewBox="0 0 31 28" fill="none" xmlns="http://www.w3.org/2000/svg">
<path d="M2.08877 12.1064C11.6282 7.71578 23.9721 2.36273 25.6766 1.62167C30.1461 -0.317369 31.5177 0.0538749 30.8339 4.34888C30.3426 7.43592 28.926 17.6551 27.7961 24.0162C27.126 27.7886 25.622 28.2356 23.2584 26.6035C22.1215 25.8182 16.3829 21.8473 15.1369 20.9149C14.0001 20.0653 12.432 19.043 14.3986 17.0297C15.0987 16.3129 19.6855 11.7295 23.2597 8.1627C23.7278 7.69436 23.1396 6.92474 22.5992 7.30027C17.7817 10.6429 11.1028 15.282 10.2525 15.886C8.96834 16.7984 7.73463 17.2168 5.52105 16.5514C3.8479 16.0488 2.21433 15.4491 1.57837 15.2206C-0.871309 14.3411 -0.289936 13.2016 2.08877 12.1064Z" fill="white"/>
</svg>
