<svg width="475" height="24" viewBox="0 0 475 24" fill="none" xmlns="http://www.w3.org/2000/svg">
<path d="M41.7388 23.04C38.8588 23.04 36.3388 22.48 34.1788 21.36C32.0188 20.24 30.0188 18.96 28.1788 17.52C26.4188 16.08 24.7388 14.8 23.1388 13.68C21.6188 12.56 19.9788 12 18.2188 12C15.8188 12 13.9388 12.92 12.5788 14.76C11.2188 16.52 10.4588 18.96 10.2988 22.08H0.69875C0.85875 14.88 2.49875 9.52 5.61875 6C8.73875 2.48 12.6988 0.719996 17.4988 0.719996C20.3788 0.719996 22.8988 1.32 25.0587 2.52C27.2988 3.64 29.2988 4.92 31.0588 6.36C32.8188 7.8 34.4988 9.08 36.0988 10.2C37.6988 11.32 39.3388 11.88 41.0188 11.88C43.4988 11.88 45.4188 10.96 46.7788 9.12C48.2188 7.28 48.9788 4.8 49.0588 1.68H58.5388C58.4588 8.88 56.8588 14.24 53.7388 17.76C50.6188 21.28 46.6188 23.04 41.7388 23.04ZM145.684 23.04C142.804 23.04 140.284 22.48 138.124 21.36C135.964 20.24 133.964 18.96 132.124 17.52C130.364 16.08 128.684 14.8 127.084 13.68C125.564 12.56 123.924 12 122.164 12C119.764 12 117.884 12.92 116.524 14.76C115.164 16.52 114.404 18.96 114.244 22.08H104.644C104.804 14.88 106.444 9.52 109.564 6C112.684 2.48 116.644 0.719996 121.444 0.719996C124.324 0.719996 126.844 1.32 129.004 2.52C131.244 3.64 133.244 4.92 135.004 6.36C136.764 7.8 138.444 9.08 140.044 10.2C141.644 11.32 143.284 11.88 144.964 11.88C147.444 11.88 149.364 10.96 150.724 9.12C152.164 7.28 152.924 4.8 153.004 1.68H162.484C162.404 8.88 160.804 14.24 157.684 17.76C154.564 21.28 150.564 23.04 145.684 23.04ZM249.629 23.04C246.749 23.04 244.229 22.48 242.069 21.36C239.909 20.24 237.909 18.96 236.069 17.52C234.309 16.08 232.629 14.8 231.029 13.68C229.509 12.56 227.869 12 226.109 12C223.709 12 221.829 12.92 220.469 14.76C219.109 16.52 218.349 18.96 218.189 22.08H208.589C208.749 14.88 210.389 9.52 213.509 6C216.629 2.48 220.589 0.719996 225.389 0.719996C228.269 0.719996 230.789 1.32 232.949 2.52C235.189 3.64 237.189 4.92 238.949 6.36C240.709 7.8 242.389 9.08 243.989 10.2C245.589 11.32 247.229 11.88 248.909 11.88C251.389 11.88 253.309 10.96 254.669 9.12C256.109 7.28 256.869 4.8 256.949 1.68H266.429C266.349 8.88 264.749 14.24 261.629 17.76C258.509 21.28 254.509 23.04 249.629 23.04ZM353.575 23.04C350.695 23.04 348.175 22.48 346.015 21.36C343.855 20.24 341.855 18.96 340.015 17.52C338.255 16.08 336.575 14.8 334.975 13.68C333.455 12.56 331.815 12 330.055 12C327.655 12 325.775 12.92 324.415 14.76C323.055 16.52 322.295 18.96 322.135 22.08H312.535C312.695 14.88 314.335 9.52 317.455 6C320.575 2.48 324.535 0.719996 329.335 0.719996C332.215 0.719996 334.735 1.32 336.895 2.52C339.135 3.64 341.135 4.92 342.895 6.36C344.655 7.8 346.335 9.08 347.935 10.2C349.535 11.32 351.175 11.88 352.855 11.88C355.335 11.88 357.255 10.96 358.615 9.12C360.055 7.28 360.815 4.8 360.895 1.68H370.375C370.295 8.88 368.695 14.24 365.575 17.76C362.455 21.28 358.455 23.04 353.575 23.04ZM457.52 23.04C454.64 23.04 452.12 22.48 449.96 21.36C447.8 20.24 445.8 18.96 443.96 17.52C442.2 16.08 440.52 14.8 438.92 13.68C437.4 12.56 435.76 12 434 12C431.6 12 429.72 12.92 428.36 14.76C427 16.52 426.24 18.96 426.08 22.08H416.48C416.64 14.88 418.28 9.52 421.4 6C424.52 2.48 428.48 0.719996 433.28 0.719996C436.16 0.719996 438.68 1.32 440.84 2.52C443.08 3.64 445.08 4.92 446.84 6.36C448.6 7.8 450.28 9.08 451.88 10.2C453.48 11.32 455.12 11.88 456.8 11.88C459.28 11.88 461.2 10.96 462.56 9.12C464 7.28 464.76 4.8 464.84 1.68H474.32C474.24 8.88 472.64 14.24 469.52 17.76C466.4 21.28 462.4 23.04 457.52 23.04Z" fill="black"/>
</svg>
