<svg width="475" height="24" viewBox="0 0 475 24" fill="none" xmlns="http://www.w3.org/2000/svg">
<path d="M41.7388 23.04C38.8588 23.04 36.2988 22.48 34.0588 21.36C31.8988 20.16 29.5388 18.52 26.9788 16.44C24.7388 14.76 23.0188 13.6 21.8188 12.96C20.6988 12.32 19.4988 12 18.2188 12C15.8988 12 14.0188 12.92 12.5788 14.76C11.2188 16.6 10.4588 19.04 10.2988 22.08H0.69875C0.85875 15.12 2.45875 9.84 5.49875 6.24C8.53875 2.56 12.5388 0.719996 17.4988 0.719996C20.4588 0.719996 23.0188 1.32 25.1788 2.52C27.4188 3.64 29.8588 5.28 32.4988 7.44C34.4188 8.96 35.9788 10.08 37.1788 10.8C38.4588 11.52 39.7388 11.88 41.0188 11.88C43.4188 11.88 45.2988 10.96 46.6588 9.12C48.0988 7.28 48.8988 4.8 49.0588 1.68H58.5388C58.4588 8.72 56.8988 14.04 53.8588 17.64C50.8188 21.24 46.7788 23.04 41.7388 23.04ZM145.684 23.04C142.804 23.04 140.244 22.48 138.004 21.36C135.844 20.16 133.484 18.52 130.924 16.44C128.684 14.76 126.964 13.6 125.764 12.96C124.644 12.32 123.444 12 122.164 12C119.844 12 117.964 12.92 116.524 14.76C115.164 16.6 114.404 19.04 114.244 22.08H104.644C104.804 15.12 106.404 9.84 109.444 6.24C112.484 2.56 116.484 0.719996 121.444 0.719996C124.404 0.719996 126.964 1.32 129.124 2.52C131.364 3.64 133.804 5.28 136.444 7.44C138.364 8.96 139.924 10.08 141.124 10.8C142.404 11.52 143.684 11.88 144.964 11.88C147.364 11.88 149.244 10.96 150.604 9.12C152.044 7.28 152.844 4.8 153.004 1.68H162.484C162.404 8.72 160.844 14.04 157.804 17.64C154.764 21.24 150.724 23.04 145.684 23.04ZM249.629 23.04C246.749 23.04 244.189 22.48 241.949 21.36C239.789 20.16 237.429 18.52 234.869 16.44C232.629 14.76 230.909 13.6 229.709 12.96C228.589 12.32 227.389 12 226.109 12C223.789 12 221.909 12.92 220.469 14.76C219.109 16.6 218.349 19.04 218.189 22.08H208.589C208.749 15.12 210.349 9.84 213.389 6.24C216.429 2.56 220.429 0.719996 225.389 0.719996C228.349 0.719996 230.909 1.32 233.069 2.52C235.309 3.64 237.749 5.28 240.389 7.44C242.309 8.96 243.869 10.08 245.069 10.8C246.349 11.52 247.629 11.88 248.909 11.88C251.309 11.88 253.189 10.96 254.549 9.12C255.989 7.28 256.789 4.8 256.949 1.68H266.429C266.349 8.72 264.789 14.04 261.749 17.64C258.709 21.24 254.669 23.04 249.629 23.04ZM353.575 23.04C350.695 23.04 348.135 22.48 345.895 21.36C343.735 20.16 341.375 18.52 338.815 16.44C336.575 14.76 334.855 13.6 333.655 12.96C332.535 12.32 331.335 12 330.055 12C327.735 12 325.855 12.92 324.415 14.76C323.055 16.6 322.295 19.04 322.135 22.08H312.535C312.695 15.12 314.295 9.84 317.335 6.24C320.375 2.56 324.375 0.719996 329.335 0.719996C332.295 0.719996 334.855 1.32 337.015 2.52C339.255 3.64 341.695 5.28 344.335 7.44C346.255 8.96 347.815 10.08 349.015 10.8C350.295 11.52 351.575 11.88 352.855 11.88C355.255 11.88 357.135 10.96 358.495 9.12C359.935 7.28 360.735 4.8 360.895 1.68H370.375C370.295 8.72 368.735 14.04 365.695 17.64C362.655 21.24 358.615 23.04 353.575 23.04ZM457.52 23.04C454.64 23.04 452.08 22.48 449.84 21.36C447.68 20.16 445.32 18.52 442.76 16.44C440.52 14.76 438.8 13.6 437.6 12.96C436.48 12.32 435.28 12 434 12C431.68 12 429.8 12.92 428.36 14.76C427 16.6 426.24 19.04 426.08 22.08H416.48C416.64 15.12 418.24 9.84 421.28 6.24C424.32 2.56 428.32 0.719996 433.28 0.719996C436.24 0.719996 438.8 1.32 440.96 2.52C443.2 3.64 445.64 5.28 448.28 7.44C450.2 8.96 451.76 10.08 452.96 10.8C454.24 11.52 455.52 11.88 456.8 11.88C459.2 11.88 461.08 10.96 462.44 9.12C463.88 7.28 464.68 4.8 464.84 1.68H474.32C474.24 8.72 472.68 14.04 469.64 17.64C466.6 21.24 462.56 23.04 457.52 23.04Z" fill="black"/>
</svg>
