<svg width="32" height="24" viewBox="0 0 32 24" fill="none" xmlns="http://www.w3.org/2000/svg">
<path d="M30.7258 4.40836C30.4331 2.81689 29.0611 1.66445 27.4697 1.2986C25.0916 0.786403 20.6648 0.438843 15.8904 0.438843C11.116 0.438843 6.63429 0.804696 4.23795 1.2986C2.64648 1.66445 1.27453 2.74372 0.98185 4.40836C0.579411 6.91445 0.396484 9.45714 0.396484 11.9998C0.396484 15.2559 0.689168 17.7803 1.05502 19.5913C1.3477 21.1828 2.71965 22.3352 4.31112 22.701C6.83551 23.2132 11.1892 23.5608 15.9636 23.5608C20.738 23.5608 25.0733 23.1949 27.616 22.701C29.2075 22.3352 30.5794 21.2559 30.8721 19.5913C31.2928 17.0852 31.5306 14.5425 31.6038 11.9998C31.5123 9.43885 31.2197 6.91445 30.7258 4.40836ZM11.994 17.0669V6.93275L20.8294 11.9998L11.994 17.0669Z" fill="white"/>
</svg>
